<?xml version="1.0" encoding="utf-8"?>
<!-- Generator: Adobe Illustrator 16.0.0, SVG Export Plug-In . SVG Version: 6.00 Build 0)  -->
<!DOCTYPE svg PUBLIC "-//W3C//DTD SVG 1.1//EN" "http://www.w3.org/Graphics/SVG/1.1/DTD/svg11.dtd">
<svg version="1.1" id="Layer_1" xmlns="http://www.w3.org/2000/svg" xmlns:xlink="http://www.w3.org/1999/xlink" x="0px" y="0px"
	 width="43.771px" height="43.77px" viewBox="0 0 43.771 43.77" enable-background="new 0 0 43.771 43.77" xml:space="preserve">
<g>
	<g>
		<circle fill="#FFFFFF" cx="21.885" cy="21.885" r="21.885"/>
		<circle fill="#E6E6E6" cx="21.885" cy="21.885" r="18.954"/>
	</g>
	<g>
		<defs>
			<circle id="SVGID_1_" cx="21.885" cy="21.885" r="18.954"/>
		</defs>
		<clipPath id="SVGID_2_">
			<use xlink:href="#SVGID_1_"  overflow="visible"/>
		</clipPath>
		<g clip-path="url(#SVGID_2_)">
			<path fill-rule="evenodd" clip-rule="evenodd" fill="#4D4D4D" d="M26.209,25.776c0,0.443-0.021,1.028,0.006,1.611
				c0.021,0.463,0.333,0.744,0.704,0.982c2.401,1.537,4.8,3.08,7.199,4.619c0.228,0.146,0.457,0.289,0.682,0.439
				c0.336,0.223,0.52,0.533,0.521,0.941c0.002,0.66-0.006,1.321,0,1.982c0.022,2.497-9.462,4.949-13.675,4.949
				c-4.272,0-13.613-2.791-13.708-6.707c-0.015-0.561,0.206-0.962,0.688-1.27c2.558-1.627,5.098-3.281,7.66-4.902
				c0.57-0.361,0.854-0.814,0.8-1.486c-0.015-0.164-0.014-0.33,0-0.494c0.036-0.492,0.014-0.848-0.607-1.062
				c-0.709-0.248-1.04-0.981-1.301-1.651c-0.199-0.508-0.359-1.068-0.367-1.608c-0.029-2.071-0.062-4.147,0.034-6.215
				c0.176-3.787,3.82-6.745,7.581-6.232c2.992,0.409,5.216,2.398,5.882,5.301c0.113,0.491,0.15,1.01,0.155,1.516
				c0.017,1.848,0.002,3.695,0.009,5.542c0.004,1.087-0.39,2.035-1.062,2.851C27.132,25.222,26.691,25.427,26.209,25.776z"/>
		</g>
	</g>
</g>
</svg>
