<?xml version="1.0" encoding="utf-8"?>
<!-- Generator: Adobe Illustrator 16.0.0, SVG Export Plug-In . SVG Version: 6.00 Build 0)  -->
<!DOCTYPE svg PUBLIC "-//W3C//DTD SVG 1.1//EN" "http://www.w3.org/Graphics/SVG/1.1/DTD/svg11.dtd">
<svg version="1.1" id="Layer_1" xmlns="http://www.w3.org/2000/svg" xmlns:xlink="http://www.w3.org/1999/xlink" x="0px" y="0px"
	 width="14.371px" height="76.676px" viewBox="0 0 14.371 76.676" enable-background="new 0 0 14.371 76.676" xml:space="preserve">
<path d="M1.728,65.104c-0.246-0.016-0.443-0.047-0.639-0.041c-0.728,0.023-0.995-0.333-0.99-1.043
	c0.02-2.575,0.008-5.149,0.005-7.721c-0.01-8.101-0.02-16.201-0.034-24.301C0.054,22.596,0.045,13.193,0,3.792
	C-0.005,2.73,0.413,2.011,1.255,1.465c0.213-0.138,0.417-0.305,0.65-0.396c3.616-1.421,7.219-1.493,10.77,0.199
	c1.104,0.527,1.613,1.413,1.613,2.727c0.002,16.482,0.05,32.966,0.08,49.448c0.008,3.537-0.006,7.077-0.015,10.616
	c-0.002,0.94-0.194,1.168-1.159,1.113c-0.68-0.037-0.912,0.237-1.092,0.848c-0.945,3.226-1.953,6.435-2.9,9.662
	c-0.191,0.651-0.518,0.908-1.189,0.942c-3.021,0.15-3.019,0.166-3.822-2.711C3.377,70.997,2.561,68.083,1.728,65.104 M1.555,50.118
	c0.195-0.299,0.294-0.396,0.331-0.515c0.552-1.771,1.275-3.512,1.61-5.325c1.143-6.192,1.17-12.445,0.458-18.685
	c-0.265-2.321-0.843-4.61-1.356-6.896c-0.168-0.748-0.582-1.44-0.884-2.157c-0.075,0.018-0.151,0.036-0.227,0.054
	C1.51,27.695,1.532,38.798,1.555,50.118 M12.768,8.665c0.142-1.816,0.291-2.104-1.446-2.777C8.572,4.82,5.721,4.879,2.941,5.862
	c-1.5,0.531-1.767,1.239-1.362,2.768C5.288,7.153,8.986,7.137,12.768,8.665 M12.738,4.842c0.258-1.585,0.051-2.102-1.381-2.624
	C8.547,1.193,5.693,1.182,2.884,2.22c-1.407,0.519-1.661,1.16-1.317,2.6C5.28,3.33,8.979,3.329,12.738,4.842 M12.781,60.84
	c0.301-1.019-0.047-1.668-0.927-2.048c-3.073-1.325-6.177-1.393-9.296-0.172C1.644,58.979,1.39,59.68,1.656,60.6
	C4.837,59.092,10.006,59.348,12.781,60.84 M1.664,57.43c1.827-0.967,3.743-1.099,5.678-1.071c1.917,0.028,3.782,0.344,5.5,1.268
	c0.296-1.092-0.3-1.584-1.058-1.948c-2.037-0.983-4.215-1.052-6.397-0.819c-0.938,0.1-1.868,0.418-2.763,0.745
	C1.87,55.876,1.422,56.444,1.664,57.43 M1.679,63.739c1.776-0.795,3.595-1.59,5.565-1.302c1.895,0.275,3.762,0.748,5.623,1.128
	c-0.02-0.806-0.299-1.203-1.287-1.669c-1.686-0.797-3.502-0.983-5.309-0.813c-1.324,0.125-2.633,0.525-3.919,0.906
	C1.638,62.2,1.384,62.799,1.679,63.739 M1.532,11.521c3.772-1.515,7.489-1.512,11.217,0.002c0.193-0.688-0.051-1.255-0.732-1.471
	C10.768,9.657,9.505,9.187,8.216,9.06C6.191,8.858,4.15,8.95,2.291,10.009C1.682,10.355,1.348,10.799,1.532,11.521"/>
</svg>
