<?xml version="1.0" encoding="utf-8"?>
<!-- Generator: Adobe Illustrator 16.0.0, SVG Export Plug-In . SVG Version: 6.00 Build 0)  -->
<!DOCTYPE svg PUBLIC "-//W3C//DTD SVG 1.1//EN" "http://www.w3.org/Graphics/SVG/1.1/DTD/svg11.dtd">
<svg version="1.1" id="Layer_1" xmlns="http://www.w3.org/2000/svg" xmlns:xlink="http://www.w3.org/1999/xlink" x="0px" y="0px"
	 width="100.824px" height="169.628px" viewBox="0 0 100.824 169.628" enable-background="new 0 0 100.824 169.628"
	 xml:space="preserve">
<g>
	<path fill="#1D1D1B" d="M0.421,71.549c-0.238,0.324-0.114,0.236-0.142,0.29C0.662,71.287,0.401,71.557,0.421,71.549"/>
	<polygon fill="#1D1D1B" points="4.198,66.104 4.146,66.212 4.676,65.391 	"/>
	<path fill="#1D1D1B" d="M7.816,61.075c-0.41,0.426-1.3,1.831-1.968,2.709l-0.122,0.137L5.49,64.365
		C6.264,63.269,7.246,61.828,7.816,61.075"/>
	<path fill="#1D1D1B" d="M9.892,58.499c-0.146,0.146,0.394-0.598-0.458,0.62c0.045-0.057,0.06-0.075,0.088-0.109
		C9.601,58.901,9.708,58.753,9.892,58.499"/>
	<path fill="#1D1D1B" d="M9.521,59.01C9.143,59.541,9.793,58.679,9.521,59.01"/>
	<path fill="#1D1D1B" d="M11.266,56.553l-0.479,0.714c0.121-0.134,0.571-0.752,0.417-0.514
		C11.705,56.027,11.584,56.164,11.266,56.553"/>
	<path fill="#1D1D1B" d="M11.692,55.854l-0.25,0.369C11.494,56.165,11.565,56.07,11.692,55.854"/>
	<path fill="#1D1D1B" d="M10.911,57.006l0.53-0.782c-0.083,0.093-0.113,0.088-0.245,0.357C11.221,56.505,11.131,56.67,10.911,57.006
		"/>
	<path fill="#1D1D1B" d="M10.589,57.433c-0.296,0.38-0.669,0.88-0.189,0.162C9.45,58.937,9.639,58.773,10.589,57.433"/>
	<path fill="#1D1D1B" d="M7.93,60.768l-0.396,0.509l-0.303,0.469C7.383,61.512,7.975,60.751,7.93,60.768"/>
	<path fill="#1D1D1B" d="M14.426,52.23c0.017-0.054-0.207,0.207-0.263,0.246l-0.354,0.527C14.009,52.746,14.38,52.251,14.426,52.23"
		/>
	<path fill="#1D1D1B" d="M14.164,52.477l0.53-0.79C14.194,52.373,14.116,52.509,14.164,52.477"/>
	<polygon fill="#1D1D1B" points="11.706,55.676 10.848,56.98 11.88,55.432 	"/>
	<polygon fill="#1D1D1B" points="16.547,49.286 16.265,49.748 16.775,48.932 	"/>
	<path fill="#1D1D1B" d="M17.945,47.328c-0.204,0.344,0.366-0.41,0.137-0.055c0.377-0.535,0.679-1.005,0.951-1.428
		C18.733,46.287,18.398,46.747,17.945,47.328"/>
	<path fill="#1D1D1B" d="M19.494,45.138c-0.139,0.212-0.293,0.449-0.461,0.707C19.179,45.621,19.325,45.396,19.494,45.138"/>
	<path fill="#1D1D1B" d="M15.645,50.379c0.052-0.053,0.157-0.152,0.478-0.577l-0.259,0.272
		C15.797,50.168,15.721,50.272,15.645,50.379"/>
	<path fill="#1D1D1B" d="M15.854,50.085l0.009-0.01c0.238-0.328,0.403-0.557,0.474-0.653C16.276,49.505,16.131,49.705,15.854,50.085
		"/>
	<path fill="#1D1D1B" d="M15.589,50.455c0.02-0.028,0.035-0.049,0.055-0.076C15.62,50.405,15.605,50.422,15.589,50.455"/>
	<path fill="#1D1D1B" d="M13.196,53.681c0.303-0.469,0.958-1.432,0.266-0.542C13.256,53.483,13.652,52.975,13.196,53.681"/>
	<path fill="#1D1D1B" d="M15.268,50.795l-0.598,0.812c0.022-0.008,0.144-0.144-0.006,0.088L15.268,50.795z"/>
	<polygon fill="#1D1D1B" points="15.268,50.794 15.489,50.493 15.543,50.385 	"/>
	<path fill="#1D1D1B" d="M18.447,46.513c0.237-0.366,0.514-0.755,0.825-1.193c-0.345,0.47-0.695,0.949-1.028,1.404
		C18.21,46.798,18.088,47.016,18.447,46.513"/>
	<path fill="#1D1D1B" d="M17.183,48.246c0.018-0.025,0.038-0.056,0.055-0.08C17.199,48.213,17.17,48.249,17.183,48.246"/>
	<polygon fill="#1D1D1B" points="22.311,41.079 22.305,41.1 22.367,41.015 	"/>
	<path fill="#1D1D1B" d="M18.18,46.797c-0.261,0.347-0.403,0.564-0.534,0.773c0.189-0.268,0.386-0.546,0.598-0.847
		C18.258,46.69,18.258,46.682,18.18,46.797"/>
	<path fill="#1D1D1B" d="M20.338,43.923c-0.143,0.186-0.299,0.385-0.461,0.594C20.019,44.347,20.303,43.995,20.338,43.923"/>
	<path fill="#1D1D1B" d="M17.334,48.056l-0.036,0.054C17.39,48,17.375,48.012,17.334,48.056"/>
	<path fill="#1D1D1B" d="M17.334,48.056c0.112-0.175,0.212-0.331,0.311-0.485c-0.147,0.215-0.283,0.415-0.407,0.596
		C17.269,48.131,17.304,48.09,17.334,48.056"/>
	<path fill="#1D1D1B" d="M23.043,39.522c-0.007,0.09-0.638,1.04-1.253,1.812c-0.538,0.807-0.044,0.381,0.52-0.255
		c0.001-0.037-0.015-0.049,0.545-0.873c-0.224,0.269-1.339,1.761-0.883,1.054c0.752-1.086,0.646-0.869,1.041-1.376
		c-0.366,0.41,0.912-1.413,0.674-1.23l-0.651,0.959C23.013,39.622,23.24,39.269,23.043,39.522"/>
	<path fill="#1D1D1B" d="M21.197,42.618l-0.235,0.336c0.28-0.374,0.491-0.635,0.88-1.115c0.38-0.566,0.449-0.691,0.464-0.739
		l-1.185,1.637L21.197,42.618z"/>
	<path fill="#1D1D1B" d="M19.887,44.45c0.146-0.29,0.704-1.102,0.307-0.644c-0.7,0.979-0.458,0.709-0.86,1.306
		c1.124-1.585-0.303,0.47,0.54-0.653c-0.223,0.318-0.417,0.597-0.602,0.86c0.209-0.277,0.411-0.545,0.605-0.802l-0.028,0.034
		l-0.006,0.007l0.001-0.002c-0.054,0.063-0.073,0.084-0.015,0.01c0.005-0.008,0.017-0.025,0.023-0.033
		C19.854,44.519,19.87,44.485,19.887,44.45c0.337-0.45,0.062-0.063-0.035,0.083c-0.002,0.007-0.009,0.021-0.008,0.023l0.005-0.005
		l1.113-1.598C20.719,43.293,20.421,43.707,19.887,44.45"/>
	<path fill="#1D1D1B" d="M13.979,52.231c0.039-0.047,0.04-0.042,0.046-0.044C14.093,52.083,14.118,52.042,13.979,52.231"/>
	<path fill="#1D1D1B" d="M14.472,51.6c-0.077,0.119-0.129,0.227-0.402,0.597c-0.245,0.315-0.019-0.016-0.044-0.008
		c-0.151,0.233-0.537,0.81-0.01,0.117l0.075-0.116c0.472-0.626,1.111-1.406,1.036-1.291C14.957,51.058,14.812,51.202,14.472,51.6"/>
	<path fill="#1D1D1B" d="M17.202,47.973l0.926-1.331l-0.517,0.645l0.046-0.019C17.11,48.01,17.252,47.867,17.202,47.973"/>
	<polygon fill="#1D1D1B" points="22.496,40.879 22.414,41.084 22.899,40.28 	"/>
	<polygon fill="#1D1D1B" points="23.721,39.165 23.713,39.256 24.014,38.787 	"/>
	<path fill="#1D1D1B" d="M91.89,59.23l0.268,0.394C92.032,59.442,91.952,59.322,91.89,59.23"/>
	<path fill="#1D1D1B" d="M90.034,56.324l-0.062-0.06C90.067,56.394,90.11,56.443,90.034,56.324"/>
	<path fill="#1D1D1B" d="M53.63,4.145c0.4,0.567,0.832,1.214,0.82,1.115l-0.094-0.197C54.048,4.69,53.819,4.397,53.63,4.145"/>
	<path fill="#1D1D1B" d="M74.552,32.692l-0.1-0.178c-0.107-0.13-0.209-0.252-0.299-0.364C74.274,32.314,74.409,32.499,74.552,32.692
		"/>
	<path fill="#1D1D1B" d="M74.999,32.984l0.479,0.779C75.362,33.576,75.21,33.328,74.999,32.984"/>
	<path fill="#1D1D1B" d="M93.966,70.862l-0.555,0.058C94.28,70.91,93.897,70.888,93.966,70.862"/>
	<path fill="#1D1D1B" d="M36.297,21.641c0.371-0.493,0.651-0.867,0.897-1.194C36.749,21.014,36.374,21.461,36.297,21.641"/>
	<path fill="#1D1D1B" d="M90.704,58.38c0.164,0.24,0.24,0.34,0.244,0.326C90.78,58.459,90.681,58.321,90.704,58.38"/>
	<path fill="#1D1D1B" d="M38.203,19.042c-0.067,0.087-0.128,0.165-0.194,0.25c-0.256,0.362-0.508,0.72-0.815,1.154
		C37.523,20.026,37.89,19.539,38.203,19.042"/>
	<path fill="#1D1D1B" d="M25.685,71.627c-0.051-0.001-0.106-0.003-0.154-0.004C25.516,71.631,25.584,71.631,25.685,71.627"/>
	<path fill="#1D1D1B" d="M5.784,71.349c0.198-0.003,0.516-0.009,0.817-0.014C6.451,71.338,6.211,71.342,5.784,71.349"/>
	<path fill="#1D1D1B" d="M28.685,32.298C28.427,32.663,28.648,32.358,28.685,32.298"/>
	<path fill="#1D1D1B" d="M27.253,33.944c0.051-0.08,0.087-0.144,0.084-0.159C27.326,33.822,27.295,33.877,27.253,33.944"/>
	<path fill="#1D1D1B" d="M40.543,15.244l0.023-0.03C40.48,15.315,40.495,15.298,40.543,15.244"/>
	<path fill="#1D1D1B" d="M28.274,32.83c0.105-0.138,0.221-0.291,0.346-0.455C28.561,32.452,28.456,32.59,28.274,32.83"/>
	<path fill="#1D1D1B" d="M28.346,32.771c-0.092,0.124-0.163,0.221-0.232,0.313C28.088,33.135,28.122,33.098,28.346,32.771"/>
	<path fill="#1D1D1B" d="M29.046,31.791c-0.15,0.206-0.29,0.397-0.426,0.584c0.054-0.069,0.077-0.097,0.065-0.077
		C28.761,32.191,28.868,32.041,29.046,31.791"/>
	<path fill="#1D1D1B" d="M62.269,71.059c-0.029-0.001-0.061-0.002-0.096-0.003C61.724,71.081,61.921,71.075,62.269,71.059"/>
	<path fill="#1D1D1B" d="M61.161,13.013l-0.033-0.04c0.014,0.018,0.027,0.039,0.039,0.055L61.161,13.013z"/>
	<path fill="#1D1D1B" d="M62.147,14.279c-0.459-0.511-0.684-0.828-0.98-1.252l0.197,0.514L62.147,14.279z"/>
	<path fill="#1D1D1B" d="M57.497,70.733l0.293,0.011C57.126,70.769,57.312,70.752,57.497,70.733 M30.603,29.508
		c-0.082,0.128-0.069,0.124-0.025,0.077c0.05-0.094,0.247-0.37,0.476-0.681C30.979,28.982,30.857,29.134,30.603,29.508
		 M31.506,28.295l0.018-0.029C31.967,27.688,31.809,27.893,31.506,28.295 M73.272,30.566c0.15,0.191,0.348,0.51,0.566,0.874
		C73.663,31.188,73.474,30.896,73.272,30.566 M87.249,52.013c0.186,0.269,0.566,0.797,0.666,1.016
		C87.661,52.75,87.532,52.491,87.249,52.013 M96.409,66.135l-0.58-0.967c0.809,1.095,1.326,1.933,0.801,1.012
		c-0.221-0.045-2.412-3.651-2.631-3.696l-0.379-0.64c0.117,0.176,0.139,0.207,0.256,0.379c-0.725-1.251-0.691-0.828-1.678-2.407
		c-0.338-0.554-0.562-0.947-0.309-0.585l-0.812-1.196c-0.223-0.356-0.145-0.284,0.078,0.07l-1.199-1.851l0.016,0.011
		c-0.205-0.28-0.613-0.845-0.811-1.113c-0.281-0.485,0.166,0.227,0.105,0.095l-0.689-1.007c-0.232-0.441,0.346,0.389,0.795,1.103
		c-0.48-1.046-0.58-0.832-1.826-2.954l0.639,0.96c-0.324-0.675-0.838-1.412-1.488-2.544c0.141,0.278,1.281,2.276,0.535,1.182
		c-0.191-0.321-0.449-0.74-0.859-1.325c0.043-0.037-0.342-0.618-0.812-1.354l0.094,0.011c-0.523-0.785-0.516-0.701-0.842-1.152
		c-0.559-0.892-0.627-1.106-0.719-1.342c-0.895-1.429,0.547,1.031-0.537-0.644c-0.729-1.198-1.279-2.014-2.219-3.401
		c-0.51-0.839,0.131,0.12-0.041-0.188l-0.521-0.699c-0.115-0.179-0.061-0.131-0.035-0.106c-0.416-0.604-0.096-0.01-0.736-0.968
		c-0.238-0.216-1.18-2.055-2.029-3.201c-0.172-0.307,0.131,0.117,0.096,0.011c-1.109-1.611-0.945-1.385-1.883-2.689l-0.709-1.173
		c0.51,0.868-0.258-0.165-0.926-1.071c0.18,0.317,0.334,0.59,0.426,0.755l-1.025-1.474c-0.109-0.187,0.012-0.051,0.201,0.178
		c-0.072-0.098-0.141-0.189-0.197-0.265c-0.332-0.55-0.111-0.297,0.178,0.063l0.318,0.563c0.283,0.346,0.557,0.663,0.541,0.562
		c-0.08-0.112-0.205-0.288-0.342-0.48c0.074,0.091,0.125,0.146,0.102,0.098c-0.027-0.056-0.145-0.202-0.324-0.437l-0.154-0.386
		l-0.084-0.065l-1.256-1.985c-1.006-1.35-1.896-2.514-3.43-4.694c0.43,0.508,0.164,0.061,0.244,0.049
		c0.363,0.634,1.178,1.698,1.936,2.855c-0.395-0.606-0.277-0.492-0.164-0.346l-1.424-2.016c0.082,0.012-0.264-0.455-0.611-0.998
		c0.182,0.466-1.115-1.464-1.717-2.267c-0.004-0.074,0.168,0.101,0.859,1.11c-0.699-1.158-1.111-1.354-1.807-2.484
		c0.172,0.245,0.258,0.381,0.342,0.466c-0.428-0.552-1.381-1.969-1.123-1.66l0.172,0.245c-0.562-0.817-1.42-2.062-2.184-3.113
		c-0.785-1.034-1.457-1.893-1.584-1.982c-0.002-0.022,0.252,0.139,0.34,0.223l-2.381-2.643c0.256,0.198-0.295-0.886,0.727,0.407
		c-0.273-0.387-0.611-0.865-1.229-1.647c0.184,0.267,0.379,0.72,0.111,0.372c-0.645-1.029-0.459-0.706-1.283-1.952
		c0.273,0.4-0.152,0.05-0.604-0.566c0.086,0.084,0.066-0.132,0.244,0.084c0,0-0.312-0.359-0.625-0.719
		c-0.324-0.35-0.646-0.7-0.646-0.7c0.316,0.355,0.141-0.004-0.096-0.357c0.102,0.169-1.027-1.284-1.355-1.672l0.48,0.647
		C54.8,4.775,54.655,4.924,53.331,3.26c0.182,0.184,0.527,0.392-0.137-0.465c-0.188-0.18-0.623-0.6-1.102-1.061
		c-0.262-0.271-0.537-0.55-0.802-0.822l-0.162-0.165c-0.048,0.06-0.093,0.148-0.137,0.214c-0.115,0.178-0.226,0.349-0.335,0.516
		l-0.242,0.271l-0.807,1.198c0.252-0.431,0.684-1.166,1.128-1.924l0.206-0.335l0.113-0.182l0.059-0.094
		c0.021,0.01,0.043,0.042,0.065,0.063c0.181,0.197,0.361,0.392,0.531,0.577c0.311,0.337,0.594,0.645,0.818,0.889
		c-0.486-0.656-0.086-0.181-0.879-1.163c-0.098-0.139-0.107-0.163-0.057-0.108c0.061,0.067,0.143,0.159,0.24,0.271
		c0.176,0.21,0.4,0.479,0.512,0.611c0,0-0.535-0.676-1.071-1.353L51.132,0.02c-0.048-0.074-0.09,0.085-0.135,0.114
		c-0.088,0.122-0.175,0.242-0.259,0.358C50.603,0.678,50.476,0.852,50.368,1c-0.155,0.211-0.258,0.353-0.258,0.353
		c0.137-0.056-1.185,1.783-1.069,1.735l1.84-2.7c-0.063,0.224-0.957,1.717-2.145,3.345c-0.321,0.391,0.106-0.389,0.06-0.37
		c-0.128,0.225-1.057,1.558-1.178,1.694l0.456-0.707c-0.668,0.879-0.966,1.523-1.802,2.557c-0.271,0.369-0.88,1.051-0.889,1.143
		c0.509-0.554,0.821-0.51,0.585-0.065c-0.099,0.126-1.473,1.901-1.815,2.3c-0.497,0.571,0.525-1.019,0.101-0.532
		c0.001,0.035-0.221,0.389-0.315,0.535c-0.296,0.38,0.062-0.201-0.54,0.653c-0.037,0.188-1.246,1.722-0.234,0.44
		c-0.578,0.843-0.647,0.872-1.345,1.85c0.265-0.28-0.486,0.977-1.065,1.821c0.019-0.061-0.137,0.11-0.212,0.193
		c-1.233,1.685-1.907,2.604-3.056,4.175c-0.121,0.135-0.69,0.887-0.484,0.54c-0.152,0.237-0.281,0.462-0.631,0.952
		c-0.737,0.907,0.775-1.097,0.189-0.424c-0.007,0.089-0.858,1.304-1.335,2.017c0.213-0.172,1.169-1.602,1.647-2.316
		c0.083,0.055-0.706,1.33-1.861,3.015c-0.927,1.332-0.463,0.534-0.616,0.771c-1.793,2.466-1.375,2.209-2.911,4.224
		c-0.638,0.777-0.129-0.037-0.296,0.117c0.753-1.087,1.218-1.624,1.739-2.354l-0.669,0.878c0.229-0.353,0.731-1.079,1.027-1.459
		c-0.538,0.651-3.015,4.175-4.431,6.053c-0.226,0.353-0.63,0.95-0.41,0.688l0.427-0.609c0.441-0.525-0.76,1.179-0.191,0.428
		c-0.553,0.832-1.161,1.772-2.004,2.896l-0.213,0.173c0.035-0.013,0.571-0.721,0.784-1.055c-0.317,0.495-1.337,1.693-1.636,2.269
		l0.616-0.771c-0.556,0.835-1.217,1.885-1.962,2.883c0.389-0.418,0.161-0.237,0.745-0.907c-0.532,0.562,1.864-2.584,1.056-1.646
		c0.608-0.682,0.95-1.252,1.71-2.168c-0.041,0.016-0.282,0.314,0.338-0.527c0.031-0.054,0.083-0.143,0.117-0.199
		c0.018-0.024,0.025-0.033,0.042-0.056l-0.036,0.045c0.024-0.039,0.025-0.042-0.013,0.018c-0.154,0.195-0.282,0.353-0.341,0.41
		c0.259-0.451,1.231-1.801,1.536-2.274c0.372-0.497-0.129,0.227,0.089-0.033l0.457-0.706c0.091-0.037,1.033-1.287,0.204-0.083
		l0.77-1.067c0.477-0.61,1.108-1.469,1.473-2.015c0.371-0.497,0.868-1.307,0.585-0.844l1.178-1.693l0.022-0.008
		c1.194-1.649,2.375-3.453,3.811-5.287c0.389-0.563,0.789-1.147,1.471-2.07l0.167-0.154c0.501-0.725,1.579-2.119,1.761-2.453
		c0.654-0.699,2.515-3.452,3.436-4.695L44.83,9.837c0.607-0.865,1.193-1.698,1.959-2.789l-0.09,0.035
		c0.63-0.951,1.74-2.356,2.789-3.824c-0.055,0.111-0.327,0.479-0.525,0.735c0.677-0.84,1.322-1.775,1.95-2.692l0.141-0.212
		c0.033-0.021,0.064-0.168,0.103-0.091c0.117,0.138,0.233,0.274,0.344,0.406c0.336,0.412,0.656,0.815,0.943,1.21
		c0.32,0.368,0.535,0.646,0.738,0.921c-0.029-0.034-0.053-0.064-0.078-0.093c0.031,0.04,0.078,0.097,0.125,0.156
		c0.127,0.174,0.262,0.355,0.4,0.545c-0.125-0.176-0.24-0.333-0.332-0.461c0.234,0.286,0.594,0.72,0.955,1.157l0.104,0.222
		c0.029,0.034,0.051,0.062,0.082,0.099c0.326,0.44,0.297,0.327,0.148,0.073c0.178,0.201,0.342,0.389,0.486,0.553
		c0.207,0.404,0.941,1.123,1.244,1.656c0.279,0.257,1.777,2.169,2.014,2.361c0,0.023,0.094,0.159-0.086-0.082
		c0.359,0.507,0.721,1.014,1.076,1.443l0.1,0.256l0.887,1.032c0.457,0.689,0.639,0.978,0.107,0.354
		c1.264,1.584,0.947,1.186,2.053,2.57L62.38,15.34c0.359,0.481,0.982,1.217,1.168,1.531c0.9,1.316,3.725,5.438,5.713,8.339
		c-0.268-0.629,0.863,1.354,1.016,1.415c0.084,0.187,0.336,0.597,0.004,0.147c1,1.449,1.42,2.233,2.168,3.197
		c0.084,0.187-0.248-0.288-0.166-0.128c0.084,0.114,0.334,0.451,0.42,0.614c0.082,0.16-0.166-0.2-0.332-0.424
		c1,1.496,1.184,1.593,1.334,1.649c0.469,0.785,0.725,1.161,1.141,1.676c0.15,0.281,0.416,0.74-0.211-0.186
		c0.355,0.521,2.066,3.241,2.162,3.257c0.09,0.177,0.471,0.743,0.568,0.877c0.764,1.189,0.828,1.292,1.578,2.46l-0.197-0.328
		c0.371,0.41,0.641,0.958,1.254,1.892l-0.023-0.022c1.33,2.192,0.631,0.91,1.926,3.084l-0.027-0.146
		c0.229,0.134,1.143,1.929,1.969,3.144l-0.256-0.465c0.465,0.654,1.062,1.98,1.482,2.667c0.084,0.154-0.164-0.225-0.301-0.427
		c1.07,1.817,0.207,0.191,1.064,1.507c0.121,0.267-0.285-0.26,0.275,0.635c0.254,0.464,1.76,2.517,2.473,3.773
		c-0.145-0.285-0.291-0.567,0.123,0.035c0.611,0.937,1.531,2.611,2.156,3.409c0.07,0.125,0.092,0.174,0.088,0.183
		c0.484,0.707,1.529,2.321,1.861,2.719c0.27,0.769,2.992,4.396,2.832,4.479l1.449,2.194l-0.055-0.047
		c0.482,0.709,0.715,1.173,1.084,1.538c0.361,0.34,0.408,0.358,0.607,0.525c0.154,0.173-0.012,0.031-0.037,0.018
		c0.049,0.053,0.096,0.101,0.131,0.14c-0.34-0.002-0.605-0.003-0.836-0.004c-0.359,0.006-0.658,0.01-0.957,0.015
		c-0.561,0.027-1.135,0.054-2.131,0.101l-0.215-0.055c-0.559,0.04-3.551-0.05-5.959,0.047c0.023-0.007,0.074-0.019,0.264-0.029
		c-2.709,0.101-6.488-0.085-7.48,0.14l-1.787,0.073c2.312-0.012-0.346,0.096,0.607,0.119c-0.91,0.024-2.352-0.035-1.234-0.06
		l0.174,0.009c0.412-0.116-2.875-0.006-2.812-0.081c-4.549,0.032-8.996,0.065-13.256,0.097l0.492,0.079l-1.486,0.013
		c-0.391-0.016-0.525-0.061,0.535-0.07c-0.277-0.021-0.723-0.005-1.102,0.018c-0.379,0.023-0.693,0.055-0.707,0.063
		c-2.078-0.01,0.811-0.109,0.174-0.104l-0.865,0.018l0.195,0.008c-0.701,0.043-0.764,0.081-2.039,0.092
		c-0.807-0.008-0.414-0.048-0.73-0.048c0,0-0.107-0.008-0.488,0.003l-1.875,0.016l0.75,0.059c-0.83,0.043-1.762,0.017-0.896,0.084
		c-1.27-0.103-6.992,0.04-7.771,0.013c-1.163,0.063-2.312,0.076-3.734,0.086c0.353,0.012,0.566,0.084-0.661,0.09
		c0.447-0.162-2.247-0.041-3.241-0.144c0.887,0.065-3.488,0.061-2.096,0.15c-1.024-0.001-0.063-0.059-0.84-0.086
		c-2.436,0.09-5.371,0.023-8.383,0.08c-0.046,0.021,0.458,0.047-0.187,0.086l-1.592-0.085c-0.594,0.017-0.546,0.126-1.633,0.066
		c0.153,0.016,0.382,0.039-0.016,0.051c-5.902-0.03-12.057,0.225-18.052,0.106c0.812,0.031,0.271,0.041-0.348,0.05
		c0.402,0.005-0.009,0.051,0.071,0.078l-2.51-0.048c-0.456,0.083-2.69,0.037-2.951,0.115l0.795-0.023
		c-1.055,0.1,1.481,0.177,1.329,0.291c1.181-0.113,3.122,0.112,5.06-0.054c0.428,0.018-0.365,0.041-0.136,0.062
		c0.492-0.053,1.085-0.07,2.187-0.062l-0.124,0.014c3.093-0.049,4.42-0.017,7.895-0.027l-0.258-0.052
		c0.747-0.002,0.904,0.015,1.254,0.024c0.856-0.094-2.097,0.02-1.318-0.082c0.992,0.101,5.266-0.062,5.937,0.06
		c1.149-0.013-0.338-0.06,0.811-0.073l0.305,0.031l0.289-0.048c0.754-0.002,1.134,0.037,1.163,0.066
		c-0.184,0.005-0.521,0.014-0.715,0.019c0.977,0.03,2.753-0.046,3.089-0.036l-1.104-0.009c3.134-0.07,6.963-0.07,9.99-0.176
		l-0.23-0.024c2.313-0.076,1.853,0.007,4.393-0.045l-0.093,0.007c0.508-0.031,1.187-0.054,1.882-0.059
		c-0.641,0.039,1.207,0.046,0.366,0.09c2.508-0.082,1.24-0.056,2.896-0.173l0.382,0.039c0.564-0.046,0.611-0.067,1.879-0.093
		c-1.039,0.049,0.811,0.056-0.354,0.119c2.662,0.063,3.951-0.143,5.173-0.019c1.221-0.135-2.305-0.039-1.619-0.073
		c-0.574-0.032,1.008-0.102,1.844-0.1c0.85-0.008,1.445,0.137,3.584,0.109c-0.207,0.007-0.23,0.007-0.439,0.014
		c0.801,0.021,1.568-0.062,2.551-0.022c0.549-0.079,1.275-0.011,1.432-0.105l-1.961,0.045c1.113-0.038,2.154-0.159,3.986-0.128
		c-0.143,0.021-0.688,0.052-1.062,0.07c0.537,0.021,1.033-0.03,1.588-0.01c-0.158,0.096-2.385,0.049-3.576,0.135
		c0.576,0.031,2.254-0.096,1.656,0.013c0.859-0.138,2.107-0.008,3.555-0.123l-0.096,0.057c0.229-0.012,0.705-0.044,1.127-0.047
		l-0.764,0.081c1.172-0.076,2.262,0.027,3.385-0.02c-2.355,0.029-0.529-0.062-1.525-0.09c2.904-0.108,1.672,0.125,4.924,0.061
		c-0.439,0.014-1.652-0.013-0.965-0.048c0.619,0.005,1.438,0.016,1.816,0.041c2.154-0.037-0.33-0.054,0.586-0.1
		c0.734,0.061,1.057-0.04,2.002-0.072l0.006,0.057c2.455,0.007,0.652-0.126,2.861-0.108l-0.934,0.091l1.152-0.035l-0.238,0.067
		c1.254-0.062,1.645-0.055,2.873-0.052c-0.287-0.036,0.16-0.104,1.246-0.119c0.742,0.025-0.414,0.06,1.127,0.033
		c-0.348,0.039-0.729,0.088-1.398,0.044c-0.121,0.017-0.295,0.042-0.414,0.059c0.799,0.029,2.006-0.015,2.564-0.021
		c-0.211-0.003-0.453-0.005-0.604-0.007l2.234-0.105c0.352,0.019,0.072,0.038-0.203,0.059c0.439-0.017,0.785-0.029,1.43-0.055
		c-0.172,0.048-0.129,0.096-1.072,0.128l2.129-0.075c0.143,0.018,1.092,0.042,0.816,0.062c1.18,0.013,2.895-0.123,4.461-0.105
		c0.08-0.011,0.244-0.021,0.576-0.031c0.73,0.001,1.432,0.002,2.154,0.004c0.367-0.004,0.736-0.008,1.129-0.012
		c0.564-0.016,1.158-0.031,1.828-0.05c0.117,0.005,0.234,0.009,0.34,0.007l-0.875-0.978c-0.49-0.482-0.469-0.432-0.469-0.432
		c0.006,0.013,0.031,0.046,0.064,0.087c0.055,0.065,0.119,0.139,0.18,0.209c0.121,0.141,0.197,0.238,0.082,0.141
		c-0.074-0.067-0.17-0.157-0.32-0.295c-0.088-0.087-0.299-0.271-0.416-0.411c-0.904-1.332-0.27-0.542-0.561-1.026
		c-0.473-0.646-1.305-1.764-2.059-3.036C95.954,65.452,96.155,65.753,96.409,66.135"/>
	<path fill="#1D1D1B" d="M74.942,32.942c0.043,0.082,0.049,0.109,0.053,0.133C75.071,33.178,75.083,33.174,74.942,32.942"/>
	<path fill="#1D1D1B" d="M94.069,70.851h-0.053c-0.027,0.003-0.043,0.008-0.051,0.012L94.069,70.851z"/>
	<path fill="#1D1D1B" d="M43.879,10.222c0.188-0.248,0.298-0.383,0.374-0.47C44.251,9.729,44.16,9.838,43.879,10.222"/>
	<path fill="#1D1D1B" d="M26.007,36.066l0.553-0.795c-0.271,0.383-0.379,0.511-0.524,0.697C26.06,35.96,26.183,35.821,26.007,36.066
		"/>
	<path fill="#1D1D1B" d="M20.817,42.684c-0.088,0.127-0.164,0.236-0.25,0.361l0.043-0.016C20.961,42.539,21.19,42.185,20.817,42.684
		"/>
	<path fill="#1D1D1B" d="M25.331,36.685c-0.084,0.034-0.425,0.536-0.814,1.092l0.07-0.097
		C24.525,37.881,24.929,37.282,25.331,36.685"/>
	<path fill="#1D1D1B" d="M24.427,37.906c-0.122,0.171-0.245,0.343-0.365,0.51C24.037,38.496,24.215,38.212,24.427,37.906"/>
	<path fill="#1D1D1B" d="M29.51,31.083c-0.197,0.254-0.068,0.2-0.191,0.336C29.16,31.746,30.513,29.635,29.51,31.083"/>
	<polygon fill="#1D1D1B" points="24.882,37.038 25.073,36.875 25.255,36.539 	"/>
	<path fill="#1D1D1B" d="M28.043,32.717l-0.645,0.87c0.017-0.007-0.058,0.107-0.154,0.248
		C27.636,33.294,28.072,32.707,28.043,32.717"/>
	<path fill="#1D1D1B" d="M27.245,33.834c-0.197,0.281-0.379,0.539-0.501,0.714C26.851,34.396,27.08,34.068,27.245,33.834"/>
	<polygon fill="#1D1D1B" points="25.733,35.825 25.93,35.572 26.38,34.955 	"/>
	<path fill="#1D1D1B" d="M34.853,23.267l0.676-0.97c0.054-0.109-0.144,0.145-0.394,0.508C34.98,23.041,34.73,23.402,34.853,23.267"
		/>
	<path fill="#1D1D1B" d="M32.633,26.076c0.197-0.252,0.22-0.262,0.341-0.398l-0.039-0.07L32.633,26.076z"/>
	<path fill="#1D1D1B" d="M34.632,23.267c0.053-0.108,0.955-1.428,0.084-0.208C34.663,23.167,33.984,24.14,34.632,23.267"/>
	<polygon fill="#1D1D1B" points="44.935,9.099 45.057,9.133 45.109,8.854 	"/>
	<path fill="#1D1D1B" d="M54.778,4.601c-0.855-1.112-0.266-0.213-1.031-1.225c-0.227-0.239,0.625,0.826,0.396,0.578
		C54.696,4.596,54.96,4.953,54.778,4.601"/>
	<path fill="#1D1D1B" d="M54.144,3.954c-0.088-0.1-0.182-0.207-0.285-0.326C54.015,3.808,54.091,3.895,54.144,3.954"/>
	<polygon fill="#1D1D1B" points="2.162,71.343 2.482,71.323 1.58,71.31 	"/>
	<path fill="#1D1D1B" d="M0.753,71.433l-0.214-0.074L0,71.435C0.203,71.428,0.598,71.418,0.753,71.433"/>
	<path fill="#1D1D1B" d="M86.034,49.818l-0.051-0.049c0.057,0.129,0.17,0.308,0.393,0.666L86.034,49.818z"/>
	<polygon fill="#1D1D1B" points="92.606,60.336 92.563,60.146 92.452,59.968 	"/>
	<path fill="#1D1D1B" d="M98.249,68.676c-0.23-0.348-0.504-0.758-0.736-1.106C98.022,68.324,98.239,68.818,98.249,68.676"/>
	<path fill="#1D1D1B" d="M99.124,168.881c-0.732-0.044-1.58-0.11-1.486-0.059l0.229,0.051
		C98.386,168.864,98.8,168.87,99.124,168.881"/>
	<path fill="#1D1D1B" d="M60.897,169.186c0.072,0.006,0.146,0.01,0.219,0.016c0.182-0.018,0.352-0.034,0.508-0.049
		C61.403,169.162,61.157,169.174,60.897,169.186"/>
	<path fill="#1D1D1B" d="M28.15,168.912c-0.314,0.009-0.449,0.02-0.44,0.031C28.034,168.935,28.217,168.925,28.15,168.912"/>
	<path fill="#1D1D1B" d="M0.888,99.943c0.002-0.055,0.004-0.114,0.006-0.167C0.886,99.761,0.886,99.834,0.888,99.943"/>
	<path fill="#1D1D1B" d="M1.402,78.471c0.001,0.214,0.002,0.557,0.004,0.882C1.405,79.191,1.404,78.932,1.402,78.471"/>
	<path fill="#1D1D1B" d="M1.024,139.434c0.001-0.032,0.003-0.064,0.005-0.103C1.007,138.845,1.011,139.059,1.024,139.434"/>
	<path fill="#1D1D1B" d="M1.406,134.284l-0.015,0.318C1.375,133.886,1.389,134.086,1.406,134.284 M100.226,82.462
		c-0.008-0.164-0.018-0.152-0.025-0.082c0.016,0.112,0.018,0.479,0.012,0.896C100.228,83.16,100.237,82.949,100.226,82.462
		 M100.2,84.094l0.002,0.037C100.181,84.916,100.19,84.638,100.2,84.094 M63.573,169.295c-0.262,0.018-0.666,0.009-1.123-0.013
		C62.78,169.278,63.157,169.279,63.573,169.295 M35.949,169.431c-0.353,0.012-1.055,0.048-1.312,0.015
		C35.038,169.382,35.348,169.412,35.949,169.431 M17.776,169.468l1.216,0.046c-1.468,0.076-2.53,0.049-1.388,0.114
		c0.172-0.16,4.727-0.018,4.895-0.177l0.803,0.033c-0.228,0.004-0.27,0.004-0.494,0.007c1.559,0.076,1.158-0.115,3.167-0.093
		c0.7,0.012,1.188,0.036,0.711,0.054l1.56-0.039c0.454,0.005,0.342,0.031-0.109,0.028l2.379-0.013l-0.018,0.005
		c0.372-0.021,1.123-0.062,1.484-0.081c0.604,0.023-0.303,0.017-0.148,0.037l1.317-0.039c0.536,0.042-0.555,0.083-1.465,0.076
		c1.23,0.159,1.093-0.04,3.748,0.052l-1.244,0.021c0.802,0.092,1.773,0.059,3.179,0.115c-0.334-0.029-2.816-0.142-1.386-0.183
		c0.403,0.013,0.934,0.018,1.705-0.014c0.007,0.057,0.761,0.043,1.703,0.039l-0.064,0.075c1.019-0.021,0.938-0.06,1.537-0.094
		c1.136,0.007,1.371,0.066,1.638,0.115c1.819,0.012-1.255-0.094,0.897-0.108c1.512,0.029,2.574-0.002,4.384-0.047
		c1.058,0.027-0.185,0.046,0.194,0.068l0.939-0.061c0.229,0.001,0.155,0.021,0.117,0.029c0.791-0.023,0.066-0.075,1.308-0.095
		c0.336-0.083,2.553,0.12,4.09,0.025c0.381,0.022-0.182,0.046-0.066,0.076c2.111-0.062,1.811-0.045,3.543-0.129l1.477,0.05
		c-1.086-0.057,0.301-0.123,1.514-0.178c-0.391-0.027-0.727-0.048-0.934-0.062l1.938-0.039c0.234,0.011,0.039,0.036-0.279,0.067
		c0.131-0.006,0.256-0.012,0.355-0.017c0.693,0.027,0.334,0.07-0.162,0.112c-0.232-0.015-0.469-0.03-0.699-0.046
		c-0.479,0.045-0.926,0.097-0.824,0.141c0.143-0.005,0.377-0.014,0.633-0.021c-0.125,0.014-0.205,0.024-0.146,0.031
		c0.066,0.008,0.268-0.008,0.584-0.027l0.441,0.083l0.107-0.033l2.533,0.054c1.814-0.085,3.393-0.209,6.27-0.243
		c-0.715,0.06-0.152,0.099-0.191,0.173c-0.787-0.078-2.229,0.032-3.721,0.017c0.777,0.009,0.605,0.044,0.408,0.055l2.66-0.07
		c-0.059,0.061,0.566,0.045,1.262,0.07c-0.525-0.118,1.982-0.079,3.064-0.115c0.066,0.039-0.191,0.079-1.514,0.07
		c1.459,0.089,1.883-0.138,3.312-0.063c-0.32,0.001-0.496-0.004-0.623,0.016c0.754-0.034,2.596-0.008,2.162,0.027l-0.32,0.001
		c2.139,0.014,6.516,0,6.836-0.1c0.02,0.014-0.281,0.12-0.41,0.141l3.818-0.336c-0.336,0.086,0.957,0.29-0.818,0.338
		c0.51,0.014,1.139,0.027,2.215-0.003c-0.348-0.013-0.867-0.124-0.391-0.132c1.303,0.095,0.904,0.05,2.512,0.132
		c-0.521-0.018,0.059-0.152,0.883-0.147c-0.129,0.019,0.068,0.133-0.234,0.146l2.053-0.132c-0.514,0.023-0.092,0.111,0.367,0.149
		c-0.213-0.026,1.771,0.002,2.318-0.013l-0.869-0.028c1.158,0.01,1.73-0.037,2.299-0.085c0.303-0.022,0.602-0.044,0.926-0.067
		c0.178-0.014,0.371-0.004,0.607-0.033c0.18-0.17,0.34-0.344,0.516-0.581c-0.16,0.222-0.281,0.697,0.428-0.312
		c0.102-0.262,0.326-0.888,0.221-1.674c-0.078-0.78-0.156-1.747-0.182-2.764l0.039-0.39l-0.045-1.559
		c0.09,0.981,0.346,3.672,0.371,5.206c0.09-0.912,0.061-0.254,0.07-1.562c0.037-0.457,0.057,0.707,0.059,1.089l0.021-3.02
		c-0.078,0.134-0.078-2.311-0.145-2.194l0.082,3.28c-0.078,0.133-0.225-1.897-0.209-4.037c0.029-0.544,0.141,0.407,0.166,0.361
		c-0.027-0.277-0.053-2.03-0.033-2.227l0.043,0.907c0.029-1.191-0.105-1.943-0.029-3.376c0.004-0.493,0.102-1.476,0.055-1.561
		c-0.09,0.806-0.369,0.964-0.438,0.425c0.006-0.173,0.088-2.594,0.131-3.157c0.072-0.814,0.168,1.221,0.23,0.527
		c-0.023-0.027-0.049-0.478-0.059-0.666c0.02-0.519,0.068,0.216,0.059-0.913c-0.08-0.188,0.006-2.294-0.068-0.531
		c-0.021-1.104,0.016-1.173,0.014-2.47c-0.053,0.412-0.176-1.161-0.199-2.267c0.02,0.065,0.047-0.184,0.059-0.304
		c0.018-2.254,0.027-3.482,0.045-5.583c0.02-0.194,0.043-1.212,0.076-0.778c-0.014-0.304-0.041-44.785-0.043-45.435
		c0.07-1.26,0.012,1.448,0.094,0.489c-0.047-0.082-0.062-1.682-0.092-2.607c-0.072,0.285-0.014,46.343,0.014,47.27
		c-0.098,0.005-0.203-45.812-0.248-48.017c-0.023-1.751,0.064-0.759,0.051-1.064c0.016-3.288-0.174-2.802-0.102-5.533
		c0.062-1.084,0.125-0.049,0.17-0.289c0.025,1.427-0.041,2.189-0.037,3.157l0.029-1.189c0.021,0.453,0.037,1.405,0.02,1.924
		c0.057-0.909,0.01-5.558,0.062-8.096c-0.021-0.451-0.043-1.229-0.068-0.861l0.01,0.804c-0.051,0.738-0.07-1.513-0.096-0.496
		c-0.035-1.077-0.092-2.284-0.062-3.802l0.072-0.284c-0.021,0.033-0.043,0.991-0.021,1.417c-0.031-0.631,0.098-2.324,0.004-3.018
		l-0.051,1.063c-0.035-1.083-0.113-2.42-0.09-3.763c-0.07,0.611,0.008,0.31-0.074,1.264c0.104-0.827-0.004,3.438,0.104,2.108
		c-0.096,0.98-0.041,1.697-0.123,2.979c0.023-0.04,0.045-0.454,0.033,0.675c0.006,0.064,0.016,0.177,0.021,0.247
		c0,0.033,0,0.047-0.002,0.077l0.004-0.062c0.002,0.048,0.004,0.052,0-0.025c0.01-0.268,0.023-0.485,0.037-0.573
		c0.055,0.56,0.053,2.354,0.08,2.961c-0.012,0.67-0.027-0.28-0.053,0.085l0.043,0.907c-0.053,0.089-0.088,1.778-0.119,0.201
		l-0.002,1.419c-0.029,0.837-0.043,1.986-0.02,2.695c-0.012,0.669,0.059,1.691,0.018,1.107l0.033,2.227l-0.014,0.021
		c-0.006,2.197,0.088,48.725-0.008,51.235c0.014,0.741,0.029,1.505,0.014,2.742l-0.045,0.241c0.016,0.949-0.045,2.852,0.002,3.259
		c-0.123,1.025-0.027,4.608-0.049,6.278l0.061,0.062c0.012,1.144,0.021,2.243,0.037,3.68l0.053-0.089
		c0.043,1.23-0.037,3.163-0.031,5.109c-0.021-0.132-0.016-0.625-0.004-0.976c-0.061,1.163-0.037,2.39-0.012,3.589
		c0.01,0.602,0.021,1.199,0.031,1.766c0,0.588,0.041,1.135-0.139,1.568c-0.129,0.459-0.332,0.767-0.559,1.024
		c0.027-0.034,0.051-0.066,0.072-0.097c-0.031,0.04-0.076,0.099-0.123,0.159l-0.232,0.235c-0.049,0.048-0.076,0.059-0.129,0.047
		c0.041,0.013,0.082,0.01,0.109-0.023c0.045-0.035,0.127-0.122,0.18-0.177c-0.049,0.057-0.164,0.18-0.186,0.2
		c-0.053,0.054-0.045,0.022-0.219,0.033c-0.279,0.006-0.58,0.01-0.887,0.016l-0.256-0.058c-0.049,0.001-0.088,0.001-0.139,0.003
		c-0.59-0.021-0.475,0.025-0.16,0.068c-0.291,0.012-0.561,0.024-0.797,0.034c-0.48-0.092-1.58,0.031-2.236-0.066
		c-0.404,0.048-3.027,0.035-3.348,0.136c-0.021-0.014-0.199-0.021,0.127-0.021c-0.672-0.011-1.342-0.021-1.945,0.005l-0.285-0.07
		l-1.467,0.096c-0.891-0.043-1.26-0.069-0.375-0.125c-2.18,0.073-1.648,0.055-3.549,0.117l0.088-0.047
		c-0.648,0.003-1.686,0.064-2.078,0.026c-1.453-0.089-7.186-0.013-10.914-0.096c0.723,0.138-1.732-0.061-1.881,0.045
		c-0.217-0.032-0.736-0.05-0.133-0.078c-1.904,0.031-2.859-0.052-4.172,0.038c-0.219-0.032,0.406-0.047,0.213-0.067
		c-0.152,0.008-0.604,0.028-0.803,0.009c-0.193-0.019,0.279-0.026,0.58-0.041c-1.943,0.006-2.141,0.105-2.281,0.199
		c-0.984-0.045-1.477-0.037-2.188,0.023c-0.344-0.03-0.914-0.062,0.293-0.074c-0.68-0.004-4.15-0.044-4.221,0.03
		c-0.213-0.019-0.949-0.006-1.127,0.004c-1.525-0.003-1.658-0.003-3.156-0.005l0.416,0.013c-0.592,0.09-1.245,0.021-2.452,0.031
		l0.035-0.01c-2.768-0.065-1.196,0.03-3.925-0.043l0.148,0.057c-0.254,0.121-2.418-0.072-4.003-0.025l0.572,0.032
		c-0.865,0.041-2.419-0.165-3.287-0.18c-0.19-0.01,0.299-0.018,0.563-0.025c-2.275-0.07-0.295,0.074-1.99,0.091
		c-0.313-0.039,0.402-0.102-0.738-0.108c-0.569-0.032-3.31,0.13-4.867,0.053c0.343,0.031,0.684,0.062-0.104,0.084
		c-1.206,0.012-3.263-0.116-4.353-0.018c-0.153-0.011-0.211-0.019-0.218-0.024c-0.922,0.024-2.998,0.041-3.554,0.094
		c-0.853-0.194-5.736,0.095-5.716-0.085l-2.837,0.01l0.074-0.019c-1.815-0.012-2.456,0.031-3.094,0.074
		c-0.419-0.012-0.113-0.03-0.078-0.039c-2.651-0.035-2.915-0.029-5.137,0.061l-0.23-0.057c-0.302,0.016-1.26-0.007-2.468-0.026
		c-0.607-0.005-1.273-0.012-1.948-0.018c-0.6,0.125-1.009-0.474-1.183-1.025c0.016,0.02,0.019,0.075,0.111,0.235
		c-0.274-0.608-0.243-1.403-0.237-2.219c0.012-0.807,0.024-1.627,0.036-2.387c0.022-1.519,0.027-2.807-0.08-3.343l-0.052-1.93
		c-0.016,2.497-0.092-0.372-0.127,0.656c-0.013-0.983,0.064-2.539,0.075-1.333l-0.011,0.189c0.111,0.443,0.039-3.103,0.115-3.037
		c0.02-4.908,0.041-9.707,0.06-14.305l-0.086,0.53l0.005-1.606c0.02-0.422,0.067-0.564,0.064,0.58
		c0.024-0.302,0.014-0.782-0.005-1.19c-0.018-0.409-0.046-0.746-0.055-0.763c0.035-2.244,0.101,0.875,0.102,0.188l-0.006-0.934
		l-0.01,0.21c-0.035-0.757-0.072-0.823-0.068-2.2c0.017-0.871,0.053-0.447,0.056-0.79c0,0,0.009-0.113,0.003-0.525l0.007-2.022
		l-0.068,0.809c-0.033-0.897,0.004-1.903-0.073-0.969c0.119-1.37,0.042-7.545,0.08-8.388c-0.05-1.256-0.049-2.494-0.043-4.03
		c-0.014,0.383-0.091,0.61-0.081-0.713c0.157,0.483,0.068-2.427,0.181-3.496c-0.075,0.956-0.018-3.766-0.125-2.265
		c0.012-1.104,0.059-0.066,0.096-0.905c-0.061-2.631,0.04-5.797,0.019-9.048c-0.02-0.051-0.052,0.494-0.083-0.202l0.103-1.718
		c-0.01-0.642-0.119-0.591-0.047-1.765c-0.018,0.166-0.044,0.414-0.05-0.017c0.1-6.369-0.083-13.015,0.106-19.482
		c-0.04,0.876-0.044,0.292-0.045-0.377c-0.01,0.435-0.052-0.01-0.079,0.076l0.077-2.708c-0.077-0.494-0.005-2.903-0.079-3.187
		l0.013,0.858c-0.087-1.141-0.195,1.596-0.307,1.429c0.1,1.277-0.148,3.367-0.005,5.461c-0.023,0.463-0.036-0.394-0.062-0.146
		c0.048,0.53,0.058,1.173,0.036,2.36l-0.012-0.134C1,86.701,0.952,88.133,0.921,91.884l0.055-0.278
		c-0.007,0.806-0.024,0.976-0.039,1.354c0.085,0.925,0.005-2.265,0.098-1.422c-0.113,1.069-0.001,5.685-0.13,6.406
		c-0.001,1.241,0.065-0.363,0.063,0.876l-0.034,0.329l0.045,0.313c-0.008,0.812-0.051,1.224-0.081,1.254
		c-0.003-0.198-0.008-0.562-0.011-0.772c-0.04,1.054,0.014,2.972,0.001,3.334l0.022-1.19c0.032,3.383-0.013,7.515,0.057,10.784
		l0.027-0.248c0.048,2.496-0.029,1.999-0.007,4.74l-0.006-0.1c0.026,0.549,0.039,1.281,0.036,2.032
		c-0.03-0.692-0.06,1.302-0.093,0.394c0.052,2.708,0.04,1.34,0.138,3.127l-0.044,0.412c0.04,0.61,0.06,0.661,0.072,2.029
		c-0.037-1.122-0.067,0.875-0.116-0.383c-0.095,2.871,0.096,4.266-0.043,5.582c0.121,1.32,0.067-2.485,0.092-1.746
		c0.04-0.618,0.091,1.089,0.078,1.989c-0.002,0.918-0.153,1.562-0.151,3.87c-0.004-0.226-0.005-0.25-0.008-0.475
		c-0.031,0.864,0.041,1.691-0.009,2.753c0.073,0.593-0.004,1.376,0.089,1.547L1,136.276c0.025,1.202,0.134,2.326,0.081,4.305
		c-0.019-0.154-0.043-0.742-0.057-1.147c-0.028,0.578,0.018,1.114-0.01,1.713c-0.093-0.171-0.02-2.572-0.092-3.859
		c-0.039,0.621,0.068,2.434-0.033,1.787c0.129,0.929-0.016,2.274,0.082,3.837l-0.056-0.103c0.009,0.248,0.036,0.76,0.034,1.215
		l-0.072-0.824c0.061,1.267-0.054,2.44-0.021,3.654c-0.001-2.542,0.068-0.57,0.108-1.645c0.075,3.135-0.146,1.802-0.119,5.312
		c-0.008-0.475,0.033-1.785,0.059-1.041c-0.011,0.668-0.033,1.55-0.062,1.96c0.012,2.326,0.057-0.356,0.092,0.633
		c-0.068,0.792,0.027,1.143,0.049,2.161l-0.057,0.007c-0.036,2.65,0.119,0.704,0.074,3.088l-0.078-1.007l0.02,1.244l-0.064-0.257
		c0.048,1.353,0.035,1.774,0.017,3.1c0.04-0.308,0.103,0.175,0.105,1.347c-0.034,0.801-0.054-0.447-0.046,1.216
		c-0.035-0.376-0.08-0.786-0.028-1.511c-0.015-0.127-0.038-0.321-0.054-0.447c-0.038,0.862-0.008,2.167-0.008,2.769
		c0.005-0.227,0.01-0.491,0.014-0.65l0.078,2.411c-0.021,0.38-0.038,0.079-0.055-0.22c0.012,0.479,0.022,0.848,0.04,1.547
		c-0.052-0.189-0.095-0.143-0.118-1.159c0,0,0.014,0.574,0.028,1.15c0.034,0.307,0.038,0.61,0.095,0.84
		c0.06,0.229,0.099,0.381,0.099,0.381c-0.007,0.086,0.123,0.399,0.244,0.649c0.153,0.24,0.286,0.42,0.166,0.285
		c0.131,0.146,0.287,0.296,0.495,0.404c0.096,0.052,0.216,0.11,0.395,0.13c0.101,0,0.206-0.002,0.312-0.003
		c0.375-0.009,0.781-0.019,1.199-0.027c0.833-0.022,1.719-0.042,2.563-0.024c0.087-0.008,0.264-0.018,0.623-0.023
		c1.587,0.011,2.993,0.066,4.875,0.004l1.067,0.083c1.474-0.021-1.445-0.105,1.009-0.136c1.737-0.026,0.648,0.069,1.257,0.093
		c0.864-0.041,2.366-0.126,3.962-0.058C18.664,169.462,18.271,169.465,17.776,169.468"/>
	<path fill="#1D1D1B" d="M97.972,169.491c0.756,0.015,0.846-0.005,0.918-0.021c0.033-0.009,0.066-0.018,0.174-0.022
		c0.082-0.001,0.184-0.003,0.332-0.005c0.066-0.038,0.131-0.111,0.211-0.182c0.068-0.062,0.115-0.111,0.18-0.181
		c0.061-0.075,0.037-0.058-0.025,0.005c-0.055,0.057-0.16,0.161-0.344,0.319c-0.094,0.034-0.213,0.009-0.301,0.016
		c-0.062-0.003-0.117-0.004-0.158-0.005c-0.082-0.005-0.105-0.01-0.014-0.016C98.03,169.43,97.552,169.413,97.972,169.491"/>
	<polygon fill="#1D1D1B" points="1.451,74.563 1.466,74.908 1.491,73.937 	"/>
	<path fill="#1D1D1B" d="M1.377,73.041l0.076-0.229l-0.068-0.584C1.387,72.448,1.395,72.874,1.377,73.041"/>
	<path fill="#1D1D1B" d="M2.093,169.245c-0.144,0.145-0.056,0.124-0.07,0.151C2.25,169.143,2.077,169.243,2.093,169.245"/>
	<polygon fill="#1D1D1B" points="4.334,166.733 4.307,166.79 4.614,166.396 	"/>
	<path fill="#1D1D1B" d="M6.508,164.454c-0.266,0.158-0.778,0.835-1.187,1.221l-0.078,0.054l-0.125,0.229
		C5.581,165.458,6.16,164.786,6.508,164.454"/>
	<path fill="#1D1D1B" d="M7.796,163.365c-0.095,0.052,0.231-0.282-0.277,0.274c0.026-0.021,0.038-0.031,0.055-0.044
		C7.621,163.546,7.685,163.48,7.796,163.365"/>
	<path fill="#1D1D1B" d="M7.574,163.596C7.347,163.837,7.743,163.457,7.574,163.596"/>
	<path fill="#1D1D1B" d="M8.616,162.475l-0.28,0.336c0.076-0.051,0.348-0.33,0.258-0.216C8.891,162.26,8.814,162.312,8.616,162.475"
		/>
	<path fill="#1D1D1B" d="M8.859,162.133l-0.148,0.172C8.745,162.281,8.787,162.239,8.859,162.133"/>
	<path fill="#1D1D1B" d="M8.399,162.669l0.313-0.364c-0.054,0.036-0.078,0.021-0.146,0.166
		C8.576,162.426,8.527,162.51,8.399,162.669"/>
	<path fill="#1D1D1B" d="M8.202,162.857c-0.182,0.164-0.409,0.386-0.127,0.048C7.507,163.519,7.634,163.471,8.202,162.857"/>
	<path fill="#1D1D1B" d="M6.556,164.277l-0.244,0.22l-0.176,0.225C6.224,164.611,6.589,164.28,6.556,164.277"/>
	<path fill="#1D1D1B" d="M10.581,160.588c0.007-0.032-0.138,0.068-0.178,0.076l-0.216,0.24
		C10.314,160.797,10.546,160.585,10.581,160.588"/>
	<path fill="#1D1D1B" d="M10.402,160.663l0.323-0.359C10.416,160.603,10.37,160.669,10.402,160.663"/>
	<polygon fill="#1D1D1B" points="8.849,162.012 8.345,162.629 8.958,161.904 	"/>
	<polygon fill="#1D1D1B" points="11.898,159.295 11.731,159.516 12.036,159.129 	"/>
	<path fill="#1D1D1B" d="M12.766,158.431c-0.12,0.168,0.239-0.154,0.101,0.011c0.233-0.237,0.414-0.456,0.578-0.655
		C13.262,157.987,13.053,158.188,12.766,158.431"/>
	<path fill="#1D1D1B" d="M13.724,157.458c-0.077,0.091-0.173,0.204-0.279,0.328C13.542,157.681,13.636,157.572,13.724,157.458"/>
	<path fill="#1D1D1B" d="M11.319,159.731c0.034-0.018,0.106-0.049,0.307-0.23l-0.17,0.098
		C11.414,159.64,11.367,159.686,11.319,159.731"/>
	<path fill="#1D1D1B" d="M11.449,159.602l0.006-0.003c0.148-0.144,0.251-0.243,0.295-0.285
		C11.712,159.349,11.622,159.437,11.449,159.602"/>
	<path fill="#1D1D1B" d="M11.284,159.765l0.034-0.033C11.302,159.741,11.293,159.748,11.284,159.765"/>
	<path fill="#1D1D1B" d="M9.785,161.156c0.182-0.22,0.584-0.655,0.145-0.284C9.809,161.039,10.06,160.827,9.785,161.156"/>
	<path fill="#1D1D1B" d="M11.072,159.887l-0.374,0.351c0.016,0.002,0.096-0.048,0.006,0.061L11.072,159.887z"/>
	<polygon fill="#1D1D1B" points="11.072,159.887 11.211,159.756 11.239,159.698 	"/>
	<path fill="#1D1D1B" d="M13.064,158.041c0.142-0.171,0.314-0.342,0.507-0.537c-0.221,0.21-0.436,0.415-0.642,0.61
		C12.911,158.155,12.841,158.265,13.064,158.041"/>
	<path fill="#1D1D1B" d="M12.276,158.797l0.033-0.036C12.284,158.778,12.266,158.794,12.276,158.797"/>
	<polygon fill="#1D1D1B" points="15.458,155.637 15.456,155.65 15.495,155.613 	"/>
	<path fill="#1D1D1B" d="M12.888,158.143c-0.164,0.147-0.25,0.25-0.328,0.349c0.119-0.122,0.24-0.245,0.37-0.377
		C12.938,158.097,12.937,158.09,12.888,158.143"/>
	<path fill="#1D1D1B" d="M14.244,156.914l-0.292,0.248C14.044,157.095,14.224,156.952,14.244,156.914"/>
	<path fill="#1D1D1B" d="M12.372,158.719l-0.022,0.023C12.409,158.7,12.399,158.702,12.372,158.719"/>
	<path fill="#1D1D1B" d="M12.372,158.719c0.06-0.072,0.124-0.151,0.187-0.228c-0.087,0.093-0.169,0.182-0.25,0.27
		C12.327,158.748,12.351,158.732,12.372,158.719"/>
	<path fill="#1D1D1B" d="M15.852,154.81c0.005,0.062-0.379,0.498-0.771,0.815c-0.327,0.37,0.01,0.253,0.377,0.012
		c-0.003-0.025-0.016-0.039,0.326-0.414c-0.144,0.107-0.844,0.747-0.569,0.417c0.463-0.488,0.405-0.374,0.655-0.586
		c-0.239,0.153,0.55-0.659,0.387-0.618l-0.4,0.436C15.839,154.869,15.978,154.704,15.852,154.81"/>
	<path fill="#1D1D1B" d="M14.765,156.312l-0.145,0.15c0.176-0.161,0.31-0.267,0.559-0.461c0.232-0.26,0.272-0.322,0.277-0.351
		l-0.737,0.716L14.765,156.312z"/>
	<path fill="#1D1D1B" d="M13.952,157.12c0.08-0.15,0.423-0.519,0.165-0.343c-0.434,0.434-0.276,0.332-0.522,0.604
		c0.697-0.703-0.182,0.219,0.347-0.261c-0.143,0.147-0.259,0.268-0.371,0.383l0.381-0.342l-0.019,0.014l-0.003,0.004v-0.001
		c-0.035,0.025-0.047,0.032-0.011,0.001l0.015-0.015C13.935,157.153,13.942,157.137,13.952,157.12
		c0.212-0.194,0.041-0.023-0.018,0.045c-0.001,0.003-0.005,0.011-0.004,0.014l0.003-0.003l0.688-0.714
		C14.463,156.616,14.284,156.792,13.952,157.12"/>
	<path fill="#1D1D1B" d="M10.229,160.425c0.025-0.018,0.027-0.015,0.031-0.014C10.301,160.361,10.316,160.341,10.229,160.425"/>
	<path fill="#1D1D1B" d="M10.542,160.161c-0.046,0.055-0.075,0.11-0.245,0.271c-0.156,0.132-0.017-0.018-0.036-0.021
		c-0.091,0.107-0.327,0.372,0.007,0.079l0.044-0.054c0.297-0.268,0.707-0.584,0.662-0.529
		C10.858,159.957,10.762,160.006,10.542,160.161"/>
	<path fill="#1D1D1B" d="M12.258,158.61l0.571-0.596l-0.331,0.263l0.034,0.004C12.19,158.604,12.285,158.556,12.258,158.61"/>
	<polygon fill="#1D1D1B" points="15.579,155.565 15.539,155.68 15.826,155.291 	"/>
	<polygon fill="#1D1D1B" points="16.34,154.809 16.345,154.869 16.526,154.651 	"/>
	<path fill="#1D1D1B" d="M59.479,112.398l0.164-0.178C59.571,112.299,59.521,112.353,59.479,112.398"/>
	<path fill="#1D1D1B" d="M58.214,113.615l-0.014,0.046C58.249,113.596,58.267,113.566,58.214,113.615"/>
	<path fill="#1D1D1B" d="M35.26,136.504c0.285-0.213,0.616-0.438,0.549-0.445l-0.113,0.038
		C35.523,136.275,35.383,136.401,35.26,136.504"/>
	<path fill="#1D1D1B" d="M48.057,123.798l-0.085,0.062c-0.05,0.071-0.096,0.138-0.138,0.199
		C47.902,123.979,47.978,123.892,48.057,123.798"/>
	<path fill="#1D1D1B" d="M48.091,123.474l0.359-0.298C48.352,123.257,48.239,123.351,48.091,123.474"/>
	<path fill="#1D1D1B" d="M66.313,105.681l0.166-0.234C66.163,105.756,66.321,105.638,66.313,105.681"/>
	<path fill="#1D1D1B" d="M24.196,147.142c0.233-0.196,0.414-0.358,0.569-0.505C24.48,146.871,24.236,147.044,24.196,147.142"/>
	<path fill="#1D1D1B" d="M59.358,113.267c0.1-0.11,0.139-0.161,0.127-0.166C59.382,113.213,59.327,113.279,59.358,113.267"/>
	<path fill="#1D1D1B" d="M25.398,146.026c-0.046,0.038-0.081,0.067-0.124,0.104c-0.155,0.16-0.312,0.319-0.509,0.508
		C24.975,146.465,25.207,146.259,25.398,146.026"/>
	<path fill="#1D1D1B" d="M90.901,81.127l0.057-0.054C90.958,81.063,90.935,81.09,90.901,81.127"/>
	<path fill="#1D1D1B" d="M98.079,73.969c-0.068,0.078-0.174,0.196-0.275,0.311C97.856,74.227,97.94,74.134,98.079,73.969"/>
	<path fill="#1D1D1B" d="M19.429,151.801C19.269,151.963,19.407,151.831,19.429,151.801"/>
	<path fill="#1D1D1B" d="M18.5,152.432c0.031-0.038,0.052-0.068,0.048-0.081C18.543,152.372,18.526,152.4,18.5,152.432"/>
	<path fill="#1D1D1B" d="M26.809,144.226l0.014-0.014C26.768,144.252,26.777,144.246,26.809,144.226"/>
	<path fill="#1D1D1B" d="M19.169,152.024c0.07-0.062,0.142-0.126,0.217-0.192C19.346,151.868,19.28,151.926,19.169,152.024"/>
	<path fill="#1D1D1B" d="M19.219,152.01c-0.058,0.054-0.102,0.095-0.145,0.135C19.059,152.172,19.081,152.157,19.219,152.01"/>
	<path fill="#1D1D1B" d="M19.653,151.577c-0.093,0.09-0.179,0.171-0.266,0.255c0.034-0.03,0.05-0.04,0.042-0.031
		C19.476,151.754,19.543,151.688,19.653,151.577"/>
	<path fill="#1D1D1B" d="M77.944,94.499c0.014-0.01,0.023-0.019,0.039-0.03C78.132,94.292,78.063,94.365,77.944,94.499"/>
	<polygon fill="#1D1D1B" points="39.162,132.024 39.145,132.045 39.171,132.022 	"/>
	<path fill="#1D1D1B" d="M39.725,131.432c-0.207,0.287-0.355,0.418-0.554,0.591l0.296-0.081L39.725,131.432z"/>
	<path fill="#1D1D1B" d="M79.929,93.049l-0.115,0.097C80.038,92.893,79.983,92.971,79.929,93.049 M20.617,150.552
		c-0.05,0.059-0.041,0.06-0.012,0.044c0.029-0.048,0.152-0.168,0.297-0.301C20.852,150.32,20.772,150.383,20.617,150.552
		 M21.187,150.034l0.011-0.014C21.48,149.779,21.38,149.864,21.187,150.034 M47.072,124.594c0.076-0.1,0.22-0.226,0.391-0.358
		C47.353,124.347,47.224,124.468,47.072,124.594 M56.353,115.448c0.109-0.124,0.324-0.38,0.434-0.44
		C56.696,115.187,56.569,115.266,56.353,115.448 M62.491,109.469l-0.445,0.366c0.445-0.535,0.824-0.865,0.393-0.537
		c0.053,0.171-1.592,1.561-1.539,1.729l-0.295,0.239c0.072-0.074,0.092-0.093,0.164-0.166c-0.582,0.455-0.314,0.462-1.01,1.104
		c-0.246,0.22-0.43,0.363-0.279,0.193l-0.502,0.539c-0.156,0.146-0.139,0.09,0.018-0.056l-0.799,0.789l0.004-0.01
		c-0.125,0.152-0.346,0.421-0.449,0.545c-0.221,0.182,0.092-0.112,0.025-0.076l-0.42,0.46c-0.211,0.146,0.131-0.24,0.445-0.534
		c-0.529,0.288-0.344,0.387-1.309,1.19l0.408-0.424c-0.336,0.198-0.641,0.54-1.158,0.96c0.133-0.089,1.055-0.819,0.598-0.322
		c-0.146,0.123-0.33,0.293-0.57,0.567c-0.041-0.038-0.287,0.22-0.605,0.53l-0.029-0.075c-0.33,0.35-0.277,0.351-0.455,0.571
		c-0.393,0.367-0.512,0.402-0.637,0.455c-0.625,0.586,0.49-0.345-0.229,0.37c-0.533,0.476-0.873,0.845-1.455,1.47
		c-0.377,0.329,0.031-0.094-0.113,0.015l-0.275,0.353c-0.08,0.073-0.068,0.036-0.061,0.017c-0.252,0.275,0.029,0.076-0.377,0.497
		c-0.057,0.169-0.951,0.749-1.408,1.32c-0.143,0.109,0.031-0.092-0.029-0.075c-0.673,0.735-0.582,0.624-1.113,1.252l-0.535,0.448
		c0.407-0.314-0.017,0.187-0.392,0.624c0.154-0.112,0.288-0.208,0.361-0.262l-0.631,0.662c-0.088,0.068-0.04-0.015,0.046-0.141
		c-0.039,0.046-0.076,0.091-0.108,0.129c-0.255,0.206-0.163,0.059-0.023-0.135c0.088-0.063,0.18-0.129,0.27-0.194
		c0.13-0.188,0.248-0.373,0.183-0.371c-0.036,0.047-0.113,0.132-0.201,0.223c0.034-0.051,0.053-0.084,0.028-0.071
		c-0.028,0.016-0.085,0.094-0.18,0.211l-0.207,0.084l-0.013,0.058l-0.9,0.791c-0.558,0.653-1.009,1.259-1.964,2.224
		c0.2-0.278-0.017-0.123-0.055-0.188c0.321-0.201,0.736-0.752,1.254-1.228c-0.27,0.249-0.236,0.167-0.177,0.094l-0.856,0.92
		c-0.021-0.062-0.224,0.152-0.477,0.362c0.26-0.087-0.62,0.703-0.964,1.083c-0.05-0.007,0.01-0.12,0.466-0.545
		c-0.557,0.412-0.544,0.715-1.084,1.128c0.11-0.107,0.173-0.158,0.202-0.215c-0.231,0.271-0.877,0.853-0.754,0.687l0.109-0.105
		c-0.738,0.688-2.218,2.128-2.257,2.304c-0.016-0.002,0.012-0.179,0.042-0.235l-1.067,1.49c0.055-0.172-0.526,0.102,0.044-0.512
		c-0.182,0.156-0.406,0.353-0.751,0.726c0.127-0.104,0.381-0.194,0.225-0.033c-0.51,0.357-0.344,0.26-0.947,0.726
		c0.19-0.157,0.086,0.13-0.197,0.395c0.03-0.056-0.116-0.073-0.023-0.181l-0.606,0.764c0.158-0.184-0.047-0.109-0.228,0.013
		c0.09-0.051-0.605,0.577-0.782,0.766l0.317-0.262c-0.802,0.741-0.65,0.882-1.436,1.627c0.076-0.111,0.117-0.347-0.291,0.023
		c-0.135,0.224-0.582,1.007-1.236,1.709l-0.159,0.101l-0.499,0.542c0.259-0.392,1.036-1.438,1.485-1.982
		c-0.316,0.261-0.114,0.046-0.553,0.472c-0.181,0.124,0.203-0.271,0.331-0.396l-1.043,0.971c0.1,0.012-0.73,0.812-0.645,0.822
		l1.058-1.132c0.099,0.012-0.489,0.781-1.226,1.472c-0.207,0.156,0.041-0.234,0.007-0.239c-0.075,0.11-0.653,0.703-0.733,0.753
		l0.278-0.326c-0.425,0.367-0.587,0.712-1.125,1.126c-0.172,0.157-0.572,0.409-0.569,0.471c0.336-0.199,0.584-0.05,0.448,0.175
		c-0.063,0.053-0.941,0.787-1.163,0.94c-0.326,0.215,0.297-0.521,0.02-0.34c0.005,0.025-0.129,0.192-0.187,0.261
		c-0.189,0.156,0.027-0.119-0.349,0.258c-0.009,0.119-0.784,0.746-0.135,0.222c-0.358,0.378-0.409,0.372-0.846,0.799
		c0.176-0.097-0.273,0.508-0.632,0.887c0.007-0.037-0.095,0.024-0.144,0.056c-0.77,0.717-1.211,1.128-1.927,1.796
		c-0.08,0.05-0.441,0.366-0.318,0.199c-0.093,0.11-0.169,0.22-0.388,0.435c-0.476,0.362,0.485-0.481,0.101-0.229
		c0.004,0.061-0.527,0.597-0.821,0.922c0.147-0.043,0.736-0.691,1.031-1.016c0.07,0.069-0.406,0.674-1.122,1.428
		c-0.578,0.591-0.302,0.202-0.396,0.312c-1.129,1.064-0.831,1.041-1.808,1.885c-0.412,0.309-0.105-0.074-0.218-0.029
		c0.468-0.484,0.772-0.688,1.098-1.006l-0.425,0.368c0.14-0.164,0.452-0.486,0.641-0.644c-0.348,0.257-1.896,1.811-2.793,2.605
		c-0.136,0.165-0.383,0.438-0.241,0.334l0.264-0.272c0.283-0.207-0.459,0.55-0.101,0.231c-0.338,0.382-0.704,0.821-1.234,1.303
		l-0.146,0.042c0.026,0.005,0.363-0.297,0.491-0.453c-0.19,0.232-0.85,0.699-1.017,0.995l0.393-0.316
		c-0.339,0.385-0.735,0.882-1.202,1.31c0.255-0.152,0.098-0.108,0.477-0.364c-0.35,0.199,1.159-1.134,0.636-0.773
		c0.397-0.254,0.599-0.53,1.087-0.896c-0.03-0.003-0.185,0.118,0.203-0.246c0.021-0.03,0.051-0.072,0.069-0.097
		c0.011-0.01,0.016-0.016,0.027-0.024l-0.023,0.019c0.013-0.019,0.014-0.021-0.009,0.007c-0.098,0.082-0.18,0.145-0.218,0.164
		c0.15-0.224,0.753-0.818,0.94-1.035c0.236-0.211-0.076,0.112,0.066,0.009l0.278-0.327c0.067,0.01,0.665-0.518,0.151,0.021
		l0.484-0.463c0.304-0.252,0.702-0.62,0.928-0.868c0.235-0.211,0.534-0.597,0.364-0.375l0.734-0.752l0.016,0.002
		c0.75-0.714,1.474-1.542,2.393-2.295c0.242-0.252,0.491-0.515,0.921-0.908l0.114-0.047c0.31-0.321,0.999-0.899,1.105-1.067
		c0.433-0.247,1.583-1.489,2.165-2.02l-0.02-0.064c0.393-0.373,0.756-0.746,1.223-1.229l-0.066-0.01
		c0.388-0.434,1.1-1.009,1.757-1.648c-0.031,0.057-0.202,0.215-0.33,0.321c0.872-0.677,1.606-1.667,2.384-2.293
		c0.165-0.187,0.299-0.306,0.433-0.416l-0.042,0.044c0.02-0.019,0.046-0.043,0.074-0.07c0.086-0.07,0.179-0.145,0.268-0.218
		c-0.094,0.073-0.173,0.137-0.228,0.18c0.129-0.13,0.326-0.33,0.537-0.545l0.126-0.042c0.017-0.017,0.029-0.029,0.047-0.047
		c0.215-0.178,0.143-0.175,0.006-0.103l0.248-0.285c0.226-0.091,0.516-0.537,0.806-0.681c0.105-0.168,1.006-1.016,1.046-1.192
		c0.016,0.004,0.081-0.051-0.029,0.056c0.236-0.211,0.472-0.422,0.658-0.639l0.146-0.041l0.432-0.55
		c0.334-0.259,0.477-0.36,0.215-0.031c0.667-0.76,0.566-0.591,1.126-1.244l0.002,0.062c0.22-0.213,0.53-0.597,0.69-0.696
		c0.555-0.411,2.453-2.339,3.779-3.497c-0.341,0.138,0.632-0.521,0.609-0.646c0.096-0.048,0.285-0.204,0.099,0.014
		c0.626-0.645,1.009-0.897,1.394-1.391c0.096-0.047-0.106,0.167-0.027,0.118c0.047-0.055,0.187-0.218,0.267-0.269
		c0.08-0.05-0.076,0.11-0.168,0.22c0.657-0.64,0.655-0.775,0.638-0.889c0.366-0.291,0.529-0.456,0.728-0.732
		c0.138-0.089,0.355-0.253-0.048,0.149c0.235-0.218,1.439-1.326,1.411-1.403c0.086-0.057,0.326-0.307,0.381-0.372
		c0.518-0.498,0.563-0.54,1.073-1.03l-0.149,0.127c0.138-0.259,0.409-0.422,0.811-0.826l-0.008,0.019
		c0.986-0.859,0.385-0.414,1.363-1.255l-0.09,0.008c0.002-0.17,0.869-0.74,1.375-1.293l-0.215,0.164
		c0.264-0.314,0.934-0.674,1.24-0.948c0.07-0.054-0.092,0.111-0.176,0.203c0.822-0.694,0.051-0.15,0.613-0.718
		c0.133-0.073-0.066,0.204,0.326-0.163c0.215-0.163,1.033-1.179,1.613-1.634c-0.139,0.091-0.273,0.181-0.023-0.095
		c0.402-0.402,1.188-0.985,1.49-1.412c0.057-0.045,0.084-0.058,0.09-0.055c0.297-0.32,0.99-1.012,1.141-1.231
		c0.426-0.14,1.881-1.947,1.998-1.812l0.957-0.938l-0.012,0.037c0.623-0.585,0.811-0.825,0.994-1.067
		c0.148-0.131,0.059-0.018,0.053,0.001c0.918-0.852,1-0.943,1.686-1.742l0.119-0.035c0.18-0.223,1.354-1.201,2.18-2.11
		c-0.004,0.015-0.014,0.04-0.078,0.113c0.936-1.016,2.469-2.199,2.682-2.705l0.611-0.676c-0.852,0.814,0.061-0.188-0.311,0.126
		c0.322-0.334,0.9-0.794,0.502-0.387l-0.07,0.055c-0.072,0.225,1.07-0.998,1.102-0.922c1.66-1.604,3.299-3.186,4.854-4.688
		l-0.238,0.115l0.543-0.526c0.156-0.126,0.238-0.141-0.15,0.235c0.238-0.164,0.619-0.664,0.615-0.688
		c0.777-0.719-0.223,0.361,0.01,0.135l0.309-0.314l-0.076,0.063c0.227-0.278,0.221-0.328,0.68-0.788
		c0.299-0.281,0.186-0.113,0.301-0.226c0.002,0.005,0.043-0.032,0.176-0.177l0.674-0.676l-0.316,0.226
		c0.273-0.326,0.631-0.639,0.27-0.379c0.537-0.378,2.521-2.511,2.826-2.768c0.381-0.457,0.789-0.874,1.303-1.387
		c-0.139,0.119-0.268,0.142,0.178-0.297c-0.049,0.272,0.85-0.77,1.285-1.051c-0.371,0.271,1.23-1.279,0.658-0.85
		c0.373-0.363,0.064,0.019,0.367-0.238c0.826-0.927,1.943-1.923,3.004-3.032c0.002-0.031-0.201,0.131,0.008-0.125l0.641-0.508
		c0.203-0.226,0.117-0.273,0.539-0.637c-0.066,0.046-0.164,0.114-0.031-0.041c2.094-2.16,4.062-4.606,6.254-6.745
		c-0.307,0.28-0.125,0.073,0.086-0.162c-0.146,0.146-0.035-0.037-0.084-0.025l0.916-0.896c0.098-0.223,0.916-1.019,0.949-1.166
		L99.323,72.5c0.295-0.455-0.654,0.433-0.688,0.302c-0.328,0.51-1.176,1.079-1.73,1.904c-0.164,0.146,0.098-0.162-0.002-0.093
		c-0.131,0.218-0.326,0.447-0.717,0.849l0.031-0.056c-1.047,1.175-1.535,1.643-2.744,2.931l0.129-0.06
		c-0.26,0.276-0.326,0.323-0.457,0.446c-0.23,0.38,0.721-0.787,0.521-0.43c-0.422,0.297-1.799,1.983-2.121,2.147
		c-0.393,0.434,0.162-0.082-0.23,0.351l-0.129,0.091l-0.066,0.14c-0.26,0.282-0.438,0.38-0.465,0.373
		c0.066-0.064,0.18-0.194,0.246-0.268c-0.377,0.328-0.973,1.01-1.1,1.123l0.408-0.387c-1.094,1.161-2.492,2.521-3.52,3.669
		l0.1-0.065c-0.789,0.875-0.68,0.653-1.57,1.592l0.029-0.038c-0.162,0.202-0.395,0.458-0.645,0.708
		c0.207-0.254-0.473,0.397-0.197,0.067c-0.857,0.947-0.414,0.479-0.934,1.149l-0.168,0.108c-0.174,0.232-0.176,0.265-0.619,0.732
		c0.344-0.403-0.336,0.248,0.045-0.21c-1.018,0.899-1.34,1.504-1.875,1.849c-0.352,0.529,0.869-0.79,0.643-0.523
		c0.232-0.18-0.295,0.432-0.602,0.726c-0.305,0.307-0.625,0.417-1.387,1.194c0.068-0.073,0.084-0.092,0.152-0.166
		c-0.307,0.27-0.529,0.6-0.916,0.921c-0.143,0.254-0.463,0.453-0.455,0.577l0.691-0.721c-0.375,0.424-0.684,0.867-1.383,1.485
		c0.037-0.064,0.219-0.276,0.344-0.419c-0.213,0.171-0.361,0.381-0.582,0.559c-0.008-0.123,0.852-0.865,1.232-1.341
		c-0.236,0.178-0.77,0.852-0.623,0.566c-0.223,0.398-0.777,0.74-1.234,1.327l-0.004-0.074c-0.078,0.089-0.23,0.276-0.385,0.426
		l0.227-0.323c-0.383,0.462-0.859,0.768-1.244,1.193c0.854-0.842,0.24-0.142,0.629-0.468c-1,1.09-0.709,0.492-1.869,1.671
		c0.154-0.161,0.623-0.565,0.391-0.302c-0.232,0.213-0.543,0.49-0.703,0.604c-0.773,0.776,0.162-0.077-0.148,0.274
		c-0.312,0.213-0.363,0.397-0.691,0.749l-0.041-0.038c-0.918,0.852-0.154,0.317-0.988,1.074l0.285-0.389l-0.404,0.425l0.041-0.13
		c-0.422,0.48-0.572,0.611-1.031,1.036c0.133-0.073,0.016,0.131-0.379,0.52c-0.293,0.241,0.113-0.186-0.439,0.37
		c0.1-0.149,0.207-0.318,0.486-0.519c0.014-0.038,0.102-0.149,0.113-0.188c-0.316,0.258-0.734,0.71-0.936,0.909
		c0.078-0.075,0.174-0.164,0.227-0.206l-0.756,0.854c-0.141,0.109-0.053-0.001,0.035-0.112c-0.16,0.166-0.254,0.296-0.492,0.537
		c0.029-0.095-0.018-0.114,0.307-0.465l-0.736,0.796c-0.064,0.036-0.434,0.351-0.346,0.239c-0.447,0.401-0.988,1.097-1.582,1.63
		c-0.021,0.034-0.076,0.1-0.191,0.223c-0.541,0.517-1.055,0.942-1.643,1.609l-0.418,0.294c-0.482,0.499,0.562-0.401-0.246,0.428
		c-0.57,0.588-0.268,0.162-0.49,0.345c-0.266,0.313-0.715,0.866-1.303,1.34C62.179,109.762,62.327,109.635,62.491,109.469"/>
	<path fill="#1D1D1B" d="M48.083,123.515c0.041-0.026,0.057-0.028,0.072-0.028C48.197,123.436,48.19,123.427,48.083,123.515"/>
	<path fill="#1D1D1B" d="M66.284,105.725l0.018-0.018c0.008-0.013,0.012-0.021,0.012-0.026L66.284,105.725z"/>
	<path fill="#1D1D1B" d="M28.861,141.937c0.12-0.104,0.19-0.158,0.24-0.192C29.099,141.729,29.039,141.771,28.861,141.937"/>
	<path fill="#1D1D1B" d="M17.77,153.47l0.341-0.357c-0.168,0.17-0.237,0.22-0.329,0.298C17.799,153.413,17.878,153.36,17.77,153.47"
		/>
	<path fill="#1D1D1B" d="M14.476,156.217c-0.064,0.068-0.091,0.095-0.154,0.163l0.032,0.005
		C14.572,156.169,14.708,156.004,14.476,156.217"/>
	<path fill="#1D1D1B" d="M17.313,153.654c-0.061-0.007-0.27,0.221-0.51,0.469l0.043-0.042
		C16.821,154.2,17.067,153.926,17.313,153.654"/>
	<path fill="#1D1D1B" d="M16.747,154.181l-0.227,0.226C16.51,154.453,16.616,154.319,16.747,154.181"/>
	<path fill="#1D1D1B" d="M19.937,151.251c-0.127,0.104-0.032,0.115-0.112,0.165C19.735,151.586,20.56,150.606,19.937,151.251"/>
	<polygon fill="#1D1D1B" points="17.004,153.738 17.134,153.693 17.238,153.523 	"/>
	<path fill="#1D1D1B" d="M18.977,151.858l-0.405,0.374c0.013,0.001-0.033,0.055-0.091,0.118
		C18.725,152.114,18.998,151.862,18.977,151.858"/>
	<path fill="#1D1D1B" d="M18.481,152.351c-0.127,0.124-0.246,0.242-0.31,0.318C18.237,152.602,18.373,152.462,18.481,152.351"/>
	<polygon fill="#1D1D1B" points="17.529,153.196 17.654,153.092 17.935,152.821 	"/>
	<path fill="#1D1D1B" d="M23.247,147.745l0.422-0.43c0.03-0.056-0.097,0.048-0.253,0.21
		C23.323,147.636,23.167,147.794,23.247,147.745"/>
	<path fill="#1D1D1B" d="M21.825,148.893c0.126-0.104,0.142-0.102,0.222-0.152l-0.038-0.065L21.825,148.893z"/>
	<path fill="#1D1D1B" d="M23.077,147.663c0.029-0.057,0.588-0.648,0.042-0.116C23.089,147.604,22.667,148.035,23.077,147.663"/>
	<polygon fill="#1D1D1B" points="29.561,141.541 29.66,141.612 29.671,141.436 	"/>
	<path fill="#1D1D1B" d="M35.232,135.685c-0.535,0.474-0.071,0.171-0.561,0.591c-0.101,0.138,0.4-0.343,0.294-0.207
		C35.254,135.749,35.429,135.605,35.232,135.685"/>
	<path fill="#1D1D1B" d="M34.965,136.069c-0.043,0.048-0.09,0.101-0.146,0.165C34.893,136.149,34.933,136.105,34.965,136.069"/>
	<polygon fill="#1D1D1B" points="99.356,72.633 99.257,72.763 99.585,72.438 	"/>
	<path fill="#1D1D1B" d="M99.782,72.053l0.131-0.031l0.131-0.249C99.978,71.852,99.849,72.005,99.782,72.053"/>
	<path fill="#1D1D1B" d="M55.329,116.224l-0.014,0.037c0.066-0.034,0.145-0.108,0.301-0.256L55.329,116.224z"/>
	<polygon fill="#1D1D1B" points="59.843,111.943 59.765,112.016 59.956,111.927 	"/>
	<path fill="#1D1D1B" d="M63.536,108.253c-0.15,0.149-0.33,0.328-0.48,0.479C63.38,108.399,63.638,108.275,63.536,108.253"/>
	<polygon fill="#1D1D1B" points="97.606,165.307 97.661,165.337 97.288,165.007 	"/>
	<path fill="#1D1D1B" d="M95.458,163.007c0.143,0.275,0.789,0.824,1.15,1.253l0.049,0.082l0.221,0.138
		C96.405,163.989,95.769,163.374,95.458,163.007"/>
	<path fill="#1D1D1B" d="M94.433,161.666c0.049,0.099-0.27-0.242,0.264,0.289c-0.02-0.026-0.029-0.039-0.043-0.056
		C94.606,161.851,94.544,161.782,94.433,161.666"/>
	<path fill="#1D1D1B" d="M94.653,161.899C94.886,162.138,94.524,161.724,94.653,161.899"/>
	<path fill="#1D1D1B" d="M93.583,160.806l0.322,0.296c-0.049-0.079-0.314-0.363-0.205-0.268
		C93.38,160.521,93.429,160.601,93.583,160.806"/>
	<path fill="#1D1D1B" d="M93.253,160.55l0.164,0.155C93.396,160.67,93.356,160.625,93.253,160.55"/>
	<path fill="#1D1D1B" d="M93.769,161.033l-0.352-0.328c0.033,0.055,0.02,0.078,0.158,0.152
		C93.53,160.846,93.614,160.898,93.769,161.033"/>
	<path fill="#1D1D1B" d="M93.946,161.238c0.154,0.189,0.365,0.426,0.043,0.129C94.575,161.963,94.532,161.832,93.946,161.238"/>
	<path fill="#1D1D1B" d="M95.284,162.949l0.205,0.256l0.215,0.188C95.599,163.3,95.29,162.916,95.284,162.949"/>
	<path fill="#1D1D1B" d="M91.735,158.812c-0.033-0.007,0.066,0.139,0.072,0.179l0.238,0.218
		C91.94,159.081,91.731,158.846,91.735,158.812"/>
	<path fill="#1D1D1B" d="M91.808,158.99l-0.355-0.328C91.747,158.977,91.813,159.023,91.808,158.99"/>
	<polygon fill="#1D1D1B" points="93.132,160.557 93.724,161.086 93.024,160.447 	"/>
	<polygon fill="#1D1D1B" points="90.462,157.479 90.683,157.647 90.3,157.34 	"/>
	<path fill="#1D1D1B" d="M89.612,156.602c0.166,0.122-0.148-0.241,0.014-0.102c-0.234-0.235-0.451-0.42-0.646-0.586
		C89.179,156.1,89.376,156.312,89.612,156.602"/>
	<path fill="#1D1D1B" d="M88.655,155.632c0.09,0.077,0.201,0.176,0.324,0.281C88.876,155.816,88.769,155.722,88.655,155.632"/>
	<path fill="#1D1D1B" d="M90.89,158.063c-0.018-0.034-0.047-0.107-0.225-0.311l0.094,0.172
		C90.8,157.967,90.845,158.015,90.89,158.063"/>
	<path fill="#1D1D1B" d="M90.763,157.932l-0.002-0.007c-0.143-0.149-0.24-0.253-0.281-0.298
		C90.515,157.665,90.601,157.757,90.763,157.932"/>
	<path fill="#1D1D1B" d="M90.923,158.098l-0.031-0.034C90.899,158.079,90.905,158.089,90.923,158.098"/>
	<path fill="#1D1D1B" d="M92.29,159.612c-0.217-0.185-0.646-0.591-0.281-0.149C92.173,159.587,91.966,159.333,92.29,159.612"/>
	<path fill="#1D1D1B" d="M91.04,158.311l0.348,0.378c0.002-0.017-0.049-0.097,0.059-0.005L91.04,158.311z"/>
	<polygon fill="#1D1D1B" points="91.04,158.312 90.913,158.171 90.856,158.141 	"/>
	<path fill="#1D1D1B" d="M89.228,156.298c-0.168-0.145-0.336-0.318-0.527-0.514c0.205,0.224,0.406,0.442,0.6,0.649
		C89.339,156.452,89.446,156.523,89.228,156.298"/>
	<path fill="#1D1D1B" d="M89.972,157.095l-0.037-0.033C89.954,157.086,89.97,157.104,89.972,157.095"/>
	<polygon fill="#1D1D1B" points="86.862,153.877 86.876,153.878 86.839,153.839 	"/>
	<path fill="#1D1D1B" d="M89.327,156.476c0.145,0.165,0.244,0.252,0.342,0.332c-0.119-0.121-0.238-0.243-0.369-0.374
		C89.282,156.425,89.276,156.425,89.327,156.476"/>
	<path fill="#1D1D1B" d="M88.12,155.104l0.244,0.295C88.298,155.308,88.157,155.126,88.12,155.104"/>
	<path fill="#1D1D1B" d="M89.894,156.998l0.025,0.022C89.876,156.96,89.878,156.97,89.894,156.998"/>
	<path fill="#1D1D1B" d="M89.894,156.998c-0.07-0.061-0.148-0.126-0.225-0.189c0.094,0.088,0.18,0.17,0.266,0.253
		C89.923,157.043,89.907,157.02,89.894,156.998"/>
	<path fill="#1D1D1B" d="M86.044,153.473c0.059-0.003,0.49,0.384,0.801,0.78c0.365,0.332,0.254-0.007,0.018-0.376
		c-0.025,0.002-0.039,0.016-0.408-0.331c0.104,0.145,0.732,0.853,0.408,0.573c-0.48-0.467-0.369-0.408-0.576-0.661
		c0.15,0.24-0.65-0.556-0.611-0.391l0.428,0.402C86.103,153.487,85.938,153.347,86.044,153.473"/>
	<path fill="#1D1D1B" d="M87.526,154.577l0.146,0.146c-0.156-0.178-0.262-0.312-0.451-0.564c-0.258-0.235-0.318-0.275-0.346-0.281
		l0.703,0.746L87.526,154.577z"/>
	<path fill="#1D1D1B" d="M88.321,155.398c-0.15-0.081-0.512-0.428-0.34-0.169c0.426,0.439,0.328,0.28,0.596,0.529
		c-0.691-0.704,0.217,0.185-0.256-0.351c0.146,0.146,0.264,0.263,0.379,0.376l-0.336-0.385l0.012,0.02l0.004,0.003l0,0
		c0.023,0.033,0.031,0.048,0,0.01l-0.014-0.013C88.354,155.419,88.339,155.408,88.321,155.398c-0.191-0.213-0.021-0.041,0.045,0.021
		c0.004,0,0.01,0.004,0.014,0.003l-0.004-0.003l-0.703-0.695C87.825,154.883,87.999,155.063,88.321,155.398"/>
	<path fill="#1D1D1B" d="M91.565,159.158c-0.02-0.025-0.016-0.026-0.014-0.031C91.503,159.086,91.483,159.071,91.565,159.158"/>
	<path fill="#1D1D1B" d="M91.306,158.844c0.055,0.047,0.111,0.075,0.268,0.248c0.129,0.156-0.018,0.016-0.021,0.034
		c0.105,0.094,0.365,0.331,0.08-0.004l-0.055-0.046c-0.262-0.3-0.568-0.713-0.518-0.667
		C91.108,158.524,91.155,158.62,91.306,158.844"/>
	<path fill="#1D1D1B" d="M89.784,157.109l-0.586-0.577l0.258,0.333l0.004-0.034C89.774,157.178,89.729,157.081,89.784,157.109"/>
	<polygon fill="#1D1D1B" points="86.792,153.753 86.905,153.796 86.524,153.505 	"/>
	<polygon fill="#1D1D1B" points="86.048,152.986 86.108,152.981 85.892,152.8 	"/>
	<path fill="#1D1D1B" d="M43.168,110.539l-0.184-0.158C43.065,110.451,43.121,110.498,43.168,110.539"/>
	<path fill="#1D1D1B" d="M44.417,111.766l0.047,0.014C44.396,111.731,44.366,111.715,44.417,111.766"/>
	<path fill="#1D1D1B" d="M67.69,134.204c-0.217-0.281-0.443-0.607-0.451-0.542l0.039,0.114
		C67.458,133.945,67.587,134.082,67.69,134.204"/>
	<path fill="#1D1D1B" d="M54.79,121.671l0.062,0.084c0.072,0.047,0.141,0.092,0.203,0.133
		C54.974,121.82,54.884,121.748,54.79,121.671"/>
	<path fill="#1D1D1B" d="M54.464,121.646l-0.305-0.351C54.241,121.391,54.337,121.5,54.464,121.646"/>
	<path fill="#1D1D1B" d="M36.25,103.946l-0.239-0.158C36.328,104.094,36.207,103.94,36.25,103.946"/>
	<path fill="#1D1D1B" d="M78.403,145.144c-0.197-0.231-0.361-0.412-0.508-0.565C78.13,144.862,78.304,145.104,78.403,145.144"/>
	<path fill="#1D1D1B" d="M44.043,110.63c-0.114-0.096-0.166-0.133-0.171-0.121C43.988,110.608,44.057,110.661,44.043,110.63"/>
	<path fill="#1D1D1B" d="M77.284,143.949c0.039,0.045,0.068,0.08,0.104,0.123c0.16,0.154,0.322,0.31,0.508,0.506
		C77.724,144.369,77.517,144.138,77.284,143.949"/>
	<path fill="#1D1D1B" d="M10.89,80.337l-0.056-0.056C10.824,80.282,10.851,80.306,10.89,80.337"/>
	<path fill="#1D1D1B" d="M3.551,73.377c0.079,0.067,0.201,0.17,0.318,0.268C3.814,73.594,3.719,73.513,3.551,73.377"/>
	<path fill="#1D1D1B" d="M83.065,149.885C83.226,150.046,83.095,149.906,83.065,149.885"/>
	<path fill="#1D1D1B" d="M83.688,150.815c-0.037-0.03-0.068-0.052-0.08-0.047C83.63,150.772,83.657,150.79,83.688,150.815"/>
	<path fill="#1D1D1B" d="M75.483,142.551l-0.014-0.015C75.509,142.592,75.503,142.581,75.483,142.551"/>
	<path fill="#1D1D1B" d="M83.286,150.145c-0.061-0.069-0.125-0.142-0.191-0.218C83.132,149.968,83.188,150.034,83.286,150.145"/>
	<path fill="#1D1D1B" d="M83.272,150.096c0.053,0.059,0.094,0.103,0.135,0.146C83.433,150.257,83.419,150.234,83.272,150.096"/>
	<path fill="#1D1D1B" d="M82.843,149.659c0.088,0.095,0.17,0.18,0.252,0.268c-0.027-0.034-0.039-0.05-0.029-0.042
		C83.019,149.838,82.954,149.77,82.843,149.659"/>
	<path fill="#1D1D1B" d="M24.715,92.729c-0.01-0.011-0.02-0.021-0.032-0.036C24.5,92.553,24.576,92.618,24.715,92.729"/>
	<polygon fill="#1D1D1B" points="63.167,130.377 63.188,130.394 63.165,130.369 	"/>
	<path fill="#1D1D1B" d="M62.567,129.825c0.289,0.202,0.422,0.348,0.598,0.544l-0.086-0.295L62.567,129.825z"/>
	<path fill="#1D1D1B" d="M23.195,90.807l0.099,0.112C23.036,90.702,23.115,90.756,23.195,90.807 M81.817,148.702
		c0.059,0.049,0.061,0.039,0.045,0.011c-0.049-0.029-0.168-0.151-0.303-0.295C81.587,148.468,81.647,148.546,81.817,148.702
		 M81.3,148.134l-0.014-0.011C81.044,147.843,81.13,147.942,81.3,148.134 M55.606,122.634c-0.102-0.073-0.229-0.214-0.367-0.38
		C55.354,122.36,55.478,122.485,55.606,122.634 M46.285,113.583c-0.127-0.108-0.387-0.315-0.449-0.424
		C46.015,113.246,46.097,113.371,46.285,113.583 M40.142,107.642l0.38,0.43c-0.55-0.425-0.891-0.79-0.55-0.37
		c0.17-0.06,1.612,1.529,1.781,1.471L42,109.457c-0.077-0.069-0.096-0.087-0.172-0.156c0.474,0.563,0.473,0.295,1.137,0.967
		c0.229,0.237,0.378,0.413,0.203,0.271l0.556,0.48c0.149,0.152,0.094,0.135-0.057-0.016l0.805,0.777l-0.009-0.002
		c0.154,0.121,0.426,0.335,0.551,0.435c0.186,0.216-0.113-0.089-0.075-0.023l0.467,0.408c0.15,0.208-0.243-0.125-0.542-0.43
		c0.299,0.521,0.393,0.333,1.215,1.277l-0.43-0.396c0.204,0.33,0.551,0.628,0.981,1.134c-0.09-0.132-0.84-1.034-0.335-0.589
		c0.126,0.142,0.299,0.322,0.58,0.555c-0.038,0.042,0.224,0.282,0.54,0.593l-0.074,0.031c0.356,0.322,0.356,0.269,0.579,0.442
		c0.374,0.381,0.412,0.501,0.467,0.625c0.599,0.61-0.354-0.483,0.375,0.219c0.485,0.522,0.861,0.853,1.497,1.419
		c0.335,0.369-0.094-0.029,0.017,0.112l0.356,0.269c0.076,0.077,0.038,0.065,0.019,0.061c0.28,0.244,0.075-0.033,0.504,0.364
		c0.17,0.053,0.768,0.931,1.348,1.373c0.111,0.142-0.094-0.026-0.076,0.031c0.748,0.655,0.637,0.568,1.273,1.082l0.459,0.525
		c-0.324-0.4,0.186,0.012,0.631,0.375c-0.115-0.152-0.213-0.282-0.268-0.354l0.676,0.613c0.068,0.086-0.016,0.04-0.143-0.042
		c0.047,0.037,0.092,0.073,0.131,0.104c0.213,0.248,0.061,0.16-0.135,0.026l-0.199-0.264c-0.193-0.127-0.377-0.239-0.375-0.175
		c0.049,0.035,0.135,0.109,0.227,0.195c-0.051-0.032-0.086-0.051-0.072-0.026c0.018,0.026,0.098,0.083,0.215,0.174l0.09,0.206
		l0.059,0.011l0.809,0.877c0.666,0.54,1.279,0.976,2.266,1.904c-0.281-0.193-0.121,0.02-0.188,0.058
		c-0.207-0.313-0.766-0.715-1.254-1.22c0.254,0.264,0.172,0.231,0.1,0.175l0.938,0.832c-0.062,0.022,0.156,0.218,0.371,0.466
		c-0.092-0.257,0.717,0.602,1.104,0.935c-0.004,0.05-0.119-0.007-0.555-0.451c0.424,0.545,0.729,0.523,1.146,1.057
		c-0.107-0.106-0.16-0.17-0.217-0.198c0.273,0.229,0.863,0.863,0.695,0.743l-0.105-0.107c0.697,0.726,2.152,2.182,2.328,2.218
		c-0.002,0.016-0.178-0.009-0.234-0.038l1.502,1.041c-0.172-0.051,0.107,0.525-0.514-0.035c0.16,0.179,0.359,0.4,0.736,0.739
		c-0.107-0.125-0.199-0.378-0.037-0.225c0.363,0.504,0.264,0.339,0.736,0.935c-0.158-0.188,0.129-0.088,0.396,0.19
		c-0.055-0.029-0.07,0.115-0.18,0.025l0.771,0.593c-0.186-0.154-0.109,0.049,0.016,0.229c-0.051-0.089,0.584,0.595,0.773,0.768
		l-0.266-0.312c0.752,0.788,0.889,0.635,1.645,1.408c-0.113-0.073-0.348-0.111,0.025,0.29c0.227,0.132,1.016,0.564,1.725,1.209
		l0.102,0.156l0.547,0.491c-0.395-0.254-1.447-1.014-1.998-1.454c0.266,0.312,0.047,0.113,0.479,0.544
		c0.125,0.18-0.273-0.196-0.4-0.324l0.982,1.028c0.012-0.101,0.818,0.717,0.826,0.632l-1.141-1.04
		c0.012-0.1,0.787,0.479,1.484,1.203c0.156,0.204-0.236-0.038-0.24-0.005c0.113,0.075,0.709,0.645,0.76,0.723l-0.33-0.273
		c0.373,0.42,0.717,0.577,1.139,1.11c0.158,0.168,0.412,0.563,0.475,0.56c-0.201-0.333-0.055-0.581,0.172-0.448
		c0.053,0.062,0.795,0.928,0.951,1.149c0.217,0.32-0.525-0.292-0.338-0.018c0.023-0.005,0.191,0.126,0.26,0.184
		c0.158,0.186-0.119-0.025,0.26,0.346c0.121,0.006,0.748,0.778,0.225,0.132c0.379,0.355,0.373,0.407,0.799,0.841
		c-0.098-0.176,0.508,0.27,0.887,0.626c-0.037-0.008,0.025,0.095,0.057,0.145c0.719,0.764,1.131,1.202,1.799,1.914
		c0.049,0.079,0.365,0.438,0.199,0.316c0.109,0.094,0.221,0.167,0.436,0.386c0.363,0.473-0.484-0.482-0.229-0.101
		c0.061-0.004,0.598,0.522,0.922,0.815c-0.041-0.146-0.691-0.732-1.018-1.025c0.07-0.069,0.674,0.402,1.428,1.115
		c0.594,0.573,0.205,0.3,0.314,0.393c1.064,1.121,1.043,0.824,1.887,1.797c0.311,0.409-0.074,0.104-0.027,0.217
		c-0.486-0.465-0.689-0.768-1.01-1.091l0.369,0.422c-0.164-0.14-0.488-0.449-0.643-0.638c0.256,0.348,1.812,1.884,2.605,2.776
		c0.164,0.138,0.436,0.384,0.332,0.243l-0.27-0.265c-0.205-0.284,0.547,0.462,0.23,0.101c0.379,0.339,0.816,0.707,1.291,1.24
		l0.041,0.145c0.006-0.024-0.293-0.363-0.447-0.492c0.229,0.19,0.691,0.852,0.986,1.021l-0.312-0.394
		c0.381,0.34,0.873,0.737,1.299,1.207c-0.15-0.256-0.109-0.099-0.361-0.479c0.197,0.351-1.125-1.163-0.766-0.639
		c-0.252-0.398-0.527-0.602-0.889-1.091c-0.004,0.03,0.117,0.186-0.244-0.204c-0.031-0.021-0.072-0.051-0.098-0.068
		c-0.01-0.012-0.014-0.017-0.023-0.028l0.02,0.023c-0.02-0.015-0.021-0.016,0.006,0.009c0.08,0.098,0.143,0.181,0.162,0.22
		c-0.223-0.151-0.809-0.759-1.027-0.943c-0.213-0.234,0.109,0.075,0.01-0.065l-0.328-0.277c0.008-0.065-0.521-0.661,0.02-0.149
		l-0.465-0.481c-0.252-0.302-0.621-0.699-0.869-0.923c-0.211-0.232-0.596-0.529-0.375-0.361l-0.754-0.729l0.004-0.016
		c-0.717-0.746-1.547-1.465-2.301-2.38c-0.252-0.238-0.514-0.485-0.91-0.914l-0.045-0.112c-0.324-0.311-0.902-0.995-1.07-1.1
		c-0.248-0.43-1.488-1.575-2.027-2.146l-0.064,0.021c-0.379-0.387-0.754-0.743-1.242-1.205l-0.01,0.066
		c-0.438-0.381-1.018-1.084-1.666-1.732c0.059,0.03,0.219,0.199,0.324,0.324c-0.682-0.86-1.682-1.58-2.318-2.347
		c-0.188-0.161-0.309-0.293-0.42-0.427l0.045,0.042c-0.018-0.02-0.045-0.045-0.07-0.073c-0.072-0.084-0.148-0.175-0.223-0.263
		c0.076,0.091,0.139,0.169,0.184,0.224c-0.133-0.126-0.334-0.32-0.551-0.527l-0.043-0.125c-0.02-0.018-0.031-0.028-0.049-0.046
		c-0.18-0.213-0.176-0.14-0.102-0.005l-0.289-0.243c-0.094-0.225-0.543-0.508-0.691-0.796c-0.168-0.102-1.025-0.988-1.203-1.023
		c0.002-0.017-0.053-0.081,0.057,0.027c-0.215-0.232-0.428-0.466-0.646-0.646l-0.045-0.146l-0.553-0.423
		c-0.262-0.328-0.367-0.471-0.035-0.213c-0.766-0.655-0.596-0.557-1.256-1.106l0.062-0.003c-0.215-0.216-0.604-0.52-0.705-0.678
		c-0.42-0.545-2.359-2.42-3.555-3.706c0.145,0.336-0.535-0.617-0.66-0.591c-0.049-0.095-0.209-0.28,0.012-0.101
		c-0.658-0.607-0.918-0.982-1.42-1.354c-0.051-0.095,0.168,0.101,0.117,0.023c-0.055-0.047-0.221-0.181-0.273-0.26
		c-0.051-0.077,0.113,0.073,0.223,0.163c-0.652-0.641-0.789-0.635-0.902-0.614c-0.297-0.358-0.467-0.518-0.748-0.708
		c-0.092-0.137-0.26-0.349,0.15,0.044c-0.225-0.229-1.355-1.407-1.432-1.376c-0.057-0.083-0.312-0.319-0.379-0.371
		c-0.508-0.506-0.551-0.551-1.051-1.048l0.131,0.146c-0.262-0.131-0.43-0.397-0.841-0.79l0.017,0.005
		c-0.878-0.963-0.421-0.373-1.28-1.331l0.01,0.09c-0.17,0.001-0.758-0.852-1.32-1.344l0.169,0.212
		c-0.318-0.257-0.692-0.918-0.972-1.217c-0.056-0.07,0.112,0.087,0.206,0.169c-0.71-0.805-0.151-0.045-0.729-0.595
		c-0.077-0.132,0.206,0.062-0.17-0.321c-0.168-0.212-1.196-1.005-1.663-1.575c0.093,0.137,0.185,0.271-0.094,0.026
		c-0.411-0.391-1.007-1.165-1.442-1.454c-0.046-0.056-0.06-0.08-0.057-0.088c-0.33-0.283-1.045-0.949-1.27-1.093
		c-0.153-0.418-2.009-1.805-1.877-1.928l-0.968-0.919l0.038,0.012c-0.606-0.602-0.853-0.779-1.099-0.956
		c-0.134-0.146-0.019-0.059,0-0.055c-0.873-0.891-0.968-0.972-1.783-1.633l-0.037-0.117c-0.228-0.172-1.235-1.316-2.163-2.115
		c0.013,0.003,0.039,0.012,0.115,0.073c-1.038-0.904-2.261-2.402-2.77-2.599l-0.69-0.593c0.834,0.828-0.189-0.055,0.134,0.307
		c-0.341-0.312-0.816-0.875-0.399-0.489l0.056,0.069c0.227,0.064-1.024-1.041-0.949-1.074c-1.654-1.615-3.285-3.171-4.87-4.646
		l0.124,0.231l-0.552-0.516c-0.132-0.149-0.149-0.229,0.245,0.138c-0.176-0.227-0.693-0.583-0.716-0.579
		c-0.752-0.74,0.37,0.206,0.134-0.015l-0.327-0.293l0.066,0.074c-0.286-0.216-0.335-0.21-0.807-0.652
		c-0.29-0.291-0.119-0.182-0.235-0.293c0.005-0.004-0.033-0.043-0.181-0.17l-0.694-0.651l0.234,0.309
		c-0.333-0.263-0.656-0.61-0.385-0.255c-0.394-0.524-2.58-2.439-2.846-2.735c-0.468-0.363-0.896-0.76-1.422-1.254
		c0.122,0.132,0.149,0.262-0.302-0.168c0.274,0.038-0.793-0.824-1.087-1.25c0.281,0.361-1.314-1.188-0.866-0.629
		c-0.374-0.362,0.016-0.065-0.249-0.36c-0.475-0.396-0.97-0.867-1.488-1.365c-0.532-0.481-1.095-0.985-1.682-1.477
		c-0.032,0,0.141,0.191-0.128,0l-0.545-0.604c-0.237-0.188-0.291-0.091-0.663-0.504c0.048,0.064,0.119,0.159-0.039,0.033
		c-2.212-2.025-4.705-3.92-6.897-6.045c0.287,0.299,0.076,0.123-0.163-0.081c0.149,0.142-0.037,0.037-0.024,0.085L2.926,72.84
		c-0.225-0.091-1.041-0.885-1.189-0.913l0.315,0.251c-0.463-0.28,0.447,0.64,0.317,0.676c0.519,0.314,1.109,1.145,1.947,1.674
		c0.151,0.159-0.163-0.092-0.092,0.004c0.221,0.125,0.456,0.313,0.867,0.693l-0.056-0.032c1.2,1.013,1.681,1.486,2.999,2.656
		l-0.063-0.127c0.283,0.252,0.332,0.317,0.458,0.443c0.385,0.219-0.806-0.696-0.444-0.51c0.308,0.413,2.029,1.739,2.203,2.058
		c0.442,0.38-0.088-0.159,0.354,0.22l0.094,0.127l0.142,0.062c0.285,0.254,0.403,0.412,0.394,0.442
		c-0.073-0.058-0.207-0.167-0.282-0.227c0.349,0.352,1.07,0.897,1.19,1.018l-0.411-0.38c0.618,0.523,1.283,1.086,1.95,1.65
		c0.646,0.594,1.29,1.179,1.878,1.674l-0.068-0.099c0.895,0.76,0.671,0.658,1.634,1.517l-0.039-0.028
		c0.207,0.156,0.469,0.38,0.726,0.621c-0.259-0.198,0.411,0.46,0.074,0.196c0.97,0.824,0.49,0.396,1.174,0.894l0.113,0.164
		c0.237,0.165,0.269,0.166,0.749,0.595c-0.413-0.33,0.258,0.327-0.21-0.036c0.928,0.985,1.539,1.289,1.9,1.812
		c0.538,0.332-0.814-0.842-0.541-0.626c-0.187-0.226,0.437,0.281,0.741,0.578c0.315,0.294,0.435,0.61,1.233,1.345
		c-0.075-0.064-0.093-0.08-0.169-0.145c0.278,0.298,0.613,0.509,0.946,0.883c0.254,0.136,0.472,0.442,0.595,0.429l-0.747-0.66
		c0.432,0.365,0.895,0.646,1.543,1.314c-0.067-0.035-0.287-0.205-0.436-0.324c0.181,0.205,0.398,0.342,0.585,0.554
		c-0.123,0.014-0.903-0.806-1.396-1.164c0.188,0.227,0.887,0.727,0.595,0.595c0.408,0.202,0.775,0.736,1.382,1.164l-0.074,0.008
		c0.092,0.072,0.287,0.216,0.443,0.363l-0.334-0.21c0.479,0.357,0.806,0.816,1.248,1.179c-0.879-0.81-0.151-0.23-0.494-0.604
		c1.132,0.948,0.528,0.676,1.748,1.787c-0.163-0.152-0.587-0.6-0.313-0.381c0.222,0.224,0.503,0.529,0.623,0.684
		c0.795,0.75-0.081-0.158,0.277,0.14c0.222,0.307,0.406,0.352,0.766,0.67l-0.037,0.043c0.873,0.891,0.32,0.144,1.098,0.954
		l-0.396-0.272l0.435,0.392l-0.131-0.037c0.491,0.407,0.625,0.553,1.061,0.999c-0.077-0.13,0.13-0.019,0.529,0.364
		c0.247,0.284-0.189-0.108,0.379,0.429c-0.151-0.097-0.321-0.199-0.53-0.473c-0.038-0.011-0.15-0.096-0.188-0.106
		c0.265,0.309,0.726,0.713,0.931,0.909c-0.077-0.077-0.169-0.17-0.211-0.222l0.871,0.729c0.113,0.139,0,0.053-0.113-0.032
		c0.17,0.155,0.302,0.247,0.549,0.479c-0.095-0.028-0.113,0.021-0.472-0.295l0.813,0.713c0.038,0.063,0.362,0.424,0.248,0.339
		c0.414,0.436,1.121,0.956,1.668,1.532c0.036,0.022,0.101,0.073,0.228,0.186c0.53,0.526,0.967,1.025,1.648,1.594l0.304,0.407
		c0.511,0.467-0.417-0.546,0.435,0.232c0.607,0.548,0.171,0.262,0.361,0.478c0.321,0.252,0.889,0.682,1.383,1.25
		C40.444,107.942,40.312,107.799,40.142,107.642"/>
	<path fill="#1D1D1B" d="M54.505,121.651c-0.025-0.039-0.027-0.057-0.027-0.071C54.423,121.541,54.415,121.548,54.505,121.651"/>
	<path fill="#1D1D1B" d="M36.293,103.976l-0.018-0.019c-0.013-0.007-0.021-0.01-0.026-0.011L36.293,103.976z"/>
	<path fill="#1D1D1B" d="M73.188,140.516c-0.105-0.118-0.16-0.188-0.193-0.238C72.979,140.282,73.022,140.342,73.188,140.516"/>
	<path fill="#1D1D1B" d="M84.72,151.551l-0.354-0.343c0.168,0.169,0.219,0.238,0.295,0.33
		C84.663,151.521,84.612,151.44,84.72,151.551"/>
	<path fill="#1D1D1B" d="M87.427,154.865c0.066,0.064,0.096,0.092,0.16,0.155l0.006-0.031
		C87.38,154.769,87.216,154.629,87.427,154.865"/>
	<path fill="#1D1D1B" d="M84.901,152.008c-0.008,0.061,0.219,0.271,0.465,0.512l-0.041-0.044
		C85.442,152.502,85.171,152.255,84.901,152.008"/>
	<path fill="#1D1D1B" d="M85.423,152.575l0.223,0.228C85.694,152.812,85.56,152.706,85.423,152.575"/>
	<path fill="#1D1D1B" d="M82.519,149.377c0.104,0.125,0.113,0.031,0.166,0.11C82.854,149.577,81.872,148.76,82.519,149.377"/>
	<polygon fill="#1D1D1B" points="84.981,152.316 84.938,152.188 84.771,152.082 	"/>
	<path fill="#1D1D1B" d="M83.12,150.337l0.371,0.405c0-0.012,0.053,0.034,0.117,0.093C83.374,150.591,83.124,150.315,83.12,150.337"
		/>
	<path fill="#1D1D1B" d="M83.608,150.835c0.121,0.127,0.24,0.247,0.314,0.311C83.856,151.081,83.718,150.942,83.608,150.835"/>
	<polygon fill="#1D1D1B" points="84.446,151.79 84.341,151.665 84.073,151.383 	"/>
	<path fill="#1D1D1B" d="M79.007,146.089l-0.43-0.42c-0.059-0.029,0.047,0.098,0.209,0.25
		C78.896,146.014,79.058,146.167,79.007,146.089"/>
	<path fill="#1D1D1B" d="M80.157,147.502c-0.104-0.125-0.104-0.141-0.154-0.22l-0.062,0.038L80.157,147.502z"/>
	<path fill="#1D1D1B" d="M78.925,146.26c-0.057-0.03-0.648-0.586-0.115-0.042C78.866,146.246,79.296,146.665,78.925,146.26"/>
	<polygon fill="#1D1D1B" points="72.788,139.822 72.858,139.725 72.681,139.715 	"/>
	<path fill="#1D1D1B" d="M66.874,134.244c0.479,0.526,0.172,0.069,0.598,0.551c0.137,0.1-0.35-0.395-0.211-0.288
		C66.937,134.222,66.792,134.05,66.874,134.244"/>
	<path fill="#1D1D1B" d="M67.261,134.506c0.049,0.041,0.102,0.087,0.166,0.143C67.341,134.576,67.296,134.536,67.261,134.506"/>
	<polygon fill="#1D1D1B" points="2.185,72.144 2.316,72.237 1.984,71.919 	"/>
	<path fill="#1D1D1B" d="M1.594,71.734l-0.034-0.13l-0.252-0.125C1.389,71.545,1.545,71.67,1.594,71.734"/>
	<path fill="#1D1D1B" d="M47.079,114.587l0.038,0.011c-0.037-0.062-0.111-0.14-0.262-0.293L47.079,114.587z"/>
	<polygon fill="#1D1D1B" points="42.702,110.192 42.778,110.269 42.682,110.08 	"/>
	<path fill="#1D1D1B" d="M38.892,106.644c0.154,0.145,0.338,0.316,0.493,0.462C39.043,106.793,38.911,106.541,38.892,106.644"/>
</g>
</svg>
