<?xml version="1.0" encoding="utf-8"?>
<!-- Generator: Adobe Illustrator 16.0.0, SVG Export Plug-In . SVG Version: 6.00 Build 0)  -->
<!DOCTYPE svg PUBLIC "-//W3C//DTD SVG 1.1//EN" "http://www.w3.org/Graphics/SVG/1.1/DTD/svg11.dtd">
<svg version="1.1" id="Layer_1" xmlns="http://www.w3.org/2000/svg" xmlns:xlink="http://www.w3.org/1999/xlink" x="0px" y="0px"
	 width="65.482px" height="44.979px" viewBox="0 0 65.482 44.979" enable-background="new 0 0 65.482 44.979" xml:space="preserve">
<path d="M35.494,16.343c0-4.092,0.005-8.182-0.005-12.273c-0.001-0.571,0.204-1.401-0.707-1.376
	c-0.823,0.022-0.638,0.819-0.638,1.363c-0.008,8.151-0.006,16.305-0.004,24.457c0,0.271-0.055,0.576,0.05,0.807
	c0.104,0.233,0.396,0.562,0.567,0.541c0.258-0.031,0.543-0.291,0.699-0.531c0.113-0.173,0.037-0.471,0.037-0.713
	C35.494,24.526,35.494,20.435,35.494,16.343 M30.033,16.246c0,4.213,0.002,8.426-0.001,12.638c-0.001,0.522,0.047,1.03,0.729,1.008
	c0.646-0.022,0.608-0.554,0.629-1.01c0.006-0.12,0.002-0.241,0.002-0.362c0-8.153,0.001-16.306-0.002-24.458
	c-0.001-0.302,0.034-0.631-0.074-0.896c-0.087-0.211-0.382-0.486-0.559-0.471c-0.242,0.021-0.54,0.251-0.665,0.475
	c-0.119,0.212-0.057,0.53-0.057,0.803C30.032,8.063,30.033,12.155,30.033,16.246 M27.305,16.341c0-4.091,0.005-8.182-0.005-12.273
	c-0.001-0.57,0.204-1.4-0.708-1.374c-0.824,0.024-0.636,0.82-0.637,1.365c-0.008,8.151-0.006,16.304-0.004,24.457
	c0,0.271-0.054,0.576,0.05,0.807c0.105,0.232,0.397,0.561,0.569,0.539c0.257-0.032,0.543-0.292,0.699-0.533
	c0.112-0.173,0.035-0.471,0.035-0.713C27.305,24.524,27.305,20.434,27.305,16.341 M38.222,22.442c0,6.124-0.004,12.248,0.004,18.372
	c0,0.547-0.19,1.338,0.634,1.362c0.913,0.028,0.714-0.808,0.714-1.375c0.009-12.247,0.007-24.496,0.005-36.744
	c0-0.273,0.052-0.579-0.054-0.808c-0.111-0.236-0.412-0.575-0.582-0.55c-0.258,0.038-0.547,0.313-0.682,0.563
	c-0.117,0.213-0.039,0.532-0.039,0.806C38.222,10.193,38.222,16.317,38.222,22.442 M42.442,12.082
	c0.456-0.243,0.848-0.462,1.248-0.663c2.18-1.095,4.421-1.97,6.92-1.927c3.432,0.058,6.215,2.55,6.687,5.998
	c0.438,3.193-1.668,6.37-4.836,7.335c-1.889,0.575-3.736,0.294-5.527-0.322c-1.531-0.527-3-1.236-4.543-1.885
	c0.025,0.559-0.398,1.209,0.408,1.625c2.414,1.249,4.9,2.222,7.678,2.215c4.752-0.01,8.481-3.938,8.182-8.636
	c-0.305-4.764-4.497-8.223-9.213-7.663c-2.137,0.253-4.1,0.967-6.037,1.854C42.481,10.436,42.085,10.977,42.442,12.082
	 M23.094,20.521c-0.342,0.173-0.637,0.313-0.924,0.469c-1.959,1.056-4.01,1.814-6.237,2.098c-3.821,0.489-7.451-2.42-7.724-6.245
	c-0.28-3.928,2.728-7.259,6.628-7.349c2.664-0.062,5.03,0.902,7.331,2.098c0.303,0.158,0.603,0.322,0.905,0.483
	c0.086-0.06,0.173-0.119,0.258-0.179c-0.167-0.497-0.187-1.26-0.526-1.449c-2.811-1.564-5.763-2.676-9.082-2.22
	C9.682,8.782,6.624,12.579,6.87,16.74c0.249,4.216,3.653,7.588,7.737,7.717c2.718,0.086,5.163-0.792,7.578-1.907
	C23.1,22.128,23.416,21.581,23.094,20.521 M23.1,7.313c0.208-1.1,0.189-1.26-0.389-1.513c-3.131-1.362-6.358-2.158-9.801-1.585
	C7.358,5.141,3.046,9.962,2.75,15.568C2.45,21.3,6.13,26.513,11.583,28.078c3.718,1.068,7.247,0.288,10.711-1.102
	c1.028-0.413,1.117-0.653,0.715-1.801c-0.247,0.114-0.489,0.233-0.735,0.339c-2.384,1.022-4.832,1.726-7.464,1.683
	C6.669,27.063,1.528,18.283,5.411,11.12c2.5-4.614,7.559-6.699,13.068-5.31C20.046,6.205,21.562,6.808,23.1,7.313 M42.433,7.435
	c0.311-0.135,0.58-0.254,0.853-0.369c2.763-1.164,5.589-2.028,8.636-1.574c4.37,0.652,7.411,3.073,8.86,7.228
	c1.449,4.16,0.589,7.983-2.466,11.165c-3.219,3.354-7.229,3.933-11.564,2.83c-1.473-0.375-2.892-0.967-4.635-1.561
	c0.258,0.66,0.316,1.417,0.65,1.571c3.1,1.421,6.341,2.231,9.781,1.684c5.502-0.876,9.801-5.616,10.221-11.218
	c0.418-5.587-3.141-10.883-8.49-12.578c-3.784-1.198-7.403-0.419-10.986,0.944C42.323,5.925,42.169,6.485,42.433,7.435
	 M49.806,12.233c-2.375,0.136-4.816,1.446-7.157,2.984c-0.566,0.372-0.468,1.846,0.116,2.229c2.14,1.404,4.379,2.56,6.971,2.896
	c2.492,0.324,4.684-1.348,4.855-3.754C54.767,14.155,52.86,12.207,49.806,12.233 M23.477,16.388
	c-0.338-0.56-0.475-1.101-0.808-1.282c-1.558-0.854-3.115-1.77-4.782-2.347c-1.184-0.408-2.58-0.569-3.814-0.386
	c-2.095,0.313-3.463,2.535-3.101,4.548c0.399,2.224,2.378,3.696,4.61,3.452c2.566-0.281,4.807-1.382,6.922-2.769
	C22.888,17.353,23.112,16.855,23.477,16.388 M23.185,2.979c0.356-1.612,1.212-2.79,2.844-2.954c0.865-0.086,1.781,0.467,2.674,0.469
	c0.866,0.002,1.798-0.627,2.581-0.45c1.048,0.238,1.938,0.199,2.976-0.007c0.795-0.158,1.717,0.465,2.582,0.463
	c0.864-0.001,1.746-0.562,2.59-0.493c1.523,0.125,2.244,0.976,2.906,2.784c2.01-0.464,3.981-1.085,6-1.354
	c9.144-1.221,16.067,5.354,17.01,12.731c1.057,8.262-4.236,15.509-12.387,16.944c-3.277,0.577-6.451-0.035-9.551-1.12
	c-0.257-0.09-0.511-0.185-0.77-0.268c-0.051-0.018-0.117,0.011-0.313,0.035v0.94c0,3.457-0.007,6.915,0.005,10.372
	c0.004,1.172-0.238,2.243-1.173,3.026c-1.092,0.913-2.328,1.153-3.644,0.547c-1.299-0.601-2-1.653-2.014-3.089
	c-0.025-2.608-0.008-5.217-0.008-7.825v-0.86c-0.913-0.27-1.729-0.527-2.555-0.74c-0.174-0.045-0.409,0.036-0.583,0.123
	c-1.111,0.561-2.205,0.538-3.316-0.009c-0.185-0.092-0.465-0.127-0.653-0.057c-2.648,0.996-4.392,0.186-5.22-2.544
	c-0.328,0.105-0.659,0.203-0.985,0.317c-3.577,1.27-7.206,1.83-10.963,0.856c-6.913-1.79-11.588-8.251-11.196-15.499
	C0.395,8.438,5.779,2.55,12.682,1.479c3.321-0.516,6.509,0.062,9.629,1.186C22.589,2.766,22.868,2.865,23.185,2.979"/>
</svg>
