<?xml version="1.0" encoding="utf-8"?>
<!-- Generator: Adobe Illustrator 16.0.0, SVG Export Plug-In . SVG Version: 6.00 Build 0)  -->
<!DOCTYPE svg PUBLIC "-//W3C//DTD SVG 1.1//EN" "http://www.w3.org/Graphics/SVG/1.1/DTD/svg11.dtd">
<svg version="1.1" id="Layer_1" xmlns="http://www.w3.org/2000/svg" xmlns:xlink="http://www.w3.org/1999/xlink" x="0px" y="0px"
	 width="9.755px" height="142.269px" viewBox="0 0 9.755 142.269" enable-background="new 0 0 9.755 142.269" xml:space="preserve">
<path fill="#91C848" d="M7.965,131.854c-0.227-0.124-0.408-0.328-0.646-0.524c-0.389,0.294-0.773,0.585-1.211,0.916
	c-0.389-0.282-0.774-0.563-1.228-0.893c-0.383,0.284-0.787,0.583-1.209,0.896c-0.423-0.316-0.807-0.604-1.173-0.878
	c-0.109,0.045-0.186,0.057-0.238,0.1c-1.414,1.166-1.414,1.168-0.619,2.853c0.607,1.287,1.253,2.558,1.809,3.865
	c0.298,0.702,0.728,0.902,1.464,0.895c0.691-0.01,1.087-0.203,1.372-0.856c0.657-1.509,1.335-3.015,2.112-4.465
	C8.852,132.917,8.838,132.337,7.965,131.854 M9.751,131.337c0,0.294-0.008,0.621-0.129,0.878c-1.54,3.297-3.101,6.584-4.743,10.054
	c-1.569-3.323-3.044-6.404-4.471-9.507c-0.241-0.523-0.391-1.14-0.392-1.714C-0.004,115.726,0,16.473,0,1.15V0h9.71
	c0.019,0.237,0.043,0.388,0.043,0.537C9.755,16.16,9.756,115.714,9.751,131.337"/>
</svg>
