<?xml version="1.0" encoding="utf-8"?>
<!-- Generator: Adobe Illustrator 16.0.0, SVG Export Plug-In . SVG Version: 6.00 Build 0)  -->
<!DOCTYPE svg PUBLIC "-//W3C//DTD SVG 1.1//EN" "http://www.w3.org/Graphics/SVG/1.1/DTD/svg11.dtd">
<svg version="1.1" id="Layer_1" xmlns="http://www.w3.org/2000/svg" xmlns:xlink="http://www.w3.org/1999/xlink" x="0px" y="0px"
	 width="17.821px" height="37.6px" viewBox="0 0 17.821 37.6" enable-background="new 0 0 17.821 37.6" xml:space="preserve">
<g>
	<path fill="#1D1D1B" d="M17.005,9.408l0.013,0.051C17.053,9.35,17.03,9.38,17.005,9.408 M4.856,32.804
		c-0.023,0.009-0.028-0.001-0.027-0.018c0.023,0.003,0.062-0.034,0.103-0.083C4.932,32.734,4.918,32.767,4.856,32.804 M5.008,32.606
		l0.006-0.002C5.077,32.497,5.056,32.536,5.008,32.606 M12.525,23.77c0.04-0.021,0.062-0.083,0.074-0.162
		C12.569,23.649,12.542,23.702,12.525,23.77 M14.666,20.026c0.037-0.042,0.128-0.119,0.107-0.176
		C14.672,19.866,14.686,19.93,14.666,20.026 M15.793,17.378l-0.018,0.204c0.175-0.177,0.207-0.348,0.216-0.146
		c-0.198-0.058-0.297,0.694-0.493,0.632l-0.008,0.137c0.012-0.035,0.024-0.035,0.036-0.07c-0.002,0.272-0.202,0.106-0.293,0.415
		c-0.026,0.111-0.028,0.195,0.021,0.137l-0.137,0.207c-0.022,0.068,0.016,0.068,0.038,0l-0.152,0.344h0.006
		c-0.049,0.035-0.138,0.125-0.179,0.17c-0.009,0.103,0.037-0.034,0.051,0.001l-0.121,0.17c0.016,0.104,0.126-0.032,0.173-0.169
		c0.105,0.275-0.098,0.143-0.178,0.576l0.109-0.165c0.048,0.171-0.056,0.288-0.09,0.525c-0.01-0.067,0.033-0.49-0.11-0.313
		c-0.014,0.065-0.045,0.145-0.134,0.232c0.064,0.038-0.003,0.137-0.072,0.268l0.09,0.041c-0.094,0.131-0.133,0.094-0.211,0.156
		c-0.069,0.165-0.021,0.238,0.016,0.309c-0.111,0.268-0.018-0.24-0.182,0.057c-0.071,0.233-0.179,0.363-0.353,0.589
		c-0.044,0.167,0.064,0.006,0.061,0.074l-0.13,0.092c-0.015,0.032,0.012,0.036,0.024,0.037c-0.08,0.096-0.087-0.044-0.195,0.116
		c-0.11-0.011-0.04,0.449-0.269,0.585c-0.007,0.068,0.064,0.009,0.087,0.046c-0.23,0.242-0.189,0.214-0.413,0.386l-0.062,0.237
		c0.024-0.189-0.155-0.053-0.308,0.068c0.001-0.071,0.001-0.134,0.005-0.172l-0.191,0.229c-0.005,0.041,0.038,0.035,0.096,0.016
		l-0.046,0.033c-0.024,0.115,0.05,0.101,0.133,0.066l0.004-0.129c0.086-0.03,0.175-0.053,0.214-0.006
		c-0.019,0.012-0.046,0.037-0.07,0.072c0.022-0.009,0.04-0.012,0.044,0.002c0.004,0.015-0.03,0.03-0.074,0.058l0.055,0.124
		l-0.044-0.011l-0.142,0.384c-0.229,0.18-0.482,0.294-0.739,0.654c0.119-0.047,0.116,0.061,0.194,0.114
		c-0.019-0.169,0.208-0.276,0.307-0.49c-0.051,0.112-0.002,0.116,0.026,0.099l-0.279,0.305c0.066,0.04,0.002,0.112-0.026,0.227
		c-0.078-0.164-0.251,0.191-0.381,0.302c0.034,0.041,0.099,0.04,0.202-0.138c-0.034,0.263-0.305,0.129-0.349,0.375
		c0.027-0.04,0.036-0.068,0.069-0.068c-0.102,0.068-0.229,0.328-0.157,0.302l0.028-0.04c-0.17,0.287-0.559,0.84-0.686,0.794
		c0.011,0.015,0.145,0.069,0.176,0.07l-0.661,0.194c0.113,0.033,0.205,0.381,0.406,0.194c-0.031,0.077-0.071,0.172-0.194,0.283
		c0.019-0.057-0.048-0.223-0.097-0.169c-0.019,0.252-0.022,0.166-0.093,0.436c0.029-0.08-0.155-0.131-0.228-0.027
		c0.032,0.003,0.123,0.129,0.165,0.105l-0.32,0.129c0.07-0.039,0.119,0.092,0.111,0.182c-0.005-0.049-0.162,0.219-0.227,0.274
		l0.052-0.136c-0.196,0.303-0.392,0.107-0.598,0.392c0.052-0.007,0.224,0.074,0.132,0.233c-0.115,0.002-0.529-0.02-0.766,0.176
		l0.002,0.084l-0.186,0.146c0.184-0.018,0.637-0.144,0.855-0.247c-0.053,0.136,0.021,0.072-0.104,0.228
		c-0.009,0.091,0.117-0.034,0.155-0.079L9.13,29.286c-0.062-0.092-0.29,0.207-0.34,0.129l0.383-0.322
		C9.11,29,8.785,29.11,8.601,29.382c-0.022,0.097,0.168,0.087,0.188,0.118c-0.047,0.012-0.244,0.189-0.247,0.23l0.13-0.063
		c-0.093,0.167-0.291,0.122-0.365,0.36c-0.045,0.061-0.056,0.27-0.106,0.234c-0.001-0.184-0.239-0.478-0.354-0.484
		c-0.012,0.025-0.179,0.381-0.195,0.491c-0.018,0.163,0.272,0.029,0.259,0.168c-0.022-0.017-0.092,0.007-0.118,0.021
		C7.757,30.536,7.873,30.5,7.752,30.62c-0.091-0.059-0.224,0.271-0.114-0.008c-0.13,0.104-0.102,0.152-0.234,0.297
		c-0.005-0.1-0.272-0.047-0.401,0.055c0.024,0.014,0.023,0.069,0.021,0.096c-0.22,0.264-0.302,0.45-0.528,0.67
		c-0.004,0.041-0.091,0.174-0.017,0.165c-0.043,0.017-0.096,0.019-0.167,0.085c-0.075,0.209,0.163-0.143,0.132,0.048
		c-0.048-0.04-0.233,0.112-0.355,0.181c-0.031-0.107,0.215-0.244,0.338-0.312c-0.085-0.104-0.344-0.044-0.614,0.141
		c-0.204,0.159-0.025,0.149-0.069,0.167c-0.333,0.368-0.438,0.109-0.665,0.477c-0.062,0.184,0.097,0.143,0.109,0.217
		c0.17-0.125,0.197-0.275,0.302-0.377l-0.101,0.16c0.064-0.025,0.179-0.109,0.218-0.185c-0.049,0.157-0.577,0.603-0.805,0.932
		c-0.062,0.027-0.168,0.077-0.146,0.013l0.093-0.072c0.04-0.133-0.218,0.078-0.127-0.053c-0.147,0.066-0.326,0.121-0.473,0.302
		l0.025,0.108c-0.013-0.027,0.076-0.145,0.142-0.162c-0.095,0.025-0.183,0.338-0.334,0.299l0.08-0.16
		c-0.147,0.065-0.354,0.109-0.485,0.266c0.012-0.141,0.04-0.021,0.081-0.209c-0.011,0.197,0.376-0.34,0.314-0.088
		c0.032-0.203,0.155-0.211,0.231-0.428c0.015,0.031-0.014,0.096,0.102-0.027c0.011,0.003,0.031,0.001,0.044-0.001l0.007-0.01
		L4.35,33.213c0.008,0,0.009,0-0.002,0.004c-0.021,0.038-0.035,0.073-0.035,0.096c0.106,0.011,0.303-0.17,0.386-0.208
		c0.061-0.083-0.052-0.001-0.033-0.068l0.129-0.048c-0.033-0.068,0.115-0.285-0.075-0.152l0.146-0.152
		c0.063-0.119,0.174-0.254,0.267-0.305c0.061-0.083,0.225-0.114,0.13-0.099l0.26-0.2l-0.009-0.016
		c0.224-0.238,0.548-0.385,0.729-0.75c0.09-0.062,0.185-0.125,0.291-0.283l-0.016-0.074c0.106-0.092,0.24-0.369,0.321-0.367
		c-0.007-0.242,0.429-0.546,0.573-0.757l0.061,0.052c0.109-0.132,0.233-0.24,0.396-0.377l0.04,0.061
		c0.156-0.101,0.286-0.386,0.465-0.617c-0.031-0.004-0.072,0.06-0.093,0.113c0.103-0.394,0.531-0.507,0.644-0.843
		c0.066-0.046,0.095-0.099,0.115-0.153l-0.014,0.012l0.02-0.025c0.012-0.037,0.027-0.078,0.04-0.114
		c-0.008,0.038-0.017,0.073-0.029,0.1c0.038-0.048,0.101-0.116,0.168-0.175l-0.03-0.084c0.006-0.006,0.008-0.008,0.015-0.016
		c0.033-0.09,0.069-0.031,0.081,0.047c0.036-0.028,0.073-0.053,0.105-0.066c-0.044-0.141,0.176-0.161,0.142-0.329
		c0.083-0.006,0.312-0.331,0.439-0.28c-0.011-0.014,0-0.041-0.03-0.002c0.049-0.094,0.104-0.181,0.18-0.234l-0.046-0.1l0.22-0.102
		c0.032-0.152,0.037-0.221-0.092-0.158c0.265-0.195,0.177-0.192,0.417-0.35l-0.056-0.029c0.058-0.08,0.207-0.158,0.202-0.242
		c0.032-0.262,0.599-0.924,0.824-1.469c0.087,0.207,0.067-0.28,0.19-0.215c-0.018-0.055,0.003-0.139-0.073-0.08
		c0.179-0.229,0.163-0.422,0.358-0.527c-0.019-0.053-0.082,0.018-0.087-0.023c0.019-0.014,0.075-0.059,0.07-0.1
		c-0.006-0.04-0.05,0.017-0.088,0.045c0.153-0.253,0.274-0.203,0.386-0.149c0.027-0.165,0.072-0.227,0.192-0.274
		c-0.007-0.069,0.003-0.17-0.103-0.018c0.048-0.094,0.27-0.588,0.356-0.541c-0.005-0.043,0.066-0.131,0.09-0.148
		c0.109-0.208,0.118-0.228,0.232-0.427l-0.014,0.066c0.138-0.017,0.105-0.159,0.198-0.319l-0.013-0.003
		c0.115-0.433,0.116-0.146,0.217-0.578l0.053,0.06c0.152,0.047,0.085-0.387,0.243-0.576l-0.003,0.102
		c0.105-0.094-0.022-0.447,0.02-0.577c0.001-0.033-0.039,0.03-0.065,0.062c0.071-0.361,0.103,0.008,0.236-0.217
		c-0.024-0.068-0.142-0.01-0.073-0.172c-0.005-0.102,0.383-0.371,0.373-0.65c0.015,0.069,0.031,0.137,0.103,0.037
		c0.081-0.169,0.053-0.541,0.227-0.643c0-0.026-0.006-0.039-0.015-0.044c0.082-0.119,0.219-0.41,0.312-0.461
		c-0.178-0.231,0.44-0.78,0.229-0.874L15.32,16.8l-0.027,0.002c0.082-0.272,0.153-0.35,0.237-0.423
		c0.005-0.068-0.03-0.031-0.043-0.03c0.079-0.414,0.1-0.447,0.31-0.741l-0.06-0.06c0.068-0.077,0.066-0.611,0.268-0.97
		c-0.01,0.001-0.025,0.004-0.045,0.031c0.235-0.405,0.097-1.108,0.385-1.199l0.128-0.277c-0.062,0.389,0.127-0.027,0.136,0.143
		c0.049-0.147,0.006-0.412-0.048-0.23l0.008,0.033c-0.152,0.031,0.055-0.49-0.04-0.503c0.172-0.751,0.271-1.497,0.327-2.215
		l0.098,0.099l0.025-0.25c-0.018-0.07-0.074-0.1-0.092,0.079c-0.05-0.103,0.09-0.291,0.113-0.293c0-0.354-0.144,0.12-0.133,0.011
		l0.026-0.143l0.008,0.034c0.06-0.112,0.108-0.116,0.13-0.331c-0.005-0.138-0.059-0.078-0.056-0.131
		c-0.008-0.001-0.01-0.019,0.007-0.083l0.03-0.313l0.069,0.134c0.061-0.135,0.034-0.298,0.113-0.143
		c-0.063-0.114-0.035-0.408-0.006-0.691c0.007-0.285,0.026-0.56,0.006-0.626c0.067-0.194,0.072-0.389,0.071-0.63
		c0.017,0.06,0.113,0.098,0.106-0.111c-0.203,0.076-0.075-0.38-0.217-0.545c0.093,0.147,0.04-0.587,0.171-0.358
		c-0.011-0.173-0.075-0.008-0.118-0.136c0.111-0.418-0.084-0.897-0.088-1.403c0.025-0.011,0.072,0.069,0.104-0.043l-0.152-0.25
		c0.006-0.101,0.146-0.111,0.04-0.281c0.024,0.023,0.061,0.056,0.063-0.012c-0.112-0.483-0.089-0.998-0.163-1.498
		c-0.08-0.498-0.176-0.999-0.385-1.453c0.074,0.118,0.063,0.028,0.046-0.074c0.024,0.063,0.062-0.02,0.101-0.017l-0.174-0.382
		C16.685,0.411,16.526,0.074,16.609,0l0.009,0.136c0.076-0.21,0.287,0.164,0.422,0.094c-0.088,0.236,0.282,0.467,0.165,0.845
		C17.246,1.138,17.238,1,17.278,1.029c-0.046,0.1-0.039,0.203,0.022,0.38l0.011-0.025c0.075,0.524,0.199,0.727,0.317,1.312
		l-0.075-0.031c0.02,0.127,0.044,0.149,0.065,0.207c-0.096,0.167-0.032-0.359-0.14-0.202c0.155,0.142,0.069,0.901,0.241,0.99
		c0.016,0.197-0.086-0.046-0.069,0.15l0.048,0.047l-0.054,0.058c0.02,0.127,0.079,0.186,0.118,0.186
		c-0.007-0.031,0.003-0.091,0.004-0.125c0.065,0.162,0.018,0.477,0.04,0.533l-0.042-0.187c-0.006,0.543,0.13,1.198-0.003,1.728
		L17.729,6.01c-0.073,0.401,0.028,0.318-0.013,0.758l0.009-0.017c-0.036,0.088-0.057,0.205-0.057,0.325
		c0.043-0.111,0.071,0.208,0.119,0.064c-0.079,0.433-0.059,0.215-0.191,0.496l0.054,0.068c-0.054,0.095-0.08,0.102-0.102,0.319
		c0.053-0.176,0.082,0.144,0.15-0.053c0.12,0.468-0.169,0.671-0.015,0.895c-0.181,0.196-0.036-0.402-0.084-0.288
		c-0.037-0.101-0.136,0.164-0.139,0.308c-0.015,0.144,0.166,0.264,0.116,0.631c0.004-0.036,0.017-0.038,0.02-0.074
		c0.021,0.143-0.086,0.264-0.044,0.439c-0.104,0.083-0.022,0.221-0.143,0.23l0.068-0.332c-0.055,0.188-0.215,0.345-0.188,0.668
		c0.027-0.021,0.07-0.11,0.095-0.17c0.023,0.097-0.044,0.173-0.021,0.273c0.12-0.009,0.076-0.404,0.191-0.597
		c0.038,0.106-0.133,0.376,0.007,0.292c-0.18,0.124-0.024,0.365-0.18,0.595l0.073-0.005c-0.017,0.038-0.06,0.113-0.067,0.187
		l0.106-0.116c-0.105,0.188,0.028,0.404-0.062,0.585c0.084-0.399-0.064-0.106-0.087-0.284c-0.186,0.473,0.126,0.317-0.025,0.864
		c0.027-0.073,0.02-0.291-0.038-0.18c-0.008,0.107-0.011,0.252,0.011,0.325c-0.094,0.361-0.059-0.072-0.136,0.074
		c0.058,0.143-0.073,0.17-0.136,0.322l0.071,0.019c-0.045,0.426-0.172,0.074-0.198,0.459l0.132-0.133l-0.066,0.189l0.088-0.02
		c-0.106,0.198-0.104,0.267-0.127,0.48c-0.04-0.061-0.134-0.009-0.176,0.174c0.014,0.137,0.082-0.051,0.016,0.206
		c0.056-0.044,0.125-0.093,0.085-0.225c0.025-0.005,0.057-0.045,0.081-0.052c0.019,0.15-0.062,0.343-0.084,0.438
		c0.005-0.037,0.011-0.082,0.006-0.108c0.008,0.003-0.198,0.342-0.197,0.343c0.007,0.066,0.043,0.027,0.077-0.012
		c-0.03,0.072-0.078,0.114-0.117,0.22c0.064-0.009,0.121,0.017,0.195-0.13l-0.171,0.33c0.017,0.032,0.012,0.203,0.046,0.165
		c-0.026,0.208-0.256,0.441-0.291,0.715c-0.016,0.008-0.034,0.032-0.06,0.083c-0.062,0.247-0.06,0.489-0.225,0.747l0.048,0.204
		c-0.091,0.216-0.056-0.272-0.208,0.087c-0.113,0.251,0.054,0.135,0.051,0.239c-0.1,0.107-0.288,0.284-0.301,0.555
		C15.747,17.516,15.757,17.448,15.793,17.378"/>
	<path fill="#1D1D1B" d="M2.139,33.491l-0.008-0.027C2.094,33.497,2.115,33.493,2.139,33.491 M4.851,22.2
		c0.012-0.008,0.021-0.006,0.03,0.001c-0.019,0.004-0.023,0.028-0.023,0.056C4.84,22.245,4.829,22.23,4.851,22.2 M4.865,22.313
		l-0.004,0.001C4.881,22.371,4.873,22.35,4.865,22.313 M3.502,27.231c-0.026,0.013-0.021,0.041,0.001,0.078
		C3.513,27.288,3.515,27.263,3.502,27.231 M2.936,28.956c-0.021,0.018-0.077,0.049-0.04,0.078C2.982,29.032,2.949,29,2.936,28.956
		 M2.602,30.09l-0.037-0.095c-0.115,0.063-0.1,0.14-0.16,0.042c0.197,0.053,0.095-0.291,0.292-0.239l-0.028-0.063
		c-0.002,0.016-0.015,0.014-0.016,0.029c-0.068-0.129,0.16-0.029,0.163-0.165c-0.004-0.05-0.024-0.089-0.055-0.066l0.073-0.084
		c0.004-0.028-0.032-0.032-0.036-0.003l0.054-0.146l-0.006-0.001c0.036-0.012,0.097-0.046,0.122-0.063
		C2.95,29.188,2.942,29.249,2.92,29.23l0.068-0.068c-0.042-0.05-0.109,0.005-0.116,0.064c-0.176-0.135,0.067-0.055-0.005-0.255
		l-0.045,0.07c-0.099-0.082-0.043-0.132-0.09-0.239c0.03,0.03,0.131,0.228,0.202,0.149c-0.008-0.029-0.007-0.064,0.045-0.102
		c-0.07-0.021-0.04-0.062-0.021-0.121l-0.094-0.021c0.043-0.058,0.089-0.039,0.14-0.066c0.009-0.074-0.059-0.108-0.115-0.141
		c0.015-0.12,0.096,0.109,0.146-0.021c-0.012-0.105,0.044-0.162,0.129-0.262c-0.016-0.076-0.061-0.004-0.081-0.035l0.089-0.04
		c0.003-0.015-0.021-0.017-0.033-0.017c0.041-0.043,0.095,0.02,0.138-0.053c0.106,0.004-0.118-0.203,0.019-0.273
		c-0.021-0.03-0.06-0.002-0.095-0.018c0.104-0.117,0.079-0.104,0.204-0.189l-0.042-0.11c0.057,0.087,0.157,0.017,0.241-0.044
		c0.028,0.031,0.055,0.06,0.065,0.078l0.076-0.114c-0.014-0.019-0.048-0.015-0.091-0.002l0.027-0.019
		c-0.025-0.053-0.086-0.042-0.144-0.022l0.049,0.06c-0.062,0.018-0.132,0.031-0.186,0.012c0.013-0.005,0.025-0.019,0.034-0.035
		c-0.018,0.004-0.032,0.006-0.04,0c-0.01-0.006,0.013-0.014,0.041-0.029l-0.099-0.053l0.043,0.002l-0.032-0.178
		c0.128-0.093,0.303-0.158,0.383-0.336c-0.086,0.028-0.127-0.018-0.219-0.035C3.6,26.837,3.443,26.901,3.444,27
		c-0.001-0.052-0.046-0.051-0.062-0.042l0.12-0.151c-0.074-0.014-0.049-0.049-0.07-0.1c0.14,0.066,0.123-0.105,0.183-0.168
		c-0.049-0.015-0.103-0.008-0.106,0.079c-0.094-0.116,0.196-0.084,0.12-0.196c-0.006,0.021,0,0.033-0.026,0.036
		c0.053-0.039,0.042-0.165-0.007-0.147L3.59,26.333c0.01-0.144,0.082-0.421,0.211-0.417c-0.016-0.004-0.154-0.012-0.181-0.008
		l0.469-0.164c-0.111,0.001-0.354-0.135-0.434-0.031c-0.01-0.035-0.021-0.08,0.028-0.143c0.011,0.026,0.146,0.086,0.161,0.057
		c-0.105-0.107-0.055-0.069-0.139-0.195c0.017,0.04,0.192,0.034,0.196-0.021c-0.027,0.004-0.166-0.035-0.188-0.02l0.188-0.102
		c-0.036,0.027-0.143-0.021-0.184-0.061c0.03,0.021,0.016-0.115,0.038-0.146l0.029,0.062c-0.001-0.154,0.259-0.104,0.274-0.256
		c-0.037,0.012-0.219,0.006-0.227-0.073c0.091-0.021,0.435-0.079,0.522-0.2l-0.045-0.034l0.072-0.093
		c-0.139,0.041-0.438,0.169-0.559,0.247c-0.029-0.063-0.055-0.026-0.036-0.11c-0.04-0.038-0.077,0.033-0.084,0.059l0.004-0.202
		c0.098,0.026,0.124-0.132,0.206-0.11l-0.139,0.194c0.098,0.027,0.303-0.071,0.308-0.214c-0.033-0.043-0.182-0.006-0.213-0.014
		c0.037-0.012,0.087-0.121,0.064-0.139L3.873,24.25c-0.024-0.085,0.153-0.104,0.073-0.213c0-0.034-0.111-0.119-0.052-0.113
		c0.104,0.072,0.455,0.143,0.545,0.123c-0.006-0.013-0.08-0.188-0.13-0.235c-0.08-0.067-0.226,0.043-0.294-0.015
		c0.026,0.002,0.066-0.021,0.078-0.031c-0.018-0.037-0.086,0-0.062-0.072c0.104,0.006,0.018-0.15,0.092-0.02
		c0.041-0.066-0.009-0.08,0.011-0.162c0.061,0.037,0.234-0.039,0.275-0.107c-0.026,0-0.058-0.021-0.072-0.032
		C4.351,23.225,4.318,23.136,4.338,23c-0.022-0.018-0.042-0.089-0.09-0.067c0.021-0.017,0.058-0.029,0.066-0.071
		c-0.073-0.097-0.027,0.093-0.122,0.012c0.059,0.004,0.097-0.096,0.144-0.149c0.088,0.032-0.005,0.143-0.05,0.195
		c0.124,0.021,0.271-0.062,0.353-0.196c0.047-0.109-0.074-0.062-0.053-0.08c0.011-0.219,0.245-0.146,0.183-0.341
		c-0.067-0.084-0.157-0.029-0.213-0.055c-0.044,0.089,0.028,0.152,0.016,0.215l-0.025-0.084c-0.031,0.024-0.061,0.084-0.042,0.121
		c-0.062-0.07,0.042-0.364,0-0.541c0.032-0.025,0.067-0.072,0.096-0.042l-0.02,0.049c0.057,0.06,0.104-0.083,0.125-0.011
		c0.055-0.064,0.138-0.131,0.117-0.236l-0.088-0.033c0.026,0.006,0.045,0.074,0.013,0.098c0.046-0.035-0.101-0.173,0.026-0.199
		l0.052,0.081c0.057-0.063,0.166-0.136,0.151-0.228c0.084,0.054-0.014,0.018,0.081,0.098c-0.121-0.076-0.028,0.227-0.152,0.116
		c0.112,0.084,0.034,0.118,0.126,0.22c-0.029-0.008-0.053-0.039-0.05,0.037c-0.009,0.002-0.021,0.008-0.028,0.013l0.002,0.005
		L4.951,21.92c-0.005,0.002-0.006,0.002-0.001-0.003c-0.01-0.021-0.023-0.036-0.039-0.045c-0.075,0.024-0.091,0.144-0.133,0.177
		c0.008,0.047,0.038-0.012,0.065,0.018l-0.062,0.049c0.066,0.018,0.094,0.135,0.148,0.039l-0.012,0.093
		c0.029,0.062,0.032,0.138-0.003,0.181c0.008,0.046-0.091,0.098-0.033,0.068l-0.062,0.139l0.017,0.004
		c-0.015,0.146-0.156,0.277-0.062,0.463c-0.024,0.045-0.052,0.092-0.046,0.176l0.055,0.024c-0.028,0.06,0.028,0.196-0.036,0.214
		c0.145,0.092-0.017,0.308-0.007,0.422l-0.076-0.009c-0.008,0.075-0.041,0.146-0.086,0.231l-0.066-0.016
		c-0.067,0.069,0.013,0.215-0.015,0.341c0.025-0.005,0.025-0.038,0.014-0.063c0.124,0.179-0.162,0.301-0.076,0.459
		c-0.029,0.029-0.026,0.057-0.014,0.084l0.006-0.008l-0.002,0.014l0.026,0.055c-0.013-0.018-0.024-0.034-0.028-0.047
		c-0.005,0.025-0.02,0.064-0.043,0.102l0.067,0.029c-0.001,0.004-0.002,0.006-0.003,0.009c0.02,0.044-0.039,0.025-0.09-0.005
		c-0.015,0.018-0.031,0.033-0.051,0.043c0.11,0.053-0.056,0.096,0.06,0.162c-0.063,0.016-0.078,0.189-0.207,0.187
		c0.017,0.005,0.022,0.019,0.026-0.003c0.008,0.046,0.014,0.093-0.028,0.125l0.088,0.037l-0.138,0.072
		c0.046,0.069,0.074,0.1,0.152,0.055c-0.132,0.119-0.062,0.104-0.19,0.203L4.126,26c-0.011,0.041-0.103,0.094-0.059,0.128
		c0.092,0.117-0.078,0.471-0.023,0.736c-0.162-0.085,0.055,0.13-0.08,0.11c0.037,0.023,0.054,0.062,0.097,0.031
		c-0.064,0.115,0.027,0.2-0.102,0.262c0.038,0.021,0.065-0.014,0.086,0.004c-0.011,0.009-0.043,0.031-0.021,0.051
		c0.021,0.018,0.038-0.01,0.06-0.026c-0.032,0.125-0.159,0.109-0.278,0.091c0.043,0.078,0.029,0.108-0.057,0.137
		c0.033,0.03,0.065,0.076,0.096,0.002c-0.004,0.045,0.002,0.283-0.093,0.266c0.021,0.02-0.005,0.062-0.018,0.072
		c-0.015,0.102-0.008,0.112-0.036,0.207l-0.01-0.031c-0.121,0.012-0.041,0.075-0.07,0.15l0.013,0.001
		c0.035,0.198-0.06,0.066-0.011,0.266L3.552,28.43c-0.154-0.024,0.049,0.178-0.033,0.265l-0.03-0.048
		c-0.066,0.042,0.164,0.211,0.169,0.273c0.009,0.016,0.025-0.015,0.039-0.028c0.051,0.173-0.096-0.006-0.145,0.097
		c0.044,0.035,0.132,0.01,0.123,0.086c0.03,0.049-0.214,0.169-0.146,0.297c-0.032-0.033-0.063-0.066-0.105-0.023
		C3.392,29.42,3.513,29.6,3.377,29.635c0.008,0.014,0.017,0.02,0.026,0.023c-0.047,0.051-0.101,0.178-0.173,0.193
		c0.224,0.131-0.209,0.332,0.011,0.401l-0.058,0.181l0.022,0.002c-0.014,0.123-0.078,0.146-0.145,0.167
		c0.006,0.032,0.032,0.02,0.045,0.022c-0.011,0.182-0.025,0.195-0.18,0.297l0.065,0.04c-0.054,0.022,0.03,0.282-0.105,0.417
		c0.009,0.002,0.022,0.003,0.037-0.006c-0.143,0.151,0.048,0.52-0.229,0.485l-0.102,0.097c0.032-0.166-0.118-0.021-0.139-0.104
		c-0.034,0.055,0.023,0.19,0.062,0.12l-0.009-0.017c0.142,0.025-0.017,0.215,0.074,0.248C2.47,32.509,2.458,32.85,2.33,33.129
		l-0.086-0.08l-0.037,0.1c0.013,0.037,0.063,0.072,0.09,0c0.041,0.065-0.099,0.096-0.121,0.086c-0.019,0.156,0.14,0.004,0.123,0.047
		l-0.031,0.054l-0.006-0.02c-0.062,0.026-0.106,0.01-0.138,0.095c-0.003,0.062,0.05,0.059,0.044,0.081
		c0.008,0.003,0.008,0.013-0.011,0.034l-0.045,0.127l-0.057-0.09c-0.062,0.035-0.046,0.119-0.11,0.016
		c0.101,0.154-0.149,0.483-0.13,0.557c-0.09,0.046-0.12,0.12-0.155,0.218c-0.006-0.032-0.085-0.096-0.108-0.009
		c0.189,0.071,0.013,0.189,0.111,0.33c-0.059-0.108-0.12,0.216-0.199,0.054c-0.015,0.075,0.063,0.044,0.082,0.119
		c-0.129,0.124-0.126,0.37-0.256,0.542c-0.024-0.012-0.04-0.065-0.097-0.047l0.056,0.172c-0.031,0.029-0.148-0.053-0.109,0.066
		c-0.014-0.022-0.033-0.056-0.055-0.036c-0.101,0.44-0.511,0.673-0.525,1.193c-0.013-0.083-0.035-0.052-0.06-0.015
		c0.005-0.034-0.053-0.043-0.079-0.07l-0.008,0.219c-0.096-0.037-0.101,0.16-0.187,0.114l0.042-0.038
		C0.143,36.938,0.122,36.695,0,36.611c0.144,0.011-0.045-0.309,0.169-0.308c-0.01-0.043-0.05-0.007-0.069-0.042
		c0.066,0.009,0.099-0.019,0.112-0.101l-0.017-0.003c0.118-0.175,0.113-0.292,0.198-0.522l0.051,0.059
		c0.018-0.051,0.004-0.072,0.001-0.104c0.12,0.013-0.066,0.128,0.06,0.153c-0.087-0.145,0.179-0.316,0.062-0.451
		c0.039-0.068,0.059,0.068,0.097-0.002l-0.027-0.043l0.059,0.016c0.019-0.05-0.017-0.105-0.048-0.127
		c-0.002,0.014-0.026,0.024-0.036,0.033c-0.012-0.086,0.109-0.151,0.105-0.182l-0.013,0.08c0.143-0.161,0.227-0.417,0.38-0.567
		l0.023,0.032c0.117-0.115,0.019-0.137,0.113-0.284l-0.01,0.002c0.044-0.017,0.078-0.051,0.094-0.097
		c-0.052,0.02-0.034-0.116-0.097-0.084c0.129-0.127,0.081-0.053,0.238-0.097L1.408,33.92c0.061-0.012,0.085-0.002,0.133-0.076
		c-0.072,0.043-0.053-0.094-0.142-0.05c-0.036-0.228,0.22-0.192,0.094-0.356c0.172-0.005,0.013,0.188,0.061,0.16
		c0.029,0.062,0.132-0.011,0.142-0.07c0.021-0.058-0.137-0.185-0.075-0.32c-0.006,0.015-0.017,0.011-0.021,0.023
		c-0.014-0.068,0.092-0.076,0.061-0.167c0.101,0.007,0.03-0.083,0.144-0.04l-0.08,0.113c0.059-0.058,0.215-0.062,0.205-0.211
		c-0.026,0-0.07,0.02-0.097,0.037c-0.018-0.05,0.049-0.057,0.032-0.107c-0.113-0.041-0.09,0.141-0.205,0.176
		c-0.03-0.059,0.141-0.104,0.007-0.123c0.173,0.018,0.039-0.143,0.193-0.181l-0.067-0.024c0.016-0.01,0.061-0.025,0.07-0.053
		L1.756,32.66c0.106-0.039-0.004-0.173,0.059-0.229c-0.053,0.153,0.067,0.07,0.093,0.157c0.152-0.153-0.135-0.188-0.032-0.39
		c-0.019,0.026,0.004,0.127,0.049,0.096c0-0.048-0.008-0.112-0.034-0.152c0.061-0.137,0.062,0.051,0.122,0.008
		c-0.064-0.084,0.055-0.056,0.102-0.107l-0.067-0.029c0.011-0.182,0.155,0.015,0.151-0.154l-0.114,0.023l0.05-0.066L2.05,31.799
		c0.085-0.061,0.079-0.092,0.084-0.183c0.041,0.038,0.126,0.039,0.152-0.032c-0.024-0.066-0.073,0.002-0.03-0.097
		c-0.05,0.007-0.111,0.009-0.063,0.08c-0.023-0.005-0.051,0.006-0.073,0.001c-0.029-0.071,0.033-0.137,0.046-0.174
		c-0.002,0.015-0.005,0.033,0.002,0.046l0.144-0.11c-0.018-0.034-0.045-0.023-0.071-0.012c0.018-0.029,0.057-0.037,0.076-0.079
		c-0.059-0.01-0.115-0.034-0.162,0.018l0.108-0.117c-0.021-0.019-0.043-0.098-0.069-0.086c-0.007-0.09,0.171-0.152,0.162-0.272
		c0.013,0,0.026-0.008,0.042-0.026c0.02-0.103-0.021-0.212,0.094-0.301l-0.079-0.101c0.052-0.082,0.099,0.133,0.184-0.007
		c0.061-0.099-0.076-0.069-0.094-0.117c0.063-0.037,0.191-0.099,0.134-0.227C2.608,30.03,2.616,30.062,2.602,30.09"/>
	<path fill="#1D1D1B" d="M3.34,36.775l0.015-0.022C3.316,36.732,3.327,36.752,3.34,36.775 M12.556,37.391
		c0.007,0.014,0.004,0.023-0.001,0.034c-0.004-0.021-0.022-0.025-0.045-0.023C12.52,37.381,12.532,37.368,12.556,37.391
		 M12.464,37.412l-0.002-0.005C12.416,37.433,12.434,37.422,12.464,37.412 M8.483,36.307c-0.012-0.028-0.034-0.019-0.061,0.012
		C8.439,36.327,8.459,36.325,8.483,36.307 M7.024,36.011c-0.019-0.019-0.053-0.073-0.069-0.026
		C6.971,36.082,6.99,36.036,7.024,36.011 M6.052,35.913l0.068-0.063c-0.074-0.114-0.134-0.079-0.068-0.171
		c0,0.234,0.254,0.037,0.252,0.271l0.046-0.048c-0.013,0.002-0.015-0.012-0.027-0.01c0.091-0.107,0.055,0.171,0.164,0.143
		c0.038-0.017,0.067-0.049,0.042-0.078l0.081,0.062c0.024-0.004,0.021-0.044-0.004-0.04L6.732,36v-0.006
		c0.016,0.037,0.054,0.096,0.072,0.119c0.034-0.031-0.015-0.024-0.005-0.053l0.067,0.059C6.899,36.062,6.845,36,6.795,36.006
		c0.08-0.229,0.055,0.062,0.206-0.066l-0.065-0.034c0.052-0.13,0.101-0.079,0.183-0.157c-0.021,0.041-0.165,0.199-0.093,0.261
		c0.023-0.017,0.052-0.022,0.091,0.024c0.006-0.082,0.045-0.059,0.095-0.052l0.005-0.111c0.053,0.036,0.044,0.091,0.073,0.142
		c0.061-0.008,0.08-0.092,0.1-0.163c0.099-0.012-0.077,0.134,0.037,0.159c0.084-0.039,0.138,0.009,0.229,0.079
		c0.06-0.034-0.005-0.067,0.019-0.099l0.043,0.091c0.013-0.002,0.011-0.028,0.01-0.043c0.04,0.036-0.005,0.11,0.059,0.144
		c0.008,0.121,0.151-0.174,0.223-0.027c0.022-0.027-0.004-0.068,0.005-0.11c0.104,0.102,0.091,0.075,0.173,0.206l0.084-0.064
		c-0.065,0.076,0,0.181,0.057,0.267c-0.024,0.038-0.044,0.071-0.058,0.086l0.097,0.069c0.014-0.018,0.009-0.056-0.005-0.104
		l0.017,0.029c0.04-0.037,0.027-0.102,0.006-0.165L8.34,36.43c-0.019-0.07-0.035-0.145-0.024-0.209
		c0.006,0.014,0.019,0.025,0.031,0.033c-0.005-0.02-0.008-0.035-0.004-0.046c0.005-0.011,0.013,0.014,0.027,0.044l0.035-0.119
		l0.001,0.049l0.143-0.064c0.085,0.133,0.15,0.322,0.298,0.388c-0.029-0.093,0.007-0.147,0.015-0.253
		c-0.052,0.108-0.113-0.06-0.194-0.045c0.042-0.006,0.038-0.059,0.03-0.077l0.13,0.116c0.007-0.086,0.037-0.062,0.078-0.094
		c-0.046,0.168,0.094,0.123,0.146,0.182c0.01-0.057,0.002-0.116-0.069-0.11c0.091-0.121,0.079,0.212,0.167,0.11
		c-0.018-0.004-0.028,0.004-0.031-0.025c0.034,0.055,0.137,0.024,0.119-0.029l-0.018-0.002c0.117-0.009,0.348,0.033,0.348,0.182
		c0.003-0.021,0.006-0.178,0.002-0.207l0.146,0.508c-0.004-0.126,0.101-0.416,0.016-0.497c0.028-0.014,0.064-0.031,0.116,0.019
		c-0.021,0.016-0.068,0.175-0.044,0.189c0.086-0.133,0.058-0.071,0.157-0.177c-0.031,0.022-0.024,0.222,0.02,0.222
		c-0.003-0.031,0.027-0.191,0.014-0.215l0.085,0.207c-0.023-0.037,0.016-0.162,0.047-0.214c-0.016,0.036,0.094,0.01,0.12,0.032
		l-0.051,0.039c0.126-0.012,0.086,0.285,0.208,0.293c-0.009-0.041-0.005-0.248,0.062-0.264c0.015,0.102,0.063,0.488,0.158,0.58
		l0.028-0.055l0.074,0.076c-0.031-0.155-0.134-0.484-0.197-0.617c0.053-0.037,0.022-0.064,0.09-0.05
		c0.031-0.049-0.027-0.085-0.047-0.09l0.165-0.013c-0.022,0.114,0.107,0.133,0.088,0.227l-0.158-0.144
		c-0.021,0.114,0.058,0.341,0.173,0.335c0.035-0.041,0.007-0.206,0.014-0.243c0.009,0.042,0.098,0.089,0.111,0.062l-0.039-0.067
		c0.068-0.035,0.081,0.166,0.173,0.066c0.027-0.004,0.098-0.135,0.094-0.067c-0.061,0.125-0.125,0.528-0.111,0.63
		c0.011-0.008,0.154-0.105,0.192-0.167c0.058-0.095-0.029-0.253,0.02-0.335c-0.003,0.031,0.016,0.074,0.024,0.087
		c0.031-0.022,0.002-0.099,0.06-0.075c-0.007,0.116,0.122,0.008,0.014,0.102c0.054,0.041,0.065-0.015,0.133,0
		c-0.032,0.071,0.025,0.263,0.078,0.305c0.001-0.031,0.02-0.066,0.029-0.084c0.12,0.006,0.191-0.035,0.303-0.018
		c0.014-0.027,0.073-0.052,0.058-0.105c0.013,0.023,0.021,0.064,0.056,0.074c0.081-0.09-0.074-0.029-0.006-0.141
		c-0.006,0.067,0.075,0.107,0.117,0.157c-0.031,0.101-0.115,0.001-0.158-0.049c-0.021,0.144,0.041,0.307,0.146,0.393
		c0.086,0.051,0.054-0.085,0.066-0.063c0.177,0.006,0.108,0.276,0.267,0.196c0.072-0.081,0.03-0.181,0.054-0.245
		c-0.069-0.047-0.123,0.039-0.174,0.027l0.069-0.033c-0.02-0.034-0.066-0.064-0.097-0.045c0.06-0.072,0.293,0.034,0.439-0.02
		c0.018,0.035,0.054,0.074,0.029,0.107l-0.04-0.021c-0.05,0.067,0.062,0.116,0.005,0.14c0.047,0.062,0.098,0.154,0.184,0.125
		l0.032-0.1c-0.007,0.028-0.062,0.053-0.079,0.016c0.026,0.053,0.144-0.119,0.158,0.023l-0.067,0.063
		c0.049,0.061,0.102,0.184,0.177,0.162c-0.049,0.098-0.015-0.015-0.083,0.097c0.067-0.142-0.181-0.023-0.086-0.169
		c-0.074,0.13-0.099,0.044-0.185,0.151c0.007-0.033,0.034-0.062-0.028-0.054c0-0.011-0.005-0.024-0.008-0.032l-0.004,0.002
		l0.004-0.004c-0.002-0.006-0.002-0.007,0.001-0.001c0.017-0.013,0.031-0.028,0.038-0.048c-0.016-0.084-0.111-0.098-0.136-0.144
		c-0.038,0.011,0.008,0.042-0.017,0.075l-0.038-0.068c-0.017,0.076-0.112,0.111-0.037,0.17l-0.074-0.01
		c-0.051,0.035-0.113,0.043-0.146,0.005c-0.038,0.011-0.076-0.1-0.055-0.034l-0.109-0.067l-0.004,0.019
		c-0.116-0.009-0.218-0.166-0.37-0.051c-0.035-0.024-0.071-0.057-0.139-0.045l-0.023,0.064c-0.046-0.029-0.158,0.045-0.17-0.025
		c-0.079,0.17-0.247,0.004-0.339,0.023l0.009-0.087c-0.061-0.003-0.114-0.036-0.186-0.08L11,37.114
		c-0.057-0.07-0.174,0.031-0.275,0.01c0.004,0.029,0.031,0.025,0.051,0.011c-0.145,0.155-0.241-0.161-0.367-0.052
		c-0.023-0.031-0.045-0.023-0.067-0.008l0.007,0.005c-0.006-0.001-0.007-0.001-0.012-0.002l-0.043,0.036
		c0.013-0.018,0.026-0.031,0.036-0.037c-0.021-0.004-0.052-0.018-0.08-0.041l-0.024,0.079c-0.003-0.001-0.003-0.001-0.007-0.002
		c-0.034,0.026-0.02-0.044,0.004-0.103c-0.014-0.016-0.026-0.033-0.035-0.055c-0.042,0.128-0.077-0.058-0.129,0.079
		c-0.014-0.071-0.153-0.073-0.151-0.22c-0.003,0.018-0.015,0.025,0.003,0.028c-0.037,0.013-0.074,0.022-0.102-0.021L9.78,36.924
		L9.72,36.778c-0.055,0.059-0.078,0.093-0.041,0.18c-0.099-0.136-0.086-0.057-0.168-0.188l-0.003,0.067
		c-0.034-0.006-0.078-0.102-0.105-0.049c-0.09,0.121-0.381-0.02-0.59,0.082c0.059-0.197-0.1,0.078-0.092-0.076
		c-0.017,0.045-0.047,0.069-0.019,0.113c-0.096-0.056-0.158,0.06-0.214-0.076c-0.017,0.045,0.014,0.07,0.001,0.098
		c-0.007-0.011-0.027-0.045-0.04-0.018c-0.013,0.026,0.01,0.041,0.024,0.064c-0.102-0.02-0.098-0.165-0.092-0.303
		c-0.059,0.06-0.083,0.048-0.112-0.045c-0.023,0.043-0.057,0.086,0.005,0.108c-0.037,0.003-0.225,0.045-0.218-0.065
		c-0.014,0.026-0.052,0.002-0.06-0.012c-0.081-0.002-0.089,0.008-0.167-0.006l0.023-0.016c-0.021-0.133-0.063-0.033-0.127-0.051
		l0.001,0.012c-0.153,0.09-0.06-0.049-0.212,0.055l0.014-0.082c0-0.178-0.136,0.098-0.215,0.026l0.034-0.046
		c-0.043-0.062-0.146,0.236-0.192,0.256c-0.011,0.014,0.015,0.023,0.027,0.036c-0.127,0.1-0.008-0.107-0.096-0.137
		c-0.021,0.058,0.011,0.148-0.05,0.156c-0.033,0.046-0.162-0.196-0.251-0.089c0.021-0.045,0.041-0.088,0.001-0.123
		c-0.062-0.02-0.181,0.16-0.23,0.017c-0.01,0.013-0.013,0.024-0.014,0.035c-0.047-0.038-0.155-0.067-0.181-0.146
		c-0.059,0.281-0.297-0.152-0.308,0.109l-0.149-0.016l0.002,0.026c-0.097,0.02-0.127-0.043-0.159-0.104
		c-0.022,0.018-0.008,0.041-0.006,0.055c-0.142,0.057-0.155,0.045-0.27-0.082l-0.015,0.084c-0.031-0.049-0.205,0.138-0.34,0.041
		c0,0.01,0.002,0.025,0.014,0.037c-0.153-0.096-0.371,0.244-0.426-0.064l-0.103-0.075c0.134-0.026-0.02-0.133,0.035-0.187
		c-0.053-0.016-0.135,0.097-0.071,0.111l0.011-0.016c0.022,0.16-0.165,0.061-0.161,0.17c-0.26-0.01-0.512,0.096-0.753,0.131
		l0.024-0.127l-0.085,0.015c-0.021,0.032-0.027,0.102,0.033,0.091c-0.029,0.072-0.103-0.05-0.105-0.076
		c-0.117,0.061,0.05,0.141,0.015,0.146l-0.05-0.006l0.011-0.014c-0.042-0.047-0.047-0.102-0.119-0.088
		c-0.045,0.029-0.021,0.079-0.039,0.086c0.001,0.008-0.005,0.014-0.027,0.005l-0.106,0.022l0.039-0.104
		c-0.049-0.045-0.101,0.016-0.056-0.103c-0.065,0.18-0.396,0.101-0.438,0.158c-0.069-0.065-0.135-0.058-0.216-0.042
		c0.02-0.021,0.024-0.133-0.046-0.113c0.041,0.227-0.121,0.111-0.167,0.28c0.044-0.112-0.2-0.007-0.133-0.169
		c-0.057,0.023,0.003,0.086-0.037,0.143c-0.146-0.077-0.299,0.109-0.471,0.107c-0.005-0.029,0.019-0.08-0.021-0.118l-0.076,0.165
		c-0.035-0.008-0.048-0.166-0.099-0.051c0.006-0.027,0.016-0.066-0.008-0.072c-0.318,0.206-0.698,0.006-1.002,0.34
		c0.038-0.066,0.008-0.066-0.028-0.062c0.021-0.018-0.011-0.073-0.012-0.114l-0.127,0.138c-0.04-0.107-0.152,0.02-0.182-0.084
		l0.047,0.012c-0.078-0.115,0.044-0.294,0.013-0.453c0.088,0.13,0.15-0.246,0.29-0.061c0.02-0.039-0.028-0.049-0.021-0.089
		c0.038,0.063,0.074,0.073,0.133,0.03l-0.01-0.017c0.182-0.015,0.249-0.098,0.445-0.181l-0.006,0.084
		c0.042-0.02,0.048-0.046,0.066-0.07c0.062,0.113-0.12,0.029-0.061,0.156c0.038-0.174,0.302-0.059,0.322-0.252
		c0.066-0.013-0.01,0.098,0.056,0.083l0.014-0.054l0.022,0.062c0.042-0.018,0.059-0.086,0.056-0.128
		c-0.01,0.007-0.03-0.007-0.043-0.008c0.051-0.069,0.162-0.009,0.179-0.032l-0.061,0.043c0.186,0.02,0.4-0.104,0.585-0.011
		l-0.01,0.04c0.139,0.058,0.104-0.053,0.253-0.034l-0.006-0.009c0.032,0.036,0.073,0.051,0.113,0.042
		c-0.04-0.041,0.063-0.093,0.013-0.137c0.149,0.061,0.075,0.053,0.18,0.185l0.019-0.065c0.036,0.054,0.04,0.084,0.114,0.093
		c-0.063-0.049,0.042-0.102-0.029-0.165c0.147-0.153,0.235,0.117,0.297-0.092c0.078,0.169-0.129,0.11-0.088,0.144
		c-0.03,0.061,0.064,0.125,0.111,0.104c0.049-0.009,0.075-0.232,0.199-0.241c-0.012,0.002-0.014-0.011-0.026-0.009
		c0.045-0.05,0.094,0.052,0.148-0.027c0.035,0.104,0.073-0.012,0.087,0.122l-0.115-0.021c0.066,0.028,0.131,0.182,0.235,0.095
		c-0.009-0.026-0.042-0.06-0.064-0.077c0.03-0.043,0.061,0.021,0.092-0.023c-0.013-0.134-0.139-0.016-0.211-0.113
		c0.031-0.061,0.134,0.086,0.095-0.059c0.055,0.183,0.122-0.035,0.21,0.1l-0.008-0.08c0.013,0.012,0.043,0.047,0.066,0.043
		l-0.047-0.102c0.07,0.084,0.13-0.09,0.197-0.048c-0.137,0.01-0.029,0.101-0.086,0.166c0.17,0.092,0.094-0.225,0.283-0.19
		c-0.025-0.01-0.096,0.051-0.055,0.089c0.036-0.019,0.083-0.05,0.105-0.093c0.125,0.014-0.02,0.084,0.035,0.133
		c0.041-0.1,0.062,0.039,0.116,0.07l0.001-0.083c0.142-0.057,0.038,0.171,0.166,0.104l-0.055-0.113l0.066,0.027l-0.014-0.094
		c0.073,0.07,0.095,0.051,0.168,0.023c-0.018,0.059,0.008,0.149,0.07,0.15c0.044-0.049-0.022-0.078,0.066-0.068
		c-0.02-0.051-0.041-0.115-0.08-0.037c-0.004-0.027-0.021-0.053-0.024-0.08c0.047-0.057,0.117-0.014,0.149-0.014
		c-0.012,0.004-0.027,0.008-0.035,0.02l0.129,0.112c0.021-0.032,0.005-0.057-0.012-0.08C5.013,35.963,5.03,36,5.068,36.006
		c-0.01-0.066-0.006-0.137-0.061-0.166l0.124,0.071c0.009-0.028,0.064-0.081,0.049-0.106c0.07-0.04,0.166,0.129,0.259,0.074
		c0.005,0.014,0.014,0.025,0.033,0.033c0.086-0.016,0.164-0.099,0.263-0.01l0.062-0.121c0.078,0.025-0.084,0.153,0.047,0.195
		c0.092,0.038,0.038-0.102,0.072-0.137c0.045,0.059,0.121,0.183,0.211,0.09C6.101,35.905,6.077,35.922,6.052,35.913"/>
</g>
</svg>
