<?xml version="1.0" encoding="utf-8"?>
<!-- Generator: Adobe Illustrator 16.0.0, SVG Export Plug-In . SVG Version: 6.00 Build 0)  -->
<!DOCTYPE svg PUBLIC "-//W3C//DTD SVG 1.1//EN" "http://www.w3.org/Graphics/SVG/1.1/DTD/svg11.dtd">
<svg version="1.1" id="Layer_1" xmlns="http://www.w3.org/2000/svg" xmlns:xlink="http://www.w3.org/1999/xlink" x="0px" y="0px"
	 width="28.925px" height="21.962px" viewBox="0 0 28.925 21.962" enable-background="new 0 0 28.925 21.962" xml:space="preserve">
<path fill="#9AC331" d="M21.575,16.874c0.673-0.742,1.245-1.58,1.747-2.465c0.758-1.331,1.358-2.74,2.065-4.098
	c0.58-1.115,1.162-2.229,1.744-3.344h1.793c-0.752-2.407-1.455-4.659-2.158-6.91C26.591,0.038,26.414,0.02,26.237,0
	c-1.268,1.986-2.536,3.975-3.91,6.128c0.748,0.323,1.329,0.573,2.07,0.894c-1.061,3.057-2.266,5.801-4.76,8.242
	c-5.246,5.132-11.26,5.166-17.725,3.896c-0.793-0.154-1.576-0.467-1.854,0.731c-0.295,1.271,0.582,1.173,1.375,1.339
	c4.002,0.841,8.045,1.129,11.973-0.07l0,0c2.115-0.646,4.243-1.434,6.139-2.588C20.316,18.104,20.985,17.525,21.575,16.874"/>
</svg>
