<?xml version="1.0" encoding="utf-8"?>
<!-- Generator: Adobe Illustrator 16.0.0, SVG Export Plug-In . SVG Version: 6.00 Build 0)  -->
<!DOCTYPE svg PUBLIC "-//W3C//DTD SVG 1.1//EN" "http://www.w3.org/Graphics/SVG/1.1/DTD/svg11.dtd">
<svg version="1.1" id="Layer_1" xmlns="http://www.w3.org/2000/svg" xmlns:xlink="http://www.w3.org/1999/xlink" x="0px" y="0px"
	 width="28.925px" height="21.962px" viewBox="0 0 28.925 21.962" enable-background="new 0 0 28.925 21.962" xml:space="preserve">
<path fill="#9AC331" d="M21.575,5.087c0.672,0.743,1.244,1.581,1.746,2.465c0.758,1.331,1.358,2.741,2.065,4.098
	c0.581,1.114,1.163,2.229,1.744,3.344h1.794c-0.752,2.407-1.455,4.659-2.158,6.91c-0.176,0.019-0.354,0.038-0.529,0.058
	c-1.269-1.986-2.537-3.975-3.91-6.127c0.748-0.324,1.328-0.574,2.069-0.895c-1.06-3.057-2.265-5.801-4.76-8.242
	C14.392,1.566,8.376,1.532,1.913,2.802C1.12,2.958,0.336,3.27,0.059,2.071C-0.236,0.8,0.641,0.898,1.434,0.732
	c4.002-0.841,8.045-1.129,11.973,0.07c2.115,0.646,4.243,1.434,6.139,2.588C20.315,3.858,20.984,4.437,21.575,5.087"/>
</svg>
