<?xml version="1.0" encoding="utf-8"?>
<!-- Generator: Adobe Illustrator 16.0.0, SVG Export Plug-In . SVG Version: 6.00 Build 0)  -->
<!DOCTYPE svg PUBLIC "-//W3C//DTD SVG 1.1//EN" "http://www.w3.org/Graphics/SVG/1.1/DTD/svg11.dtd">
<svg version="1.1" id="Layer_1" xmlns="http://www.w3.org/2000/svg" xmlns:xlink="http://www.w3.org/1999/xlink" x="0px" y="0px"
	 width="17.82px" height="37.6px" viewBox="0 0 17.82 37.6" enable-background="new 0 0 17.82 37.6" xml:space="preserve">
<g>
	<path fill="#1D1D1B" d="M0.815,9.408C0.79,9.38,0.767,9.35,0.802,9.459L0.815,9.408 M12.964,32.804
		c-0.062-0.037-0.076-0.07-0.076-0.101c0.041,0.049,0.08,0.086,0.103,0.083C12.991,32.803,12.987,32.813,12.964,32.804
		 M12.812,32.606c-0.048-0.069-0.069-0.108-0.006-0.002L12.812,32.606 M5.295,23.77c-0.018-0.067-0.044-0.121-0.074-0.162
		C5.233,23.687,5.255,23.749,5.295,23.77 M3.154,20.026c-0.02-0.096-0.006-0.159-0.106-0.176
		C3.026,19.907,3.116,19.984,3.154,20.026 M2.027,17.378c0.036,0.07,0.046,0.138,0.099,0.207c-0.014-0.271-0.201-0.448-0.302-0.556
		c-0.003-0.104,0.164,0.013,0.052-0.238c-0.152-0.359-0.117,0.129-0.208-0.087L1.715,16.5C1.55,16.242,1.552,16,1.49,15.753
		c-0.025-0.051-0.044-0.075-0.06-0.083c-0.035-0.274-0.265-0.507-0.291-0.715c0.034,0.038,0.029-0.133,0.046-0.165l-0.171-0.33
		c0.074,0.146,0.131,0.121,0.195,0.13c-0.039-0.106-0.088-0.148-0.117-0.22c0.034,0.039,0.069,0.078,0.077,0.012
		c0.001-0.001-0.205-0.34-0.197-0.343c-0.005,0.025,0.001,0.07,0.006,0.107c-0.021-0.095-0.103-0.288-0.084-0.438
		c0.024,0.007,0.056,0.047,0.081,0.052c-0.04,0.132,0.029,0.181,0.085,0.225c-0.066-0.257,0.002-0.068,0.016-0.206
		C1.033,13.597,0.94,13.545,0.9,13.606c-0.022-0.213-0.021-0.281-0.127-0.479l0.088,0.02l-0.065-0.188l0.132,0.133
		c-0.026-0.385-0.153-0.033-0.198-0.459l0.071-0.02c-0.063-0.151-0.194-0.179-0.137-0.321c-0.076-0.146-0.042,0.287-0.136-0.074
		c0.022-0.073,0.02-0.218,0.011-0.325c-0.058-0.111-0.064,0.107-0.037,0.18c-0.151-0.547,0.16-0.391-0.025-0.863
		c-0.023,0.178-0.171-0.115-0.087,0.284c-0.09-0.182,0.043-0.397-0.062-0.585l0.106,0.115c-0.007-0.073-0.05-0.148-0.067-0.187
		l0.073,0.005c-0.156-0.23,0-0.471-0.18-0.595c0.14,0.084-0.031-0.187,0.007-0.292c0.115,0.192,0.071,0.588,0.191,0.597
		c0.022-0.1-0.045-0.176-0.021-0.273c0.025,0.061,0.068,0.149,0.095,0.171c0.027-0.323-0.133-0.48-0.188-0.669l0.067,0.332
		c-0.12-0.009-0.039-0.146-0.143-0.229C0.31,9.706,0.202,9.585,0.224,9.442C0.227,9.478,0.24,9.48,0.243,9.516
		C0.194,9.149,0.375,9.029,0.36,8.885C0.357,8.741,0.258,8.476,0.221,8.577C0.173,8.463,0.318,9.061,0.137,8.865
		C0.291,8.641,0.002,8.438,0.121,7.97c0.068,0.197,0.098-0.123,0.15,0.053C0.25,7.806,0.224,7.799,0.17,7.704l0.054-0.068
		C0.092,7.355,0.112,7.573,0.032,7.14c0.049,0.145,0.076-0.175,0.119-0.063c0-0.12-0.021-0.237-0.057-0.325l0.009,0.017
		C0.063,6.328,0.163,6.411,0.091,6.01L0.059,6.05c-0.133-0.53,0.003-1.185-0.003-1.728L0.014,4.509
		c0.021-0.056-0.025-0.371,0.04-0.533C0.055,4.01,0.065,4.07,0.058,4.101c0.039,0,0.098-0.059,0.118-0.186L0.121,3.857L0.17,3.81
		C0.187,3.615,0.085,3.857,0.101,3.66c0.172-0.09,0.086-0.849,0.241-0.99C0.234,2.513,0.298,3.039,0.201,2.872
		c0.021-0.059,0.045-0.08,0.065-0.207l-0.075,0.03C0.31,2.111,0.434,1.908,0.509,1.384L0.52,1.409
		c0.062-0.178,0.068-0.28,0.022-0.381C0.582,1,0.573,1.138,0.615,1.075C0.498,0.698,0.867,0.466,0.78,0.23
		C0.915,0.3,1.126-0.074,1.201,0.136L1.211,0c0.083,0.074-0.076,0.411,0.01,0.521L1.047,0.903C1.086,0.9,1.124,0.983,1.148,0.92
		C1.131,1.022,1.119,1.112,1.194,0.994C0.985,1.448,0.889,1.949,0.809,2.448c-0.074,0.5-0.051,1.015-0.163,1.497
		C0.648,4.013,0.685,3.98,0.709,3.957c-0.106,0.17,0.033,0.18,0.04,0.28l-0.152,0.25C0.629,4.6,0.676,4.52,0.7,4.531
		C0.697,5.037,0.502,5.516,0.613,5.934C0.57,6.062,0.506,5.897,0.494,6.07c0.132-0.229,0.078,0.506,0.172,0.358
		C0.524,6.593,0.652,7.049,0.448,6.973C0.442,7.182,0.537,7.144,0.555,7.084C0.554,7.325,0.559,7.52,0.626,7.714
		C0.606,7.78,0.625,8.055,0.632,8.34C0.66,8.623,0.689,8.917,0.626,9.031c0.078-0.155,0.052,0.008,0.112,0.143L0.808,9.04
		l0.03,0.312c0.017,0.064,0.015,0.082,0.007,0.083C0.848,9.49,0.794,9.429,0.789,9.567c0.021,0.216,0.069,0.22,0.13,0.331
		l0.008-0.033l0.025,0.143C0.964,10.116,0.82,9.642,0.82,9.996c0.023,0.002,0.163,0.189,0.113,0.293
		c-0.018-0.18-0.074-0.149-0.092-0.079l0.024,0.25l0.099-0.1c0.056,0.719,0.154,1.465,0.327,2.216
		c-0.096,0.013,0.111,0.533-0.04,0.503l0.008-0.033c-0.055-0.182-0.098,0.083-0.048,0.229c0.009-0.17,0.197,0.246,0.136-0.143
		l0.128,0.277c0.288,0.091,0.15,0.794,0.385,1.198c-0.02-0.026-0.035-0.029-0.045-0.03c0.202,0.358,0.2,0.893,0.269,0.97
		l-0.061,0.06c0.21,0.294,0.231,0.327,0.311,0.741c-0.014-0.001-0.049-0.038-0.043,0.03c0.084,0.073,0.154,0.151,0.236,0.423
		L2.5,16.8l0.173,0.41c-0.211,0.094,0.406,0.643,0.229,0.874c0.093,0.051,0.23,0.342,0.312,0.461
		c-0.01,0.005-0.016,0.018-0.016,0.044c0.175,0.102,0.146,0.474,0.228,0.643c0.072,0.101,0.088,0.032,0.103-0.037
		c-0.01,0.279,0.378,0.549,0.373,0.65c0.069,0.162-0.049,0.104-0.073,0.172c0.134,0.226,0.165-0.144,0.236,0.217
		C4.038,20.202,3.999,20.139,4,20.172c0.042,0.13-0.085,0.482,0.02,0.577l-0.003-0.103c0.158,0.189,0.091,0.623,0.243,0.576
		l0.053-0.06c0.101,0.432,0.103,0.145,0.217,0.578l-0.013,0.003c0.093,0.159,0.06,0.302,0.198,0.318L4.7,21.997
		c0.114,0.198,0.123,0.219,0.232,0.427c0.024,0.017,0.095,0.104,0.09,0.148c0.086-0.048,0.309,0.446,0.356,0.54
		c-0.106-0.151-0.097-0.051-0.104,0.019c0.12,0.047,0.165,0.109,0.192,0.274c0.111-0.055,0.232-0.104,0.386,0.148
		c-0.038-0.028-0.082-0.085-0.088-0.045c-0.005,0.041,0.051,0.086,0.07,0.1c-0.005,0.041-0.068-0.029-0.087,0.023
		c0.194,0.104,0.179,0.298,0.357,0.527c-0.076-0.06-0.055,0.024-0.073,0.08c0.123-0.065,0.104,0.422,0.19,0.215
		c0.225,0.545,0.792,1.207,0.824,1.469c-0.005,0.084,0.144,0.162,0.202,0.242l-0.057,0.028c0.24,0.158,0.152,0.155,0.417,0.351
		c-0.129-0.063-0.124,0.006-0.092,0.158l0.22,0.102l-0.046,0.1c0.076,0.054,0.131,0.141,0.181,0.234
		c-0.03-0.039-0.02-0.012-0.03,0.002c0.127-0.051,0.355,0.274,0.438,0.28c-0.033,0.168,0.187,0.188,0.143,0.329
		c0.032,0.013,0.068,0.038,0.104,0.065c0.013-0.078,0.048-0.137,0.081-0.047c0.007,0.008,0.009,0.01,0.016,0.017l-0.03,0.084
		c0.066,0.059,0.13,0.127,0.168,0.175c-0.012-0.027-0.021-0.062-0.029-0.101c0.013,0.036,0.028,0.077,0.04,0.114l0.021,0.025
		L8.78,28.07c0.021,0.055,0.049,0.107,0.115,0.153c0.113,0.336,0.541,0.449,0.645,0.843c-0.021-0.053-0.062-0.116-0.094-0.112
		c0.18,0.23,0.31,0.516,0.465,0.616l0.04-0.061c0.163,0.137,0.287,0.245,0.396,0.377l0.061-0.052
		c0.145,0.211,0.58,0.515,0.573,0.757c0.081-0.002,0.215,0.275,0.321,0.367l-0.017,0.074c0.106,0.157,0.201,0.221,0.291,0.282
		c0.182,0.365,0.506,0.513,0.729,0.75l-0.009,0.017l0.26,0.2c-0.095-0.016,0.069,0.016,0.13,0.099
		c0.093,0.051,0.204,0.186,0.267,0.305l0.146,0.152c-0.19-0.133-0.042,0.084-0.075,0.152l0.129,0.048
		c0.02,0.066-0.094-0.016-0.033,0.067c0.083,0.038,0.28,0.22,0.387,0.208c0-0.022-0.015-0.058-0.035-0.096
		c-0.011-0.004-0.01-0.004-0.002-0.004l-0.006-0.006l0.007,0.01c0.013,0.002,0.033,0.004,0.044,0.001
		c0.116,0.123,0.087,0.058,0.102,0.027c0.076,0.217,0.199,0.225,0.231,0.428c-0.062-0.252,0.325,0.285,0.313,0.088
		c0.041,0.188,0.069,0.068,0.081,0.209c-0.131-0.157-0.338-0.201-0.484-0.266l0.08,0.16c-0.151,0.038-0.239-0.274-0.334-0.3
		c0.065,0.018,0.154,0.136,0.142,0.162l0.025-0.107c-0.147-0.182-0.326-0.236-0.474-0.303c0.092,0.132-0.167-0.08-0.127,0.054
		l0.094,0.071c0.021,0.064-0.085,0.015-0.146-0.013c-0.228-0.329-0.756-0.775-0.805-0.932c0.039,0.076,0.153,0.16,0.218,0.185
		l-0.102-0.16c0.105,0.103,0.133,0.252,0.303,0.377c0.012-0.073,0.171-0.032,0.108-0.217c-0.227-0.368-0.332-0.108-0.665-0.477
		c-0.044-0.019,0.136-0.008-0.068-0.167c-0.271-0.186-0.529-0.245-0.614-0.142c0.123,0.068,0.369,0.205,0.338,0.312
		c-0.122-0.069-0.307-0.222-0.354-0.182c-0.031-0.19,0.207,0.161,0.132-0.048c-0.071-0.065-0.124-0.067-0.167-0.085
		c0.074,0.009-0.014-0.124-0.018-0.165c-0.226-0.22-0.308-0.405-0.527-0.67c-0.002-0.026-0.003-0.082,0.021-0.096
		c-0.129-0.103-0.396-0.155-0.4-0.055c-0.133-0.146-0.104-0.193-0.234-0.298c0.11,0.279-0.023-0.051-0.114,0.009
		c-0.121-0.12-0.005-0.084-0.041-0.163c-0.025-0.015-0.096-0.038-0.118-0.021c-0.013-0.139,0.277-0.005,0.26-0.168
		c-0.017-0.109-0.184-0.466-0.195-0.491c-0.115,0.007-0.354,0.301-0.354,0.484c-0.05,0.036-0.061-0.173-0.105-0.234
		c-0.074-0.237-0.272-0.192-0.365-0.359l0.13,0.062c-0.003-0.041-0.2-0.218-0.247-0.229c0.021-0.031,0.21-0.021,0.188-0.118
		C9.034,29.11,8.71,29,8.647,29.093l0.383,0.322c-0.05,0.078-0.277-0.222-0.34-0.129l-0.256-0.391
		c0.038,0.045,0.164,0.17,0.155,0.079c-0.125-0.156-0.052-0.092-0.104-0.228c0.218,0.103,0.671,0.229,0.855,0.247l-0.187-0.146
		l0.002-0.084c-0.236-0.196-0.65-0.174-0.766-0.176c-0.092-0.159,0.08-0.24,0.132-0.233c-0.206-0.285-0.402-0.089-0.598-0.392
		l0.052,0.136c-0.065-0.055-0.222-0.323-0.227-0.273c-0.009-0.091,0.041-0.222,0.11-0.183L7.54,27.514
		c0.042,0.024,0.133-0.102,0.164-0.104c-0.072-0.104-0.257-0.054-0.228,0.026C7.406,27.166,7.403,27.252,7.384,27
		c-0.049-0.055-0.116,0.111-0.098,0.169c-0.122-0.111-0.162-0.206-0.193-0.283c0.201,0.188,0.293-0.161,0.406-0.194l-0.661-0.193
		c0.03-0.001,0.165-0.056,0.176-0.07c-0.127,0.046-0.516-0.507-0.687-0.794l0.028,0.04c0.072,0.026-0.055-0.234-0.157-0.302
		c0.033,0,0.042,0.027,0.069,0.067c-0.044-0.246-0.315-0.111-0.349-0.375c0.103,0.179,0.168,0.18,0.201,0.139
		c-0.13-0.111-0.303-0.467-0.381-0.303c-0.027-0.114-0.092-0.187-0.025-0.227l-0.279-0.305c0.028,0.017,0.077,0.013,0.026-0.1
		c0.099,0.214,0.325,0.321,0.307,0.49c0.078-0.053,0.075-0.161,0.194-0.114c-0.258-0.359-0.511-0.474-0.739-0.653l-0.142-0.385
		l-0.045,0.012l0.056-0.124c-0.044-0.028-0.078-0.043-0.074-0.059c0.004-0.014,0.022-0.011,0.044-0.002
		c-0.024-0.035-0.051-0.06-0.07-0.072c0.039-0.047,0.128-0.023,0.215,0.007l0.004,0.129c0.083,0.035,0.156,0.049,0.133-0.066
		l-0.046-0.033c0.058,0.02,0.101,0.025,0.096-0.016l-0.191-0.229c0.005,0.038,0.005,0.102,0.006,0.173
		c-0.153-0.121-0.332-0.258-0.309-0.068l-0.062-0.237c-0.225-0.172-0.184-0.144-0.413-0.386c0.022-0.037,0.094,0.022,0.087-0.046
		c-0.229-0.136-0.159-0.596-0.27-0.585c-0.107-0.16-0.114-0.021-0.194-0.116c0.012-0.001,0.039-0.005,0.023-0.037l-0.13-0.092
		c-0.003-0.068,0.105,0.093,0.062-0.074c-0.175-0.226-0.282-0.355-0.354-0.589c-0.164-0.297-0.071,0.211-0.182-0.057
		c0.037-0.071,0.085-0.145,0.016-0.31c-0.078-0.062-0.117-0.024-0.211-0.155l0.09-0.041c-0.068-0.132-0.136-0.23-0.071-0.269
		c-0.09-0.087-0.12-0.167-0.135-0.231c-0.143-0.178-0.1,0.245-0.109,0.312c-0.034-0.237-0.139-0.354-0.09-0.525l0.108,0.165
		c-0.08-0.433-0.283-0.301-0.178-0.575c0.047,0.137,0.157,0.272,0.173,0.169l-0.121-0.17c0.014-0.035,0.061,0.102,0.051-0.001
		c-0.041-0.046-0.13-0.136-0.179-0.171h0.006l-0.151-0.344c0.021,0.068,0.06,0.068,0.037,0l-0.137-0.207
		c0.049,0.059,0.047-0.025,0.021-0.137c-0.092-0.309-0.291-0.143-0.293-0.415c0.012,0.035,0.023,0.035,0.035,0.07l-0.008-0.138
		c-0.195,0.062-0.295-0.689-0.493-0.632c0.01-0.202,0.041-0.03,0.217,0.146L2.027,17.378"/>
	<path fill="#1D1D1B" d="M15.681,33.491c0.023,0.002,0.045,0.006,0.008-0.027L15.681,33.491 M12.969,22.2
		c0.021,0.029,0.011,0.045-0.007,0.057c0-0.028-0.004-0.052-0.023-0.056C12.948,22.194,12.957,22.192,12.969,22.2 M12.954,22.313
		c-0.008,0.037-0.016,0.059,0.005,0.001L12.954,22.313 M14.318,27.231c-0.013,0.032-0.011,0.058-0.001,0.078
		C14.339,27.272,14.344,27.244,14.318,27.231 M14.884,28.956c-0.014,0.044-0.046,0.076,0.04,0.078
		C14.961,29.005,14.905,28.974,14.884,28.956 M15.218,30.09c-0.015-0.028-0.006-0.06-0.035-0.087
		c-0.057,0.128,0.071,0.189,0.134,0.227c-0.018,0.048-0.155,0.019-0.094,0.117c0.085,0.14,0.132-0.075,0.184,0.007l-0.079,0.102
		c0.115,0.089,0.074,0.197,0.095,0.301c0.016,0.018,0.028,0.026,0.042,0.026c-0.01,0.119,0.169,0.182,0.162,0.271
		c-0.026-0.012-0.049,0.067-0.069,0.086l0.108,0.117c-0.048-0.052-0.104-0.028-0.162-0.018c0.019,0.042,0.058,0.05,0.075,0.078
		c-0.025-0.011-0.053-0.021-0.07,0.013l0.144,0.109c0.007-0.013,0.004-0.03,0.002-0.046c0.014,0.037,0.075,0.104,0.046,0.174
		c-0.021,0.006-0.05-0.006-0.072-0.001c0.048-0.07-0.014-0.072-0.063-0.08c0.043,0.1-0.006,0.031-0.03,0.098
		c0.026,0.071,0.111,0.069,0.152,0.032c0.005,0.091-0.001,0.121,0.084,0.183l-0.085,0.018l0.05,0.066L15.62,31.86
		c-0.004,0.169,0.141-0.027,0.151,0.154l-0.067,0.029c0.048,0.051,0.166,0.022,0.103,0.106c0.06,0.043,0.061-0.145,0.122-0.008
		c-0.026,0.04-0.034,0.104-0.034,0.152c0.045,0.031,0.068-0.07,0.049-0.096c0.104,0.201-0.184,0.236-0.032,0.39
		c0.026-0.087,0.146-0.004,0.094-0.157c0.062,0.056-0.047,0.19,0.059,0.229l-0.106-0.01c0.009,0.028,0.054,0.043,0.069,0.054
		l-0.066,0.023c0.153,0.038,0.02,0.199,0.192,0.182c-0.134,0.019,0.037,0.063,0.007,0.123c-0.114-0.035-0.092-0.218-0.205-0.177
		c-0.017,0.051,0.051,0.058,0.032,0.107c-0.026-0.018-0.07-0.037-0.097-0.037c-0.01,0.149,0.146,0.153,0.205,0.211l-0.08-0.113
		c0.114-0.043,0.043,0.047,0.144,0.04c-0.03,0.092,0.075,0.1,0.062,0.167c-0.004-0.012-0.016-0.008-0.021-0.022
		c0.062,0.135-0.096,0.262-0.074,0.319c0.01,0.06,0.112,0.133,0.142,0.07c0.048,0.028-0.111-0.165,0.061-0.16
		c-0.126,0.164,0.131,0.128,0.095,0.356c-0.089-0.044-0.07,0.093-0.143,0.05c0.048,0.074,0.072,0.064,0.133,0.076l-0.036,0.052
		c0.156,0.044,0.108-0.03,0.237,0.097c-0.062-0.031-0.045,0.104-0.097,0.084c0.016,0.047,0.05,0.08,0.094,0.098l-0.01-0.002
		c0.094,0.146-0.004,0.169,0.113,0.284l0.022-0.032c0.153,0.149,0.237,0.406,0.38,0.566l-0.013-0.08
		c-0.004,0.031,0.117,0.097,0.105,0.183c-0.011-0.009-0.034-0.02-0.036-0.033c-0.031,0.022-0.067,0.077-0.048,0.127l0.059-0.016
		l-0.027,0.043c0.038,0.069,0.059-0.066,0.098,0.002c-0.117,0.135,0.148,0.306,0.062,0.451c0.126-0.025-0.06-0.141,0.061-0.153
		c-0.004,0.032-0.018,0.053,0.001,0.104l0.051-0.059c0.085,0.23,0.08,0.347,0.198,0.522l-0.018,0.003
		c0.013,0.082,0.046,0.109,0.112,0.101c-0.02,0.035-0.06-0.001-0.069,0.042c0.214-0.001,0.025,0.319,0.169,0.308
		c-0.122,0.084-0.143,0.327-0.268,0.338l0.042,0.037c-0.086,0.047-0.091-0.15-0.188-0.113l-0.008-0.22
		c-0.025,0.027-0.084,0.036-0.079,0.07c-0.024-0.037-0.047-0.067-0.06,0.015c-0.015-0.52-0.424-0.753-0.525-1.192
		c-0.021-0.021-0.041,0.014-0.055,0.036c0.039-0.119-0.078-0.037-0.109-0.066l0.057-0.172c-0.058-0.018-0.073,0.035-0.098,0.047
		c-0.13-0.172-0.127-0.418-0.256-0.542c0.02-0.075,0.097-0.044,0.082-0.119c-0.079,0.162-0.14-0.162-0.199-0.054
		c0.099-0.141-0.078-0.259,0.111-0.33c-0.023-0.087-0.102-0.022-0.108,0.009c-0.034-0.098-0.064-0.172-0.154-0.218
		c0.019-0.074-0.231-0.403-0.13-0.557c-0.064,0.103-0.049,0.019-0.11-0.017l-0.057,0.09l-0.046-0.127
		c-0.019-0.021-0.019-0.03-0.011-0.033c-0.006-0.022,0.047-0.02,0.044-0.081c-0.031-0.085-0.076-0.069-0.138-0.096l-0.006,0.021
		l-0.031-0.054c-0.017-0.043,0.142,0.108,0.123-0.048c-0.022,0.011-0.162-0.021-0.121-0.086c0.027,0.072,0.077,0.037,0.09,0
		l-0.037-0.1l-0.086,0.08c-0.128-0.279-0.14-0.62-0.249-0.928c0.092-0.033-0.067-0.224,0.074-0.248l-0.009,0.017
		c0.039,0.07,0.096-0.064,0.062-0.12c-0.021,0.083-0.171-0.062-0.139,0.104l-0.102-0.098c-0.277,0.035-0.086-0.334-0.229-0.484
		c0.015,0.009,0.028,0.008,0.037,0.006c-0.135-0.135-0.051-0.396-0.105-0.417l0.065-0.04c-0.155-0.103-0.169-0.115-0.18-0.297
		c0.013-0.002,0.039,0.01,0.045-0.022c-0.067-0.021-0.131-0.044-0.146-0.167l0.022-0.002l-0.059-0.181
		c0.221-0.069-0.213-0.271,0.012-0.401c-0.072-0.015-0.126-0.142-0.173-0.192c0.009-0.003,0.018-0.01,0.025-0.023
		c-0.136-0.035-0.015-0.215-0.047-0.286c-0.042-0.043-0.073-0.01-0.104,0.023c0.067-0.128-0.177-0.248-0.146-0.297
		c-0.009-0.076,0.079-0.052,0.123-0.086c-0.049-0.104-0.196,0.075-0.145-0.098c0.014,0.014,0.029,0.044,0.038,0.028
		c0.006-0.062,0.235-0.231,0.17-0.273l-0.03,0.048c-0.082-0.087,0.121-0.288-0.033-0.265l-0.068,0.027
		c0.05-0.2-0.046-0.068-0.011-0.267l0.013-0.001c-0.028-0.074,0.052-0.138-0.069-0.149l-0.011,0.03
		c-0.027-0.095-0.021-0.104-0.035-0.206c-0.014-0.011-0.039-0.053-0.019-0.072c-0.095,0.017-0.089-0.222-0.093-0.267
		c0.031,0.074,0.062,0.028,0.096-0.002c-0.086-0.028-0.1-0.059-0.057-0.137c-0.119,0.019-0.246,0.034-0.278-0.091
		c0.022,0.016,0.039,0.044,0.061,0.026c0.021-0.021-0.011-0.042-0.021-0.052c0.021-0.018,0.048,0.018,0.086-0.004
		c-0.129-0.062-0.038-0.146-0.102-0.262c0.043,0.031,0.06-0.008,0.097-0.031c-0.135,0.021,0.082-0.195-0.08-0.109
		c0.056-0.266-0.115-0.619-0.022-0.736c0.044-0.034-0.049-0.087-0.06-0.128l0.061-0.004c-0.128-0.1-0.059-0.084-0.19-0.203
		c0.078,0.045,0.106,0.014,0.152-0.056l-0.139-0.071l0.089-0.037c-0.042-0.032-0.036-0.079-0.028-0.125
		c0.004,0.021,0.009,0.008,0.026,0.003c-0.13,0.002-0.145-0.171-0.207-0.188c0.115-0.065-0.051-0.108,0.06-0.161
		c-0.021-0.011-0.036-0.025-0.051-0.043c-0.051,0.029-0.11,0.049-0.09,0.005c-0.001-0.003-0.002-0.005-0.003-0.01l0.066-0.028
		c-0.022-0.038-0.038-0.077-0.043-0.103c-0.004,0.014-0.015,0.029-0.028,0.047l0.026-0.055l-0.002-0.014l0.006,0.008
		c0.012-0.027,0.016-0.055-0.014-0.084c0.086-0.158-0.2-0.28-0.076-0.459c-0.011,0.025-0.011,0.058,0.014,0.062
		c-0.027-0.126,0.053-0.271-0.015-0.341l-0.066,0.017c-0.045-0.085-0.077-0.156-0.086-0.231l-0.076,0.009
		c0.011-0.113-0.151-0.33-0.007-0.422c-0.063-0.018-0.008-0.154-0.036-0.214l0.056-0.024c0.006-0.084-0.022-0.131-0.046-0.176
		c0.094-0.186-0.047-0.316-0.062-0.463l0.018-0.004l-0.062-0.139c0.058,0.029-0.041-0.022-0.033-0.068
		c-0.035-0.043-0.031-0.119-0.003-0.181l-0.012-0.093c0.054,0.096,0.082-0.021,0.148-0.039l-0.062-0.05
		c0.027-0.029,0.057,0.029,0.065-0.018c-0.042-0.033-0.059-0.153-0.134-0.177c-0.016,0.009-0.028,0.023-0.039,0.045
		c0.006,0.005,0.005,0.005-0.001,0.003l-0.005,0.007l0.002-0.005c-0.007-0.005-0.019-0.011-0.027-0.013
		c0.003-0.076-0.021-0.045-0.051-0.037c0.093-0.103,0.015-0.137,0.127-0.221c-0.124,0.111-0.031-0.191-0.152-0.115
		c0.095-0.08-0.003-0.044,0.081-0.099c-0.016,0.093,0.094,0.165,0.15,0.229l0.053-0.081c0.127,0.025-0.021,0.164,0.025,0.199
		c-0.031-0.024-0.013-0.093,0.014-0.099l-0.089,0.033c-0.021,0.105,0.062,0.172,0.117,0.236c0.021-0.072,0.068,0.07,0.125,0.011
		l-0.02-0.049c0.029-0.03,0.063,0.017,0.096,0.042c-0.042,0.177,0.062,0.471,0,0.541c0.02-0.037-0.011-0.098-0.042-0.121
		l-0.024,0.084c-0.013-0.063,0.06-0.126,0.016-0.215c-0.056,0.025-0.146-0.029-0.213,0.055c-0.062,0.195,0.172,0.122,0.183,0.341
		c0.021,0.019-0.1-0.028-0.053,0.08c0.082,0.134,0.229,0.217,0.353,0.196c-0.045-0.052-0.138-0.163-0.05-0.195
		c0.047,0.053,0.085,0.153,0.145,0.149c-0.096,0.081-0.05-0.109-0.122-0.013c0.008,0.042,0.045,0.055,0.065,0.071
		c-0.048-0.021-0.067,0.049-0.09,0.067c0.021,0.136-0.013,0.225,0.001,0.373c-0.014,0.011-0.046,0.031-0.072,0.031
		c0.041,0.068,0.215,0.145,0.275,0.107c0.021,0.082-0.03,0.096,0.011,0.162c0.074-0.13-0.012,0.026,0.093,0.02
		c0.023,0.072-0.045,0.035-0.062,0.072c0.012,0.01,0.052,0.033,0.078,0.031c-0.068,0.058-0.214-0.052-0.294,0.015
		c-0.05,0.047-0.124,0.223-0.13,0.235c0.09,0.02,0.44-0.051,0.545-0.123c0.059-0.006-0.052,0.079-0.052,0.113
		c-0.08,0.108,0.097,0.128,0.072,0.213l-0.058-0.051c-0.023,0.018,0.027,0.127,0.063,0.139c-0.03,0.008-0.18-0.029-0.213,0.014
		c0.005,0.144,0.21,0.241,0.309,0.214l-0.14-0.193c0.082-0.022,0.108,0.136,0.206,0.109l0.004,0.202
		c-0.007-0.025-0.044-0.097-0.084-0.059c0.02,0.084-0.007,0.047-0.035,0.109c-0.121-0.077-0.421-0.206-0.56-0.247l0.072,0.094
		l-0.045,0.034c0.087,0.12,0.431,0.179,0.521,0.199c-0.008,0.079-0.189,0.085-0.227,0.073c0.015,0.152,0.274,0.103,0.273,0.256
		l0.029-0.062c0.022,0.03,0.008,0.167,0.038,0.146c-0.041,0.04-0.148,0.088-0.184,0.062l0.188,0.102
		c-0.021-0.015-0.161,0.024-0.188,0.021c0.004,0.055,0.179,0.061,0.195,0.021c-0.084,0.126-0.033,0.088-0.139,0.195
		c0.015,0.029,0.15-0.031,0.161-0.058c0.049,0.063,0.038,0.108,0.028,0.144c-0.08-0.104-0.323,0.032-0.435,0.031l0.469,0.164
		c-0.026-0.005-0.165,0.004-0.181,0.008c0.129-0.004,0.201,0.272,0.211,0.417l-0.006-0.022c-0.049-0.018-0.06,0.108-0.007,0.147
		c-0.026-0.003-0.021-0.016-0.026-0.036c-0.076,0.112,0.214,0.08,0.12,0.196c-0.003-0.087-0.057-0.095-0.106-0.079
		c0.061,0.062,0.044,0.233,0.184,0.168c-0.021,0.051,0.004,0.086-0.07,0.1l0.12,0.151c-0.016-0.009-0.061-0.01-0.062,0.042
		c0.001-0.1-0.156-0.163-0.067-0.233c-0.092,0.018-0.133,0.063-0.219,0.035c0.08,0.178,0.255,0.243,0.383,0.336l-0.032,0.178
		l0.043-0.002l-0.099,0.054c0.027,0.015,0.051,0.022,0.041,0.028c-0.008,0.006-0.022,0.004-0.04,0
		c0.009,0.017,0.021,0.03,0.034,0.035c-0.055,0.02-0.124,0.006-0.187-0.012l0.049-0.061c-0.058-0.02-0.118-0.03-0.144,0.022
		l0.027,0.019c-0.043-0.013-0.077-0.017-0.092,0.002l0.076,0.114c0.01-0.018,0.037-0.047,0.065-0.078
		c0.084,0.062,0.184,0.131,0.241,0.044l-0.042,0.11c0.125,0.085,0.1,0.072,0.203,0.189c-0.034,0.016-0.073-0.013-0.095,0.018
		c0.137,0.07-0.087,0.277,0.02,0.273c0.043,0.072,0.097,0.01,0.138,0.053c-0.012,0-0.036,0.002-0.033,0.017l0.089,0.04
		c-0.02,0.031-0.064-0.041-0.081,0.035c0.085,0.1,0.142,0.157,0.129,0.262c0.051,0.13,0.132-0.099,0.146,0.021
		c-0.056,0.033-0.124,0.066-0.115,0.141c0.051,0.027,0.097,0.008,0.141,0.066l-0.095,0.021c0.02,0.06,0.049,0.101-0.021,0.121
		c0.052,0.038,0.053,0.073,0.045,0.103c0.071,0.079,0.172-0.119,0.202-0.149c-0.047,0.107,0.009,0.157-0.09,0.239l-0.046-0.07
		c-0.071,0.2,0.172,0.12-0.005,0.255c-0.007-0.059-0.073-0.114-0.115-0.063L14.9,29.23c-0.021,0.02-0.03-0.042-0.048,0.006
		c0.025,0.018,0.086,0.052,0.122,0.063L14.968,29.3l0.054,0.146c-0.004-0.028-0.04-0.024-0.036,0.004l0.073,0.084
		c-0.031-0.023-0.051,0.016-0.055,0.065c0.003,0.136,0.23,0.036,0.163,0.165c-0.001-0.015-0.015-0.013-0.017-0.029l-0.027,0.063
		c0.196-0.052,0.095,0.292,0.292,0.239c-0.061,0.098-0.046,0.021-0.16-0.042L15.218,30.09"/>
	<path fill="#1D1D1B" d="M14.48,36.775c0.013-0.022,0.024-0.043-0.015-0.021L14.48,36.775 M5.264,37.391
		c0.023-0.022,0.036-0.01,0.046,0.011c-0.023-0.002-0.041,0.002-0.045,0.023C5.26,37.414,5.257,37.406,5.264,37.391 M5.356,37.412
		c0.03,0.01,0.048,0.021,0.002-0.005L5.356,37.412 M9.337,36.307c0.023,0.019,0.044,0.021,0.061,0.012
		C9.37,36.288,9.349,36.279,9.337,36.307 M10.796,36.011c0.033,0.025,0.053,0.071,0.068-0.026
		C10.849,35.938,10.815,35.992,10.796,36.011 M11.768,35.913c-0.025,0.009-0.049-0.008-0.075,0.016
		c0.09,0.093,0.166-0.031,0.211-0.09c0.034,0.035-0.02,0.175,0.072,0.137c0.131-0.042-0.031-0.17,0.047-0.194l0.062,0.12
		c0.099-0.089,0.177-0.006,0.263,0.011c0.019-0.009,0.028-0.02,0.033-0.033c0.093,0.055,0.188-0.114,0.259-0.074
		c-0.015,0.025,0.04,0.078,0.049,0.106l0.124-0.071c-0.055,0.029-0.051,0.1-0.061,0.166c0.038-0.006,0.055-0.043,0.09-0.056
		c-0.018,0.022-0.033,0.048-0.013,0.08l0.13-0.112c-0.009-0.012-0.023-0.017-0.035-0.021c0.032,0,0.102-0.043,0.148,0.015
		c-0.003,0.026-0.02,0.053-0.023,0.08c-0.039-0.078-0.061-0.015-0.08,0.036c0.088-0.01,0.021,0.02,0.065,0.068
		c0.062-0.001,0.089-0.091,0.07-0.149c0.073,0.027,0.095,0.047,0.168-0.023l-0.014,0.094l0.065-0.026l-0.055,0.112
		c0.128,0.067,0.024-0.161,0.166-0.104l0.001,0.083c0.054-0.031,0.075-0.17,0.116-0.07c0.055-0.049-0.09-0.119,0.035-0.133
		c0.021,0.043,0.068,0.074,0.104,0.093c0.041-0.038-0.03-0.099-0.055-0.089c0.188-0.035,0.113,0.282,0.283,0.19
		c-0.058-0.065,0.051-0.156-0.086-0.166c0.066-0.042,0.127,0.132,0.196,0.048l-0.047,0.102c0.023,0.004,0.053-0.031,0.066-0.043
		l-0.008,0.08c0.088-0.135,0.154,0.083,0.21-0.1c-0.039,0.145,0.063-0.002,0.095,0.059c-0.072,0.097-0.198-0.021-0.211,0.113
		c0.031,0.044,0.062-0.021,0.092,0.022c-0.021,0.018-0.055,0.052-0.063,0.077c0.104,0.087,0.169-0.066,0.234-0.095l-0.115,0.021
		c0.015-0.134,0.053-0.018,0.087-0.122c0.055,0.079,0.104-0.022,0.148,0.027c-0.012-0.002-0.014,0.011-0.026,0.009
		c0.124,0.01,0.15,0.232,0.199,0.241c0.047,0.021,0.142-0.043,0.111-0.104c0.041-0.034-0.166,0.024-0.088-0.145
		c0.062,0.209,0.149-0.061,0.297,0.092c-0.071,0.063,0.034,0.116-0.029,0.165c0.074-0.009,0.078-0.039,0.114-0.093l0.019,0.065
		c0.105-0.132,0.031-0.124,0.181-0.186c-0.051,0.044,0.053,0.097,0.013,0.138c0.04,0.009,0.081-0.007,0.113-0.042l-0.006,0.009
		c0.148-0.02,0.113,0.092,0.253,0.034l-0.011-0.04c0.186-0.094,0.399,0.03,0.585,0.011l-0.061-0.043
		c0.017,0.022,0.128-0.037,0.179,0.032c-0.013,0.001-0.033,0.015-0.043,0.008c-0.003,0.042,0.015,0.109,0.057,0.128l0.021-0.062
		l0.014,0.055c0.066,0.015-0.01-0.097,0.057-0.083c0.02,0.192,0.284,0.078,0.322,0.252c0.059-0.127-0.123-0.043-0.062-0.156
		c0.018,0.024,0.024,0.05,0.066,0.07l-0.006-0.084c0.195,0.083,0.263,0.166,0.444,0.181l-0.01,0.017
		c0.059,0.043,0.095,0.033,0.133-0.029c0.007,0.04-0.041,0.05-0.021,0.089c0.14-0.186,0.201,0.19,0.29,0.061
		c-0.031,0.159,0.091,0.338,0.013,0.453l0.047-0.012c-0.03,0.104-0.142-0.023-0.182,0.084l-0.127-0.138
		c-0.001,0.041-0.033,0.096-0.013,0.113c-0.036-0.004-0.065-0.004-0.027,0.062c-0.305-0.334-0.685-0.134-1.002-0.34
		c-0.024,0.006-0.015,0.045-0.009,0.071c-0.051-0.114-0.063,0.043-0.099,0.052l-0.076-0.165c-0.04,0.038-0.016,0.089-0.021,0.117
		c-0.172,0.002-0.325-0.184-0.472-0.106c-0.04-0.057,0.021-0.12-0.036-0.144c0.066,0.162-0.178,0.058-0.134,0.169
		c-0.046-0.169-0.208-0.053-0.167-0.279c-0.069-0.021-0.065,0.092-0.046,0.112c-0.081-0.016-0.146-0.022-0.216,0.042
		c-0.042-0.057-0.373,0.022-0.438-0.157c0.045,0.119-0.008,0.058-0.057,0.103l0.039,0.104L14.5,36.807
		c-0.022,0.009-0.028,0.003-0.027-0.005c-0.019-0.007,0.006-0.057-0.039-0.086c-0.072-0.014-0.077,0.041-0.119,0.088l0.011,0.014
		l-0.05,0.007c-0.035-0.006,0.132-0.085,0.016-0.146c-0.002,0.026-0.076,0.148-0.105,0.076c0.06,0.011,0.054-0.06,0.033-0.091
		l-0.085-0.016l0.023,0.127c-0.24-0.034-0.492-0.141-0.753-0.131c0.004-0.108-0.183-0.01-0.161-0.17l0.012,0.017
		c0.063-0.015-0.019-0.128-0.071-0.111c0.055,0.054-0.099,0.161,0.035,0.187l-0.104,0.075c-0.055,0.309-0.272-0.032-0.426,0.064
		c0.012-0.013,0.014-0.027,0.014-0.037c-0.135,0.097-0.309-0.09-0.34-0.041l-0.015-0.084c-0.115,0.127-0.128,0.139-0.271,0.082
		c0.003-0.015,0.017-0.037-0.006-0.056c-0.031,0.062-0.062,0.124-0.158,0.104l0.002-0.026l-0.149,0.017
		c-0.011-0.262-0.249,0.172-0.308-0.109c-0.026,0.079-0.135,0.108-0.182,0.146c-0.001-0.012-0.004-0.022-0.014-0.035
		c-0.049,0.143-0.168-0.037-0.23-0.018c-0.04,0.035-0.02,0.078,0.001,0.123c-0.089-0.106-0.218,0.136-0.251,0.089
		c-0.061-0.008-0.028-0.098-0.05-0.155c-0.088,0.029,0.031,0.236-0.096,0.137c0.012-0.013,0.038-0.022,0.027-0.036
		c-0.047-0.02-0.149-0.318-0.192-0.256l0.034,0.046c-0.079,0.072-0.215-0.204-0.215-0.026l0.014,0.082
		c-0.152-0.104-0.06,0.035-0.212-0.055l0.001-0.012c-0.064,0.018-0.106-0.082-0.127,0.051l0.022,0.016
		c-0.078,0.015-0.086,0.005-0.167,0.007c-0.008,0.014-0.046,0.037-0.06,0.012c0.007,0.11-0.181,0.067-0.218,0.064
		c0.062-0.021,0.027-0.064,0.005-0.107c-0.029,0.093-0.053,0.104-0.112,0.045c0.006,0.138,0.01,0.283-0.092,0.303
		c0.014-0.022,0.037-0.038,0.023-0.063c-0.013-0.027-0.032,0.007-0.039,0.018c-0.014-0.028,0.018-0.053,0.001-0.098
		c-0.057,0.136-0.118,0.02-0.215,0.076c0.028-0.045-0.002-0.068-0.019-0.113c0.008,0.154-0.151-0.121-0.092,0.076
		c-0.209-0.103-0.5,0.039-0.59-0.082c-0.027-0.054-0.071,0.043-0.105,0.049L8.309,36.77c-0.082,0.131-0.069,0.053-0.168,0.188
		c0.037-0.087,0.014-0.121-0.041-0.181l-0.06,0.146l-0.029-0.104c-0.028,0.044-0.065,0.034-0.103,0.021
		c0.019-0.003,0.007-0.01,0.003-0.028c0.003,0.147-0.137,0.149-0.15,0.221c-0.052-0.138-0.087,0.049-0.129-0.079
		c-0.009,0.021-0.021,0.039-0.035,0.055c0.023,0.059,0.038,0.129,0.004,0.103c-0.004,0.002-0.004,0.002-0.007,0.003L7.57,37.036
		c-0.027,0.022-0.059,0.037-0.08,0.041c0.011,0.006,0.023,0.019,0.036,0.037l-0.043-0.036c-0.005,0.001-0.006,0.001-0.012,0.002
		l0.007-0.005c-0.021-0.016-0.044-0.023-0.067,0.008c-0.126-0.109-0.222,0.207-0.366,0.052c0.02,0.014,0.047,0.018,0.051-0.011
		c-0.102,0.021-0.218-0.08-0.275-0.01l0.015,0.074c-0.072,0.044-0.125,0.077-0.187,0.08l0.009,0.087
		c-0.092-0.019-0.26,0.147-0.339-0.022c-0.012,0.069-0.124-0.004-0.17,0.024l-0.022-0.063c-0.068-0.012-0.104,0.021-0.14,0.045
		c-0.151-0.115-0.254,0.042-0.37,0.051l-0.004-0.019l-0.108,0.066c0.021-0.065-0.018,0.045-0.056,0.034
		c-0.032,0.038-0.095,0.03-0.146-0.005l-0.074,0.01c0.075-0.059-0.02-0.094-0.037-0.17l-0.038,0.068
		c-0.024-0.033,0.021-0.064-0.017-0.075C5.111,37.346,5.016,37.36,5,37.444c0.007,0.021,0.021,0.035,0.037,0.049
		c0.004-0.007,0.004-0.006,0.001,0.001l0.005,0.004l-0.005-0.002c-0.003,0.008-0.008,0.021-0.008,0.031
		c-0.062-0.008-0.035,0.021-0.027,0.055c-0.086-0.107-0.111-0.021-0.186-0.151c0.095,0.146-0.152,0.027-0.086,0.169
		c-0.068-0.112-0.034,0.001-0.083-0.097c0.075,0.021,0.128-0.102,0.177-0.162l-0.066-0.063c0.014-0.142,0.132,0.03,0.158-0.022
		c-0.018,0.037-0.072,0.012-0.079-0.016l0.031,0.1c0.086,0.029,0.138-0.063,0.185-0.125c-0.058-0.024,0.055-0.073,0.005-0.14
		l-0.04,0.021c-0.025-0.033,0.011-0.072,0.029-0.107c0.146,0.055,0.379-0.052,0.438,0.021c-0.031-0.019-0.077,0.011-0.097,0.045
		l0.069,0.033c-0.052,0.012-0.105-0.074-0.175-0.027c0.024,0.064-0.018,0.164,0.055,0.245c0.159,0.08,0.09-0.189,0.267-0.196
		c0.012-0.021-0.02,0.114,0.066,0.063c0.104-0.086,0.167-0.249,0.146-0.394c-0.043,0.051-0.127,0.15-0.158,0.05
		c0.042-0.051,0.123-0.091,0.117-0.157c0.068,0.112-0.087,0.051-0.006,0.141c0.035-0.01,0.043-0.051,0.056-0.074
		c-0.015,0.054,0.044,0.078,0.059,0.105c0.111-0.017,0.183,0.024,0.303,0.018c0.009,0.019,0.028,0.054,0.029,0.084
		c0.053-0.042,0.109-0.233,0.078-0.305c0.067-0.015,0.079,0.041,0.133,0c-0.108-0.094,0.021,0.014,0.014-0.102
		c0.059-0.024,0.029,0.053,0.061,0.074c0.008-0.013,0.026-0.056,0.023-0.087c0.049,0.082-0.038,0.24,0.021,0.335
		c0.038,0.062,0.181,0.159,0.191,0.167c0.015-0.102-0.05-0.505-0.11-0.63c-0.004-0.067,0.066,0.063,0.094,0.067
		c0.092,0.1,0.104-0.102,0.173-0.066l-0.039,0.067c0.013,0.027,0.103-0.021,0.111-0.062c0.007,0.037-0.021,0.202,0.014,0.243
		c0.115,0.006,0.194-0.221,0.173-0.335l-0.158,0.145c-0.019-0.095,0.11-0.113,0.089-0.228l0.165,0.014
		C7.228,36.245,7.17,36.281,7.2,36.33c0.068-0.015,0.037,0.013,0.091,0.05c-0.063,0.133-0.166,0.462-0.197,0.617l0.074-0.076
		l0.027,0.055c0.096-0.092,0.144-0.478,0.158-0.58c0.067,0.017,0.071,0.224,0.062,0.265c0.121-0.009,0.082-0.306,0.208-0.293
		l-0.052-0.039c0.026-0.022,0.137,0.004,0.12-0.032c0.031,0.052,0.07,0.177,0.047,0.214l0.085-0.207
		c-0.013,0.024,0.018,0.184,0.015,0.215c0.044,0,0.051-0.2,0.02-0.222c0.1,0.105,0.071,0.044,0.157,0.177
		c0.024-0.014-0.023-0.173-0.044-0.188c0.052-0.051,0.088-0.033,0.116-0.02c-0.085,0.081,0.02,0.371,0.016,0.497l0.146-0.508
		c-0.005,0.029-0.001,0.186,0.002,0.207c0-0.149,0.23-0.191,0.348-0.183l-0.018,0.003C8.564,36.334,8.667,36.365,8.7,36.31
		c-0.003,0.029-0.013,0.021-0.03,0.025c0.088,0.102,0.075-0.231,0.167-0.11c-0.071-0.006-0.079,0.053-0.069,0.11
		c0.052-0.06,0.192-0.015,0.146-0.183c0.04,0.032,0.07,0.009,0.077,0.095l0.13-0.116c-0.008,0.018-0.012,0.071,0.03,0.077
		c-0.081-0.016-0.142,0.152-0.193,0.045c0.008,0.105,0.044,0.16,0.015,0.253c0.147-0.066,0.213-0.255,0.298-0.388l0.144,0.063
		l0.001-0.049l0.034,0.119c0.015-0.03,0.022-0.055,0.027-0.044c0.004,0.011,0.001,0.025-0.004,0.046
		c0.012-0.008,0.025-0.02,0.031-0.033c0.011,0.064-0.005,0.139-0.024,0.209l-0.046-0.062C9.412,36.431,9.4,36.496,9.44,36.533
		l0.018-0.029c-0.015,0.048-0.02,0.086-0.006,0.104l0.098-0.068c-0.015-0.016-0.034-0.048-0.059-0.086
		c0.058-0.086,0.122-0.191,0.058-0.268l0.084,0.064c0.082-0.131,0.068-0.104,0.173-0.206c0.009,0.042-0.018,0.083,0.005,0.109
		c0.072-0.146,0.215,0.148,0.223,0.027c0.064-0.034,0.02-0.107,0.06-0.144c-0.001,0.015-0.003,0.041,0.01,0.043l0.043-0.091
		c0.024,0.031-0.041,0.064,0.02,0.099c0.091-0.07,0.145-0.118,0.229-0.079c0.114-0.025-0.062-0.171,0.037-0.159
		c0.02,0.071,0.039,0.155,0.1,0.163c0.029-0.051,0.021-0.105,0.073-0.142l0.005,0.11c0.05-0.007,0.089-0.029,0.095,0.053
		c0.039-0.047,0.068-0.041,0.092-0.024c0.071-0.062-0.072-0.22-0.094-0.261c0.082,0.078,0.132,0.026,0.184,0.157l-0.065,0.033
		c0.151,0.128,0.126-0.163,0.206,0.066c-0.05-0.006-0.104,0.056-0.071,0.113l0.067-0.06c0.01,0.029-0.039,0.022-0.005,0.053
		c0.018-0.022,0.056-0.081,0.072-0.118V36l0.126-0.021c-0.025-0.004-0.028,0.036-0.004,0.04l0.081-0.062
		c-0.025,0.028,0.004,0.061,0.042,0.078c0.108,0.027,0.072-0.25,0.163-0.144c-0.012-0.002-0.014,0.012-0.026,0.01l0.046,0.049
		c-0.002-0.234,0.252-0.037,0.252-0.271c0.066,0.092,0.006,0.057-0.068,0.171L11.768,35.913"/>
</g>
</svg>
