<?xml version="1.0" encoding="utf-8"?>
<!-- Generator: Adobe Illustrator 16.0.0, SVG Export Plug-In . SVG Version: 6.00 Build 0)  -->
<!DOCTYPE svg PUBLIC "-//W3C//DTD SVG 1.1//EN" "http://www.w3.org/Graphics/SVG/1.1/DTD/svg11.dtd">
<svg version="1.1" id="Layer_1" xmlns="http://www.w3.org/2000/svg" xmlns:xlink="http://www.w3.org/1999/xlink" x="0px" y="0px"
	 width="1922.964px" height="1211.421px" viewBox="0 0 1922.964 1211.421" enable-background="new 0 0 1922.964 1211.421"
	 xml:space="preserve">
<path opacity="0.2" fill="#FFFFFF" d="M1922.92,702.08l-90.163-44.936c0.586-1.475,0.249-3.217-0.996-4.35
	c-0.311-0.275-0.657-0.484-1.016-0.646l28.826-81.143c1.101,0.281,2.295,0.095,3.247-0.582l60.102,82.197v-1.156l-59.587-81.486
	c0.043-0.043,0.089-0.073,0.128-0.115c1.456-1.605,1.339-4.088-0.261-5.55c-0.124-0.108-0.258-0.188-0.385-0.283l60.104-88.921
	v-1.216l-60.699,89.792c-0.74-0.35-1.562-0.458-2.354-0.316l-19.285-71.623c0.5-0.212,0.97-0.527,1.363-0.955
	c0.914-1.007,1.207-2.354,0.908-3.583l80.067-28.577v-0.723l-80.29,28.66c-0.214-0.488-0.526-0.948-0.948-1.33
	c-0.819-0.743-1.865-1.072-2.886-1.008l-8.953-59.744c0.835-0.143,1.639-0.537,2.254-1.213c0.307-0.336,0.523-0.715,0.694-1.109
	l90.129,26.942v-0.712l-89.921-26.877c0.25-1.064,0.054-2.201-0.586-3.122l27.535-22.104c0.062,0.067,0.109,0.142,0.184,0.206
	c1.556,1.417,3.937,1.335,5.414-0.142l57.374,45.609v-0.873l-56.943-45.26c0.692-0.99,0.88-2.204,0.561-3.312l56.383-21.524v-0.726
	l-56.618,21.609c-0.165-0.35-0.401-0.667-0.676-0.959l57.294-63.811v-1.018l-57.795,64.379c-0.813-0.615-1.788-0.871-2.746-0.773
	l-13.114-71.396c0.494-0.217,0.949-0.527,1.335-0.951c0.693-0.768,1.023-1.736,1.013-2.695l71.308,2.578v-0.681l-71.383-2.581
	c-0.148-0.807-0.548-1.574-1.201-2.17c-1.137-1.039-2.715-1.262-4.062-0.738l-48.845-66.087c0.107-0.095,0.22-0.178,0.317-0.288
	c0.112-0.123,0.198-0.258,0.294-0.394l124.88,68.652v-0.774l-124.537-68.465c0.343-0.734,0.445-1.54,0.311-2.325l100.792-27.9
	c0.204,0.613,0.547,1.188,1.059,1.656c0.926,0.838,2.137,1.14,3.274,0.955l19.102,71.033v-2.627l-18.44-68.577
	c0.601-0.207,1.162-0.546,1.616-1.042c0.097-0.108,0.167-0.229,0.253-0.343l16.571,10.012v-0.793l-16.22-9.8
	c0.25-0.505,0.383-1.049,0.4-1.598l15.819-0.826v-0.681l-15.856,0.827c-0.127-0.872-0.527-1.71-1.23-2.351
	c-0.829-0.752-1.893-1.082-2.929-1.002l-20.137-100.542c0.509-0.132,0.995-0.373,1.425-0.709l38.728,41.662v-1.002l-38.218-41.116
	c1.451-1.604,1.33-4.083-0.274-5.538c-0.15-0.144-0.321-0.258-0.491-0.368l23.229-43.11c1.02,0.502,2.204,0.541,3.241,0.106
	l12.513,29.061v-1.719l-11.909-27.66c0.284-0.185,0.556-0.389,0.792-0.652c0.398-0.433,0.67-0.939,0.836-1.467l10.281,3.053v-0.71
	l-10.133-3.009c0.157-1.23-0.257-2.517-1.247-3.416c-0.423-0.385-0.909-0.651-1.42-0.822l12.751-50.696h-0.701l-12.708,50.538
	c-1.247-0.18-2.56,0.241-3.469,1.241c-1.459,1.606-1.345,4.091,0.26,5.55c0.102,0.096,0.223,0.164,0.331,0.247l-23.248,43.144
	c-0.795-0.341-1.668-0.425-2.489-0.22l-29.107-85.33c0.402-0.209,0.777-0.479,1.096-0.832c1.081-1.181,1.292-2.84,0.689-4.219
	l19.097-10.119h-1.453l-17.976,9.526c-0.173-0.262-0.373-0.514-0.616-0.734c-1.254-1.141-3.036-1.306-4.456-0.565l-6.089-8.227
	h-0.848l6.356,8.589c-0.18,0.139-0.354,0.291-0.514,0.465c-0.021,0.021-0.031,0.052-0.057,0.075l-14.479-9.128h-1.277l15.348,9.677
	c-0.321,0.535-0.49,1.131-0.529,1.729l-77.223,4.12c-0.079-0.949-0.498-1.865-1.253-2.557c-1.047-0.954-2.469-1.223-3.738-0.852
	L1759.12-0.33h-0.728l4.792,12.357c-0.434,0.212-0.836,0.498-1.177,0.875c-0.392,0.428-0.66,0.917-0.827,1.435L1704.43,1.284
	l0.958-1.614h-0.796l-0.861,1.452l-6.309-1.452h-10.549c0.191,0.677,0.561,1.312,1.117,1.821c0.322,0.291,0.685,0.5,1.058,0.669
	l-18.066,52.614c-0.877-0.218-1.81-0.143-2.631,0.249l-29.36-50.027c0.227-0.16,0.443-0.341,0.636-0.555
	c0.661-0.728,0.984-1.641,1.006-2.555l33.84-2.215h-10.428l-23.462,1.535c-0.082-0.541-0.283-1.061-0.584-1.535h-7.743l0.859,0.602
	c-0.636,1.491-0.311,3.276,0.959,4.429c0.754,0.689,1.698,1.012,2.643,1.013l6.799,78.399c-0.291,0.053-0.571,0.13-0.847,0.25
	l-0.504,0.281l-67.135-80.569l6.385-4.404h-1.201l-5.622,3.878l-3.231-3.878h-0.975l3.586,4.304l-67.642,46.659
	c-0.115-0.137-0.219-0.275-0.353-0.4c-0.794-0.734-1.807-1.076-2.812-1.042l-6.099-49.521h-0.686l6.109,49.611
	c-0.289,0.062-0.571,0.153-0.843,0.278L1475.806-0.33h-0.768l26.017,50.23c-0.226,0.157-0.438,0.337-0.631,0.545
	c-0.262,0.283-0.454,0.594-0.617,0.921l-74.896-29.601l6.523-22.096h-0.709l-6.449,21.845l-48.207-19.05
	c0.278-0.926,0.19-1.918-0.221-2.794h-7.061c-0.166,0.337-0.288,0.689-0.345,1.054l-91.457,0.638
	c-0.113-0.606-0.364-1.187-0.757-1.692h-6.163c-1.255,1.593-1.109,3.901,0.401,5.303c0.974,0.902,2.283,1.21,3.492,0.954
	l20.472,54.651l-23.863,18.28c-0.075-0.082-0.137-0.171-0.217-0.245c-1.59-1.473-4.073-1.378-5.549,0.215
	c-0.942,1.015-1.234,2.39-0.921,3.634l-155.515,35.663c-0.188-0.561-0.488-1.091-0.937-1.531c-1.518-1.493-3.959-1.472-5.451,0.043
	c-1.492,1.518-1.471,3.957,0.044,5.45c1.519,1.492,3.958,1.473,5.451-0.044c0.861-0.876,1.203-2.06,1.058-3.192l155.605-35.677
	c0.209,0.439,0.494,0.854,0.876,1.203c0.469,0.437,1.013,0.716,1.587,0.88l-11.922,36.83c-1.686-0.432-3.515,0.29-4.396,1.882
	c-1.054,1.896-0.375,4.288,1.521,5.341c1.896,1.057,4.286,0.374,5.344-1.523c1.053-1.898,0.371-4.29-1.522-5.344
	c-0.1-0.054-0.205-0.085-0.305-0.13l11.958-36.927c0.11,0.012,0.22,0.02,0.332,0.021l2.875,77.286
	c-1.127,0.199-2.163,0.866-2.762,1.945c-1.059,1.893-0.375,4.287,1.523,5.34c1.893,1.057,4.286,0.373,5.343-1.522
	c1.054-1.898,0.371-4.286-1.522-5.344c-0.606-0.337-1.254-0.476-1.903-0.478l-2.874-77.273c0.843-0.135,1.652-0.523,2.278-1.199
	c0.574-0.625,0.903-1.384,1.007-2.168l31.355,1.266l38.392,102.486c-0.436,0.208-0.842,0.493-1.194,0.868
	c-1.472,1.598-1.374,4.081,0.216,5.552c1.594,1.475,4.077,1.378,5.551-0.211c1.476-1.595,1.381-4.079-0.212-5.553
	c-0.113-0.099-0.236-0.178-0.354-0.265l58.221-95.58c1.522,0.753,3.412,0.469,4.62-0.836c1.47-1.591,1.375-4.079-0.215-5.555
	c-0.371-0.34-0.794-0.589-1.24-0.764l18.005-60.981l74.837,29.576c-0.414,1.391-0.056,2.953,1.082,4.001
	c0.662,0.613,1.477,0.939,2.311,1.014l-1.745,153.25c-0.555,0.042-1.103,0.189-1.624,0.481c-1.894,1.058-2.57,3.451-1.508,5.342
	c1.06,1.896,3.451,2.575,5.344,1.51c1.895-1.056,2.57-3.446,1.515-5.344c-0.655-1.166-1.811-1.863-3.045-1.986l1.74-153.246
	c0.284-0.025,0.558-0.08,0.827-0.161l30.997,66.536c-1.853,1.069-2.519,3.439-1.472,5.316c1.063,1.893,3.456,2.57,5.346,1.508
	c1.898-1.056,2.575-3.448,1.517-5.34c-0.956-1.711-2.989-2.416-4.768-1.765l-30.985-66.512c0.004-0.002,0.01-0.006,0.018-0.009
	l56.015,82.825c-1.456,1.184-1.903,3.262-0.955,4.958c1.058,1.895,3.449,2.573,5.345,1.514c1.892-1.058,2.568-3.452,1.508-5.348
	c-1.056-1.892-3.443-2.57-5.338-1.513l-55.996-82.794c0.177-0.136,0.352-0.279,0.506-0.449c1.191-1.285,1.342-3.142,0.525-4.592
	l67.699-46.695l67.163,80.607c-0.082,0.074-0.177,0.126-0.251,0.21c-0.615,0.671-0.933,1.499-0.998,2.343l0.006,0.677
	c0.002,0.019,0.004,0.037,0.009,0.059l0.132,0.668c0.024,0.088,0.074,0.164,0.108,0.251l-22.288,12.317
	c-0.168-0.301-0.361-0.591-0.619-0.844c-1.448-1.424-3.777-1.405-5.204,0.041c-1.423,1.45-1.407,3.78,0.046,5.205
	c1.445,1.425,3.774,1.407,5.201-0.042c0.983-1,1.263-2.417,0.872-3.673l22.292-12.316c0.188,0.313,0.418,0.604,0.705,0.863
	c0.426,0.394,0.928,0.662,1.447,0.83l-11.369,50.338c-1.237-0.167-2.536,0.253-3.437,1.247c-1.459,1.606-1.348,4.091,0.258,5.549
	c1.608,1.461,4.091,1.344,5.552-0.262c1.459-1.601,1.342-4.086-0.262-5.549c-0.427-0.394-0.931-0.659-1.45-0.827l11.373-50.341
	c1.235,0.167,2.532-0.254,3.433-1.243c0.563-0.621,0.887-1.365,0.986-2.131l143.782,6.369c0.043,1.009,0.47,2.003,1.277,2.74
	c0.173,0.159,0.359,0.287,0.553,0.409l-23.604,45.752c-1.485-0.606-3.248-0.277-4.396,0.976c-0.631,0.699-0.952,1.562-0.994,2.43
	l-72.988,4.861c-0.125-0.78-0.484-1.526-1.088-2.122c-1.517-1.492-3.957-1.472-5.451,0.043c-1.489,1.519-1.469,3.96,0.047,5.453
	c1.518,1.492,3.958,1.471,5.449-0.045c0.709-0.718,1.067-1.648,1.094-2.584l72.967-4.859c0.117,0.883,0.52,1.728,1.227,2.375
	c0.1,0.087,0.202,0.152,0.301,0.23l-26.257,36.209c-1.523-1.259-3.776-1.182-5.186,0.253c-1.496,1.52-1.474,3.959,0.042,5.453
	c1.517,1.49,3.959,1.47,5.449-0.048c1.392-1.412,1.453-3.616,0.231-5.119l26.361-36.358c1.332,0.639,2.93,0.489,4.115-0.438
	l34.769,37.383c-1.45,1.605-1.334,4.082,0.271,5.539c0.389,0.354,0.831,0.612,1.293,0.784l-11.855,44.027
	c-1.279-0.227-2.646,0.179-3.588,1.21c-0.695,0.763-1.021,1.722-1.016,2.668l-13.355,1.572c-0.086-0.271-0.193-0.536-0.341-0.792
	c-1.071-1.886-3.473-2.546-5.357-1.469c-1.884,1.078-2.542,3.473-1.464,5.358c1.07,1.884,3.468,2.542,5.354,1.467
	c1.424-0.807,2.14-2.371,1.952-3.897l13.279-1.56c0.148,0.82,0.542,1.601,1.202,2.205c0.227,0.2,0.463,0.365,0.708,0.506
	l-19.452,42.431c-1.055-0.4-2.276-0.364-3.338,0.242c-1.883,1.076-2.54,3.473-1.466,5.36c1.074,1.884,3.474,2.536,5.36,1.466
	c1.882-1.072,2.539-3.475,1.469-5.359c-0.35-0.609-0.846-1.076-1.413-1.414l19.458-42.434c1.11,0.392,2.349,0.253,3.364-0.368
	l48.774,65.985c-0.314,0.193-0.614,0.412-0.87,0.696c-1.262,1.391-1.342,3.438-0.296,4.911l-74.8,65.926
	c-0.02-0.021-0.033-0.049-0.057-0.068c-1.604-1.463-4.09-1.341-5.553,0.26c-1.457,1.6-1.342,4.089,0.266,5.551
	c1.601,1.461,4.086,1.342,5.548-0.262c0.123-0.137,0.215-0.283,0.32-0.433l55.328,31.251c-0.537,1.359-0.271,2.941,0.757,4.062
	l0.5,0.467c0.698,0.538,1.528,0.809,2.361,0.814l8.959,59.781c-0.74,0.178-1.438,0.574-1.984,1.178
	c-1.072,1.174-1.293,2.812-0.706,4.181l0.327,0.6c0.177,0.274,0.379,0.54,0.635,0.769c0.992,0.902,2.322,1.204,3.541,0.918
	l19.277,71.581c-0.58,0.21-1.123,0.54-1.564,1.028c-0.379,0.412-0.646,0.887-0.814,1.387l-0.16,0.662
	c-0.118,0.777-0.005,1.572,0.341,2.289l0.345,0.588c0.16,0.221,0.339,0.434,0.549,0.626c0.311,0.276,0.661,0.485,1.021,0.646
	l-28.826,81.142c-1.366-0.352-2.873,0.027-3.888,1.137c-0.732,0.805-1.064,1.824-1.019,2.826l0.095,0.672
	c0.168,0.764,0.563,1.486,1.186,2.055c0.65,0.6,1.452,0.918,2.27,0.996l0.685,0.008c0.958-0.074,1.892-0.492,2.594-1.264
	c0.17-0.188,0.31-0.381,0.438-0.588l90.459,45.082V702.08z M1274.608,5.72c0.521-0.21,1.007-0.523,1.413-0.962
	c0.711-0.768,1.048-1.742,1.036-2.712l91.342-0.642c0.012,0.714,0.223,1.42,0.617,2.043l-74.018,56.698L1274.608,5.72z
	 M1271.605,81.312c-0.033-0.669-0.248-1.331-0.623-1.917l23.702-18.154l7.988,21.327L1271.605,81.312z M1344.751,185.782
	c-0.877-0.433-1.869-0.524-2.789-0.27l-38.293-102.224l97.695,3.948c0.044,0.996,0.46,1.969,1.251,2.7
	c0.11,0.103,0.236,0.178,0.354,0.265L1344.751,185.782z M1402.403,84.383c-0.579,0.625-0.909,1.387-1.006,2.171l-97.984-3.956
	l-8.167-21.786l74.188-56.827c0.074,0.08,0.134,0.167,0.215,0.245c1.05,0.968,2.477,1.246,3.752,0.88l30.164,78.418
	C1403.142,83.737,1402.743,84.016,1402.403,84.383z M1406.062,83.214c-0.615-0.122-1.254-0.097-1.857,0.075l-30.166-78.419
	c0.422-0.208,0.826-0.49,1.166-0.856c0.256-0.282,0.451-0.595,0.615-0.921l48.264,19.079L1406.062,83.214z M1882.097,107.889
	l20.135,100.538c-0.721,0.181-1.404,0.567-1.943,1.158c-0.186,0.201-0.345,0.416-0.477,0.641l-127.49-61.505
	c0.311-0.841,0.304-1.756,0.023-2.602l105.912-40.423c0.212,0.437,0.505,0.845,0.883,1.191
	C1879.978,107.648,1881.048,107.972,1882.097,107.889z M1848.163,14.858c0.926,0.466,1.979,0.542,2.948,0.239l29.093,85.296
	c-0.488,0.214-0.94,0.525-1.323,0.946c-0.499,0.548-0.805,1.203-0.936,1.883l-78.208-8.459c0.023-1.097-0.396-2.195-1.271-2.994
	c-0.086-0.078-0.186-0.133-0.278-0.205L1848.163,14.858z M1767.815,18.19c0.606-0.662,0.924-1.481,0.999-2.314l77.222-4.119
	c0.094,0.931,0.504,1.837,1.25,2.514c0.094,0.087,0.203,0.149,0.302,0.225l-49.974,76.702c-0.875-0.45-1.874-0.557-2.799-0.31
	l-28.082-71.874C1767.13,18.804,1767.501,18.537,1767.815,18.19z M1694.397-0.327l8.971,2.066l-3.037,5.116l-6.534-5.966
	C1694.069,0.511,1694.274,0.104,1694.397-0.327z M1689.686,2.379c1.28,0.318,2.665-0.016,3.664-0.973l6.625,6.046l-28.245,47.591
	c-0.032-0.017-0.067-0.035-0.104-0.052L1689.686,2.379z M1644.185,84.042l-6.792-78.392c0.349-0.059,0.687-0.154,1.015-0.31
	l29.356,50.024c-0.226,0.163-0.442,0.343-0.628,0.557c-1.398,1.535-1.339,3.869,0.077,5.348l-20.673,23.536
	C1645.837,84.289,1645.019,84.033,1644.185,84.042z M1791.934,94.163l-143.782-6.371c-0.035-0.924-0.416-1.825-1.097-2.534
	l20.669-23.54c1.599,1.178,3.854,0.997,5.218-0.505c0.338-0.375,0.588-0.795,0.753-1.24l118.287,33.953
	C1791.966,94.001,1791.943,94.082,1791.934,94.163z M1792.161,93.273L1673.88,59.317c0.254-1.303-0.145-2.696-1.2-3.655
	c-0.112-0.105-0.237-0.181-0.359-0.271l28.165-47.468l92.295,84.29C1792.517,92.541,1792.308,92.896,1792.161,93.273z
	 M1793.257,91.726l-92.411-84.404l3.218-5.425L1761.024,15c-0.174,1.239,0.244,2.544,1.242,3.452
	c1.076,0.979,2.541,1.233,3.838,0.821l28.066,71.841C1793.845,91.26,1793.542,91.478,1793.257,91.726z M1770.729,144.055
	l23.608-45.755c1.481,0.607,3.247,0.278,4.388-0.978c0.504-0.553,0.807-1.208,0.939-1.886l78.209,8.462
	c-0.006,0.392,0.037,0.782,0.145,1.16l-105.949,40.436c-0.202-0.371-0.452-0.729-0.791-1.03
	C1771.107,144.307,1770.921,144.172,1770.729,144.055z M1796.188,238.358l11.858-44.028c1.28,0.226,2.647-0.18,3.589-1.216
	c1.459-1.603,1.344-4.088-0.262-5.548c-1.434-1.309-3.574-1.341-5.053-0.183l-34.771-37.385c0.188-0.206,0.347-0.427,0.481-0.665
	l127.49,61.506c-0.239,0.635-0.298,1.314-0.201,1.977l-100.797,27.909c-0.214-0.588-0.549-1.14-1.037-1.587
	C1797.097,238.785,1796.651,238.528,1796.188,238.358z M1826.284,417.98c-0.168,0.189-0.316,0.395-0.44,0.6l-55.294-31.229
	c0.582-1.283,0.451-2.796-0.399-3.95l74.785-65.914c0.044,0.038,0.073,0.085,0.115,0.122c0.996,0.915,2.339,1.21,3.561,0.915
	l13.1,71.296c-0.686,0.189-1.33,0.562-1.839,1.126c-1.243,1.362-1.336,3.359-0.359,4.822l-27.537,22.11
	c-0.05-0.05-0.088-0.105-0.14-0.154C1830.231,416.261,1827.747,416.379,1826.284,417.98z"/>
<path opacity="0.2" fill="#FFFFFF" d="M975.108,86.071c-1.592-1.475-4.078-1.379-5.553,0.214c-0.395,0.427-0.668,0.923-0.839,1.442
	l-50.244-11.79c0.178-1.237-0.23-2.536-1.217-3.447c-0.609-0.566-1.355-0.894-2.121-1.004l3.783-71.816h-0.684l-3.782,71.779
	c-0.923,0.033-1.827,0.403-2.542,1.074l-23.365-20.862c1.191-1.591,1.025-3.845-0.461-5.225c-0.373-0.342-0.795-0.592-1.238-0.761
	L900.469-0.33h-0.707l-13.568,45.814c-1.299-0.263-2.697,0.123-3.66,1.167c-0.107,0.114-0.184,0.241-0.273,0.361l-47.235-28.566
	L852.462-0.33h-0.931l-17.104,18.416l-5.399-3.265l3.619-15.151h-0.697l-3.53,14.782L803.978-0.33h-1.317l25.592,15.479
	l-2.191,9.181c-1.201-0.141-2.451,0.268-3.34,1.225c-0.486,0.524-0.786,1.153-0.933,1.808l-73.722-9.904
	c-0.02-1.03-0.436-2.051-1.254-2.809c-0.107-0.099-0.227-0.174-0.344-0.26l9.453-14.719h-0.812l-9.224,14.361
	c-1.52-0.757-3.41-0.479-4.626,0.833c-0.728,0.786-1.066,1.788-1.039,2.777L595.61,48.077L723.617-0.33h-1.922L594.908,47.616
	c-0.035-0.07-0.084-0.129-0.122-0.195c-0.024-0.04-0.044-0.079-0.071-0.121L660.212-0.33h-1.155l-64.732,47.079
	c-0.016-0.017-0.038-0.027-0.055-0.045c-0.076-0.091-0.148-0.183-0.235-0.267c-0.173-0.16-0.362-0.297-0.557-0.42L616.211-0.33
	h-0.76l-22.58,46.034c-1.141-0.475-2.442-0.379-3.512,0.258L555.361-0.33h-0.845l34.291,46.691c-0.108,0.098-0.226,0.18-0.324,0.289
	c-0.112,0.124-0.198,0.256-0.293,0.385L516.203-0.33h-1.24l72.879,47.953c-0.294,0.613-0.429,1.278-0.389,1.943l-79.725,10.79
	L493.912-0.33h-0.702l13.84,60.776l-51.366,6.952c-0.26-1.154-1.028-2.163-2.129-2.685L482.477-0.33h-0.744l-28.821,64.817
	c-0.044-0.016-0.083-0.037-0.126-0.046c-0.658-0.156-1.311-0.123-1.922,0.039L427.487-0.33h-0.725l23.459,65.041
	c-0.511,0.237-0.969,0.579-1.34,1.015L355.665-0.33h-1.178l94.003,66.614c-0.152,0.262-0.275,0.541-0.368,0.841L295.089,34.928
	c0.138-0.871-0.022-1.728-0.417-2.46L337.694-0.33h-1.122l-42.275,32.226c-0.527-0.665-1.26-1.175-2.15-1.39
	c-0.439-0.107-0.879-0.115-1.307-0.073L284.215-0.33h-0.697l6.652,30.889c-1.051,0.297-1.952,1.014-2.453,2.017l-32.632-13.481
	c0.028-0.085,0.072-0.166,0.092-0.257c0.491-2.048-0.728-4.097-2.731-4.679l2.473-14.489h-0.691l-2.451,14.362
	c-1.197-0.13-2.353,0.293-3.175,1.103L230.374-0.33h-1.052l18.836,15.98c-0.226,0.317-0.393,0.672-0.516,1.056L174.567-0.33h-2.988
	l75.907,17.693c-0.145,1.008,0.102,1.985,0.646,2.778l-56.252,45.884c-0.426-0.329-0.919-0.577-1.473-0.712
	c-1.011-0.243-2.016-0.062-2.851,0.412L154.303-0.33h-0.766l33.454,66.447c-0.632,0.523-1.112,1.236-1.323,2.1
	c-0.358,1.497,0.203,2.987,1.309,3.917l-34.385,74.637c-0.132-0.05-0.262-0.106-0.4-0.141c-0.164-0.039-0.324-0.046-0.486-0.067
	L151.713-0.33h-0.68l-0.011,146.877c-0.81,0.052-1.567,0.35-2.187,0.845l-73-74.887c0.439-0.474,0.779-1.053,0.942-1.729
	c0.288-1.211-0.031-2.422-0.745-3.329L146.598-0.33h-0.98l-70.05,67.28c-0.467-0.425-1.034-0.753-1.692-0.91
	c-0.142-0.034-0.281-0.039-0.42-0.058L76.172-0.33H75.49l-2.715,66.28c-0.562,0.028-1.102,0.171-1.59,0.422L35.342,8.526
	c0.799-0.531,1.41-1.342,1.652-2.345c0.508-2.111-0.795-4.229-2.904-4.737c-1.18-0.284-2.357,0.01-3.262,0.689L28.62-0.33h-0.913
	l2.615,2.917c-0.416,0.44-0.736,0.981-0.912,1.602L5.995-0.33H2.4l26.883,5.188c-0.137,1.304,0.389,2.547,1.342,3.372L-3.273,55.435
	v1.168L31.178,8.625c0.153,0.091,0.305,0.175,0.473,0.244L-3.273,114.494v2.166L32.294,9.087c0.854,0.194,1.7,0.087,2.445-0.237
	l35.868,57.881c-0.705,0.531-1.248,1.286-1.469,2.208c-0.266,1.092-0.035,2.182,0.529,3.053l-72.941,61.472v0.886l73.355-61.814
	c0.51,0.546,1.177,0.954,1.957,1.141c0.262,0.064,0.524,0.099,0.786,0.107l7.51,141.353c-0.886,0.135-1.686,0.58-2.291,1.235
	l-81.317-68.998v0.894l80.9,68.644c-0.227,0.358-0.417,0.75-0.521,1.187c-0.054,0.228-0.079,0.456-0.092,0.681l-51.47,1.351
	c-0.182-1.592-1.321-2.979-2.97-3.376c-0.723-0.174-1.445-0.121-2.105,0.086l-23.742-56.985v1.766l23.119,55.485
	c-0.972,0.505-1.735,1.398-2.012,2.551c-0.028,0.113-0.031,0.229-0.046,0.342l-21.062-1.58v0.683l21.016,1.575
	c0.027,0.985,0.414,1.913,1.078,2.61l-22.094,26.454v1.062l22.6-27.065c0.291,0.214,0.625,0.374,0.977,0.504l-23.576,97.375v2.9
	l24.232-100.095c0.418,0.076,0.828,0.09,1.229,0.035l27.219,120.011c-1.264,0.407-2.291,1.427-2.627,2.812
	c-0.037,0.147-0.042,0.299-0.06,0.447l-49.993-1.648v0.681l49.969,1.651c0,0.036,0.004,0.077,0.009,0.115l-49.978,8.678v0.685
	l50.093-8.688c0.233,0.872,0.748,1.65,1.487,2.182L18.607,401.21c-0.25-0.121-0.51-0.221-0.789-0.287
	c-0.962-0.232-1.914-0.073-2.727,0.352l-18.365-28.784v1.266l17.793,27.886c-0.691,0.528-1.222,1.271-1.439,2.186
	c-0.498,2.078,0.757,4.159,2.815,4.703l-13.79,79.18c-1.902-0.165-3.693,1.064-4.152,2.979c-0.506,2.11,0.791,4.234,2.9,4.737
	c2.113,0.509,4.232-0.79,4.736-2.901c0.373-1.549-0.233-3.098-1.414-4.016l82.786-128.389c0.284,0.149,0.581,0.277,0.909,0.359
	c0.885,0.212,1.765,0.09,2.535-0.258l41.977,74.602c-0.777,0.53-1.374,1.326-1.613,2.312c-0.506,2.111,0.793,4.232,2.902,4.738
	c2.111,0.505,4.23-0.79,4.738-2.902c0.507-2.108-0.791-4.229-2.901-4.736c-0.884-0.211-1.765-0.095-2.533,0.255l-41.978-74.602
	c0.014-0.012,0.029-0.023,0.048-0.034l85.312,100.998c-0.495,0.494-0.872,1.115-1.047,1.847c-0.506,2.108,0.793,4.229,2.9,4.735
	c2.11,0.506,4.232-0.793,4.739-2.9c0.507-2.11-0.792-4.23-2.901-4.736c-1.144-0.272-2.279-0.008-3.17,0.617L91.566,359.419
	c0.492-0.493,0.869-1.117,1.041-1.844c0.139-0.564,0.134-1.131,0.029-1.67l49.593-14.281c0.448,1.164,1.442,2.096,2.745,2.41
	c2.109,0.506,4.232-0.793,4.74-2.9c0.505-2.111-0.795-4.23-2.906-4.738c-2.106-0.508-4.229,0.791-4.734,2.9
	c-0.139,0.564-0.133,1.135-0.029,1.674l-49.59,14.279c-0.451-1.166-1.443-2.097-2.748-2.411c-0.811-0.192-1.621-0.118-2.342,0.164
	L23.69,223.932c0.866-0.527,1.528-1.375,1.785-2.439c0.054-0.231,0.079-0.455,0.092-0.682l51.468-1.35
	c0.183,1.594,1.322,2.981,2.975,3.377c2.107,0.507,4.228-0.792,4.734-2.902c0.457-1.89-0.547-3.78-2.272-4.518l16.01-48.476
	c2.106,0.497,4.22-0.799,4.725-2.905c0.123-0.511,0.137-1.022,0.061-1.515l44.296-10.817c0.418,1.235,1.432,2.235,2.792,2.564
	c0.999,0.243,1.995,0.064,2.825-0.397l7.809,10.948c-0.195,0.205-0.375,0.424-0.53,0.679c-1.136,1.848-0.556,4.271,1.296,5.405
	c1.851,1.132,4.267,0.554,5.401-1.296c1.134-1.852,0.556-4.273-1.296-5.402c-1.391-0.855-3.109-0.736-4.355,0.166l-7.762-10.886
	c0.646-0.524,1.14-1.247,1.351-2.117c0.068-0.288,0.1-0.58,0.102-0.864l46.554-3.39c0.159,1.122,0.781,2.17,1.821,2.804
	c1.851,1.14,4.269,0.555,5.399-1.293c1.14-1.848,0.557-4.268-1.295-5.401c-1.848-1.136-4.268-0.556-5.402,1.296
	c-0.365,0.599-0.536,1.258-0.559,1.915l-46.562,3.389c-0.186-1.161-0.902-2.179-1.936-2.774l34.331-74.523
	c0.32,0.182,0.653,0.334,1.026,0.423c1.826,0.442,3.659-0.476,4.446-2.1l93.8,33.789c-0.008,0.03-0.021,0.058-0.03,0.087
	c-0.505,2.11,0.794,4.23,2.903,4.738c2.11,0.508,4.232-0.795,4.738-2.903c0.507-2.108-0.791-4.231-2.9-4.737
	c-0.182-0.045-0.357-0.056-0.534-0.071l0.731-63.543c1.454-0.184,2.709-1.183,3.201-2.621l153.055,32.203
	c-0.076,0.629-0.012,1.253,0.198,1.821l-79.467,45.28c-0.521-0.627-1.229-1.101-2.083-1.305c-2.107-0.507-4.23,0.792-4.739,2.903
	c-0.504,2.107,0.795,4.23,2.903,4.734c1.293,0.313,2.582-0.061,3.51-0.873l44.582,37.662l-11.875,27.612
	c-0.105-0.034-0.199-0.083-0.311-0.108c-2.109-0.506-4.23,0.791-4.738,2.901c-0.504,2.114,0.797,4.23,2.901,4.739
	c0.619,0.151,1.237,0.125,1.817-0.012l7.605,37.96c-1.678,0.449-2.922,1.97-2.915,3.793c0.009,2.166,1.773,3.92,3.944,3.915
	c2.166-0.006,3.919-1.774,3.916-3.943c-0.011-2.168-1.775-3.921-3.943-3.915c-0.113,0-0.215,0.025-0.33,0.035l-7.628-38.058
	c0.104-0.041,0.202-0.094,0.307-0.147l40.296,66.012c-0.887,0.723-1.464,1.814-1.463,3.047c0.01,2.168,1.773,3.926,3.943,3.917
	c2.17-0.007,3.922-1.772,3.914-3.941c-0.005-2.169-1.769-3.921-3.941-3.916c-0.688,0.003-1.329,0.196-1.889,0.515l-40.295-66.007
	c0.676-0.527,1.188-1.262,1.398-2.153c0.203-0.828,0.115-1.655-0.182-2.389l27.973-14.229l83.603,70.626
	c-0.276,0.394-0.491,0.843-0.614,1.342c-0.508,2.112,0.794,4.231,2.901,4.737c2.113,0.509,4.23-0.79,4.735-2.904
	c0.51-2.105-0.787-4.229-2.9-4.736c-0.148-0.036-0.291-0.04-0.438-0.059l4.049-111.843c1.691-0.085,3.205-1.255,3.621-2.987
	c0.506-2.11-0.793-4.232-2.902-4.735c-0.489-0.121-0.982-0.133-1.454-0.069l-14.112-61.992l79.669-10.784
	c0.174,0.729,0.558,1.416,1.147,1.964c0.22,0.202,0.458,0.367,0.708,0.512c0.11,0.069,0.237,0.113,0.356,0.172
	c0.139,0.061,0.274,0.119,0.414,0.165c0.117,0.041,0.221,0.108,0.344,0.137c0.878,0.21,1.747,0.099,2.51-0.246l73.413,134.534
	c-0.46,0.305-0.872,0.706-1.176,1.209c-1.132,1.845-0.554,4.267,1.296,5.401c1.848,1.136,4.268,0.555,5.396-1.295
	c1.139-1.851,0.562-4.268-1.291-5.405c-1.139-0.694-2.49-0.738-3.63-0.242L593.629,52.613c0.23-0.157,0.445-0.338,0.639-0.545
	l59.576,42.885c-1.1,1.841-0.521,4.228,1.318,5.355c1.849,1.134,4.266,0.555,5.399-1.298c1.135-1.848,0.556-4.264-1.295-5.401
	c-1.667-1.022-3.786-0.639-5.021,0.795L594.697,51.54c0.002-0.003,0.004-0.011,0.008-0.015l89.363,44.849
	c-0.693,1.747-0.062,3.785,1.591,4.8c1.848,1.129,4.265,0.549,5.401-1.295c1.134-1.85,0.553-4.27-1.295-5.405
	c-1.848-1.133-4.263-0.555-5.396,1.29l-89.338-44.837c0.09-0.205,0.172-0.417,0.229-0.641c0.119-0.492,0.112-0.978,0.045-1.447
	l145-30.518c0.158,0.778,0.545,1.517,1.172,2.095c1.591,1.473,4.078,1.376,5.551-0.215c0.551-0.596,0.883-1.318,1-2.06l73.672,9.893
	c-0.052,1.116,0.352,2.25,1.237,3.071c0.64,0.591,1.429,0.919,2.235,1.007l2.634,46.184c-0.856,0.122-1.685,0.514-2.325,1.201
	c-1.447,1.567-1.371,3.999,0.158,5.48l-50.744,62.326c-1.58-1.077-3.743-0.879-5.084,0.569c-1.472,1.59-1.375,4.075,0.215,5.55
	c1.596,1.474,4.078,1.379,5.555-0.215c1.08-1.169,1.311-2.817,0.727-4.195l134.998-71.515c0.172,0.272,0.369,0.53,0.617,0.758
	c0.666,0.621,1.49,0.946,2.332,1.015l0.139,85.601c-0.936,0.083-1.848,0.487-2.538,1.231c-1.47,1.591-1.373,4.078,0.218,5.551
	c1.592,1.474,4.075,1.378,5.551-0.212c1.475-1.595,1.376-4.08-0.215-5.552c-0.668-0.618-1.496-0.947-2.334-1.017l-0.137-85.598
	c0.019-0.003,0.033-0.007,0.053-0.007l25.031,129.814c-0.672,0.19-1.303,0.546-1.812,1.098c-1.474,1.594-1.379,4.079,0.214,5.551
	c1.594,1.473,4.078,1.378,5.553-0.214c1.473-1.594,1.377-4.078-0.215-5.552c-0.864-0.797-1.985-1.119-3.07-1.009L915.663,79.141
	c0.67-0.192,1.3-0.552,1.809-1.099c0.397-0.429,0.669-0.924,0.843-1.445l50.238,11.792c-0.177,1.237,0.233,2.536,1.22,3.448
	c1.592,1.473,4.076,1.379,5.551-0.216C976.796,90.03,976.701,87.547,975.108,86.071z M48.891,351.731
	c0.247,0.122,0.512,0.223,0.791,0.288c2.02,0.484,4.033-0.692,4.648-2.645l30.586,6.777c-0.117,0.864,0.053,1.707,0.46,2.43
	l-65.425,43.717c-0.219-0.28-0.467-0.531-0.756-0.74L48.891,351.731z M3.598,488.147c-0.256-0.137-0.527-0.251-0.821-0.327
	l13.79-79.178c1.902,0.165,3.693-1.067,4.153-2.979c0.237-0.991,0.065-1.979-0.388-2.802l65.434-43.722
	c0.183,0.227,0.386,0.436,0.621,0.616L3.598,488.147z M86.752,353.301c-0.791,0.479-1.396,1.243-1.689,2.183l-30.587-6.777
	c0.263-1.968-0.983-3.854-2.958-4.327c-0.491-0.116-0.98-0.132-1.448-0.065l-27.222-120.01c0.076-0.025,0.156-0.043,0.229-0.073
	L86.752,353.301z M147.451,149.531c-0.121,0.512-0.133,1.022-0.057,1.513L103.1,161.863c-0.42-1.234-1.432-2.237-2.794-2.562
	c-2.112-0.509-4.232,0.79-4.737,2.901c-0.455,1.888,0.545,3.778,2.271,4.517l-16.01,48.475c-0.273-0.062-0.547-0.094-0.814-0.1
	L73.5,73.744c0.676-0.097,1.297-0.372,1.832-0.777l73.012,74.892C147.931,148.323,147.609,148.885,147.451,149.531z
	 M290.313,101.744c-1.405,0.107-2.669,0.952-3.27,2.254l-93.79-33.789c0.013-0.055,0.044-0.104,0.055-0.159
	c0.319-1.314-0.068-2.633-0.914-3.564l56.172-45.817c0.495,0.506,1.13,0.892,1.872,1.069c1.792,0.431,3.581-0.449,4.394-2.014
	l32.645,13.488c-0.018,0.067-0.051,0.126-0.07,0.194c-0.506,2.112,0.794,4.232,2.902,4.739c0.248,0.059,0.494,0.089,0.738,0.102
	L290.313,101.744z M368.774,119.854c0.349-0.436,0.618-0.947,0.76-1.53c0.245-1.015,0.062-2.03-0.426-2.872l79.366-45.225
	c0.359,0.622,0.887,1.13,1.539,1.482l-36.844,85.649L368.774,119.854z M403.115,187.264c-0.354-0.572-0.863-1.043-1.479-1.373
	l11.795-27.421l17.397,14.699L403.115,187.264z M413.715,157.818l36.926-85.849c0.104,0.038,0.199,0.084,0.308,0.109
	c1.386,0.334,2.767-0.119,3.704-1.069l64.656,53.661c-0.271,0.388-0.482,0.826-0.6,1.313c-0.195,0.827-0.114,1.653,0.184,2.384
	l-87.404,44.466L413.715,157.818z M522.047,130.782L518,242.623c-0.97,0.05-1.881,0.454-2.561,1.129l-83.387-70.444l87.146-44.33
	c0.523,0.845,1.368,1.492,2.414,1.742C521.761,130.758,521.902,130.764,522.047,130.782z M521.333,123.17
	c-0.603,0.195-1.143,0.531-1.587,0.979l-64.657-53.658c0.267-0.388,0.481-0.826,0.599-1.312c0.086-0.374,0.104-0.743,0.086-1.104
	l51.428-6.961L521.333,123.17z M834.553,18.956l47.35,28.641c-0.017,0.036-0.035,0.07-0.051,0.105l-52.459-18.499
	c0.328-1.276,0.006-2.664-0.947-3.673L834.553,18.956z M828.863,15.52l5.091,3.077l-6.021,6.483
	c-0.375-0.277-0.78-0.482-1.209-0.609L828.863,15.52z M825.855,32.132c0.969-0.063,1.922-0.474,2.633-1.246
	c0.297-0.316,0.51-0.674,0.678-1.047l52.459,18.506c-0.225,0.876-0.154,1.804,0.23,2.632l-50.27,28.942
	c-0.157-0.227-0.34-0.442-0.549-0.639c-0.726-0.667-1.637-0.997-2.553-1.026L825.855,32.132z M775.982,148.413
	c-0.16-0.245-0.338-0.476-0.557-0.688l50.744-62.321c1.582,1.071,3.744,0.875,5.078-0.569c0.693-0.747,1.027-1.691,1.035-2.636
	l78.451-6.139c0.055,0.287,0.129,0.57,0.246,0.841L775.982,148.413z M910.674,75.382l-78.445,6.137
	c-0.059-0.347-0.15-0.687-0.303-1.012l50.268-28.94c0.158,0.226,0.338,0.439,0.551,0.636c1.525,1.409,3.857,1.368,5.348-0.035
	l23.363,20.865C910.934,73.734,910.671,74.553,910.674,75.382z"/>
<path opacity="0.2" fill="#FFFFFF" d="M1799.463,743.617c1.248,0.297,2.487,0.01,3.46-0.676l93.1,110.217
	c-0.537,0.539-0.949,1.221-1.136,2.01c-0.152,0.617-0.146,1.238-0.032,1.826l-54.12,15.582c-0.488-1.27-1.574-2.285-2.996-2.629
	c-2.301-0.553-4.618,0.865-5.172,3.166c-0.552,2.305,0.867,4.615,3.171,5.17c2.299,0.555,4.614-0.863,5.167-3.164
	c0.15-0.617,0.146-1.238,0.032-1.826l54.116-15.584c0.492,1.271,1.574,2.289,2.999,2.633c0.885,0.207,1.769,0.127,2.555-0.18
	l22.313,45.23v-1.686l-21.645-43.873c0.864-0.521,1.525-1.355,1.845-2.381l19.8,4.387v-0.764l-19.64-4.352
	c0.127-0.943-0.059-1.863-0.503-2.65l20.143-13.459v-0.895l-20.566,13.742c-0.199-0.246-0.422-0.475-0.679-0.672l21.245-32.947
	v-1.371l-21.872,33.92c-0.312-0.164-0.636-0.303-0.992-0.393c-0.967-0.23-1.927-0.098-2.767,0.283l-45.809-81.412
	c0.848-0.578,1.499-1.447,1.761-2.521c0.551-2.305-0.865-4.621-3.167-5.172c-2.305-0.553-4.617,0.861-5.172,3.166
	c-0.553,2.301,0.864,4.615,3.166,5.17c0.965,0.229,1.927,0.102,2.765-0.279l45.81,81.412c-0.016,0.012-0.032,0.025-0.053,0.037
	l-93.098-110.217c0.539-0.539,0.951-1.217,1.141-2.016c0.553-2.303-0.863-4.615-3.165-5.168s-4.618,0.867-5.171,3.164
	C1795.744,740.751,1797.162,743.064,1799.463,743.617z"/>
<path opacity="0.2" fill="#FFFFFF" d="M2.939,783.49l-0.547-0.51c-0.762-0.588-1.668-0.883-2.576-0.889l-3.09-20.613v5.014
	l2.348,15.66c-0.863,0.146-1.691,0.551-2.348,1.221v6.004l0.021-0.016c0.054,0.055,0.095,0.115,0.152,0.17
	c1.75,1.596,4.462,1.467,6.059-0.281c0.183-0.205,0.345-0.43,0.479-0.652l60.342,34.078c-0.635,1.4-0.492,3.051,0.436,4.311
	l-67.488,59.482v0.99l67.988-59.922c0.021,0.021,0.037,0.053,0.062,0.074c1.75,1.596,4.463,1.463,6.059-0.285
	c1.591-1.746,1.465-4.461-0.289-6.057c-1.747-1.594-4.459-1.465-6.055,0.285c-0.135,0.15-0.234,0.309-0.35,0.473L3.765,787.923
	C4.35,786.439,4.06,784.714,2.939,783.49z"/>
<path opacity="0.2" fill="#FFFFFF" d="M37.299,1146.203l25.627,65.588h0.797l-25.721-65.838c0.356-0.158,0.686-0.396,0.998-0.666
	l72.812,66.504h1.11l-73.403-67.035c0.288-0.359,0.516-0.746,0.676-1.158l129.078,37.055c-0.277,1.422,0.158,2.943,1.31,3.99
	c0.122,0.113,0.259,0.197,0.393,0.295l-15.935,26.854h0.866l15.712-26.473c0.036,0.018,0.074,0.037,0.115,0.055l-9.068,26.418h0.781
	l8.989-26.18c0.957,0.238,1.975,0.156,2.87-0.271l15.525,26.451h0.858l-15.743-26.826c0.248-0.178,0.482-0.373,0.686-0.607
	c1.526-1.676,1.461-4.223-0.084-5.836l22.561-25.684c0.768,0.564,1.66,0.844,2.57,0.834l5.035,58.119h0.742l-5.046-58.197
	c0.316-0.057,0.622-0.141,0.923-0.271l0.551-0.307l48.975,58.775h1.061l-49.395-59.281c0.09-0.08,0.193-0.137,0.274-0.229
	c0.672-0.732,1.018-1.637,1.089-2.559l-0.006-0.738c-0.003-0.021-0.005-0.039-0.01-0.064l-0.144-0.729
	c-0.026-0.096-0.081-0.178-0.118-0.275l24.322-13.439c0.183,0.33,0.395,0.646,0.676,0.922c1.58,1.553,4.123,1.533,5.679-0.045
	c1.553-1.582,1.536-4.125-0.05-5.68c-1.577-1.555-4.119-1.535-5.676,0.045c-1.074,1.09-1.379,2.639-0.952,4.01l-24.327,13.439
	c-0.204-0.342-0.455-0.66-0.77-0.941c-0.465-0.43-1.012-0.723-1.578-0.906l12.406-54.932c1.351,0.182,2.768-0.275,3.75-1.359
	c1.592-1.754,1.471-4.467-0.281-6.057c-1.755-1.594-4.465-1.467-6.059,0.285c-1.592,1.748-1.465,4.461,0.286,6.057
	c0.466,0.43,1.015,0.719,1.582,0.9l-12.411,54.938c-1.349-0.182-2.764,0.275-3.746,1.355c-0.615,0.678-0.967,1.49-1.076,2.326
	l-156.906-6.949c-0.048-1.102-0.514-2.186-1.395-2.99c-0.189-0.174-0.393-0.314-0.604-0.447l25.76-49.928
	c1.62,0.662,3.545,0.303,4.798-1.066c0.688-0.762,1.038-1.703,1.085-2.65l79.65-5.307c0.137,0.852,0.528,1.666,1.188,2.316
	c1.654,1.629,4.318,1.605,5.948-0.047c1.626-1.658,1.603-4.322-0.051-5.951c-1.655-1.629-4.319-1.605-5.947,0.049
	c-0.772,0.783-1.165,1.799-1.194,2.82l-79.625,5.303c-0.129-0.963-0.568-1.885-1.34-2.592c-0.107-0.096-0.221-0.166-0.328-0.25
	l28.653-39.516c1.663,1.375,4.121,1.291,5.659-0.275c1.633-1.658,1.609-4.32-0.046-5.951c-1.655-1.627-4.319-1.604-5.946,0.053
	c-1.52,1.541-1.586,3.945-0.252,5.586l-28.768,39.678c-1.455-0.697-3.198-0.535-4.492,0.479l-37.942-40.795
	c1.583-1.754,1.456-4.455-0.296-6.045c-0.424-0.387-0.906-0.668-1.41-0.855l12.938-48.047c1.396,0.248,2.887-0.195,3.915-1.32
	c0.759-0.832,1.114-1.879,1.108-2.91l14.574-1.717c0.094,0.295,0.211,0.586,0.372,0.865c1.169,2.059,3.79,2.779,5.847,1.604
	c2.055-1.178,2.773-3.791,1.598-5.848c-1.168-2.057-3.785-2.775-5.844-1.602c-1.553,0.881-2.336,2.588-2.13,4.254l-14.491,1.699
	c-0.162-0.895-0.592-1.744-1.312-2.404c-0.247-0.219-0.505-0.398-0.771-0.553l21.227-46.303c1.151,0.438,2.484,0.396,3.643-0.266
	c2.055-1.174,2.771-3.789,1.6-5.848c-1.172-2.057-3.791-2.77-5.85-1.6c-2.054,1.17-2.771,3.791-1.603,5.848
	c0.382,0.666,0.923,1.176,1.542,1.543l-21.234,46.307c-1.212-0.426-2.562-0.275-3.671,0.402l-38.315-51.834v1.24l37.721,51.035
	c-0.117,0.104-0.24,0.193-0.347,0.314c-0.122,0.133-0.217,0.279-0.321,0.43l-37.053-20.369v0.846l36.68,20.164
	c-0.375,0.803-0.486,1.682-0.339,2.537l-36.341,10.061v0.766l36.524-10.111c0.233,0.641,0.6,1.244,1.132,1.732
	c0.427,0.387,0.912,0.666,1.418,0.852l-12.941,48.047c-1.396-0.246-2.889,0.197-3.916,1.328c-1.592,1.748-1.467,4.461,0.286,6.053
	c1.563,1.43,3.899,1.465,5.513,0.201l37.945,40.797c-0.207,0.223-0.379,0.465-0.525,0.725l-65.436-31.568v0.822l65.119,31.416
	c-0.338,0.916-0.33,1.916-0.024,2.838l-65.095,24.846v0.795l65.395-24.959c0.221,0.406,0.494,0.797,0.863,1.125
	c0.187,0.172,0.39,0.318,0.599,0.445l-25.763,49.934c-1.617-0.664-3.543-0.305-4.789,1.066c-0.55,0.604-0.879,1.318-1.024,2.059
	l-35.28-3.816v0.742l35.201,3.807c-0.025,1.197,0.433,2.396,1.388,3.268c0.094,0.086,0.202,0.145,0.304,0.223l-36.893,56.627v1.359
	l37.518-57.584C35.199,1146.355,36.289,1146.47,37.299,1146.203z M40.443,1142.626l156.906,6.953
	c0.039,1.006,0.455,1.992,1.197,2.766l-22.555,25.688c-1.745-1.285-4.207-1.088-5.694,0.551c-0.369,0.41-0.642,0.867-0.822,1.354
	l-129.085-37.051C40.409,1142.802,40.433,1142.714,40.443,1142.626z"/>
<path opacity="0.2" fill="#FFFFFF" d="M1243.22,1142.287c2.015,1.236,4.65,0.607,5.89-1.406l97.491,48.93
	c-0.099,0.223-0.188,0.455-0.249,0.701c-0.13,0.535-0.122,1.064-0.049,1.576l-93.615,19.703h3.617l89.664-18.871l-49.902,18.871
	h2.097l48.572-18.367c0.038,0.076,0.092,0.141,0.134,0.213c0.025,0.043,0.048,0.086,0.076,0.131l-24.785,18.023h1.259l23.954-17.42
	c0.017,0.018,0.041,0.029,0.059,0.049c0.083,0.098,0.162,0.199,0.258,0.291c0.189,0.176,0.395,0.324,0.606,0.459l-8.153,16.621
	h0.829l7.986-16.281c1.244,0.52,2.665,0.416,3.832-0.281l12.165,16.562h0.922l-12.484-16.998c0.118-0.105,0.246-0.195,0.354-0.314
	c0.123-0.135,0.217-0.281,0.32-0.422l26.954,17.734h1.354l-27.927-18.375c0.32-0.668,0.467-1.395,0.423-2.119l87.003-11.777
	l7.348,32.271h0.764l-7.371-32.369l56.055-7.586c0.285,1.258,1.123,2.359,2.324,2.93l-16.464,37.025h0.811l16.354-36.779
	c0.049,0.02,0.09,0.041,0.139,0.051c0.718,0.17,1.429,0.135,2.097-0.041l13.263,36.77h0.791l-13.354-37.023
	c0.557-0.258,1.057-0.631,1.462-1.105l53.809,38.129h1.287l-54.669-38.74c0.168-0.287,0.301-0.59,0.402-0.918l167.002,35.137
	c-0.15,0.949,0.024,1.887,0.455,2.684l-2.411,1.838h1.229l1.592-1.213c0.402,0.508,0.919,0.924,1.521,1.213h3.601
	c0.874-0.398,1.614-1.066,2.058-1.955l4.734,1.955h1.939l-6.412-2.648c0.021-0.074,0.057-0.137,0.078-0.211
	c0.552-2.307-0.867-4.621-3.169-5.174c-0.271-0.064-0.538-0.098-0.804-0.111l0.799-69.293c1.534-0.117,2.913-1.039,3.568-2.459
	l102.351,36.873c-0.014,0.061-0.047,0.113-0.06,0.174c-0.348,1.434,0.075,2.873,0.999,3.889l-47.767,38.961h1.179l47.147-38.457
	c0.465,0.359,1.003,0.631,1.606,0.779c1.104,0.264,2.2,0.066,3.111-0.451l19.196,38.129h0.836l-19.414-38.559
	c0.689-0.568,1.214-1.348,1.443-2.291c0.393-1.633-0.221-3.26-1.428-4.273l37.523-81.451c0.145,0.057,0.286,0.117,0.438,0.156
	c0.18,0.041,0.354,0.049,0.53,0.072l-0.006,126.346h0.742l0.009-126.33c0.885-0.055,1.71-0.381,2.388-0.922l79.663,81.725
	c-0.48,0.516-0.851,1.148-1.029,1.885c-0.314,1.324,0.034,2.643,0.813,3.635l-41.655,40.008h1.072l41.092-39.467
	c0.509,0.465,1.127,0.822,1.846,0.994c0.155,0.039,0.307,0.043,0.459,0.062l-1.574,38.41h0.744l1.571-38.377
	c0.613-0.029,1.202-0.186,1.735-0.459l4.656,7.514v-1.41l-4.024-6.494c0.769-0.578,1.36-1.404,1.601-2.41
	c0.291-1.191,0.039-2.381-0.576-3.332l3-2.527v-0.975l-3.452,2.91c-0.557-0.598-1.284-1.041-2.136-1.246
	c-0.285-0.068-0.572-0.107-0.857-0.117l-8.196-154.256c0.968-0.146,1.84-0.633,2.501-1.35l12.141,10.303v-0.975l-11.687-9.916
	c0.248-0.393,0.456-0.818,0.57-1.297c0.059-0.246,0.087-0.496,0.1-0.742l11.017-0.289v-0.742l-11.04,0.289
	c-0.2-1.74-1.444-3.252-3.245-3.686c-2.301-0.555-4.614,0.865-5.168,3.166c-0.497,2.062,0.597,4.127,2.48,4.932l-17.471,52.9
	c-2.299-0.541-4.605,0.873-5.156,3.17c-0.134,0.559-0.149,1.115-0.066,1.654l-48.339,11.803c-0.455-1.346-1.562-2.438-3.047-2.799
	c-1.091-0.264-2.178-0.068-3.083,0.434l-8.522-11.945c0.214-0.225,0.411-0.463,0.58-0.742c1.238-2.016,0.606-4.66-1.415-5.898
	c-2.02-1.236-4.656-0.605-5.895,1.414c-1.236,2.021-0.605,4.662,1.414,5.896c1.519,0.934,3.394,0.803,4.754-0.182l8.469,11.881
	c-0.704,0.572-1.243,1.359-1.473,2.309c-0.074,0.314-0.109,0.633-0.111,0.943l-50.803,3.699c-0.174-1.225-0.854-2.369-1.988-3.061
	c-2.019-1.242-4.658-0.605-5.892,1.412c-1.243,2.018-0.607,4.658,1.413,5.895c2.017,1.238,4.657,0.605,5.895-1.414
	c0.4-0.654,0.586-1.373,0.611-2.09l50.812-3.699c0.201,1.268,0.984,2.379,2.112,3.027l-37.465,81.326
	c-0.351-0.197-0.714-0.365-1.121-0.461c-1.992-0.482-3.993,0.52-4.852,2.291l-102.361-36.871c0.008-0.035,0.023-0.064,0.032-0.098
	c0.551-2.303-0.866-4.615-3.168-5.17c-2.303-0.555-4.619,0.869-5.17,3.168c-0.555,2.301,0.861,4.617,3.164,5.168
	c0.198,0.051,0.39,0.062,0.583,0.078l-0.799,69.346c-1.587,0.199-2.955,1.289-3.493,2.859l-167.025-35.143
	c0.083-0.686,0.012-1.369-0.217-1.988l86.721-49.414c0.568,0.684,1.342,1.203,2.273,1.426c2.299,0.553,4.616-0.865,5.172-3.17
	c0.551-2.299-0.867-4.615-3.169-5.164c-1.409-0.344-2.817,0.064-3.829,0.951l-48.652-41.1l12.959-30.133
	c0.115,0.037,0.218,0.09,0.34,0.117c2.301,0.553,4.615-0.861,5.17-3.166c0.551-2.307-0.868-4.615-3.166-5.17
	c-0.676-0.166-1.35-0.137-1.982,0.012l-8.301-41.424c1.832-0.49,3.189-2.15,3.182-4.141c-0.01-2.363-1.936-4.277-4.305-4.27
	c-2.364,0.006-4.276,1.936-4.273,4.301c0.012,2.367,1.938,4.281,4.305,4.271c0.122,0,0.234-0.025,0.358-0.037l8.325,41.531
	c-0.114,0.045-0.221,0.104-0.334,0.162l-43.975-72.037c0.967-0.791,1.598-1.982,1.597-3.326c-0.012-2.367-1.936-4.283-4.304-4.273
	c-2.367,0.006-4.279,1.934-4.271,4.301c0.006,2.367,1.93,4.279,4.301,4.271c0.75-0.002,1.45-0.213,2.062-0.561l43.974,72.033
	c-0.737,0.574-1.296,1.375-1.527,2.35c-0.221,0.902-0.126,1.807,0.199,2.605l-30.526,15.529l-91.234-77.074
	c0.303-0.43,0.536-0.92,0.671-1.467c0.553-2.303-0.866-4.615-3.166-5.166c-2.307-0.557-4.617,0.861-5.169,3.168
	c-0.556,2.297,0.86,4.615,3.166,5.168c0.161,0.039,0.317,0.045,0.477,0.064l-4.417,122.051c-1.847,0.094-3.498,1.369-3.952,3.26
	c-0.552,2.303,0.864,4.619,3.167,5.168c0.534,0.131,1.071,0.146,1.588,0.074l15.399,67.652l-86.941,11.768
	c-0.189-0.795-0.607-1.545-1.251-2.143c-0.241-0.221-0.5-0.4-0.773-0.559c-0.12-0.074-0.258-0.125-0.39-0.188
	c-0.15-0.066-0.299-0.129-0.451-0.182c-0.128-0.045-0.24-0.117-0.374-0.148c-0.959-0.229-1.908-0.107-2.74,0.27l-80.114-146.814
	c0.503-0.334,0.951-0.771,1.283-1.32c1.235-2.014,0.604-4.656-1.414-5.893c-2.017-1.242-4.656-0.605-5.89,1.414
	c-1.241,2.02-0.612,4.654,1.409,5.896c1.242,0.758,2.719,0.805,3.962,0.264l80.109,146.812c-0.251,0.17-0.485,0.369-0.696,0.596
	l-65.015-46.801c1.2-2.008,0.569-4.613-1.438-5.844c-2.019-1.238-4.656-0.605-5.894,1.416c-1.238,2.018-0.606,4.654,1.413,5.895
	c1.818,1.115,4.132,0.695,5.479-0.869l64.983,46.779c-0.002,0.002-0.004,0.012-0.008,0.016l-97.521-48.943
	c0.756-1.908,0.068-4.131-1.736-5.238c-2.017-1.232-4.654-0.6-5.894,1.412C1240.568,1138.408,1241.203,1141.048,1243.22,1142.287z
	 M1835.036,1082.205c0.133-0.559,0.146-1.117,0.063-1.65l48.337-11.807c0.458,1.348,1.563,2.441,3.048,2.795
	c2.307,0.557,4.619-0.861,5.172-3.166c0.496-2.061-0.596-4.121-2.479-4.93l17.471-52.898c0.3,0.068,0.597,0.102,0.89,0.109
	l8.2,154.252c-0.737,0.105-1.415,0.406-1.998,0.85l-79.677-81.729C1834.514,1083.523,1834.863,1082.91,1835.036,1082.205z
	 M1593.511,1114.591c-0.381,0.477-0.675,1.035-0.829,1.67c-0.269,1.107-0.066,2.217,0.465,3.135l-86.611,49.354
	c-0.392-0.68-0.969-1.234-1.679-1.617l40.207-93.469L1593.511,1114.591z M1556.035,1041.029c0.387,0.623,0.943,1.137,1.613,1.496
	l-12.871,29.924l-18.985-16.039L1556.035,1041.029z M1544.468,1073.16l-40.296,93.688c-0.113-0.043-0.218-0.092-0.336-0.119
	c-1.513-0.365-3.02,0.129-4.043,1.166l-70.558-58.561c0.296-0.422,0.526-0.898,0.655-1.432c0.213-0.902,0.124-1.803-0.201-2.602
	l95.382-48.525L1544.468,1073.16z M1426.247,1102.666l4.417-122.049c1.058-0.055,2.052-0.496,2.795-1.232l90.996,76.875
	l-95.1,48.377c-0.572-0.924-1.494-1.631-2.635-1.902C1426.56,1102.693,1426.404,1102.685,1426.247,1102.666z M1427.026,1110.972
	c0.657-0.213,1.247-0.58,1.731-1.068l70.56,58.557c-0.29,0.422-0.525,0.898-0.653,1.432c-0.094,0.408-0.114,0.809-0.094,1.205
	l-56.123,7.596L1427.026,1110.972z"/>
<path opacity="0.2" fill="#FFFFFF" d="M937.889,1151.222c0.432-0.465,0.729-1.008,0.916-1.572l54.83,12.865
	c-0.193,1.35,0.252,2.768,1.329,3.762c0.665,0.619,1.479,0.977,2.313,1.098l-2.339,44.416h0.746l2.339-44.377
	c1.006-0.035,1.992-0.439,2.773-1.17l25.498,22.766c-1.299,1.736-1.12,4.195,0.504,5.701c0.406,0.373,0.867,0.646,1.351,0.83
	l-4.812,16.25h0.772l4.751-16.041c1.418,0.287,2.943-0.135,3.993-1.273c0.118-0.125,0.202-0.264,0.3-0.393l29.282,17.707h1.441
	l-30.334-18.348c0.018-0.037,0.038-0.076,0.056-0.113l52.358,18.461h2.216l-54.327-19.164c0.244-0.955,0.169-1.969-0.251-2.873
	l54.857-31.582c0.172,0.248,0.37,0.482,0.6,0.699c0.791,0.727,1.785,1.086,2.784,1.119l2.869,50.33
	c-1.057,0.068-2.096,0.518-2.873,1.359c-0.033,0.035-0.055,0.076-0.086,0.111h6.445c-0.101-0.115-0.185-0.242-0.3-0.35
	c-0.699-0.646-1.56-1.002-2.439-1.1l-2.874-50.398c0.935-0.133,1.837-0.562,2.536-1.311c1.581-1.713,1.497-4.365-0.172-5.982
	l55.377-68.014c1.725,1.176,4.084,0.957,5.547-0.623c1.606-1.734,1.5-4.447-0.233-6.055c-1.741-1.609-4.451-1.506-6.063,0.234
	c-1.178,1.277-1.429,3.074-0.792,4.578l-147.321,78.041c-0.188-0.295-0.402-0.578-0.674-0.824c-0.726-0.678-1.626-1.033-2.545-1.109
	l-0.151-93.414c1.022-0.09,2.017-0.531,2.771-1.344c1.604-1.738,1.499-4.451-0.237-6.059c-1.737-1.609-4.447-1.504-6.057,0.232
	c-1.609,1.74-1.503,4.453,0.234,6.059c0.728,0.674,1.631,1.035,2.547,1.111l0.148,93.41c-0.02,0.004-0.036,0.008-0.058,0.008
	l-27.316-141.664c0.732-0.209,1.423-0.596,1.977-1.197c1.609-1.742,1.505-4.453-0.233-6.059c-1.739-1.607-4.45-1.504-6.06,0.232
	c-1.606,1.74-1.503,4.449,0.234,6.059c0.943,0.871,2.167,1.221,3.351,1.102l27.313,141.664c-0.731,0.211-1.418,0.602-1.973,1.201
	c-0.435,0.467-0.73,1.008-0.922,1.578l-54.824-12.871c0.193-1.35-0.254-2.768-1.33-3.762c-1.736-1.607-4.448-1.504-6.057,0.236
	c-1.607,1.734-1.504,4.445,0.234,6.057C933.566,1153.068,936.28,1152.962,937.889,1151.222z M1149.132,1083.423
	c0.174,0.27,0.369,0.521,0.607,0.752l-55.376,68.01c-1.725-1.166-4.087-0.953-5.541,0.621c-0.757,0.814-1.12,1.848-1.13,2.877
	l-85.612,6.701c-0.06-0.314-0.141-0.623-0.269-0.918L1149.132,1083.423z M1002.146,1163.123l85.605-6.699
	c0.064,0.379,0.164,0.75,0.331,1.104l-54.856,31.584c-0.173-0.248-0.369-0.479-0.601-0.693c-1.665-1.539-4.211-1.494-5.837,0.037
	l-25.495-22.77C1001.862,1164.921,1002.149,1164.027,1002.146,1163.123z"/>
<path opacity="0.2" fill="#FFFFFF" d="M291.716,1093.666l61.108,90.352c-0.193,0.148-0.383,0.305-0.553,0.49
	c-1.299,1.402-1.463,3.428-0.573,5.01l-32.292,22.273h1.311l31.402-21.66c0.125,0.15,0.238,0.301,0.385,0.436
	c0.865,0.801,1.971,1.176,3.066,1.137l2.475,20.088h0.748l-2.484-20.184c0.314-0.07,0.623-0.168,0.92-0.305l10.612,20.488h0.839
	l-10.805-20.861c0.245-0.17,0.479-0.369,0.688-0.596c0.285-0.309,0.496-0.648,0.674-1.004l56.833,22.461h2.019l-58.578-23.148
	c0.453-1.52,0.061-3.223-1.18-4.367c-0.723-0.668-1.611-1.025-2.522-1.105l1.905-167.24c0.604-0.047,1.203-0.207,1.771-0.525
	c2.066-1.154,2.805-3.766,1.646-5.828c-1.157-2.07-3.768-2.811-5.832-1.648c-2.068,1.152-2.805,3.762-1.653,5.832
	c0.715,1.273,1.976,2.033,3.323,2.168l-1.899,167.234c-0.31,0.027-0.608,0.086-0.901,0.176l-33.828-72.611
	c2.021-1.166,2.749-3.752,1.607-5.801c-1.162-2.066-3.772-2.805-5.835-1.646c-2.072,1.154-2.81,3.764-1.655,5.828
	c1.044,1.867,3.262,2.637,5.203,1.926l33.814,72.584c-0.005,0.002-0.012,0.006-0.02,0.01l-61.127-90.385
	c1.588-1.293,2.076-3.561,1.041-5.412c-1.154-2.066-3.764-2.807-5.832-1.65c-2.064,1.154-2.803,3.766-1.646,5.836
	C287.043,1094.078,289.649,1094.818,291.716,1093.666z"/>
<path opacity="0.2" fill="#FFFFFF" d="M460.826,1154.369l-16.954,57.422h0.774l16.893-57.217c0.671,0.135,1.367,0.105,2.025-0.08
	l22.042,57.297h0.798l-22.142-57.559c0.462-0.229,0.897-0.531,1.269-0.934c0.631-0.682,0.991-1.514,1.097-2.369l106.93,4.318
	l8.911,23.773l-42.779,32.77h1.22l41.83-32.041l12.005,32.041h0.794l-12.18-32.514l26.042-19.949
	c0.082,0.09,0.148,0.188,0.236,0.268c1.734,1.607,4.445,1.504,6.055-0.234c1.029-1.107,1.348-2.607,1.006-3.967l169.709-38.916
	c0.205,0.611,0.533,1.189,1.022,1.668c1.655,1.629,4.32,1.607,5.948-0.047c1.629-1.656,1.605-4.316-0.047-5.947
	c-1.657-1.627-4.319-1.607-5.949,0.049c-0.939,0.955-1.312,2.248-1.154,3.484l-169.809,38.934c-0.229-0.48-0.54-0.932-0.956-1.314
	c-0.512-0.477-1.105-0.779-1.732-0.959l13.01-40.193c1.84,0.473,3.836-0.316,4.799-2.055c1.149-2.066,0.408-4.678-1.661-5.826
	c-2.068-1.154-4.677-0.408-5.832,1.66c-1.148,2.072-0.404,4.682,1.662,5.832c0.109,0.059,0.224,0.094,0.332,0.143l-13.049,40.297
	c-0.12-0.014-0.24-0.021-0.362-0.023l-3.138-84.34c1.23-0.219,2.361-0.945,3.014-2.123c1.156-2.066,0.41-4.678-1.662-5.828
	c-2.066-1.152-4.678-0.406-5.831,1.662c-1.149,2.07-0.405,4.678,1.661,5.832c0.662,0.369,1.369,0.52,2.077,0.521l3.138,84.328
	c-0.92,0.146-1.804,0.57-2.486,1.307c-0.628,0.684-0.986,1.512-1.1,2.367l-34.217-1.381l-41.896-111.842
	c0.476-0.229,0.918-0.539,1.303-0.947c1.605-1.742,1.5-4.453-0.234-6.059c-1.74-1.611-4.45-1.504-6.059,0.23
	c-1.609,1.74-1.506,4.451,0.232,6.061c0.123,0.107,0.258,0.193,0.387,0.289l-63.535,104.303c-1.662-0.822-3.725-0.512-5.043,0.914
	c-1.604,1.736-1.5,4.449,0.235,6.061C459.879,1153.906,460.34,1154.177,460.826,1154.369z M608.268,1156.65
	c0.036,0.73,0.271,1.451,0.68,2.09l-25.865,19.812l-8.717-23.273L608.268,1156.65z M528.445,1042.644
	c0.957,0.473,2.04,0.572,3.044,0.295l41.788,111.555l-106.612-4.309c-0.048-1.086-0.503-2.148-1.365-2.947
	c-0.122-0.109-0.259-0.193-0.386-0.289L528.445,1042.644z"/>
</svg>
