<?xml version="1.0" encoding="utf-8"?>
<!-- Generator: Adobe Illustrator 16.0.0, SVG Export Plug-In . SVG Version: 6.00 Build 0)  -->
<!DOCTYPE svg PUBLIC "-//W3C//DTD SVG 1.1//EN" "http://www.w3.org/Graphics/SVG/1.1/DTD/svg11.dtd">
<svg version="1.1" id="Layer_1" xmlns="http://www.w3.org/2000/svg" xmlns:xlink="http://www.w3.org/1999/xlink" x="0px" y="0px"
	 width="37.082px" height="44.15px" viewBox="0 0 37.082 44.15" enable-background="new 0 0 37.082 44.15" xml:space="preserve">
<g>
	<path fill="#00833E" d="M0.211,24.405c0.249-1.667,0.921-0.03,1.265-1.103c0.045-0.071,0.065,0.903,0.161,0.68
		c0.311-1.301,1.045-0.57,1.639,0.39l-0.01,0.256c0.112,0.18,0.162-0.671,0.276-0.557c0.015,0.168-0.014,0.241,0.029,0.471
		c-0.015-0.511,0.168-0.245,0.181-0.626c0.057,0.197,0.086,0.602,0.157,0.822l0.013-0.584c0.053-1.391,0.408,0.076,0.576-0.649
		c-0.001,0.135-0.014,0.241,0.014,0.371c0.295-0.856,0.761-0.725,1.142-1.053c0,0.206,0.013,0.581,0.054,0.81
		c-0.026-0.611,0.087-0.773,0.187-0.897c0.096,0.626,0.143-0.584,0.296-0.244v0.141c0.045-0.664,0.168,0.372,0.185-0.422
		l0.097,0.492c-0.024-0.889,0.17,0.451,0.214-0.002l-0.015-0.183c0.057-0.221,0.128,0.223,0.185,0.069l0.014,0.104
		c0.142-0.242,0.271,0.247,0.217-0.444c0.096,0.549-0.136,0.26,0.01,1.061c0.472-0.738,1.023-0.629,1.549-0.665
		c0.079,0.272,0.123,0.356,0.154,0.617c0.043-0.143,0.19-0.137,0.214-0.488c-0.017,0.013,0.058,0.352,0.088,0.388
		c0.114,0.258,0.054-0.763,0.181-0.456c-0.03,0.186-0.029,0.41,0.002,0.667c0.054-0.541,0.18-0.457,0.275-0.634
		c-0.009,0.118-0.03,0.187-0.012,0.402c0.077-0.612,0.221,0.128,0.298-0.261l-0.012,0.4c0.195,0.482-0.006-0.837,0.154-0.552
		c-0.026,0.126-0.004,0.282,0.001,0.445c0.086-0.729,0.316-0.492,0.432-0.739c-0.004,0.056,0.005,0.163,0.005,0.163
		c0.138-0.093,0.303,0.133,0.442-0.188c0.068,0.178,0.042,0.977,0.185,0.827c-0.055-0.804,0.238-0.334,0.093-1.241
		c0.138,0.13,0.363,0.428,0.434,0.155c-0.041,0.307,0.122,0.979,0.018,1.05l0.11,0.483c0.008,0.329-0.091-0.109-0.04,0.304
		c0.052-0.033,0.191-0.354,0.247-0.225c0.071-0.492,0.11-1.41,0.267-1.517c-0.059,0.314,0.095,0.884,0.05,1.023l0.139-1.54
		c0.052-0.04,0.048,0.633,0.115,0.422c-0.017-0.212,0.01-0.344,0.024-0.517c0.026,0.092,0.215-0.203,0.283,0.585
		c0.041,0.312-0.079,0.17-0.003,0.449c0.099-0.01,0.089-0.279,0.188-0.293l0.008,0.105c0.072,0.115,0.176-0.341,0.08-0.775
		c-0.047-0.025,0.044,0.474-0.037,0.247c0.021-0.461,0.131-0.591,0.23-0.6c-0.027,0.129-0.011,0.338-0.012,0.562
		c0.1-0.624,0.232-0.822,0.37-1.082c-0.018-0.376-0.02,0.685-0.053,0.485c0.221,0.518,0.36-0.744,0.561,0.015
		c-0.023,0.067-0.042-0.533-0.035-0.428c0.096,0.047,0.12,0.591,0.17,0.387c0.023,0.321,0.071-0.102,0.128-0.2
		c0.021-0.232,0.025,0.155-0.028,0.192c0.073-0.274,0.397-0.771,0.621-0.306c-0.014-0.214,0.085-0.779,0.133-0.757l0.006,0.496
		c0.057,0.295,0.153-0.046,0.182,0.378c0.069-0.602-0.355,0.518-0.245,0.051c0.055,0.412,0.148-0.79,0.152-0.116
		c0.092-0.02,0.155-0.577,0.266-0.115c-0.029-0.079-0.042,0.685,0.031,0.65c0.128-0.089,0.026-0.237,0.125-0.403l0.058-0.203
		c-0.019-0.481,0.121,0.062,0.046-0.475c0.035,0.396,0.181-0.247,0.205,0.552l0.011,0.628c0.055-0.047,0.062-0.663,0.094-0.943
		c0.01,0.06,0.031,0.187,0.033,0.287c-0.035-0.962,0.139,0.08,0.173-0.663c0.134,0.334,0.304,0.03,0.388,0.632
		c0.078-0.291,0.145-0.638,0.259-0.431c-0.016,0.09-0.044,0.118-0.04,0.325c0.079,0.284,0.083,0.03,0.136-0.126
		c-0.007,0.144,0.157,0.562,0.246,0.905c0.078-0.287,0.022-0.806,0.017-1.123c0.127,0.95,0.229-0.611,0.372,0.25
		c-0.025,0.131-0.111,0.465-0.024,0.704c0.127,0.947,0.135-0.7,0.291-0.243l-0.07-0.789c0.082,0.489,0.177-0.455,0.2,0.348
		c0.032-0.283,0.17,0.261,0.12-0.508c0.25,0.651,0.518-0.389,0.716,0.987c0.026-0.127,0.111,0.004,0.077-0.392
		c-0.072-0.428-0.06,0.308-0.093,0.015c0.028-0.024,0.024-0.234,0.022-0.341c0.077,0.177,0.133,0.232,0.098,0.87
		c0.174,0.477,0.097-1.305,0.305-1.005c0.006,0.318,0.026,0.439,0.08,0.39l0.083-0.544c0.131,0.127,0.104,0.723,0.132,1.263
		c0.063-0.094,0.146-0.066,0.158-0.469l0.112,0.678c-0.082-0.491,0.041-0.325,0.065-0.457l-0.024,0.132
		c0.021,0.229,0.093,0.088,0.129,0.021c-0.024-0.334-0.109-0.47-0.157-0.567c0.024-0.236,0.08-0.181,0.112-0.46
		c0.009,0.529,0.127,0.377,0.183,0.432c0.065,0.115,0.047-0.475,0.065-0.454c0.014,0.274,0.102,0.044,0.071,0.429
		c-0.017,0.088-0.06-0.267-0.083-0.026c0.051,0.205,0.066,0.682,0.135,0.335c0.051-0.262-0.063-1.044,0.07-0.709
		c-0.025,0.131-0.021,0.342-0.037,0.532l0.124,0.273l-0.017-0.48c0.021,0.122,0.012,0.164,0.021,0.229
		c0.012-0.507,0.164-0.154,0.164-0.725c0.055-0.05,0.133,0.333,0.19,0.389l-0.009,0.042c0.078,0.282,0.158,0.098,0.199-0.228v0.104
		c0.039,0.039,0.121-0.038,0.152-0.318c0.107,0.361,0.113,1.815,0.186,1.211c0.092-0.017,0.104-0.881,0.054-1.189
		c0.181,0.326,0.334-0.459,0.521,0.289c0.016-0.195-0.005-0.316,0.039-0.43c0.252,0.189,0.488-0.569,0.725,0.377
		c-0.062,0.202,0.017,0.48,0.031,0.756c0.039-0.43,0.09,0.449,0.078-0.291c-0.027-0.435-0.029-0.646-0.107-0.823
		c0.136-0.231,0.357-0.231,0.455,0.175c-0.049-0.201-0.024-0.334,0.002-0.465c0.021,0.692,0.133,0.8,0.203,0.556l-0.008-0.423
		l0.071,0.435c0.024-0.135-0.005-0.887,0.093-0.481c0.012,0.164,0.024,0.33,0.045,0.45c0.067-0.346,0.158-0.932,0.264-0.576
		l0.104,0.617c0.035-0.067,0.083-0.439,0.008-0.617c0.17,0.37,0.272,0.416,0.346,0.949c0.207-1.303,0.59-1.357,0.904-1.266
		l0.004,0.316c0.098,0.296,0.018-0.554,0.086-0.335c-0.013,0.303,0.095,0.655,0.047,1.027c0.135,0.332,0.127-0.55,0.197-0.695
		c-0.008-0.415-0.05,0.268-0.06-0.261c0.006-0.149,0.181,0.324,0.169-0.305c0.041,0.246,0.04,0.709,0.036,0.964l0.058-0.305
		c0.124,0.733-0.14,1.313-0.003,2.217l0.062-0.099c0.097,0.658-0.141,0.745,0.037,0.97c0.06-0.312,0.078-1.225,0-1.501
		c0.144-0.176-0.002-1.5,0.164-1.449c0.062,0.369-0.127,0.089-0.07,0.606c0.102,0.508,0.141-0.283,0.218-0.105
		c-0.088-0.237-0.054-0.874-0.01-0.988c0.097,0.295-0.026,0.595,0.095,0.658c0.002-0.363,0.098-0.636-0.009-0.887
		c0.003-0.823,0.133,0.227,0.166-0.412c0.067,0.578-0.056,1.34,0.088,1.628c-0.048-0.56,0.122-0.759,0.013-1.587
		c0.059,0.161,0.086,0.6,0.065,0.942c0.09,0.343,0.126-1.02,0.204,0.087l-0.004-0.57c0.035,0.183,0.064,0.33,0.123,0.633
		c0.064,0.01,0.168-0.774,0.205,0.087c0.016-0.088,0.162-0.051,0.078-0.646c-0.109-0.362-0.084,0.437-0.174-0.368
		c0.096,0.655,0.126-0.087,0.167-0.307l0.025,0.332c0.024-0.13,0.1-0.058,0.101-0.418c-0.014,0.191,0.01,0.418,0.039,0.498
		l0.008-0.507c0.113-0.254,0.073,0.89,0.189,0.742l-0.074,0.395c0.016-0.085,0.082,0.388,0.133,0.23
		c0.006-0.461,0.012-1.02,0.016-1.377c0.06-0.203,0.059,0.52,0.103,0.045l-0.062,0.557c-0.006,0.153,0.099,0.766,0.191,0.752
		c0.051-0.159,0.109-0.829,0.004-1.081c0.045-0.008,0.125,0.273,0.104,0.61c0.097-0.16-0.039-0.496,0.037-0.785
		c0.053,0.31,0.19,0.747,0.284,1.195l-0.057,0.773l0.064,0.007c-0.051,0.622,0.064,0.474,0.052,1.127
		c0.049,0.103,0.089-0.122,0.123-0.291c-0.181-1.045,0.067-1.433-0.019-2.389c0.16-0.261,0.228,2.323,0.33,0.826
		c-0.041-0.248,0.006-0.975-0.088-0.7c0.112,0.105,0.022-0.958,0.17-0.562c-0.074,0.393,0.15,0.967,0.045,1.537
		c-0.008-0.318-0.088-0.24-0.104-0.149c0.063,0.364,0.04,0.96,0.149,0.958c0.062-0.092,0.154-0.109,0.115-0.606
		c-0.031-0.548-0.1,0.059-0.086-0.495c0.125-0.191,0.19,0.64,0.194-0.328c-0.08,0.074-0.131-0.488-0.147-0.863l0.086-0.229v0.363
		c0.17,0.261,0.01-0.659,0.168-0.563l0.109,0.717c-0.004,0.619-0.236-0.272-0.156,0.733c0.102,0.042,0.107-0.471,0.215-0.21
		c-0.018,0.086-0.043,0.109-0.061,0.199c0.038,0.035,0.143,1.367,0.244,0.585c0.057-0.304,0-0.358-0.018-0.733
		c0.152-0.115,0.18-0.5,0.278-0.561c0.019,0.736,0.185,0.07,0.112,0.823c-0.075-0.43-0.303-0.387-0.322,0.315
		c0.104,0.87-0.131-0.121-0.119,0.761c0.129,0.019,0.168,0.877,0.219,1.439c0.037,0.038,0.059-0.198,0.076-0.287
		c-0.014-0.529-0.06-0.521-0.091-1.065c0.15,0.142,0.271-0.154,0.322-0.668c0.062,0.261,0.075,0.789,0.021,0.84
		c0.162-0.158,0.348-0.088,0.517,0.072c-0.15-0.863,0.169-0.205,0.059-0.921c-0.096-0.194-0.204-0.809-0.177-1.197
		c0.057,0.057,0.02,0.38,0.051,0.564c0.043-0.474,0.148,0.755,0.176,0.011c-0.141,0.279,0.026,1.052,0.033,1.729
		c0.092-0.382,0.022,0.48,0.133,0.48c0.09-0.378,0.211-0.674,0.328-0.822c0.19,0.642,0.393,0.01,0.531-0.017
		c0.091,0.341,0.085,1.106,0.171,1.237c0.093-0.016-0.114-0.824,0.042-0.475l-0.005,0.152c0.031-0.178,0.28,0.517,0.261-0.58
		l0.004,0.829c0.028,0.074,0.043-0.115,0.059-0.203c0.016,0.269,0.06,0.515,0.027,0.689c0.116,0.571,0.172-0.091,0.264-0.114
		l-0.088-0.489c0.137-0.385,0.27,0.1,0.412-0.073l0.022,0.48l0.075-0.288c0.004,0.464,0.104,0.765,0.13,0.375l-0.169,1.176
		c-0.082-0.282,0.038-0.58-0.029-1.052c-0.058-0.411-0.191-0.282-0.189,0.179c0.058,0.053,0.055-0.052,0.087-0.224
		c0.055,0.667-0.028,0.641-0.044,1.086c0.027-0.027,0.078,0.176,0.072-0.035c-0.037,0.326-0.09,0.377-0.182,0.394
		c0.049-0.26-0.059-0.413-0.044-0.604c0.024,0.588-0.053,0.769-0.177,0.605c-0.12-0.679-0.191,0.438-0.334,0.25
		c0.02-0.594,0.062-1.071,0.13-1.312c-0.101-0.3-0.093,0.017-0.192-0.284c-0.016,0.444-0.007,1.124-0.101,1.396l-0.03-0.439
		c-0.086,0.224-0.05,0.874-0.182,0.754c-0.227-0.215-0.449-0.213-0.615-0.268l-0.029-0.437c-0.041,0.938-0.287,0.348-0.387,0.766
		c-0.232-0.422-0.434,0.421-0.58-0.332c-0.352,0.338-0.656,0.671-1.048,0.513l0.032-0.639c-0.045,0.469-0.064-0.366-0.127-0.273
		c0.104,0.511-0.059,0.664-0.086,1.054c-0.195-0.495-0.387,0.047-0.514,0.495l-0.029-0.438c-0.11,0.823-0.33,0.103-0.526-0.03
		c-0.031-0.182-0.086-0.594-0.14-0.544c-0.068,0.71-0.125,0.66-0.254,1.104c-0.11,0.001-0.299-0.174-0.424-0.447
		c-0.367,0.998-0.824,0.364-1.228,0.967l-0.056-0.515c-0.367,1.104-0.931,0.107-1.262,0.674l-0.006-0.881
		c-0.125-0.271-0.246,0.232-0.189,0.856c-0.123-0.268-0.26,0.431-0.364-0.294c-0.123-0.161-0.123,0.408-0.212,0.526
		c-0.245-0.335-0.326-0.26-0.535-0.097l0.057,0.058c0.014-0.194,0-0.57-0.057-0.626c-0.07,0.244-0.309-0.238-0.18,0.813
		c-0.258-0.608-0.517,0.493-0.778-0.328c0.032,0.288-0.022,0.344-0.037,0.537c-0.202,0.012-0.44-0.575-0.581-0.088
		c-0.038-0.144,0.029-0.487-0.054-0.518c-0.044,0.107,0.016,0.374-0.037,0.535c-0.304,0.534-0.688-0.556-0.981-0.418
		c-0.506,0.552-1.072,0.27-1.576,0.36l-0.004-0.211c-0.133,0.806-0.437-0.828-0.517,0.387c-0.049-0.2-0.158-0.096-0.146-0.502
		c-0.11,0.569-0.405-0.539-0.568,0.185c0.02,0.02,0.028-0.022,0.044-0.115c-0.219-0.465-0.364,0.172-0.592-0.25
		c0.017-0.091,0.052-0.158,0.049-0.368c-0.1-0.405-0.15,0.891-0.242-0.128c-0.046,0.01-0.009,0.51,0.018,0.481
		c-0.477-0.402-0.932,0.255-1.39,0.495c-0.367-0.604-0.104-1.714-0.334-0.951c-0.032-0.196,0.004,0.39-0.011,0.18
		c-0.088,0.285-0.217-1.135-0.262-0.601c0.061,0.625-0.03,0.35-0.013,0.73c-0.227-0.402-0.298-0.967-0.437-0.489l-0.005-0.329
		c-0.143,0.933-0.391,0.438-0.495,1.512c-1.042,0.21-2.014,0.82-3.029,0.958c-1.025-0.194-1.982,0.301-3.048-0.2
		c-0.302-0.853-0.319-0.828-0.558-0.464c0.001-0.142,0.015-0.173-0.012-0.303c0.038,0.708-0.182,0.074-0.158,0.754
		c-0.389-0.114-0.725,0.098-1.115,0.123c0.056-0.08,0.043-0.66-0.027-0.609l-0.042,0.456l-0.028-0.197
		c-0.042,0.107-0.07,0.459-0.001,0.686c-0.932,0.661-2.009-0.712-2.958-0.487c-0.253-0.285-0.556,0.004-0.791,0.161
		c-0.816-0.908-1.552-1.636-2.24-0.936C0.008,26.679-0.062,24.844,0.211,24.405"/>
	<path fill="#00833E" d="M17.599,0.196c1.333-0.68,0.497,0.649,1.449,0.346c0.075-0.005-0.619,0.513-0.408,0.466
		c1.099-0.446,0.951,0.462,0.564,1.386l-0.19,0.125c-0.072,0.174,0.568-0.229,0.544-0.089c-0.113,0.1-0.182,0.115-0.325,0.265
		c0.361-0.274,0.264-0.005,0.545-0.192c-0.111,0.144-0.39,0.372-0.512,0.538l0.429-0.293c1.032-0.679,0.155,0.335,0.767,0.082
		c-0.099,0.068-0.182,0.113-0.262,0.202c0.771-0.23,0.916,0.175,1.35,0.28c-0.148,0.107-0.412,0.31-0.557,0.458
		c0.429-0.335,0.604-0.336,0.745-0.328c-0.403,0.392,0.495-0.198,0.329,0.087l-0.102,0.073c0.503-0.311-0.183,0.312,0.4-0.084
		l-0.306,0.324c0.63-0.478-0.238,0.355,0.112,0.153l0.123-0.105c0.189-0.073-0.094,0.208,0.047,0.17l-0.069,0.063
		c0.249-0.021-0.038,0.323,0.433-0.072c-0.347,0.353-0.258,0.036-0.76,0.555c0.775-0.04,0.981,0.414,1.279,0.776
		c-0.156,0.196-0.194,0.271-0.367,0.429c0.126-0.043,0.197,0.066,0.464-0.097c-0.018-0.007-0.225,0.223-0.234,0.263
		c-0.128,0.216,0.579-0.354,0.423-0.104c-0.15,0.074-0.312,0.191-0.48,0.346c0.418-0.24,0.422-0.105,0.6-0.128
		c-0.09,0.055-0.15,0.074-0.297,0.199c0.481-0.261,0.021,0.226,0.342,0.08l-0.296,0.198c-0.247,0.391,0.603-0.437,0.479-0.174
		c-0.104,0.047-0.206,0.144-0.321,0.231c0.57-0.314,0.52-0.025,0.757-0.069c-0.042,0.025-0.114,0.087-0.114,0.087
		c0.137,0.053,0.06,0.287,0.363,0.223c-0.094,0.141-0.684,0.534-0.502,0.561c0.552-0.454,0.363-0.001,0.943-0.573
		c-0.021,0.167-0.121,0.482,0.112,0.394c-0.242,0.129-0.645,0.593-0.749,0.555L24.054,8.13c-0.233,0.175,0.033-0.122-0.24,0.128
		c0.053,0.021,0.354-0.045,0.291,0.062c0.391-0.203,1.075-0.648,1.233-0.59c-0.259,0.12-0.591,0.524-0.714,0.564L25.808,7.6
		c0.057,0.017-0.432,0.362-0.245,0.301c0.145-0.121,0.254-0.17,0.386-0.248c-0.053,0.065,0.258,0.05-0.277,0.506
		c-0.203,0.19-0.163,0.03-0.325,0.229c0.058,0.066,0.247-0.08,0.309-0.016l-0.072,0.061c-0.046,0.111,0.337-0.049,0.602-0.343
		c-0.006-0.047-0.319,0.276-0.198,0.101c0.345-0.223,0.495-0.209,0.553-0.143c-0.107,0.046-0.25,0.166-0.412,0.28
		c0.502-0.249,0.714-0.257,0.973-0.29c0.263-0.207-0.504,0.339-0.377,0.212C26.461,8.677,27.445,8.125,27,8.663
		c-0.06,0.018,0.364-0.307,0.291-0.246c0.017,0.094-0.364,0.391-0.191,0.321c-0.22,0.183,0.11,0,0.211-0.011
		c0.18-0.104-0.1,0.1-0.153,0.079c0.235-0.088,0.762-0.11,0.542,0.292c0.146-0.121,0.605-0.341,0.615-0.295l-0.355,0.26
		c-0.184,0.194,0.111,0.088-0.18,0.327c0.471-0.261-0.557,0.011-0.162-0.151c-0.27,0.253,0.646-0.3,0.162,0.051
		C27.839,9.346,28.275,9.104,28,9.423c0.041-0.062-0.517,0.323-0.455,0.357c0.131,0.046,0.186-0.104,0.356-0.118L28.078,9.6
		c0.338-0.262,0.018,0.119,0.367-0.212c-0.27,0.23,0.271,0.004-0.293,0.433l-0.448,0.332c0.062,0.016,0.511-0.297,0.729-0.419
		c-0.037,0.038-0.118,0.119-0.189,0.172c0.676-0.521,0.014,0.142,0.568-0.217c-0.173,0.269,0.135,0.235-0.257,0.607
		c0.25-0.095,0.535-0.225,0.444-0.036c-0.072,0.034-0.107,0.028-0.255,0.139c-0.165,0.204,0.021,0.075,0.161,0.034
		c-0.107,0.068-0.326,0.403-0.527,0.644c0.248-0.092,0.594-0.399,0.82-0.566c-0.621,0.582,0.56-0.151,0.012,0.397
		c-0.107,0.05-0.394,0.16-0.521,0.347c-0.619,0.58,0.575-0.265,0.326,0.085l0.533-0.458c-0.311,0.312,0.42-0.107-0.148,0.323
		c0.223-0.123-0.1,0.258,0.43-0.176c-0.342,0.518,0.548,0.174-0.344,1.027c0.105-0.047,0.055,0.082,0.322-0.146
		c0.272-0.273-0.253,0.115-0.059-0.06c0.032,0.008,0.183-0.104,0.258-0.16c-0.088,0.146-0.099,0.216-0.578,0.52
		c-0.254,0.372,0.993-0.604,0.883-0.298c-0.227,0.169-0.303,0.246-0.239,0.259l0.436-0.221c-0.024,0.16-0.468,0.448-0.844,0.747
		c0.101-0.004,0.123,0.071,0.42-0.128l-0.432,0.431c0.313-0.312,0.257-0.138,0.364-0.188l-0.107,0.051
		c-0.154,0.133-0.016,0.112,0.051,0.104c0.229-0.19,0.282-0.321,0.328-0.406c0.184-0.105,0.172-0.036,0.391-0.157
		c-0.379,0.279-0.207,0.286-0.218,0.354c-0.05,0.107,0.367-0.211,0.362-0.187c-0.191,0.152,0.021,0.097-0.273,0.272
		c-0.072,0.034,0.162-0.181-0.023-0.073c-0.123,0.143-0.459,0.399-0.174,0.27c0.217-0.098,0.723-0.585,0.549-0.314
		c-0.107,0.05-0.258,0.161-0.402,0.248l-0.135,0.23l0.34-0.26c-0.078,0.078-0.113,0.094-0.154,0.134
		c0.371-0.254,0.196,0.039,0.607-0.256c0.064,0.014-0.171,0.268-0.182,0.338l-0.035,0.015c-0.163,0.204,0.011,0.166,0.267,0.027
		l-0.075,0.055c-0.008,0.047,0.09,0.066,0.309-0.055c-0.206,0.264-1.254,1.019-0.779,0.759c0.06,0.058,0.69-0.38,0.887-0.575
		c-0.142,0.298,0.504,0.004,0.061,0.526c0.148-0.091,0.226-0.168,0.33-0.194c-0.006,0.28,0.664,0.059,0.102,0.718
		c-0.178,0.06-0.338,0.259-0.529,0.412c0.33-0.193-0.279,0.296,0.25-0.094c0.301-0.244,0.452-0.354,0.539-0.501
		c0.238-0.022,0.352,0.138,0.109,0.418c0.119-0.14,0.229-0.189,0.336-0.239c-0.488,0.372-0.508,0.51-0.296,0.434l0.302-0.225
		l-0.277,0.277c0.109-0.052,0.639-0.461,0.396-0.182c-0.113,0.094-0.227,0.188-0.303,0.265c0.284-0.129,0.754-0.366,0.553-0.106
		l-0.393,0.394c0.066-0.01,0.359-0.168,0.449-0.314c-0.18,0.315-0.16,0.413-0.507,0.74c1.048-0.522,1.284-0.273,1.38,0l-0.226,0.167
		c-0.163,0.223,0.409-0.274,0.286-0.111c-0.226,0.147-0.424,0.407-0.719,0.563c-0.17,0.27,0.463-0.191,0.605-0.216
		c0.295-0.219-0.22,0.103,0.156-0.178c0.111-0.072-0.141,0.298,0.309-0.035c-0.157,0.157-0.492,0.396-0.678,0.523l0.25-0.115
		c-0.467,0.468-1.021,0.577-1.604,1.142l0.104-0.006c-0.426,0.409-0.611,0.282-0.682,0.527c0.256-0.118,0.924-0.577,1.084-0.775
		c0.201,0.013,1.084-0.775,1.131-0.629c-0.233,0.235-0.129-0.046-0.474,0.262c-0.314,0.336,0.277-0.045,0.188,0.103
		c0.126-0.186,0.604-0.489,0.709-0.517c-0.162,0.223-0.443,0.288-0.426,0.408c0.264-0.186,0.509-0.257,0.635-0.464
		c0.597-0.423-0.094,0.213,0.384-0.093c-0.383,0.347-0.997,0.65-1.13,0.903c0.379-0.323,0.61-0.303,1.152-0.809
		c-0.086,0.125-0.389,0.371-0.646,0.532c-0.201,0.242,0.801-0.434,0.042,0.192l0.41-0.297c-0.114,0.12-0.205,0.218-0.394,0.416
		c0.025,0.052,0.646-0.279,0.043,0.191c0.071-0.032,0.12,0.093,0.507-0.276c0.206-0.267-0.358,0.166,0.177-0.314
		c-0.424,0.406,0.127,0.045,0.308-0.038l-0.228,0.189c0.107-0.049,0.094,0.042,0.354-0.144c-0.146,0.089-0.296,0.224-0.34,0.286
		l0.37-0.257c0.242-0.049-0.604,0.514-0.438,0.521l-0.323,0.148c0.07-0.032-0.237,0.26-0.098,0.215
		c0.336-0.232,0.742-0.517,1.004-0.698c0.176-0.062-0.347,0.311,0.02,0.096l-0.434,0.244c-0.114,0.074-0.503,0.466-0.445,0.526
		c0.141-0.045,0.656-0.35,0.783-0.555c0.029,0.028-0.133,0.23-0.387,0.39c0.166-0.013,0.338-0.283,0.586-0.378
		c-0.195,0.197-0.441,0.523-0.717,0.822l-0.588,0.357l0.029,0.05c-0.477,0.285-0.31,0.291-0.788,0.619
		c-0.049,0.088,0.134,0.002,0.273-0.061c0.662-0.67,1.07-0.69,1.716-1.246c0.271-0.02-1.561,1.362-0.426,0.665
		c0.157-0.158,0.707-0.5,0.46-0.426c-0.019,0.136,0.704-0.478,0.493-0.167c-0.321,0.15-0.62,0.608-1.088,0.826
		c0.227-0.17,0.129-0.188,0.055-0.152c-0.23,0.232-0.672,0.523-0.614,0.602c0.099-0.001,0.159,0.056,0.497-0.229
		c0.38-0.306-0.094-0.042,0.314-0.317c0.201-0.009-0.365,0.468,0.336-0.028c-0.095-0.021,0.285-0.347,0.548-0.554l0.21-0.055
		l-0.263,0.187c-0.101,0.258,0.481-0.332,0.494-0.169l-0.462,0.449c-0.449,0.316,0.074-0.312-0.611,0.266
		c0.023,0.095,0.396-0.165,0.264,0.047c-0.071,0.031-0.102,0.024-0.176,0.06c-0.006,0.045-0.914,0.808-0.296,0.478
		c0.248-0.116,0.259-0.185,0.521-0.391c0.162,0.05,0.453-0.129,0.549-0.089c-0.523,0.393,0.044,0.17-0.537,0.506
		c0.271-0.275,0.123-0.418-0.395-0.069c-0.574,0.524,0.021-0.157-0.61,0.306c0.054,0.104-0.548,0.575-0.927,0.901
		c-0.009,0.047,0.173-0.061,0.246-0.094c0.375-0.282,0.346-0.312,0.723-0.615c-0.025,0.182,0.252,0.117,0.648-0.111
		c-0.156,0.18-0.531,0.461-0.596,0.449c0.198,0.034,0.243,0.205,0.215,0.41c0.545-0.555,0.235,0.016,0.695-0.434
		c0.091-0.169,0.479-0.564,0.773-0.746c-0.012,0.071-0.265,0.21-0.381,0.329c0.363-0.214-0.469,0.496,0.082,0.132
		c-0.273,0.043-0.746,0.562-1.23,0.916c0.322-0.131-0.336,0.265-0.279,0.344c0.32-0.13,0.596-0.194,0.764-0.188
		c-0.365,0.469,0.195,0.289,0.285,0.375c-0.198,0.242-0.754,0.633-0.805,0.763c0.059,0.059,0.536-0.509,0.364-0.216l-0.112,0.077
		c0.145-0.069-0.229,0.468,0.553-0.112l-0.596,0.431c-0.039,0.06,0.104-0.029,0.177-0.062c-0.187,0.15-0.341,0.309-0.484,0.376
		c-0.353,0.379,0.155,0.078,0.219,0.132l0.309-0.315c0.348-0.101,0.066,0.245,0.266,0.259l-0.336,0.265l0.247-0.095
		c-0.334,0.242-0.499,0.47-0.203,0.287l-0.938,0.485c0.162-0.205,0.438-0.272,0.744-0.564c0.268-0.254,0.105-0.284-0.227-0.044
		c-0.008,0.068,0.066,0.012,0.207-0.053c-0.454,0.384-0.479,0.31-0.808,0.527c0.034,0.007-0.087,0.148,0.062,0.036
		c-0.254,0.141-0.317,0.129-0.378,0.071c0.213-0.1,0.27-0.256,0.413-0.344c-0.411,0.321-0.582,0.359-0.528,0.186
		c0.428-0.438-0.415,0.087-0.354-0.112c0.439-0.293,0.807-0.51,1.015-0.583c0.165-0.229-0.06-0.059,0.106-0.286
		c-0.33,0.218-0.816,0.575-1.061,0.647l0.303-0.249c-0.206,0.054-0.657,0.416-0.639,0.259c0.038-0.275-0.078-0.436-0.124-0.584
		l0.3-0.247c-0.699,0.455-0.398-0.025-0.753,0.117c0.186-0.386-0.526-0.095-0.06-0.59c-0.425-0.08-0.822-0.13-0.91-0.494
		l0.478-0.305c-0.361,0.209,0.231-0.235,0.132-0.232c-0.314,0.338-0.51,0.3-0.805,0.481c0.256-0.397-0.234-0.256-0.623-0.116
		l0.301-0.246c-0.652,0.345-0.244-0.186-0.25-0.396c0.115-0.117,0.385-0.368,0.32-0.382c-0.548,0.316-0.541,0.25-0.928,0.386
		c-0.058-0.078-0.028-0.305,0.104-0.537c-0.91,0.251-0.688-0.406-1.331-0.388l0.343-0.305c-0.986,0.304-0.558-0.618-1.139-0.564
		l0.635-0.459c0.131-0.229-0.295-0.059-0.717,0.306c0.129-0.228-0.445,0.033,0.023-0.415c0.054-0.173-0.357,0.121-0.489,0.118
		c0.116-0.35,0.02-0.369-0.206-0.437l-0.013,0.07c0.147-0.089,0.412-0.295,0.423-0.364c-0.213,0.076,0.014-0.345-0.68,0.291
		c0.307-0.501-0.623-0.118-0.164-0.732c-0.191,0.173-0.261,0.162-0.408,0.251c-0.112-0.14,0.188-0.615-0.236-0.466
		c0.084-0.101,0.367-0.229,0.346-0.305c-0.1,0.023-0.262,0.204-0.404,0.249c-0.543,0.056,0.045-0.784-0.205-0.926
		c-0.66-0.079-0.748-0.634-1.074-0.951l0.15-0.112c-0.65,0.32,0.373-0.743-0.546-0.174c0.12-0.139-0.013-0.163,0.287-0.364
		c-0.468,0.215,0.181-0.571-0.427-0.314c-0.004,0.023,0.031,0.008,0.106-0.027c0.223-0.399-0.312-0.176-0.125-0.557
		c0.074-0.036,0.142-0.044,0.292-0.155c0.24-0.281-0.721,0.351-0.033-0.241c-0.031-0.027-0.373,0.257-0.338,0.262
		c0.044-0.553-0.666-0.542-1.076-0.749c0.248-0.576,1.186-0.96,0.516-0.731c0.125-0.125-0.279,0.204-0.135,0.084
		c-0.252,0.085,0.707-0.742,0.298-0.498c-0.421,0.365-0.269,0.158-0.534,0.367c0.173-0.371,0.545-0.715,0.128-0.568l0.235-0.174
		c-0.748,0.379-0.518-0.057-1.348,0.423c-0.689-0.644-1.633-1.031-2.256-1.694c-0.389-0.841-1.24-1.275-1.429-2.304
		c0.46-0.659,0.435-0.658,0.048-0.643c0.103-0.073,0.133-0.079,0.213-0.166c-0.493,0.393-0.148-0.094-0.627,0.275
		c-0.118-0.34-0.444-0.474-0.664-0.742c0.087,0,0.5-0.31,0.426-0.334L18.399,5.97l0.128-0.121c-0.099,0.024-0.367,0.186-0.496,0.353
		c-0.959-0.333-0.523-1.818-1.175-2.389c0.076-0.33-0.29-0.399-0.524-0.487c0.235-1.059,0.381-1.967-0.48-2.102
		C15.852,1.224,17.141,0.227,17.599,0.196"/>
	<path fill="#00833E" d="M18.089,43.965c1.345,0.655,0.485-0.658,1.442-0.372c0.075,0.004-0.628-0.502-0.416-0.458
		c1.107,0.426,0.942-0.479,0.538-1.396l-0.191-0.121c-0.075-0.173,0.572,0.22,0.546,0.079c-0.115-0.098-0.184-0.112-0.33-0.259
		c0.366,0.268,0.265-0.001,0.549,0.183c-0.114-0.142-0.397-0.365-0.522-0.528l0.435,0.285c1.044,0.659,0.149-0.339,0.765-0.097
		c-0.1-0.066-0.184-0.11-0.266-0.197c0.775,0.216,0.913-0.191,1.346-0.305c-0.151-0.105-0.419-0.303-0.566-0.448
		c0.436,0.327,0.611,0.325,0.752,0.315c-0.41-0.385,0.498,0.188,0.327-0.094l-0.104-0.071c0.509,0.302-0.188-0.309,0.402,0.077
		l-0.312-0.319c0.639,0.467-0.244-0.351,0.109-0.155l0.125,0.104c0.191,0.069-0.098-0.206,0.043-0.171l-0.069-0.062
		c0.249,0.018-0.044-0.322,0.435,0.065c-0.354-0.348-0.259-0.031-0.771-0.541c0.777,0.025,0.975-0.432,1.266-0.8
		c-0.16-0.193-0.199-0.269-0.375-0.422c0.127,0.041,0.196-0.07,0.466,0.088c-0.019,0.007-0.229-0.219-0.239-0.258
		c-0.133-0.215,0.585,0.343,0.424,0.096c-0.15-0.071-0.314-0.186-0.486-0.336c0.423,0.232,0.424,0.098,0.602,0.117
		c-0.09-0.054-0.151-0.072-0.301-0.194c0.487,0.252,0.019-0.226,0.342-0.086l-0.3-0.193c-0.255-0.386,0.61,0.426,0.481,0.165
		c-0.105-0.045-0.209-0.14-0.326-0.226c0.577,0.305,0.521,0.017,0.759,0.056C24.625,37.46,24.55,37.4,24.55,37.4
		c0.137-0.056,0.055-0.289,0.359-0.229c-0.096-0.139-0.693-0.521-0.512-0.552c0.56,0.443,0.363-0.006,0.954,0.556
		c-0.026-0.166-0.13-0.479,0.104-0.396c-0.244-0.124-0.655-0.581-0.759-0.54l-0.299-0.324c-0.237-0.171,0.034,0.121-0.243-0.124
		c0.053-0.021,0.355,0.039,0.289-0.068c0.396,0.197,1.088,0.629,1.245,0.568c-0.261-0.115-0.601-0.514-0.725-0.552l1.197,0.674
		c0.056-0.018-0.438-0.354-0.251-0.296c0.146,0.118,0.256,0.164,0.39,0.241c-0.054-0.064,0.257-0.055-0.286-0.502
		c-0.207-0.186-0.164-0.026-0.33-0.223c0.058-0.068,0.25,0.075,0.309,0.01l-0.072-0.06c-0.049-0.109,0.338,0.043,0.607,0.332
		c-0.005,0.047-0.324-0.271-0.199-0.097c0.348,0.216,0.498,0.199,0.555,0.133c-0.109-0.045-0.252-0.162-0.417-0.272
		c0.507,0.239,0.718,0.242,0.978,0.271c0.266,0.202-0.511-0.33-0.381-0.205c-0.269-0.422,0.725,0.111,0.271-0.418
		c-0.061-0.017,0.369,0.3,0.296,0.24c0.014-0.094-0.373-0.384-0.197-0.317c-0.225-0.179,0.109-0.002,0.209,0.008
		c0.182,0.099-0.1-0.099-0.154-0.077c0.238,0.083,0.764,0.097,0.537-0.303c0.148,0.119,0.611,0.33,0.619,0.284l-0.359-0.253
		c-0.188-0.19,0.111-0.09-0.186-0.323c0.476,0.252-0.557-0.001-0.16,0.154c-0.273-0.248,0.653,0.288,0.162-0.054
		c0.061-0.057,0.5,0.177,0.219-0.137c0.043,0.061-0.523-0.314-0.461-0.35c0.129-0.048,0.187,0.101,0.357,0.111l0.179,0.06
		c0.342,0.256,0.015-0.12,0.37,0.205c-0.273-0.226,0.271-0.009-0.301-0.427l-0.453-0.324c0.061-0.018,0.516,0.287,0.736,0.405
		c-0.038-0.037-0.121-0.117-0.193-0.168c0.686,0.508,0.012-0.143,0.572,0.206c-0.178-0.266,0.131-0.237-0.268-0.603
		c0.252,0.09,0.539,0.216,0.445,0.027c-0.073-0.032-0.107-0.025-0.258-0.134c-0.168-0.2,0.02-0.075,0.16-0.037
		c-0.107-0.065-0.332-0.396-0.539-0.633c0.25,0.087,0.602,0.388,0.83,0.552c-0.631-0.571,0.563,0.14,0.006-0.398
		c-0.109-0.048-0.396-0.152-0.528-0.337c-0.628-0.569,0.581,0.254,0.325-0.091l0.542,0.447c-0.317-0.305,0.422,0.101-0.154-0.32
		c0.224,0.119-0.105-0.255,0.433,0.169c-0.352-0.512,0.544-0.185-0.363-1.021c0.106,0.045,0.053-0.083,0.326,0.141
		c0.277,0.269-0.256-0.11-0.059,0.062c0.032-0.009,0.185,0.099,0.261,0.154c-0.091-0.145-0.103-0.213-0.587-0.509
		c-0.262-0.367,1.004,0.585,0.889,0.281c-0.23-0.164-0.309-0.24-0.245-0.254l0.439,0.212c-0.026-0.158-0.476-0.438-0.856-0.73
		c0.1,0.002,0.121-0.073,0.422,0.12l-0.439-0.423c0.318,0.307,0.259,0.134,0.367,0.182l-0.108-0.048
		c-0.157-0.13-0.019-0.112,0.049-0.106c0.231,0.187,0.288,0.316,0.336,0.4c0.185,0.103,0.173,0.033,0.393,0.149
		c-0.383-0.271-0.212-0.281-0.224-0.35c-0.051-0.107,0.371,0.204,0.365,0.18c-0.193-0.148,0.02-0.098-0.277-0.268
		c-0.073-0.032,0.165,0.178-0.023,0.074c-0.125-0.141-0.465-0.392-0.178-0.267c0.218,0.094,0.733,0.572,0.555,0.305
		c-0.108-0.048-0.261-0.156-0.408-0.241l-0.137-0.228l0.343,0.254c-0.078-0.077-0.114-0.092-0.156-0.131
		c0.376,0.247,0.196-0.043,0.612,0.244c0.063-0.015-0.176-0.265-0.188-0.335l-0.035-0.014c-0.167-0.201,0.008-0.166,0.267-0.032
		l-0.076-0.053c-0.01-0.047,0.088-0.068,0.309,0.049c-0.211-0.26-1.271-0.996-0.792-0.745c0.058-0.059,0.697,0.367,0.897,0.56
		c-0.148-0.296,0.504-0.014,0.051-0.528c0.149,0.089,0.229,0.165,0.333,0.189c-0.012-0.281,0.663-0.071,0.089-0.721
		c-0.179-0.056-0.344-0.252-0.537-0.401c0.334,0.188-0.285-0.291,0.252,0.089c0.305,0.238,0.458,0.347,0.549,0.491
		c0.236,0.018,0.349-0.144,0.1-0.42c0.123,0.138,0.232,0.185,0.342,0.233c-0.496-0.363-0.518-0.501-0.305-0.429l0.306,0.22
		l-0.282-0.272c0.111,0.05,0.646,0.448,0.399,0.174c-0.114-0.091-0.229-0.183-0.308-0.259c0.287,0.124,0.762,0.353,0.555,0.097
		l-0.399-0.387c0.067,0.008,0.363,0.161,0.456,0.307c-0.186-0.312-0.168-0.411-0.521-0.731c1.057,0.504,1.289,0.25,1.381-0.024
		l-0.229-0.164c-0.168-0.219,0.412,0.268,0.287,0.107c-0.229-0.145-0.432-0.399-0.729-0.551c-0.174-0.266,0.466,0.183,0.609,0.205
		c0.299,0.213-0.222-0.099,0.16,0.175c0.112,0.069-0.146-0.296,0.308,0.029c-0.159-0.155-0.499-0.386-0.687-0.511l0.252,0.11
		c-0.475-0.46-1.031-0.559-1.624-1.112l0.104,0.004c-0.434-0.401-0.616-0.271-0.69-0.515c0.257,0.113,0.934,0.561,1.098,0.756
		c0.201-0.017,1.098,0.755,1.143,0.607c-0.238-0.23-0.129,0.048-0.479-0.253c-0.32-0.33,0.278,0.04,0.187-0.105
		c0.13,0.183,0.613,0.479,0.719,0.503c-0.166-0.219-0.449-0.279-0.434-0.4c0.268,0.182,0.514,0.247,0.644,0.453
		c0.604,0.411-0.099-0.212,0.386,0.085c-0.39-0.34-1.01-0.632-1.146-0.883c0.385,0.316,0.615,0.292,1.167,0.787
		c-0.089-0.122-0.396-0.363-0.657-0.52c-0.205-0.238,0.81,0.419,0.039-0.192l0.416,0.289c-0.116-0.118-0.209-0.215-0.401-0.409
		c0.025-0.052,0.651,0.268,0.039-0.192c0.073,0.03,0.119-0.095,0.513,0.267c0.211,0.264-0.361-0.159,0.182,0.312
		c-0.432-0.397,0.127-0.047,0.309,0.032l-0.23-0.185c0.107,0.047,0.092-0.044,0.357,0.137c-0.148-0.087-0.301-0.218-0.346-0.279
		l0.375,0.25c0.242,0.044-0.613-0.503-0.448-0.514l-0.325-0.143c0.07,0.03-0.242-0.256-0.102-0.213
		c0.34,0.227,0.752,0.503,1.016,0.68c0.178,0.059-0.352-0.305,0.018-0.096l-0.438-0.236c-0.115-0.072-0.512-0.456-0.455-0.519
		c0.143,0.043,0.662,0.337,0.793,0.541c0.029-0.029-0.137-0.229-0.394-0.383c0.167,0.009,0.344,0.276,0.594,0.367
		c-0.2-0.193-0.451-0.516-0.732-0.81l-0.595-0.347l0.028-0.051c-0.48-0.275-0.313-0.285-0.799-0.604
		c-0.05-0.088,0.134-0.005,0.274,0.055c0.674,0.658,1.083,0.671,1.738,1.215c0.271,0.015-1.585-1.334-0.438-0.657
		c0.161,0.155,0.716,0.487,0.468,0.418c-0.02-0.136,0.713,0.465,0.497,0.158c-0.325-0.146-0.632-0.598-1.103-0.808
		c0.229,0.167,0.132,0.187,0.057,0.151c-0.234-0.228-0.682-0.511-0.625-0.59c0.098-0.001,0.158-0.059,0.5,0.221
		c0.387,0.299-0.092,0.044,0.321,0.312c0.202,0.005-0.374-0.461,0.337,0.022c-0.095,0.021,0.292,0.342,0.558,0.543l0.21,0.052
		l-0.266-0.183c-0.105-0.255,0.487,0.324,0.498,0.16l-0.471-0.44c-0.455-0.309,0.08,0.311-0.615-0.255
		c0.021-0.095,0.398,0.158,0.262-0.051c-0.071-0.031-0.102-0.023-0.176-0.057c-0.007-0.045-0.929-0.791-0.305-0.473
		c0.25,0.112,0.262,0.181,0.526,0.382c0.161-0.053,0.456,0.121,0.551,0.079c-0.53-0.383,0.041-0.171-0.546-0.496
		c0.276,0.271,0.131,0.415-0.393,0.076c-0.584-0.514,0.023,0.156-0.616-0.295c0.051-0.104-0.558-0.564-0.944-0.884
		c-0.009-0.047,0.175,0.057,0.248,0.089c0.381,0.275,0.352,0.306,0.734,0.603c-0.027-0.182,0.25-0.122,0.65,0.1
		c-0.159-0.177-0.539-0.452-0.604-0.439c0.197-0.037,0.239-0.209,0.207-0.413c0.556,0.545,0.235-0.021,0.703,0.42
		c0.094,0.168,0.49,0.557,0.787,0.732c-0.013-0.071-0.269-0.205-0.388-0.322c0.368,0.208-0.478-0.487,0.081-0.133
		c-0.275-0.038-0.757-0.55-1.248-0.894c0.326,0.125-0.341-0.258-0.285-0.339c0.322,0.125,0.6,0.184,0.767,0.174
		c-0.374-0.462,0.19-0.292,0.279-0.381c-0.203-0.238-0.767-0.618-0.819-0.747c0.059-0.06,0.545,0.499,0.368,0.209l-0.113-0.075
		c0.146,0.066-0.237-0.464,0.555,0.103l-0.604-0.421c-0.039-0.059,0.105,0.028,0.179,0.06c-0.188-0.146-0.347-0.302-0.491-0.367
		c-0.359-0.372,0.154-0.08,0.217-0.136l0.314,0.31c0.349,0.095,0.062-0.246,0.26-0.264l-0.34-0.257l0.248,0.089
		c-0.338-0.235-0.508-0.46-0.209-0.282l-0.945-0.47c0.166,0.203,0.443,0.266,0.755,0.552c0.272,0.248,0.11,0.282-0.226,0.049
		c-0.01-0.069,0.064-0.014,0.207,0.048c-0.461-0.375-0.483-0.3-0.816-0.513c0.033-0.007-0.09-0.146,0.062-0.037
		c-0.257-0.136-0.32-0.122-0.38-0.063c0.215,0.096,0.274,0.251,0.42,0.335c-0.418-0.313-0.588-0.348-0.531-0.176
		c0.436,0.43-0.416-0.079-0.352,0.119c0.445,0.285,0.816,0.495,1.025,0.564c0.168,0.226-0.059,0.06,0.111,0.284
		c-0.334-0.212-0.826-0.561-1.072-0.629l0.307,0.244c-0.207-0.05-0.664-0.403-0.643-0.247c0.043,0.274-0.07,0.438-0.113,0.587
		l0.305,0.241c-0.707-0.442-0.399,0.033-0.756-0.104c0.193,0.383-0.524,0.104-0.049,0.591c-0.424,0.088-0.82,0.145-0.901,0.511
		l0.483,0.296c-0.365-0.203,0.236,0.231,0.137,0.23c-0.321-0.333-0.516-0.291-0.814-0.467c0.264,0.392-0.229,0.259-0.621,0.127
		l0.307,0.241c-0.658-0.333-0.242,0.189-0.243,0.4c0.118,0.115,0.391,0.361,0.327,0.376c-0.554-0.307-0.545-0.24-0.936-0.369
		c-0.055,0.079-0.021,0.305,0.115,0.535c-0.915-0.233-0.681,0.42-1.324,0.412l0.348,0.298c-0.992-0.285-0.546,0.629-1.127,0.586
		l0.642,0.446c0.136,0.229-0.294,0.064-0.722-0.292c0.133,0.226-0.446-0.025,0.031,0.415c0.057,0.171-0.361-0.115-0.492-0.109
		c0.123,0.348,0.027,0.369-0.197,0.44l-0.015-0.07c0.149,0.086,0.418,0.287,0.431,0.356c-0.215-0.072,0.02,0.345-0.687-0.279
		c0.315,0.496-0.62,0.131-0.151,0.736c-0.193-0.169-0.262-0.158-0.411-0.243c-0.11,0.141,0.2,0.61-0.228,0.47
		c0.086,0.1,0.371,0.223,0.352,0.298c-0.102-0.021-0.266-0.198-0.41-0.241c-0.544-0.046,0.06,0.783-0.188,0.929
		c-0.658,0.092-0.736,0.647-1.057,0.971l0.152,0.109c-0.656-0.309,0.387,0.737-0.543,0.185c0.123,0.136-0.01,0.163,0.294,0.359
		c-0.472-0.207,0.191,0.567-0.421,0.321c-0.004-0.023,0.031-0.009,0.107,0.025c0.229,0.396-0.31,0.182-0.115,0.56
		c0.074,0.034,0.142,0.041,0.294,0.149c0.247,0.277-0.728-0.337-0.028,0.241c-0.03,0.028-0.377-0.25-0.343-0.255
		c0.054,0.552-0.655,0.555-1.062,0.769c0.258,0.571,1.202,0.938,0.528,0.722c0.128,0.123-0.284-0.199-0.137-0.081
		c-0.253-0.08,0.72,0.729,0.308,0.492c-0.428-0.357-0.271-0.153-0.541-0.357c0.18,0.368,0.558,0.704,0.139,0.566l0.238,0.17
		c-0.755-0.366-0.518,0.065-1.355-0.399c-0.678,0.656-1.613,1.062-2.224,1.735c-0.374,0.848-1.218,1.298-1.388,2.33
		c0.473,0.65,0.447,0.649,0.061,0.641c0.104,0.071,0.134,0.077,0.215,0.162c-0.499-0.383-0.146,0.097-0.631-0.264
		c-0.112,0.343-0.436,0.481-0.651,0.755c0.087-0.003,0.505,0.3,0.432,0.325l-0.354-0.198l0.13,0.118
		c-0.1-0.022-0.371-0.178-0.502-0.343c-0.953,0.351-0.49,1.828-1.131,2.41c0.082,0.328-0.282,0.404-0.516,0.496
		c0.255,1.055,0.417,1.96-0.442,2.11C16.323,42.97,17.631,43.942,18.089,43.965"/>
</g>
</svg>
