<?xml version="1.0" encoding="utf-8"?>
<!-- Generator: Adobe Illustrator 16.0.0, SVG Export Plug-In . SVG Version: 6.00 Build 0)  -->
<!DOCTYPE svg PUBLIC "-//W3C//DTD SVG 1.1//EN" "http://www.w3.org/Graphics/SVG/1.1/DTD/svg11.dtd">
<svg version="1.1" id="Layer_1" xmlns="http://www.w3.org/2000/svg" xmlns:xlink="http://www.w3.org/1999/xlink" x="0px" y="0px"
	 width="245.797px" height="218.8px" viewBox="0 0 245.797 218.8" enable-background="new 0 0 245.797 218.8" xml:space="preserve">
<g>
	<path d="M179.64,14.287c0,0.93-0.754,1.684-1.685,1.684c-0.93,0-1.684-0.754-1.684-1.684c0-0.93,0.754-1.684,1.684-1.684
		C178.886,12.603,179.64,13.356,179.64,14.287"/>
	<path d="M215.367,29.163c0,0.93-0.755,1.684-1.684,1.684c-0.931,0-1.685-0.754-1.685-1.684c0-0.93,0.754-1.684,1.685-1.684
		C214.612,27.479,215.367,28.232,215.367,29.163"/>
	<path d="M237.351,58.808c0,0.93-0.755,1.684-1.685,1.684s-1.684-0.754-1.684-1.684c0-0.93,0.754-1.684,1.684-1.684
		S237.351,57.877,237.351,58.808"/>
	<path d="M242.847,89.588c0,0.93-0.754,1.684-1.685,1.684c-0.93,0-1.684-0.754-1.684-1.684c0-0.93,0.754-1.684,1.684-1.684
		C242.093,87.904,242.847,88.659,242.847,89.588"/>
	<path d="M238.415,119.268c0,0.933-0.754,1.687-1.684,1.687s-1.684-0.754-1.684-1.687c0-0.928,0.754-1.682,1.684-1.682
		S238.415,118.34,238.415,119.268"/>
	<path d="M220.862,156.682c0,0.928-0.755,1.682-1.685,1.682s-1.684-0.754-1.684-1.682c0-0.932,0.754-1.686,1.684-1.686
		S220.862,155.75,220.862,156.682"/>
	<path d="M191.729,185.778c0,0.931-0.754,1.687-1.684,1.687c-0.931,0-1.685-0.756-1.685-1.687c0-0.928,0.754-1.682,1.685-1.682
		C190.975,184.097,191.729,184.851,191.729,185.778"/>
	<path d="M155.454,204.502c0,0.928-0.754,1.683-1.685,1.683c-0.93,0-1.684-0.755-1.684-1.683c0-0.931,0.754-1.686,1.684-1.686
		C154.7,202.816,155.454,203.571,155.454,204.502"/>
	<path d="M140.062,194.607c0,0.932-0.754,1.686-1.684,1.686c-0.931,0-1.685-0.754-1.685-1.686c0-0.928,0.754-1.682,1.685-1.682
		C139.308,192.926,140.062,193.68,140.062,194.607"/>
	<path d="M147.757,174.271c0,0.929-0.754,1.683-1.684,1.683c-0.931,0-1.685-0.754-1.685-1.683c0-0.932,0.754-1.686,1.685-1.686
		C147.003,172.586,147.757,173.34,147.757,174.271"/>
	<path d="M180.187,158.881c0,0.928-0.754,1.682-1.684,1.682s-1.685-0.754-1.685-1.682c0-0.932,0.755-1.686,1.685-1.686
		S180.187,157.949,180.187,158.881"/>
	<path d="M199.424,139.092c0,0.93-0.754,1.684-1.684,1.684s-1.684-0.754-1.684-1.684s0.754-1.684,1.684-1.684
		S199.424,138.162,199.424,139.092"/>
	<path d="M212.617,107.213c0,0.928-0.755,1.682-1.684,1.682c-0.931,0-1.685-0.754-1.685-1.682c0-0.931,0.754-1.686,1.685-1.686
		C211.862,105.527,212.617,106.282,212.617,107.213"/>
	<path d="M211.517,73.684c0,0.93-0.754,1.684-1.684,1.684c-0.931,0-1.685-0.754-1.685-1.684S208.903,72,209.833,72
		C210.763,72,211.517,72.753,211.517,73.684"/>
	<path d="M193.379,50.563c0,0.93-0.754,1.684-1.684,1.684c-0.931,0-1.685-0.754-1.685-1.684c0-0.93,0.754-1.684,1.685-1.684
		C192.625,48.879,193.379,49.633,193.379,50.563"/>
	<path d="M168.679,47.815c0,0.93-0.754,1.684-1.685,1.684c-0.93,0-1.684-0.754-1.684-1.684c0-0.93,0.754-1.684,1.684-1.684
		C167.925,46.131,168.679,46.885,168.679,47.815"/>
	<path d="M149.407,60.456c0,0.93-0.755,1.684-1.685,1.684s-1.684-0.754-1.684-1.684s0.754-1.684,1.684-1.684
		S149.407,59.526,149.407,60.456"/>
	<path d="M143.91,74.199c0,0.928-0.754,1.682-1.684,1.682c-0.931,0-1.685-0.754-1.685-1.682c0-0.931,0.754-1.686,1.685-1.686
		C143.156,72.513,143.91,73.268,143.91,74.199"/>
	<path d="M143.91,112.125c0,0.928-0.754,1.682-1.684,1.682c-0.931,0-1.685-0.754-1.685-1.682c0-0.932,0.754-1.686,1.685-1.686
		C143.156,110.439,143.91,111.193,143.91,112.125"/>
	<path d="M129.62,127c0,0.928-0.754,1.684-1.684,1.684c-0.931,0-1.685-0.756-1.685-1.684c0-0.931,0.754-1.685,1.685-1.685
		C128.866,125.315,129.62,126.069,129.62,127"/>
	<path d="M113.165,114.322c0,0.93-0.754,1.684-1.685,1.684c-0.93,0-1.684-0.754-1.684-1.684s0.754-1.684,1.684-1.684
		C112.411,112.639,113.165,113.393,113.165,114.322"/>
	<path d="M113.679,78.629c0,0.931-0.754,1.686-1.684,1.686s-1.685-0.755-1.685-1.686c0-0.928,0.755-1.682,1.685-1.682
		S113.679,77.701,113.679,78.629"/>
	<path d="M102.687,54.995c0,0.93-0.754,1.684-1.685,1.684c-0.93,0-1.684-0.754-1.684-1.684s0.754-1.684,1.684-1.684
		C101.933,53.311,102.687,54.065,102.687,54.995"/>
	<path d="M78.538,47.265c0,0.93-0.755,1.684-1.685,1.684s-1.684-0.754-1.684-1.684c0-0.93,0.754-1.684,1.684-1.684
		S78.538,46.335,78.538,47.265"/>
	<path d="M55.45,58.258c0,0.928-0.754,1.682-1.684,1.682s-1.684-0.754-1.684-1.682c0-0.931,0.754-1.686,1.684-1.686
		S55.45,57.328,55.45,58.258"/>
	<path d="M48.27,80.244c0,0.93-0.755,1.684-1.685,1.684s-1.684-0.754-1.684-1.684c0-0.93,0.754-1.684,1.684-1.684
		S48.27,79.314,48.27,80.244"/>
	<path d="M48.27,110.439c0,0.931-0.755,1.686-1.685,1.686s-1.684-0.755-1.684-1.686c0-0.928,0.754-1.682,1.684-1.682
		S48.27,109.512,48.27,110.439"/>
	<path d="M36.728,127.515c0,0.93-0.754,1.685-1.685,1.685c-0.93,0-1.684-0.755-1.684-1.685c0-0.931,0.754-1.685,1.684-1.685
		C35.974,125.83,36.728,126.584,36.728,127.515"/>
	<path d="M16.94,115.971c0,0.932-0.754,1.686-1.685,1.686c-0.93,0-1.684-0.754-1.684-1.686c0-0.928,0.754-1.682,1.684-1.682
		C16.186,114.289,16.94,115.043,16.94,115.971"/>
	<path d="M18.588,71.451c0,0.928-0.754,1.682-1.684,1.682c-0.931,0-1.685-0.754-1.685-1.682c0-0.931,0.754-1.686,1.685-1.686
		C17.834,69.765,18.588,70.52,18.588,71.451"/>
	<path d="M26.834,45.616c0,0.93-0.754,1.684-1.684,1.684s-1.685-0.754-1.685-1.684s0.755-1.684,1.685-1.684
		S26.834,44.686,26.834,45.616"/>
	<path d="M52.118,22.565c0,0.93-0.754,1.684-1.685,1.684c-0.93,0-1.684-0.754-1.684-1.684s0.754-1.684,1.684-1.684
		C51.364,20.881,52.118,21.635,52.118,22.565"/>
	<path d="M77.402,15.419c0,0.93-0.755,1.684-1.684,1.684c-0.93,0-1.685-0.754-1.685-1.684c0-0.93,0.755-1.684,1.685-1.684
		C76.647,13.735,77.402,14.49,77.402,15.419"/>
	<path d="M108.183,21.431c0,0.93-0.754,1.684-1.685,1.684c-0.93,0-1.684-0.754-1.684-1.684c0-0.93,0.754-1.684,1.684-1.684
		C107.429,19.748,108.183,20.501,108.183,21.431"/>
	<path d="M128.005,39.021c0,0.93-0.755,1.684-1.685,1.684s-1.684-0.754-1.684-1.684c0-0.93,0.754-1.684,1.684-1.684
		S128.005,38.09,128.005,39.021"/>
	<path d="M148.342,20.332c0,0.93-0.754,1.684-1.685,1.684c-0.93,0-1.684-0.754-1.684-1.684c0-0.93,0.754-1.684,1.684-1.684
		C147.588,18.648,148.342,19.402,148.342,20.332"/>
	<path d="M176.376,0.784c0.142-0.368,0.331-0.599,0.56-0.737c1.154-0.267,1.333,0.647,1.297,1.383
		c-0.104,2.146,0.558,7.114,0.328,7.266c-1.091,0.506-1.396-0.064-1.484-0.383c-0.141-0.558-0.42-3.504-0.42-4.8
		c0-0.786,0.014-0.786-0.178-0.926c-0.367-0.192-0.471-0.28-0.42-0.648C176.135,1.278,176.328,0.973,176.376,0.784"/>
	<path d="M222.519,20.876c0.506-0.508,0.811-0.688,1.522-0.889c0.152-0.051,0.457-0.051,0.713-0.051
		c1.32-0.052,2.031,0.609,2.031,1.778c0,0.609-0.306,1.308-0.966,2.323c-1.486,1.817-1.817,2.909-1.764,2.959
		c0,0,1.052-0.354,2.284-0.254c0.521,0.039,0.863,0.394,0.762,0.7c-0.102,0.202-0.254,0.253-0.863,0.304
		c-1.51,0.114-2.133,0.507-2.335,0.61c-0.712,0.304-1.311,0.203-1.563-0.153c-0.102-0.203-0.102-0.635,0.101-1.36
		c0.547-1.917,2.313-4.012,2.566-4.469c0.571-0.648,0.036-1.193-0.165-1.144c-0.56,0-0.801-0.049-1.36,0.611
		c-0.774,0.862-1.321,0.152-1.42-0.103C222.009,21.637,222.264,21.181,222.519,20.876"/>
	<path d="M227.328,56.911c0.292-0.292,1.145-0.737,1.882-0.938c0.24-0.052,0.48-0.027,0.874-0.052
		c1.614-0.101,1.626,0.978,1.575,1.473c0,0.445-0.139,0.801-0.533,1.486c-0.101,0.241-0.254,0.445-0.202,0.445
		c0,0,0.14,0.088,0.343,0.139c1.079,0.546,1.13,1.727,0.101,3.353c-0.495,0.787-1.473,1.637-2.21,1.88
		c-0.636,0.241-1.383-0.103-1.436-0.648c0-0.152,0.053-0.191,0.294-0.292c1.13-0.636,1.879-1.435,2.323-2.463
		c0.344-0.889,0.344-0.889-0.444-0.687c-0.737,0.152-1.041,0.152-1.334,0c-0.203-0.101-0.444-0.342-0.444-0.546
		c0-0.101,0.204-0.292,0.646-0.736c0.84-0.788,1.22-1.486,1.373-2.223c0.051-0.152,0.051-0.152-0.102-0.152
		c-0.203,0-0.824,0.253-1.32,0.496c-1.018,0.609-1.333,0.101-1.486-0.103C227.126,57.191,227.126,57.154,227.328,56.911"/>
	<path d="M232.396,79.797c0-0.05,0.104-0.101,0.152-0.101c0.294-0.152,0.939,0.051,1.13,0.342c0.154,0.292-0.011,2.072-0.252,3.099
		c-0.191,0.736-0.191,0.687,0.202,0.687c0.634-0.052,0.535,0.037,0.585-0.941c0-0.837,0.049-2.247,0.102-2.539
		c0.05-0.292,1.003-0.382,1.167,0.037c0.406,1.017,0.153,2.363,0.153,2.706c0.051,0.584,0.037,0.584,0.191,0.685
		c0.101,0,0.24,0.089,0.342,0.192c0.151,0.1,0.151,0.152,0.203,0.341c0,0.243-0.152,0.395-0.444,0.445
		c-0.191,0.051-0.191,0.051-0.191,0.343c0.054,0.445,0.142,1.626,0.242,2.159c0.177,1.117-0.444,1.321-0.788,1.22
		c-0.343-0.103-0.533-0.243-0.634-0.535c-0.051-0.241-0.294-2.792-0.294-2.844c-0.049-0.191-0.049-0.203-0.786-0.152
		c-0.928,0.051-1.181,0.012-1.424-0.14c-0.494-0.292-0.531-0.636-0.189-1.817C232.258,81.69,232.295,79.988,232.396,79.797"/>
	<path d="M241.758,113.477c0.051-0.244,0.405-0.356,1.98-0.699c0.547-0.102,1.08-0.19,1.131-0.19
		c0.687-0.052,1.232,0.597,0.736,0.89c-0.101,0.049-1.232,0.291-2.019,0.393c-0.496,0.051-0.496,0.051-0.496,1.08
		c-0.049,1.029-0.049,1.041,0.153,1.041c0.102-0.051,0.445-0.051,0.735-0.051c0.94,0,1.385,0.19,1.626,0.685
		c0.825,2.286-1.675,4.776-2.122,4.877c-0.393,0.051-0.837-0.101-1.078-0.343c-0.331-0.471-0.051-0.787,0.292-0.838
		c0.202-0.051,0.292-0.09,0.496-0.293c0.596-0.686,1.078-1.918,1.078-2.807c0-0.342,0-0.354-0.341-0.304
		c-0.7,0.038-1.385,0.255-1.626,0.203s-0.584-0.253-0.688-0.496c-0.201-0.341-0.138-2.259,0.104-2.806
		C241.77,113.665,241.758,113.525,241.758,113.477"/>
	<path d="M210.864,155.912c0.521-0.674,0.836-1.295,0.836-1.715c0-0.103-0.05-0.203-0.05-0.203c-0.05-0.053-0.697-0.014-1.27,0.24
		c-0.813,0.331-0.242,2.133-0.242,2.186C210.189,156.521,210.557,156.279,210.864,155.912 M209.516,150.361
		c0.305-0.877,0.636-1.396,0.889-1.498c0.203-0.051,0.572-0.051,0.774,0.051c0.421,0.203,0.421,0.406,0.053,1.396
		c-0.368,0.825-0.879,2.59-0.827,2.643c0,0,0.152,0,0.307-0.053c0.468-0.152,1.18-0.125,1.612,0
		c1.333,0.408,0.876,2.186,0.774,2.438c-0.368,0.992-1.296,1.957-2.072,2.326c-2.322,0.621-2.627-1.182-2.588-2.273
		C208.512,152.812,209.364,150.615,209.516,150.361"/>
	<path d="M185.592,173.392c0.396-0.101,0.752-0.204,0.801-0.204c1.346-0.178,1.537,0.712,1.487,1.105
		c-0.052,0.344-0.344,2.389-0.687,5.183c-0.344,2.247-0.393,2.387-0.698,2.54c-1.282,0.177-1.346-0.598-1.296-0.902
		c0-0.304,0.545-3.734,0.698-4.636c0.102-0.901,0.242-1.74,0.242-1.841c0.052-0.152,0.052-0.152-0.648,0
		c-0.852,0.152-1.346,0.152-1.687,0c-0.257-0.152-0.345-0.305-0.358-0.444C183.41,173.646,185.25,173.494,185.592,173.392"/>
	<path d="M155.138,216.578c0.278-0.608,0.163-1.217-0.331-1.776c-0.165-0.165-0.279-0.267-0.279-0.267
		c-0.165,0-0.559,0.762-0.725,1.321c-0.165,0.444-0.165,1.271,0,1.599c0.115,0.217,0.115,0.229,0.394,0.115
		C154.528,217.455,154.971,216.961,155.138,216.578 M155.023,211.982c0.052-0.279-0.052-0.33-0.548-0.381
		c-0.215,0-0.506-0.064-0.557-0.064c-0.052,0-0.102,0.064-0.216,0.28c-0.165,0.444-0.28,0.774-0.229,1.104
		c0,0.217,0,0.229,0.165,0.229C154.019,213.1,154.909,212.363,155.023,211.982 M152.255,211.437
		c0.329-0.608,0.774-1.004,1.383-1.284c0.774-0.328,1.663,0,1.333,0.445c-0.049,0.115-0.049,0.166,0,0.166
		c0.941,0.014,1.272,0.661,1.321,0.773c0.33,0.561,0.177,1.17-0.545,1.83c-0.216,0.164-0.331,0.33-0.331,0.33
		c0.051,0.051,0.28,0.228,0.496,0.443c1.333,1.333,1.269,2.986-0.116,4.09c-0.559,0.381-0.874,0.559-1.6,0.559
		c-1.308,0.115-1.663-0.66-1.88-1.105c-0.443-0.938-0.229-2.551,0.496-3.327c0.052-0.112,0.164-0.216,0.164-0.266
		c0,0-0.623-0.103-0.938-0.775C151.824,212.871,151.874,212.211,152.255,211.437"/>
	<path d="M129.802,186.646c0.153-0.317,0.269-0.686,0.269-0.787c0.05-0.103-0.115-0.114-0.432,0.102
		c-0.42,0.318-1.537,1.041-1.424,2.006C128.215,187.967,129.08,188.006,129.802,186.646 M127.111,186.494
		c0.47-0.686,1.219-1.27,1.956-1.588c1.156-0.367,2.324,0.115,2.324,0.953c0,0.102,0.051,0.317,0.102,0.369
		c0.102,0.152,0.102,0.215-0.051,1.32c-0.216,1.791-0.268,2.311-0.268,4c0,0.902,0,1.639-0.051,1.739
		c-0.711,0.56-1.333,0.167-1.484-0.101c-0.217-0.268-0.053-4.332-0.053-4.332s-0.1,0.015-0.202,0.064
		c-2.058,0.965-2.692-0.368-2.742-0.736C126.54,187.65,126.642,187.182,127.111,186.494"/>
	<path d="M151.417,174.352c0.138-0.368,0.329-0.6,0.558-0.736c1.156-0.268,1.333,0.646,1.294,1.383
		c-0.101,2.146,0.561,7.113,0.331,7.266c-1.092,0.506-1.396-0.064-1.484-0.383c-0.141-0.559-0.418-3.504-0.418-4.801
		c0-0.785,0.011-0.785-0.18-0.926c-0.368-0.191-0.469-0.279-0.42-0.647C151.174,174.846,151.367,174.541,151.417,174.352"/>
	<path d="M158.947,177.703c0.049-0.912-0.053-1.549-0.396-2.234c-0.114-0.279-0.279-0.571-0.279-0.571
		c-1.967,1.104-1.879,5.701-1.092,6.401C158.908,179.862,158.894,178.782,158.947,177.703 M157.014,173.768
		c0.115-0.115,0.293-0.229,0.459-0.229c0.278-0.115,0.786-0.052,1.13,0.113c1.764,0.393,2.058,3.543,1.942,4.623
		c-0.076,1.65-1.028,2.908-1.485,3.365c-0.623,0.623-0.914,0.787-1.65,0.8c-1.601,0.039-2.008-1.155-2.058-1.435
		c-0.344-1.08-0.28-2.91,0.113-4.279c0.23-0.852,0.688-1.717,1.144-2.109c0.165-0.164,0.177-0.292,0.177-0.457
		C156.786,173.996,156.85,173.933,157.014,173.768"/>
	<path d="M173.628,144.793c0.142-0.368,0.331-0.6,0.56-0.737c1.154-0.267,1.333,0.647,1.297,1.383
		c-0.104,2.146,0.558,7.113,0.328,7.267c-1.091,0.506-1.396-0.064-1.484-0.383c-0.141-0.559-0.42-3.505-0.42-4.801
		c0-0.785,0.014-0.785-0.178-0.926c-0.368-0.191-0.471-0.28-0.42-0.648C173.387,145.287,173.58,144.981,173.628,144.793"/>
	<path d="M177.589,144.793c0.141-0.368,0.331-0.6,0.559-0.737c1.155-0.267,1.335,0.647,1.296,1.383
		c-0.104,2.146,0.559,7.113,0.329,7.267c-1.092,0.506-1.396-0.064-1.484-0.383c-0.141-0.559-0.419-3.505-0.419-4.801
		c0-0.785,0.012-0.785-0.179-0.926c-0.369-0.191-0.47-0.28-0.418-0.648C177.346,145.287,177.539,144.981,177.589,144.793"/>
	<path d="M203.859,137.098c0.142-0.369,0.331-0.6,0.56-0.738c1.154-0.267,1.333,0.647,1.296,1.383
		c-0.103,2.146,0.558,7.113,0.329,7.267c-1.091,0.507-1.396-0.063-1.485-0.383c-0.14-0.558-0.419-3.504-0.419-4.8
		c0-0.786,0.014-0.786-0.178-0.926c-0.369-0.192-0.471-0.28-0.42-0.648C203.618,137.591,203.809,137.285,203.859,137.098"/>
	<path d="M208.34,137.401c0.508-0.508,0.813-0.687,1.525-0.889c0.151-0.052,0.456-0.052,0.711-0.052
		c1.32-0.051,2.032,0.609,2.032,1.779c0,0.608-0.308,1.307-0.967,2.322c-1.486,1.816-1.815,2.909-1.765,2.959
		c0,0,1.054-0.354,2.286-0.253c0.521,0.038,0.864,0.394,0.761,0.698c-0.102,0.203-0.254,0.254-0.864,0.305
		c-1.51,0.113-2.132,0.507-2.335,0.609c-0.712,0.305-1.309,0.203-1.563-0.152c-0.099-0.203-0.099-0.635,0.103-1.359
		c0.545-1.918,2.312-4.013,2.564-4.47c0.574-0.647,0.039-1.192-0.163-1.144c-0.56,0-0.8-0.049-1.36,0.611
		c-0.775,0.861-1.32,0.151-1.422-0.104C207.833,138.162,208.087,137.707,208.34,137.401"/>
	<path d="M212.888,111.046c0.138-0.368,0.329-0.599,0.558-0.737c1.156-0.267,1.333,0.646,1.294,1.383
		c-0.101,2.146,0.561,7.113,0.331,7.267c-1.092,0.506-1.396-0.063-1.484-0.384c-0.141-0.558-0.418-3.504-0.418-4.799
		c0-0.787,0.011-0.787-0.18-0.927c-0.367-0.192-0.469-0.28-0.42-0.647C212.645,111.539,212.837,111.234,212.888,111.046"/>
	<path d="M216.681,111.107c0.294-0.291,1.144-0.736,1.88-0.938c0.241-0.053,0.482-0.027,0.877-0.053
		c1.613-0.101,1.626,0.979,1.574,1.474c0,0.444-0.138,0.801-0.533,1.485c-0.101,0.242-0.253,0.445-0.203,0.445
		c0,0,0.142,0.088,0.343,0.139c1.08,0.547,1.131,1.728,0.104,3.353c-0.496,0.788-1.473,1.638-2.21,1.881
		c-0.636,0.241-1.385-0.103-1.437-0.647c0-0.152,0.052-0.191,0.292-0.293c1.131-0.635,1.882-1.435,2.323-2.463
		c0.344-0.889,0.344-0.889-0.441-0.687c-0.737,0.151-1.042,0.151-1.337,0c-0.2-0.101-0.441-0.342-0.441-0.546
		c0-0.102,0.202-0.292,0.646-0.736c0.839-0.787,1.221-1.486,1.373-2.223c0.05-0.152,0.05-0.152-0.103-0.152
		c-0.202,0-0.826,0.254-1.321,0.496c-1.017,0.609-1.332,0.102-1.483-0.104C216.479,111.388,216.479,111.351,216.681,111.107"/>
	<path d="M196.167,71.138c0.138-0.368,0.329-0.599,0.558-0.737c1.156-0.267,1.333,0.647,1.294,1.383
		c-0.101,2.146,0.561,7.113,0.331,7.266c-1.092,0.506-1.396-0.064-1.484-0.383c-0.141-0.557-0.418-3.504-0.418-4.8
		c0-0.786,0.011-0.786-0.18-0.926c-0.367-0.192-0.469-0.28-0.42-0.648C195.923,71.632,196.116,71.327,196.167,71.138"/>
	<path d="M200.634,70.451c0-0.05,0.101-0.101,0.152-0.101c0.292-0.152,0.94,0.051,1.13,0.342c0.153,0.292-0.013,2.072-0.253,3.099
		c-0.191,0.736-0.191,0.687,0.201,0.687c0.636-0.052,0.534,0.037,0.584-0.941c0-0.837,0.052-2.247,0.104-2.539
		c0.049-0.292,1.002-0.382,1.168,0.037c0.406,1.017,0.153,2.363,0.153,2.706c0.049,0.584,0.037,0.584,0.19,0.685
		c0.1,0,0.241,0.089,0.342,0.192c0.152,0.101,0.152,0.152,0.203,0.341c0,0.243-0.151,0.395-0.445,0.445
		c-0.189,0.051-0.189,0.051-0.189,0.343c0.051,0.445,0.139,1.626,0.242,2.159c0.177,1.117-0.446,1.321-0.79,1.22
		c-0.341-0.103-0.531-0.243-0.633-0.535c-0.051-0.241-0.293-2.792-0.293-2.844c-0.052-0.191-0.052-0.203-0.788-0.152
		c-0.926,0.052-1.179,0.012-1.422-0.14c-0.494-0.292-0.533-0.635-0.189-1.817C200.495,72.344,200.534,70.642,200.634,70.451"/>
	<path d="M192.321,36.51c0.138-0.368,0.329-0.599,0.558-0.737c1.156-0.267,1.333,0.647,1.294,1.383
		c-0.101,2.146,0.561,7.114,0.331,7.266c-1.092,0.506-1.396-0.064-1.485-0.383c-0.14-0.558-0.418-3.504-0.418-4.8
		c0-0.786,0.011-0.786-0.179-0.926c-0.368-0.192-0.469-0.28-0.42-0.648C192.078,37.004,192.269,36.699,192.321,36.51"/>
	<path d="M196.255,36.522c0.05-0.243,0.405-0.356,1.979-0.7c0.547-0.1,1.08-0.189,1.129-0.189c0.688-0.051,1.233,0.597,0.737,0.889
		c-0.099,0.05-1.231,0.292-2.02,0.393c-0.494,0.051-0.494,0.051-0.494,1.08c-0.051,1.029-0.051,1.041,0.151,1.041
		c0.104-0.051,0.446-0.051,0.736-0.051c0.943,0,1.385,0.191,1.626,0.685c0.827,2.286-1.675,4.776-2.119,4.877
		c-0.395,0.051-0.838-0.101-1.079-0.342c-0.331-0.471-0.053-0.788,0.291-0.839c0.203-0.05,0.293-0.089,0.495-0.292
		c0.597-0.686,1.08-1.918,1.08-2.807c0-0.342,0-0.354-0.343-0.304c-0.698,0.038-1.386,0.255-1.626,0.203
		c-0.24-0.051-0.584-0.253-0.688-0.496c-0.201-0.341-0.138-2.259,0.104-2.806C196.267,36.711,196.255,36.573,196.255,36.522"/>
	<path d="M168.135,56.847c0.139-0.368,0.329-0.599,0.559-0.737c1.155-0.267,1.333,0.647,1.294,1.383
		c-0.102,2.146,0.56,7.113,0.331,7.266c-1.093,0.506-1.397-0.064-1.485-0.383c-0.14-0.558-0.418-3.504-0.418-4.8
		c0-0.786,0.01-0.786-0.179-0.926c-0.368-0.192-0.47-0.28-0.42-0.648C167.892,57.341,168.084,57.036,168.135,56.847"/>
	<path d="M174.153,63.019c0.52-0.673,0.837-1.295,0.837-1.715c0-0.102-0.051-0.203-0.051-0.203c-0.05-0.051-0.698-0.012-1.269,0.241
		c-0.814,0.331-0.241,2.133-0.241,2.185C173.48,63.627,173.848,63.387,174.153,63.019 M172.807,57.469
		c0.305-0.876,0.634-1.397,0.889-1.498c0.202-0.051,0.57-0.051,0.774,0.05c0.419,0.203,0.419,0.407,0.051,1.397
		c-0.368,0.825-0.876,2.59-0.825,2.642c0,0,0.152,0,0.304-0.052c0.471-0.152,1.181-0.125,1.612,0
		c1.335,0.408,0.878,2.185,0.775,2.439c-0.368,0.991-1.297,1.956-2.07,2.325c-2.325,0.621-2.629-1.181-2.59-2.274
		C171.803,59.92,172.655,57.722,172.807,57.469"/>
	<path d="M136.803,51.9c0.14-0.368,0.33-0.598,0.559-0.736c1.155-0.268,1.333,0.646,1.295,1.382c-0.102,2.147,0.56,7.114,0.33,7.266
		c-1.091,0.506-1.396-0.064-1.485-0.383c-0.14-0.557-0.419-3.504-0.419-4.8c0-0.786,0.013-0.786-0.178-0.926
		c-0.368-0.191-0.47-0.28-0.42-0.648C136.561,52.395,136.752,52.09,136.803,51.9"/>
	<path d="M142.986,51.213c0.395-0.101,0.749-0.204,0.8-0.204c1.346-0.177,1.536,0.712,1.486,1.105
		c-0.051,0.344-0.344,2.389-0.688,5.183c-0.342,2.247-0.393,2.387-0.698,2.54c-1.282,0.177-1.345-0.597-1.296-0.902
		c0-0.304,0.547-3.734,0.7-4.636c0.1-0.901,0.242-1.74,0.242-1.841c0.05-0.152,0.05-0.152-0.648,0c-0.852,0.152-1.347,0.152-1.688,0
		c-0.254-0.152-0.345-0.305-0.356-0.445C140.801,51.469,142.643,51.316,142.986,51.213"/>
	<path d="M147.248,75.535c0.138-0.368,0.329-0.598,0.558-0.737c1.156-0.267,1.334,0.647,1.295,1.383
		c-0.102,2.146,0.56,7.113,0.33,7.266c-1.092,0.506-1.396-0.064-1.484-0.383c-0.141-0.558-0.418-3.504-0.418-4.8
		c0-0.786,0.01-0.786-0.179-0.926c-0.368-0.192-0.47-0.28-0.421-0.649C147.004,76.029,147.197,75.724,147.248,75.535"/>
	<path d="M154.154,81.362c0.28-0.609,0.164-1.218-0.33-1.778c-0.166-0.164-0.279-0.265-0.279-0.265c-0.167,0-0.56,0.761-0.725,1.321
		c-0.164,0.444-0.164,1.27,0,1.599c0.116,0.216,0.116,0.228,0.394,0.115C153.544,82.239,153.987,81.745,154.154,81.362
		 M154.041,76.765c0.049-0.279-0.054-0.329-0.548-0.38c-0.216,0-0.508-0.064-0.557-0.064c-0.055,0-0.104,0.064-0.216,0.28
		c-0.167,0.444-0.28,0.774-0.231,1.105c0,0.216,0,0.228,0.167,0.228C153.035,77.883,153.924,77.146,154.041,76.765 M151.271,76.22
		c0.329-0.609,0.775-1.004,1.385-1.284c0.774-0.329,1.662,0,1.331,0.445c-0.049,0.115-0.049,0.166,0,0.166
		c0.942,0.012,1.271,0.661,1.321,0.774c0.332,0.56,0.179,1.169-0.545,1.829c-0.217,0.165-0.329,0.33-0.329,0.33
		c0.049,0.051,0.278,0.228,0.495,0.444c1.332,1.333,1.268,2.986-0.115,4.09c-0.56,0.381-0.876,0.558-1.601,0.558
		c-1.309,0.115-1.662-0.66-1.879-1.105c-0.445-0.938-0.229-2.551,0.496-3.327c0.049-0.113,0.163-0.216,0.163-0.266
		c0,0-0.622-0.102-0.938-0.775C150.838,77.654,150.889,76.994,151.271,76.22"/>
	<path d="M130.333,101.783c0.142-0.368,0.331-0.599,0.559-0.737c1.155-0.267,1.334,0.647,1.298,1.383
		c-0.104,2.146,0.557,7.114,0.328,7.266c-1.091,0.506-1.396-0.064-1.485-0.383c-0.141-0.558-0.419-3.504-0.419-4.8
		c0-0.786,0.014-0.786-0.178-0.926c-0.368-0.192-0.471-0.28-0.42-0.648C130.092,102.277,130.284,101.972,130.333,101.783"/>
	<path d="M137.19,102.962c0.152-0.317,0.268-0.685,0.268-0.786c0.051-0.103-0.115-0.115-0.433,0.101
		c-0.42,0.319-1.537,1.041-1.422,2.006C135.603,104.283,136.467,104.322,137.19,102.962 M134.499,102.811
		c0.469-0.685,1.218-1.27,1.955-1.587c1.155-0.368,2.322,0.114,2.322,0.953c0,0.101,0.054,0.317,0.104,0.368
		c0.103,0.153,0.103,0.216-0.05,1.321c-0.217,1.791-0.27,2.311-0.27,4c0,0.902,0,1.639-0.049,1.739
		c-0.712,0.56-1.334,0.167-1.486-0.101c-0.216-0.268-0.051-4.332-0.051-4.332s-0.101,0.014-0.202,0.064
		c-2.058,0.965-2.693-0.368-2.745-0.737C133.926,103.966,134.027,103.498,134.499,102.811"/>
	<path d="M123.719,113.882c0.508-0.508,0.813-0.687,1.524-0.89c0.151-0.051,0.458-0.051,0.712-0.051
		c1.32-0.052,2.031,0.609,2.031,1.778c0,0.608-0.306,1.308-0.966,2.323c-1.485,1.816-1.815,2.908-1.765,2.959
		c0,0,1.054-0.354,2.286-0.254c0.521,0.039,0.863,0.394,0.761,0.699c-0.101,0.203-0.254,0.254-0.863,0.305
		c-1.511,0.113-2.134,0.507-2.336,0.609c-0.712,0.305-1.309,0.203-1.562-0.152c-0.103-0.203-0.103-0.635,0.102-1.36
		c0.546-1.917,2.312-4.012,2.565-4.469c0.572-0.647,0.038-1.192-0.165-1.144c-0.559,0-0.8-0.049-1.359,0.61
		c-0.774,0.862-1.32,0.152-1.422-0.103C123.211,114.643,123.465,114.188,123.719,113.882"/>
	<path d="M133.228,116.929c0.052-0.913-0.051-1.549-0.394-2.233c-0.114-0.28-0.28-0.572-0.28-0.572
		c-1.968,1.105-1.88,5.701-1.091,6.4C133.19,119.088,133.177,118.008,133.228,116.929 M131.297,112.992
		c0.114-0.114,0.292-0.229,0.458-0.229c0.279-0.115,0.787-0.051,1.13,0.114c1.766,0.394,2.057,3.543,1.943,4.623
		c-0.076,1.651-1.029,2.907-1.486,3.364c-0.622,0.623-0.915,0.789-1.65,0.801c-1.601,0.039-2.007-1.156-2.059-1.434
		c-0.342-1.08-0.279-2.91,0.115-4.281c0.229-0.852,0.686-1.715,1.143-2.108c0.165-0.165,0.178-0.292,0.178-0.457
		S131.132,113.158,131.297,112.992"/>
	<path d="M100.901,116.688c0.509-0.508,0.813-0.688,1.524-0.889c0.152-0.051,0.458-0.051,0.712-0.051
		c1.32-0.053,2.032,0.608,2.032,1.777c0,0.609-0.306,1.309-0.966,2.323c-1.486,1.817-1.816,2.909-1.766,2.959
		c0,0,1.055-0.354,2.286-0.254c0.521,0.038,0.863,0.394,0.761,0.7c-0.101,0.201-0.254,0.252-0.862,0.304
		c-1.512,0.114-2.134,0.507-2.336,0.61c-0.712,0.304-1.31,0.203-1.563-0.153c-0.102-0.203-0.102-0.636,0.103-1.36
		c0.546-1.917,2.312-4.012,2.564-4.469c0.572-0.648,0.038-1.193-0.165-1.145c-0.559,0-0.8-0.049-1.358,0.611
		c-0.775,0.862-1.321,0.152-1.423-0.104C100.393,117.449,100.647,116.992,100.901,116.688"/>
	<path d="M106.841,116.383c0.14-0.367,0.33-0.6,0.559-0.736c1.155-0.268,1.333,0.646,1.295,1.383
		c-0.102,2.146,0.559,7.113,0.33,7.266c-1.092,0.506-1.396-0.064-1.485-0.383c-0.14-0.559-0.418-3.504-0.418-4.801
		c0-0.785,0.012-0.785-0.179-0.926c-0.368-0.191-0.47-0.279-0.42-0.648C106.599,116.877,106.791,116.572,106.841,116.383"/>
	<path d="M116.525,72.245c0.508-0.508,0.813-0.687,1.524-0.889c0.151-0.051,0.458-0.051,0.712-0.051
		c1.319-0.052,2.031,0.609,2.031,1.778c0,0.609-0.306,1.308-0.966,2.323c-1.485,1.817-1.815,2.909-1.765,2.959
		c0,0,1.054-0.354,2.286-0.254c0.521,0.039,0.862,0.394,0.762,0.7c-0.102,0.202-0.255,0.253-0.864,0.304
		c-1.511,0.114-2.134,0.507-2.336,0.61c-0.712,0.304-1.309,0.203-1.562-0.153c-0.103-0.203-0.103-0.635,0.102-1.36
		c0.546-1.917,2.312-4.012,2.565-4.469c0.571-0.648,0.038-1.193-0.165-1.144c-0.559,0-0.8-0.049-1.359,0.611
		c-0.774,0.862-1.321,0.152-1.422-0.103C116.017,73.006,116.271,72.55,116.525,72.245"/>
	<path d="M122.986,72.245c0.508-0.508,0.812-0.687,1.523-0.889c0.152-0.051,0.457-0.051,0.712-0.051
		c1.32-0.052,2.031,0.609,2.031,1.778c0,0.609-0.305,1.308-0.965,2.323c-1.486,1.817-1.816,2.909-1.766,2.959
		c0,0,1.055-0.354,2.286-0.254c0.521,0.039,0.863,0.394,0.763,0.7c-0.103,0.202-0.255,0.253-0.864,0.304
		c-1.511,0.114-2.134,0.507-2.336,0.61c-0.712,0.304-1.31,0.203-1.563-0.153c-0.101-0.203-0.101-0.635,0.103-1.36
		c0.546-1.917,2.312-4.012,2.564-4.469c0.572-0.648,0.038-1.193-0.165-1.144c-0.558,0-0.8-0.049-1.358,0.611
		c-0.775,0.862-1.321,0.152-1.422-0.103C122.477,73.006,122.732,72.55,122.986,72.245"/>
	<path d="M86.208,54.403c0.508-0.508,0.812-0.687,1.523-0.889c0.152-0.051,0.458-0.051,0.711-0.051
		c1.321-0.052,2.032,0.609,2.032,1.778c0,0.609-0.305,1.308-0.965,2.323c-1.486,1.817-1.816,2.909-1.765,2.959
		c0,0,1.054-0.354,2.285-0.253c0.521,0.039,0.863,0.393,0.762,0.699c-0.102,0.202-0.254,0.253-0.863,0.305
		c-1.511,0.113-2.134,0.506-2.336,0.609c-0.712,0.304-1.309,0.203-1.563-0.153c-0.102-0.203-0.102-0.635,0.103-1.36
		c0.546-1.917,2.311-4.012,2.564-4.469c0.572-0.648,0.038-1.193-0.165-1.144c-0.559,0-0.8-0.049-1.358,0.611
		c-0.775,0.862-1.321,0.152-1.422-0.103C85.699,55.165,85.954,54.708,86.208,54.403"/>
	<path d="M91.982,54.16c0.292-0.292,1.143-0.737,1.88-0.938c0.241-0.052,0.481-0.027,0.876-0.052
		c1.612-0.101,1.626,0.978,1.575,1.473c0,0.445-0.141,0.801-0.534,1.486c-0.102,0.241-0.254,0.445-0.202,0.445
		c0,0,0.139,0.088,0.342,0.139c1.08,0.546,1.131,1.727,0.103,3.352c-0.496,0.788-1.474,1.638-2.21,1.881
		c-0.636,0.241-1.385-0.103-1.436-0.648c0-0.152,0.051-0.191,0.292-0.292c1.131-0.636,1.88-1.435,2.324-2.463
		c0.343-0.889,0.343-0.889-0.444-0.687c-0.736,0.152-1.041,0.152-1.334,0c-0.203-0.101-0.443-0.342-0.443-0.546
		c0-0.101,0.202-0.292,0.646-0.736c0.839-0.789,1.219-1.486,1.372-2.223c0.051-0.152,0.051-0.152-0.101-0.152
		c-0.204,0-0.826,0.253-1.321,0.496c-1.017,0.609-1.334,0.101-1.486-0.103C91.779,54.44,91.779,54.403,91.982,54.16"/>
	<path d="M70.425,35.533c0.508-0.508,0.813-0.687,1.524-0.889c0.151-0.051,0.458-0.051,0.712-0.051
		c1.319-0.052,2.032,0.609,2.032,1.778c0,0.609-0.307,1.308-0.967,2.323c-1.485,1.817-1.815,2.909-1.765,2.959
		c0,0,1.054-0.354,2.286-0.253c0.521,0.039,0.863,0.393,0.762,0.699c-0.102,0.202-0.255,0.253-0.864,0.304
		c-1.511,0.114-2.134,0.507-2.336,0.61c-0.712,0.304-1.309,0.203-1.562-0.153c-0.103-0.203-0.103-0.635,0.102-1.36
		c0.546-1.917,2.312-4.012,2.565-4.469c0.572-0.648,0.038-1.193-0.165-1.144c-0.558,0-0.8-0.049-1.359,0.611
		c-0.774,0.862-1.32,0.152-1.422-0.103C69.917,36.293,70.171,35.838,70.425,35.533"/>
	<path d="M76.874,34.541c0-0.05,0.102-0.101,0.152-0.101c0.292-0.152,0.939,0.051,1.13,0.342c0.153,0.292-0.012,2.072-0.253,3.099
		c-0.191,0.736-0.191,0.687,0.203,0.687c0.634-0.052,0.531,0.037,0.584-0.941c0-0.837,0.05-2.247,0.102-2.539
		c0.05-0.292,1.003-0.382,1.168,0.037c0.406,1.017,0.152,2.363,0.152,2.706c0.051,0.584,0.038,0.584,0.19,0.685
		c0.102,0,0.241,0.089,0.344,0.192c0.151,0.1,0.151,0.152,0.202,0.341c0,0.243-0.152,0.395-0.444,0.445
		c-0.19,0.051-0.19,0.051-0.19,0.343c0.051,0.445,0.14,1.626,0.241,2.159c0.177,1.117-0.444,1.321-0.788,1.22
		c-0.342-0.103-0.533-0.243-0.635-0.535c-0.05-0.241-0.292-2.792-0.292-2.844c-0.05-0.191-0.05-0.203-0.787-0.152
		c-0.927,0.051-1.181,0.012-1.423-0.14c-0.495-0.292-0.533-0.636-0.19-1.817C76.734,36.434,76.772,34.732,76.874,34.541"/>
	<path d="M60.437,64.679c0.508-0.508,0.813-0.687,1.524-0.889c0.151-0.051,0.458-0.051,0.712-0.051
		c1.319-0.052,2.032,0.609,2.032,1.778c0,0.609-0.307,1.308-0.967,2.323c-1.485,1.817-1.815,2.909-1.765,2.959
		c0,0,1.054-0.354,2.286-0.253c0.521,0.039,0.863,0.393,0.761,0.699c-0.101,0.202-0.254,0.253-0.862,0.304
		c-1.512,0.114-2.134,0.507-2.337,0.61c-0.712,0.304-1.309,0.203-1.562-0.153c-0.103-0.203-0.103-0.635,0.102-1.36
		c0.546-1.917,2.312-4.012,2.565-4.469c0.572-0.648,0.038-1.193-0.165-1.144c-0.558,0-0.8-0.049-1.359,0.611
		c-0.774,0.862-1.32,0.152-1.422-0.103C59.929,65.44,60.183,64.984,60.437,64.679"/>
	<path d="M66.351,64.387c0.052-0.243,0.406-0.356,1.982-0.699c0.546-0.101,1.079-0.19,1.129-0.19
		c0.687-0.051,1.233,0.597,0.737,0.889c-0.102,0.05-1.232,0.292-2.02,0.393c-0.496,0.051-0.496,0.051-0.496,1.08
		c-0.05,1.029-0.05,1.041,0.153,1.041c0.101-0.051,0.445-0.051,0.736-0.051c0.94,0,1.385,0.191,1.626,0.685
		c0.826,2.286-1.676,4.776-2.121,4.877c-0.395,0.051-0.838-0.101-1.079-0.342c-0.33-0.471-0.051-0.788,0.292-0.839
		c0.203-0.05,0.292-0.089,0.495-0.292c0.597-0.686,1.08-1.918,1.08-2.807c0-0.342,0-0.354-0.343-0.305
		c-0.699,0.039-1.385,0.256-1.627,0.204c-0.239-0.051-0.584-0.253-0.686-0.496c-0.203-0.341-0.139-2.259,0.102-2.806
		C66.365,64.576,66.351,64.438,66.351,64.387"/>
	<path d="M32.129,81.545c0.508-0.508,0.813-0.687,1.524-0.889c0.151-0.051,0.458-0.051,0.712-0.051
		c1.32-0.052,2.032,0.609,2.032,1.778c0,0.609-0.307,1.308-0.966,2.323c-1.486,1.817-1.816,2.909-1.766,2.959
		c0,0,1.055-0.354,2.286-0.253c0.521,0.038,0.863,0.393,0.761,0.699c-0.101,0.202-0.254,0.253-0.862,0.305
		c-1.512,0.113-2.134,0.506-2.337,0.609c-0.712,0.304-1.309,0.203-1.562-0.153c-0.102-0.203-0.102-0.635,0.102-1.36
		c0.547-1.917,2.312-4.012,2.565-4.469c0.572-0.648,0.038-1.193-0.165-1.144c-0.558,0-0.8-0.049-1.359,0.611
		c-0.774,0.862-1.32,0.152-1.422-0.103C31.622,82.306,31.875,81.85,32.129,81.545"/>
	<path d="M40.127,87.412c0.521-0.673,0.837-1.295,0.837-1.715c0-0.102-0.05-0.203-0.05-0.203c-0.051-0.051-0.699-0.013-1.27,0.241
		c-0.813,0.331-0.241,2.133-0.241,2.185C39.454,88.021,39.822,87.78,40.127,87.412 M38.781,81.862
		c0.305-0.877,0.635-1.397,0.889-1.498c0.204-0.051,0.572-0.051,0.775,0.05c0.419,0.203,0.419,0.407,0.051,1.397
		c-0.368,0.825-0.876,2.59-0.826,2.642c0,0,0.152,0,0.306-0.052c0.47-0.152,1.181-0.126,1.612,0
		c1.333,0.408,0.876,2.185,0.774,2.439c-0.368,0.991-1.295,1.956-2.07,2.325c-2.324,0.621-2.628-1.181-2.59-2.274
		C37.778,84.312,38.628,82.115,38.781,81.862"/>
	<path d="M51.582,108.817c0.509-0.508,0.813-0.687,1.524-0.889c0.152-0.051,0.458-0.051,0.712-0.051
		c1.32-0.052,2.031,0.609,2.031,1.778c0,0.608-0.306,1.308-0.965,2.323c-1.486,1.816-1.816,2.908-1.766,2.959
		c0,0,1.054-0.354,2.286-0.254c0.521,0.039,0.863,0.394,0.761,0.699c-0.101,0.202-0.254,0.254-0.862,0.305
		c-1.512,0.113-2.135,0.506-2.336,0.609c-0.713,0.305-1.31,0.203-1.563-0.152c-0.102-0.203-0.102-0.635,0.103-1.36
		c0.546-1.917,2.312-4.013,2.564-4.47c0.572-0.647,0.038-1.192-0.165-1.144c-0.559,0-0.8-0.049-1.358,0.611
		c-0.775,0.862-1.321,0.151-1.423-0.103C51.074,109.578,51.328,109.122,51.582,108.817"/>
	<path d="M59.745,107.826c0.394-0.101,0.748-0.204,0.8-0.204c1.346-0.177,1.536,0.712,1.485,1.105
		c-0.05,0.344-0.343,2.389-0.686,5.184c-0.343,2.246-0.393,2.387-0.698,2.539c-1.283,0.178-1.346-0.597-1.296-0.902
		c0-0.303,0.546-3.733,0.699-4.635c0.101-0.902,0.241-1.74,0.241-1.842c0.051-0.152,0.051-0.152-0.648,0
		c-0.851,0.152-1.346,0.152-1.688,0c-0.255-0.152-0.345-0.305-0.356-0.445C57.56,108.081,59.401,107.928,59.745,107.826"/>
	<path d="M26.684,113.715c0.508-0.509,0.813-0.688,1.524-0.89c0.151-0.051,0.458-0.051,0.712-0.051
		c1.319-0.052,2.031,0.608,2.031,1.776c0,0.61-0.306,1.31-0.966,2.324c-1.485,1.816-1.815,2.909-1.765,2.959
		c0,0,1.054-0.355,2.286-0.254c0.521,0.039,0.863,0.393,0.761,0.7c-0.101,0.202-0.254,0.253-0.863,0.304
		c-1.511,0.114-2.133,0.508-2.336,0.61c-0.712,0.304-1.309,0.202-1.562-0.153c-0.103-0.203-0.103-0.635,0.102-1.359
		c0.546-1.918,2.312-4.012,2.565-4.469c0.572-0.648,0.038-1.195-0.165-1.145c-0.56,0-0.8-0.051-1.359,0.611
		c-0.774,0.861-1.32,0.151-1.422-0.104C26.176,114.475,26.43,114.018,26.684,113.715"/>
	<path d="M35.571,119.236c0.279-0.609,0.164-1.218-0.331-1.777c-0.165-0.164-0.279-0.266-0.279-0.266
		c-0.165,0-0.559,0.762-0.724,1.321c-0.165,0.444-0.165,1.269,0,1.599c0.115,0.217,0.115,0.229,0.395,0.115
		C34.96,120.113,35.405,119.619,35.571,119.236 M35.457,114.64c0.051-0.278-0.052-0.329-0.547-0.38
		c-0.216,0-0.508-0.064-0.558-0.064c-0.052,0-0.103,0.064-0.216,0.28c-0.166,0.444-0.28,0.774-0.229,1.104
		c0,0.217,0,0.229,0.165,0.229C34.453,115.758,35.342,115.021,35.457,114.64 M32.688,114.095c0.33-0.608,0.775-1.004,1.384-1.284
		c0.775-0.328,1.663,0,1.333,0.445c-0.05,0.115-0.05,0.166,0,0.166c0.94,0.013,1.271,0.66,1.321,0.773
		c0.33,0.561,0.178,1.17-0.546,1.83c-0.217,0.164-0.33,0.33-0.33,0.33c0.051,0.051,0.279,0.227,0.495,0.443
		c1.334,1.333,1.27,2.984-0.114,4.09c-0.559,0.381-0.876,0.559-1.6,0.559c-1.309,0.114-1.664-0.66-1.881-1.105
		c-0.443-0.938-0.229-2.551,0.496-3.327c0.051-0.112,0.164-0.216,0.164-0.267c0,0-0.622-0.102-0.938-0.774
		C32.256,115.529,32.307,114.869,32.688,114.095"/>
	<path d="M0.463,113.764c0.509-0.508,0.813-0.688,1.524-0.889c0.152-0.051,0.458-0.051,0.712-0.051
		c1.32-0.053,2.031,0.608,2.031,1.777c0,0.609-0.305,1.309-0.965,2.323C2.28,118.742,1.95,119.834,2,119.884
		c0,0,1.055-0.354,2.286-0.253c0.521,0.039,0.863,0.393,0.761,0.699c-0.101,0.201-0.254,0.252-0.862,0.305
		c-1.512,0.113-2.134,0.506-2.336,0.609c-0.712,0.304-1.31,0.203-1.563-0.152c-0.102-0.204-0.102-0.637,0.103-1.359
		c0.546-1.918,2.312-4.014,2.564-4.471c0.572-0.648,0.038-1.193-0.165-1.145c-0.559,0-0.8-0.049-1.358,0.611
		c-0.775,0.862-1.321,0.152-1.423-0.104C-0.044,114.525,0.209,114.068,0.463,113.764"/>
	<path d="M9.299,114.639c0.152-0.317,0.268-0.686,0.268-0.787c0.05-0.103-0.115-0.114-0.433,0.102
		c-0.419,0.318-1.537,1.041-1.423,2.006C7.711,115.959,8.576,115.998,9.299,114.639 M6.607,114.486
		c0.47-0.686,1.219-1.27,1.956-1.587c1.155-0.368,2.323,0.114,2.323,0.952c0,0.102,0.052,0.318,0.103,0.369
		c0.102,0.152,0.102,0.215-0.051,1.32c-0.217,1.791-0.268,2.311-0.268,4c0,0.902,0,1.639-0.051,1.739
		c-0.711,0.56-1.333,0.167-1.485-0.101c-0.216-0.268-0.051-4.332-0.051-4.332s-0.101,0.015-0.203,0.064
		c-2.058,0.965-2.692-0.367-2.743-0.736C6.036,115.643,6.137,115.174,6.607,114.486"/>
	<path d="M22.137,68.674c0.291-0.292,1.143-0.737,1.879-0.939c0.242-0.051,0.482-0.026,0.876-0.051
		c1.613-0.101,1.626,0.978,1.575,1.473c0,0.445-0.139,0.801-0.533,1.486c-0.101,0.241-0.255,0.445-0.203,0.445
		c0,0,0.141,0.088,0.343,0.139c1.08,0.546,1.131,1.727,0.102,3.352c-0.496,0.788-1.473,1.638-2.21,1.881
		c-0.635,0.241-1.383-0.103-1.435-0.648c0-0.152,0.052-0.191,0.292-0.292c1.131-0.636,1.88-1.435,2.323-2.463
		c0.344-0.889,0.344-0.889-0.443-0.687c-0.737,0.152-1.041,0.152-1.333,0c-0.204-0.101-0.445-0.342-0.445-0.546
		c0-0.101,0.203-0.292,0.647-0.736c0.839-0.788,1.219-1.486,1.372-2.223c0.051-0.152,0.051-0.152-0.102-0.152
		c-0.204,0-0.826,0.253-1.321,0.496c-1.016,0.609-1.333,0.101-1.485-0.103C21.933,68.954,21.933,68.917,22.137,68.674"/>
	<path d="M32.205,71.963c0.052-0.913-0.051-1.549-0.394-2.234c-0.114-0.28-0.28-0.572-0.28-0.572
		c-1.968,1.105-1.879,5.702-1.091,6.401C32.167,74.123,32.154,73.042,32.205,71.963 M30.274,68.027
		c0.114-0.115,0.292-0.228,0.458-0.228c0.279-0.116,0.787-0.052,1.129,0.113c1.766,0.393,2.058,3.543,1.944,4.623
		c-0.076,1.651-1.029,2.908-1.486,3.365c-0.622,0.623-0.914,0.788-1.651,0.8c-1.6,0.039-2.006-1.156-2.057-1.434
		c-0.343-1.08-0.279-2.909,0.114-4.28c0.229-0.852,0.686-1.716,1.143-2.109c0.165-0.165,0.178-0.292,0.178-0.457
		S30.109,68.192,30.274,68.027"/>
	<path d="M30.072,48.711c0.291-0.292,1.143-0.737,1.879-0.938c0.241-0.052,0.482-0.027,0.876-0.052
		c1.614-0.101,1.626,0.978,1.575,1.473c0,0.445-0.139,0.801-0.533,1.486c-0.101,0.241-0.255,0.445-0.203,0.445
		c0,0,0.141,0.088,0.343,0.139c1.08,0.546,1.131,1.727,0.102,3.353c-0.496,0.787-1.473,1.637-2.21,1.88
		c-0.635,0.241-1.384-0.104-1.435-0.648c0-0.152,0.051-0.191,0.292-0.292c1.131-0.636,1.88-1.435,2.324-2.463
		c0.343-0.889,0.343-0.889-0.444-0.687c-0.737,0.152-1.041,0.152-1.333,0c-0.204-0.101-0.445-0.342-0.445-0.546
		c0-0.101,0.203-0.292,0.647-0.736c0.839-0.788,1.22-1.486,1.372-2.223c0.051-0.152,0.051-0.152-0.102-0.152
		c-0.204,0-0.826,0.253-1.321,0.496c-1.016,0.609-1.334,0.101-1.485-0.104C29.868,48.991,29.868,48.954,30.072,48.711"/>
	<path d="M36.571,48.649c0.14-0.368,0.33-0.599,0.559-0.737c1.155-0.267,1.333,0.647,1.295,1.383
		c-0.102,2.146,0.56,7.114,0.33,7.266c-1.092,0.506-1.396-0.064-1.484-0.383c-0.141-0.558-0.419-3.504-0.419-4.8
		c0-0.787,0.012-0.787-0.179-0.927c-0.368-0.191-0.47-0.279-0.42-0.648C36.329,49.144,36.521,48.838,36.571,48.649"/>
	<path d="M45.949,28.875c0.291-0.292,1.143-0.737,1.88-0.938c0.24-0.052,0.481-0.027,0.876-0.052
		c1.612-0.101,1.626,0.978,1.574,1.474c0,0.444-0.14,0.8-0.533,1.485c-0.102,0.241-0.255,0.445-0.202,0.445
		c0,0,0.139,0.088,0.342,0.139c1.08,0.546,1.131,1.727,0.102,3.353c-0.496,0.787-1.473,1.637-2.21,1.88
		c-0.635,0.241-1.384-0.103-1.435-0.648c0-0.152,0.051-0.191,0.292-0.292c1.131-0.636,1.88-1.435,2.324-2.463
		c0.343-0.889,0.343-0.889-0.444-0.687c-0.737,0.152-1.041,0.152-1.333,0c-0.204-0.101-0.445-0.342-0.445-0.546
		c0-0.101,0.203-0.292,0.647-0.736c0.839-0.788,1.219-1.486,1.372-2.223c0.051-0.152,0.051-0.152-0.102-0.152
		c-0.204,0-0.825,0.253-1.32,0.496c-1.018,0.609-1.334,0.101-1.486-0.103C45.746,29.155,45.746,29.118,45.949,28.875"/>
	<path d="M52.968,29.117c0.508-0.508,0.813-0.687,1.524-0.889c0.151-0.051,0.457-0.051,0.712-0.051
		c1.32-0.052,2.031,0.609,2.031,1.778c0,0.609-0.306,1.308-0.966,2.323c-1.485,1.817-1.815,2.909-1.765,2.959
		c0,0,1.054-0.354,2.286-0.254c0.521,0.039,0.863,0.394,0.761,0.7c-0.102,0.202-0.254,0.253-0.862,0.304
		c-1.512,0.114-2.135,0.507-2.337,0.61c-0.712,0.304-1.309,0.203-1.562-0.153c-0.103-0.203-0.103-0.635,0.102-1.36
		c0.546-1.917,2.312-4.012,2.565-4.469c0.572-0.648,0.038-1.193-0.165-1.144c-0.559,0-0.8-0.049-1.359,0.611
		c-0.774,0.862-1.32,0.152-1.422-0.103C52.46,29.878,52.714,29.422,52.968,29.117"/>
	<path d="M71.234,4.14c0.291-0.292,1.142-0.737,1.879-0.938c0.241-0.052,0.481-0.027,0.876-0.052
		c1.614-0.101,1.626,0.978,1.575,1.473c0,0.445-0.141,0.801-0.534,1.486c-0.1,0.241-0.254,0.445-0.202,0.445
		c0,0,0.14,0.088,0.342,0.139c1.08,0.546,1.131,1.727,0.103,3.353c-0.496,0.787-1.474,1.637-2.21,1.88
		c-0.636,0.241-1.385-0.103-1.436-0.648c0-0.152,0.051-0.191,0.292-0.292c1.131-0.636,1.88-1.435,2.324-2.463
		c0.343-0.889,0.343-0.889-0.444-0.687c-0.736,0.152-1.041,0.152-1.333,0c-0.204-0.101-0.444-0.342-0.444-0.546
		c0-0.101,0.203-0.292,0.646-0.736c0.839-0.788,1.22-1.486,1.372-2.223c0.051-0.152,0.051-0.152-0.101-0.152
		c-0.204,0-0.826,0.253-1.321,0.496c-1.017,0.609-1.334,0.101-1.486-0.103C71.03,4.42,71.03,4.383,71.234,4.14"/>
	<path d="M77.568,4.14c0.291-0.292,1.142-0.737,1.879-0.938c0.241-0.052,0.481-0.027,0.876-0.052
		c1.613-0.101,1.626,0.978,1.575,1.473c0,0.445-0.141,0.801-0.534,1.486c-0.102,0.241-0.254,0.445-0.202,0.445
		c0,0,0.14,0.088,0.342,0.139c1.08,0.546,1.131,1.727,0.103,3.353c-0.496,0.787-1.474,1.637-2.21,1.88
		c-0.636,0.241-1.385-0.103-1.436-0.648c0-0.152,0.051-0.191,0.292-0.292c1.131-0.636,1.88-1.435,2.324-2.463
		c0.343-0.889,0.343-0.889-0.444-0.687c-0.736,0.152-1.041,0.152-1.333,0c-0.203-0.101-0.444-0.342-0.444-0.546
		c0-0.101,0.203-0.292,0.646-0.736c0.839-0.788,1.22-1.486,1.372-2.223c0.051-0.152,0.051-0.152-0.101-0.152
		c-0.204,0-0.826,0.253-1.321,0.496c-1.017,0.609-1.334,0.101-1.486-0.103C77.364,4.42,77.364,4.383,77.568,4.14"/>
	<path d="M101.825,5.39c0.291-0.292,1.142-0.737,1.879-0.939c0.241-0.051,0.481-0.026,0.876-0.051
		c1.613-0.101,1.626,0.978,1.575,1.473c0,0.445-0.141,0.801-0.534,1.486c-0.101,0.241-0.254,0.445-0.202,0.445
		c0,0,0.14,0.088,0.342,0.139c1.08,0.546,1.131,1.727,0.103,3.352c-0.496,0.788-1.474,1.638-2.21,1.881
		c-0.635,0.241-1.385-0.103-1.436-0.648c0-0.152,0.051-0.191,0.292-0.292c1.131-0.636,1.88-1.435,2.324-2.463
		c0.343-0.889,0.343-0.889-0.444-0.687c-0.736,0.152-1.041,0.152-1.333,0c-0.204-0.101-0.444-0.342-0.444-0.546
		c0-0.101,0.203-0.292,0.646-0.736c0.839-0.788,1.22-1.486,1.372-2.223c0.051-0.152,0.051-0.152-0.101-0.152
		c-0.204,0-0.826,0.253-1.321,0.496c-1.017,0.609-1.334,0.101-1.486-0.103C101.621,5.67,101.621,5.633,101.825,5.39"/>
	<path d="M108.832,4.641c0-0.05,0.101-0.101,0.151-0.101c0.293-0.152,0.94,0.051,1.131,0.342c0.152,0.292-0.013,2.072-0.254,3.099
		c-0.19,0.736-0.19,0.687,0.203,0.687c0.635-0.052,0.534,0.037,0.584-0.941c0-0.837,0.051-2.247,0.103-2.539
		c0.05-0.292,1.003-0.382,1.168,0.037c0.406,1.017,0.151,2.363,0.151,2.706c0.052,0.584,0.038,0.584,0.191,0.685
		c0.101,0,0.241,0.089,0.343,0.192c0.152,0.101,0.152,0.152,0.202,0.341c0,0.243-0.152,0.395-0.444,0.445
		c-0.189,0.051-0.189,0.051-0.189,0.343c0.051,0.445,0.14,1.626,0.241,2.159c0.177,1.117-0.444,1.321-0.788,1.22
		c-0.342-0.103-0.533-0.243-0.634-0.535c-0.052-0.241-0.293-2.792-0.293-2.844c-0.051-0.191-0.051-0.203-0.787-0.152
		c-0.928,0.051-1.182,0.012-1.424-0.14c-0.493-0.292-0.532-0.636-0.189-1.817C108.691,6.534,108.729,4.833,108.832,4.641"/>
	<path d="M110.81,36.569c0.291-0.292,1.142-0.737,1.879-0.938c0.241-0.052,0.482-0.027,0.876-0.052
		c1.613-0.101,1.626,0.978,1.575,1.473c0,0.445-0.14,0.801-0.534,1.486c-0.1,0.241-0.254,0.445-0.202,0.445
		c0,0,0.14,0.088,0.343,0.139c1.079,0.546,1.131,1.727,0.102,3.353c-0.496,0.787-1.473,1.637-2.21,1.88
		c-0.635,0.241-1.384-0.103-1.436-0.648c0-0.152,0.052-0.191,0.292-0.292c1.132-0.636,1.881-1.435,2.324-2.463
		c0.344-0.889,0.344-0.889-0.443-0.688c-0.737,0.152-1.041,0.152-1.333,0c-0.204-0.101-0.445-0.342-0.445-0.546
		c0-0.101,0.203-0.292,0.646-0.736c0.84-0.788,1.22-1.486,1.372-2.223c0.052-0.152,0.052-0.152-0.101-0.152
		c-0.204,0-0.826,0.253-1.321,0.496c-1.017,0.609-1.334,0.101-1.485-0.103C110.606,36.85,110.606,36.812,110.81,36.569"/>
	<path d="M117.283,36.52c0.052-0.243,0.406-0.356,1.982-0.699c0.546-0.101,1.079-0.19,1.13-0.19
		c0.685-0.051,1.232,0.597,0.736,0.889c-0.102,0.05-1.232,0.292-2.02,0.393c-0.496,0.051-0.496,0.051-0.496,1.08
		c-0.05,1.029-0.05,1.042,0.154,1.042c0.101-0.052,0.444-0.052,0.735-0.052c0.94,0,1.385,0.191,1.626,0.685
		c0.825,2.286-1.677,4.776-2.121,4.877c-0.395,0.051-0.838-0.101-1.079-0.342c-0.33-0.471-0.051-0.788,0.292-0.839
		c0.203-0.05,0.293-0.089,0.495-0.292c0.597-0.686,1.08-1.918,1.08-2.807c0-0.342,0-0.354-0.344-0.304
		c-0.698,0.038-1.384,0.255-1.626,0.203c-0.24-0.051-0.584-0.253-0.685-0.496c-0.204-0.341-0.14-2.259,0.101-2.806
		C117.296,36.709,117.283,36.57,117.283,36.52"/>
	<path d="M141.368,26.934c0.291-0.292,1.144-0.737,1.88-0.939c0.24-0.051,0.481-0.026,0.874-0.051
		c1.615-0.101,1.626,0.978,1.576,1.473c0,0.445-0.14,0.801-0.534,1.486c-0.1,0.241-0.254,0.445-0.202,0.445
		c0,0,0.141,0.088,0.344,0.139c1.078,0.546,1.13,1.727,0.101,3.352c-0.496,0.788-1.473,1.638-2.21,1.881
		c-0.635,0.241-1.383-0.103-1.436-0.648c0-0.152,0.053-0.191,0.294-0.292c1.13-0.636,1.879-1.435,2.322-2.463
		c0.345-0.889,0.345-0.889-0.443-0.687c-0.737,0.152-1.041,0.152-1.333,0c-0.204-0.102-0.445-0.342-0.445-0.546
		c0-0.101,0.204-0.292,0.646-0.736c0.84-0.788,1.22-1.486,1.372-2.223c0.052-0.152,0.052-0.152-0.101-0.152
		c-0.204,0-0.825,0.253-1.321,0.496c-1.017,0.609-1.334,0.101-1.485-0.103C141.164,27.213,141.164,27.177,141.368,26.934"/>
	<path d="M149.923,33.042c0.521-0.672,0.839-1.294,0.839-1.713c0-0.103-0.051-0.204-0.051-0.204
		c-0.051-0.052-0.699-0.013-1.27,0.241c-0.813,0.331-0.241,2.133-0.241,2.185C149.25,33.652,149.619,33.411,149.923,33.042
		 M148.578,27.493c0.305-0.877,0.634-1.397,0.889-1.498c0.204-0.051,0.572-0.051,0.776,0.05c0.418,0.203,0.418,0.407,0.049,1.397
		c-0.368,0.825-0.875,2.59-0.825,2.642c0,0,0.152,0,0.304-0.052c0.473-0.152,1.184-0.125,1.614,0
		c1.333,0.408,0.876,2.185,0.773,2.439c-0.368,0.991-1.294,1.956-2.068,2.325c-2.325,0.621-2.629-1.182-2.592-2.274
		C147.576,29.944,148.425,27.746,148.578,27.493"/>
</g>
</svg>
