<?xml version="1.0" encoding="utf-8"?>
<!-- Generator: Adobe Illustrator 16.0.0, SVG Export Plug-In . SVG Version: 6.00 Build 0)  -->
<!DOCTYPE svg PUBLIC "-//W3C//DTD SVG 1.1//EN" "http://www.w3.org/Graphics/SVG/1.1/DTD/svg11.dtd">
<svg version="1.1" xmlns="http://www.w3.org/2000/svg" xmlns:xlink="http://www.w3.org/1999/xlink" x="0px" y="0px"
	 width="303.795px" height="270.427px" viewBox="0 0 303.795 270.427" enable-background="new 0 0 303.795 270.427"
	 xml:space="preserve">
<g id="Layer_1" display="none">
</g>
<g id="Layer_2">
	<g>
		<path opacity="0.6" fill-rule="evenodd" clip-rule="evenodd" fill="#91C848" d="M137.553,138.543V98.086
			c0-22.355-18.083-40.474-40.438-40.474c-21.077,0-40.477,16.818-40.477,40.474v39.9v0.492c0,10.513-8.588,19.02-19.087,19.02
			c-10.511,0-19.527-8.541-19.057-19.02l0.2-37.535c0-55.658,41.082-82.622,78.058-82.622c25.561,0.017,46.157,11.653,59.345,28.36
			c17.085-21.107,40.723-28.343,59.464-28.343c46.403,0,80.948,39.963,82.754,86.27c1.628,41.558-15.079,110.875-103.747,145.618
			c-13.418,3.989-25.902-6.325-24.771-18.957c0.607-6.931,4.111-15.029,15.457-18.281c73.114-20.86,80.57-87.979,77.173-111.107
			c-3.745-25.329-18.695-43.831-45.896-44.251c-23.587-0.369-41.789,17.88-41.804,40.458v40.458
			c0.13,10.709-8.296,18.954-18.643,18.954C145.964,157.498,137.111,149.433,137.553,138.543"/>
		<g>
			<path d="M222.027,17.658c0,1.148-0.933,2.081-2.083,2.081c-1.148,0-2.079-0.932-2.079-2.081c0-1.15,0.931-2.082,2.079-2.082
				C221.095,15.576,222.027,16.508,222.027,17.658"/>
			<path d="M266.184,36.044c0,1.149-0.933,2.082-2.079,2.082c-1.153,0-2.084-0.933-2.084-2.082c0-1.15,0.931-2.082,2.084-2.082
				C265.251,33.962,266.184,34.894,266.184,36.044"/>
			<path d="M293.355,72.684c0,1.149-0.934,2.082-2.083,2.082c-1.147,0-2.08-0.933-2.08-2.082s0.933-2.081,2.08-2.081
				C292.422,70.603,293.355,71.534,293.355,72.684"/>
			<path d="M300.148,110.727c0,1.15-0.932,2.082-2.081,2.082c-1.15,0-2.082-0.932-2.082-2.082c0-1.149,0.932-2.081,2.082-2.081
				C299.217,108.646,300.148,109.578,300.148,110.727"/>
			<path d="M294.669,147.41c0,1.153-0.931,2.084-2.079,2.084c-1.149,0-2.082-0.932-2.082-2.084c0-1.146,0.933-2.079,2.082-2.079
				C293.738,145.331,294.669,146.264,294.669,147.41"/>
			<path d="M272.975,193.651c0,1.147-0.932,2.079-2.081,2.079c-1.148,0-2.082-0.932-2.082-2.079c0-1.15,0.934-2.083,2.082-2.083
				C272.043,191.568,272.975,192.501,272.975,193.651"/>
			<path d="M236.97,229.614c0,1.151-0.934,2.084-2.082,2.084c-1.149,0-2.082-0.933-2.082-2.084c0-1.146,0.933-2.078,2.082-2.078
				C236.036,227.536,236.97,228.468,236.97,229.614"/>
			<path d="M192.133,252.756c0,1.146-0.93,2.079-2.082,2.079c-1.149,0-2.079-0.932-2.079-2.079c0-1.151,0.93-2.084,2.079-2.084
				C191.203,250.672,192.133,251.605,192.133,252.756"/>
			<path d="M173.11,240.526c0,1.151-0.931,2.084-2.081,2.084s-2.082-0.933-2.082-2.084c0-1.147,0.932-2.079,2.082-2.079
				S173.11,239.379,173.11,240.526"/>
			<path d="M182.623,215.393c0,1.147-0.934,2.079-2.082,2.079c-1.151,0-2.083-0.932-2.083-2.079c0-1.151,0.932-2.083,2.083-2.083
				C181.689,213.31,182.623,214.242,182.623,215.393"/>
			<path d="M222.703,196.37c0,1.146-0.932,2.079-2.08,2.079c-1.149,0-2.082-0.933-2.082-2.079c0-1.151,0.933-2.084,2.082-2.084
				C221.771,194.286,222.703,195.219,222.703,196.37"/>
			<path d="M246.479,171.911c0,1.15-0.933,2.082-2.08,2.082c-1.15,0-2.081-0.932-2.081-2.082c0-1.149,0.931-2.081,2.081-2.081
				C245.547,169.83,246.479,170.762,246.479,171.911"/>
			<path d="M262.786,132.511c0,1.146-0.935,2.079-2.083,2.079s-2.082-0.932-2.082-2.079c0-1.152,0.934-2.084,2.082-2.084
				S262.786,131.359,262.786,132.511"/>
			<path d="M261.427,91.07c0,1.149-0.934,2.081-2.082,2.081c-1.15,0-2.082-0.932-2.082-2.081c0-1.15,0.932-2.082,2.082-2.082
				C260.493,88.989,261.427,89.92,261.427,91.07"/>
			<path d="M239.008,62.494c0,1.149-0.93,2.082-2.081,2.082c-1.15,0-2.081-0.933-2.081-2.082c0-1.15,0.931-2.081,2.081-2.081
				C238.078,60.413,239.008,61.344,239.008,62.494"/>
			<path d="M208.48,59.097c0,1.149-0.932,2.081-2.083,2.081c-1.149,0-2.081-0.932-2.081-2.081s0.932-2.081,2.081-2.081
				C207.549,57.016,208.48,57.948,208.48,59.097"/>
			<path d="M184.66,74.721c0,1.15-0.935,2.082-2.082,2.082c-1.148,0-2.081-0.932-2.081-2.082s0.933-2.082,2.081-2.082
				C183.726,72.64,184.66,73.571,184.66,74.721"/>
			<path d="M177.866,91.706c0,1.147-0.932,2.08-2.082,2.08c-1.149,0-2.081-0.932-2.081-2.08c0-1.15,0.932-2.083,2.081-2.083
				C176.935,89.623,177.866,90.556,177.866,91.706"/>
			<path d="M177.866,138.582c0,1.146-0.932,2.079-2.082,2.079c-1.149,0-2.081-0.933-2.081-2.079c0-1.151,0.932-2.083,2.081-2.083
				C176.935,136.499,177.866,137.431,177.866,138.582"/>
			<path d="M160.203,156.966c0,1.148-0.93,2.081-2.081,2.081c-1.149,0-2.08-0.933-2.08-2.081c0-1.15,0.931-2.082,2.08-2.082
				C159.273,154.884,160.203,155.816,160.203,156.966"/>
			<path d="M139.865,141.297c0,1.149-0.931,2.082-2.081,2.082c-1.149,0-2.08-0.932-2.08-2.082s0.931-2.082,2.08-2.082
				C138.935,139.216,139.865,140.148,139.865,141.297"/>
			<path d="M140.503,97.183c0,1.15-0.933,2.083-2.082,2.083s-2.081-0.933-2.081-2.083c0-1.148,0.932-2.079,2.081-2.079
				S140.503,96.035,140.503,97.183"/>
			<path d="M126.917,67.972c0,1.149-0.932,2.082-2.082,2.082s-2.081-0.932-2.081-2.082c0-1.15,0.931-2.082,2.081-2.082
				S126.917,66.822,126.917,67.972"/>
			<path d="M97.069,58.417c0,1.15-0.933,2.082-2.084,2.082c-1.147,0-2.08-0.932-2.08-2.082c0-1.148,0.933-2.081,2.08-2.081
				C96.137,56.336,97.069,57.269,97.069,58.417"/>
			<path d="M68.533,72.004c0,1.148-0.931,2.08-2.082,2.08c-1.148,0-2.08-0.932-2.08-2.08c0-1.15,0.932-2.083,2.08-2.083
				C67.603,69.922,68.533,70.854,68.533,72.004"/>
			<path d="M59.66,99.179c0,1.149-0.935,2.081-2.082,2.081c-1.149,0-2.083-0.932-2.083-2.081c0-1.15,0.934-2.082,2.083-2.082
				C58.726,97.097,59.66,98.029,59.66,99.179"/>
			<path d="M59.66,136.499c0,1.15-0.935,2.083-2.082,2.083c-1.149,0-2.083-0.934-2.083-2.083c0-1.147,0.934-2.079,2.083-2.079
				C58.726,134.419,59.66,135.352,59.66,136.499"/>
			<path d="M45.394,157.603c0,1.149-0.932,2.081-2.081,2.081s-2.081-0.931-2.081-2.081c0-1.15,0.932-2.082,2.081-2.082
				S45.394,156.453,45.394,157.603"/>
			<path d="M20.937,143.335c0,1.15-0.932,2.083-2.082,2.083c-1.148,0-2.08-0.933-2.08-2.083c0-1.147,0.932-2.078,2.08-2.078
				C20.005,141.257,20.937,142.188,20.937,143.335"/>
			<path d="M22.974,88.31c0,1.148-0.931,2.08-2.08,2.08c-1.15,0-2.083-0.932-2.083-2.08c0-1.151,0.933-2.083,2.083-2.083
				C22.043,86.227,22.974,87.159,22.974,88.31"/>
			<path d="M33.167,56.38c0,1.149-0.933,2.081-2.081,2.081c-1.149,0-2.083-0.932-2.083-2.081c0-1.15,0.934-2.082,2.083-2.082
				C32.234,54.298,33.167,55.23,33.167,56.38"/>
			<path d="M64.415,27.89c0,1.149-0.932,2.082-2.082,2.082c-1.149,0-2.08-0.933-2.08-2.082c0-1.15,0.931-2.082,2.08-2.082
				C63.483,25.808,64.415,26.74,64.415,27.89"/>
			<path d="M95.665,19.058c0,1.149-0.933,2.081-2.081,2.081s-2.081-0.932-2.081-2.081s0.933-2.082,2.081-2.082
				S95.665,17.909,95.665,19.058"/>
			<path d="M133.709,26.488c0,1.15-0.931,2.082-2.082,2.082c-1.147,0-2.081-0.932-2.081-2.082c0-1.149,0.934-2.081,2.081-2.081
				C132.778,24.407,133.709,25.339,133.709,26.488"/>
			<path d="M158.209,48.229c0,1.148-0.934,2.08-2.083,2.08c-1.148,0-2.079-0.932-2.079-2.08c0-1.15,0.931-2.083,2.079-2.083
				C157.275,46.146,158.209,47.078,158.209,48.229"/>
			<path d="M183.344,25.129c0,1.149-0.931,2.082-2.081,2.082c-1.149,0-2.081-0.932-2.081-2.082c0-1.149,0.932-2.081,2.081-2.081
				C182.413,23.048,183.344,23.98,183.344,25.129"/>
			<path d="M217.994,0.969c0.175-0.454,0.409-0.74,0.691-0.911c1.427-0.33,1.647,0.8,1.601,1.709
				c-0.126,2.652,0.69,8.792,0.407,8.98c-1.348,0.625-1.728-0.079-1.835-0.473c-0.173-0.69-0.519-4.332-0.519-5.934
				c0-0.971,0.018-0.971-0.22-1.144c-0.453-0.237-0.582-0.346-0.519-0.8C217.695,1.58,217.934,1.203,217.994,0.969"/>
			<path d="M275.025,25.803c0.623-0.628,0.999-0.85,1.88-1.099c0.188-0.064,0.565-0.064,0.882-0.064
				c1.631-0.063,2.51,0.753,2.51,2.199c0,0.752-0.378,1.616-1.193,2.871c-1.838,2.246-2.247,3.596-2.181,3.658
				c0,0,1.301-0.439,2.823-0.314c0.643,0.049,1.067,0.487,0.942,0.865c-0.125,0.25-0.314,0.313-1.067,0.376
				c-1.866,0.141-2.636,0.627-2.887,0.753c-0.879,0.377-1.618,0.251-1.931-0.188c-0.126-0.251-0.126-0.784,0.123-1.681
				c0.675-2.37,2.86-4.959,3.173-5.524c0.705-0.801,0.044-1.474-0.205-1.414c-0.69,0-0.989-0.061-1.68,0.755
				c-0.959,1.065-1.634,0.188-1.756-0.128C274.394,26.743,274.709,26.179,275.025,25.803"/>
			<path d="M280.968,70.34c0.36-0.361,1.413-0.912,2.324-1.16c0.298-0.064,0.595-0.033,1.082-0.064
				c1.995-0.125,2.009,1.209,1.945,1.821c0,0.55-0.171,0.99-0.659,1.836c-0.124,0.299-0.313,0.55-0.249,0.55
				c0,0,0.173,0.109,0.422,0.172c1.335,0.675,1.397,2.134,0.126,4.144c-0.612,0.973-1.819,2.024-2.73,2.323
				c-0.786,0.299-1.71-0.126-1.775-0.8c0-0.188,0.065-0.236,0.364-0.361c1.396-0.786,2.322-1.773,2.872-3.044
				c0.425-1.1,0.425-1.1-0.55-0.85c-0.911,0.189-1.287,0.189-1.65,0c-0.25-0.125-0.549-0.421-0.549-0.674
				c0-0.125,0.254-0.361,0.8-0.911c1.038-0.974,1.507-1.836,1.697-2.747c0.062-0.188,0.062-0.188-0.125-0.188
				c-0.252,0-1.021,0.312-1.633,0.612c-1.259,0.753-1.647,0.125-1.837-0.126C280.719,70.686,280.719,70.64,280.968,70.34"/>
			<path d="M287.23,98.626c0-0.062,0.13-0.125,0.188-0.125c0.364-0.188,1.162,0.063,1.396,0.422
				c0.191,0.361-0.013,2.561-0.312,3.832c-0.234,0.909-0.234,0.848,0.251,0.848c0.784-0.065,0.662,0.045,0.724-1.163
				c0-1.035,0.061-2.777,0.125-3.137c0.062-0.362,1.24-0.474,1.444,0.045c0.501,1.256,0.188,2.92,0.188,3.344
				c0.062,0.722,0.046,0.722,0.236,0.846c0.125,0,0.297,0.11,0.423,0.238c0.187,0.124,0.187,0.188,0.251,0.422
				c0,0.3-0.188,0.488-0.549,0.549c-0.235,0.064-0.235,0.064-0.235,0.425c0.065,0.55,0.174,2.01,0.298,2.668
				c0.218,1.38-0.549,1.633-0.974,1.508c-0.424-0.127-0.659-0.3-0.784-0.661c-0.062-0.298-0.362-3.451-0.362-3.515
				c-0.061-0.237-0.061-0.251-0.973-0.189c-1.146,0.064-1.459,0.016-1.758-0.171c-0.612-0.362-0.657-0.787-0.235-2.247
				C287.061,100.966,287.106,98.862,287.23,98.626"/>
			<path d="M298.802,140.252c0.062-0.301,0.501-0.44,2.449-0.865c0.676-0.125,1.334-0.235,1.397-0.235
				c0.849-0.063,1.522,0.738,0.91,1.1c-0.125,0.062-1.523,0.361-2.494,0.485c-0.615,0.063-0.615,0.063-0.615,1.335
				c-0.059,1.272-0.059,1.288,0.19,1.288c0.126-0.064,0.55-0.064,0.908-0.064c1.162,0,1.712,0.237,2.011,0.847
				c1.02,2.825-2.07,5.903-2.622,6.027c-0.487,0.063-1.036-0.125-1.334-0.422c-0.408-0.582-0.063-0.973,0.36-1.037
				c0.25-0.062,0.361-0.11,0.613-0.361c0.737-0.848,1.333-2.37,1.333-3.47c0-0.422,0-0.438-0.421-0.375
				c-0.866,0.047-1.712,0.316-2.009,0.251c-0.299-0.063-0.723-0.313-0.852-0.613c-0.248-0.422-0.17-2.792,0.129-3.468
				C298.818,140.484,298.802,140.313,298.802,140.252"/>
			<path d="M260.619,192.7c0.642-0.832,1.033-1.6,1.033-2.12c0-0.126-0.062-0.25-0.062-0.25c-0.061-0.065-0.861-0.017-1.569,0.297
				c-1.006,0.409-0.299,2.637-0.299,2.7C259.782,193.452,260.239,193.155,260.619,192.7 M258.952,185.84
				c0.378-1.083,0.787-1.727,1.1-1.851c0.25-0.064,0.707-0.064,0.957,0.061c0.521,0.251,0.521,0.503,0.064,1.727
				c-0.454,1.02-1.086,3.201-1.021,3.266c0,0,0.188,0,0.378-0.064c0.579-0.188,1.458-0.154,1.993,0
				c1.647,0.505,1.082,2.7,0.957,3.013c-0.455,1.226-1.602,2.418-2.561,2.875c-2.871,0.768-3.248-1.461-3.198-2.81
				C257.712,188.87,258.765,186.154,258.952,185.84"/>
			<path d="M229.384,214.304c0.488-0.125,0.93-0.252,0.989-0.252c1.664-0.219,1.9,0.88,1.838,1.366
				c-0.063,0.425-0.425,2.952-0.848,6.406c-0.424,2.776-0.486,2.949-0.862,3.14c-1.585,0.218-1.663-0.739-1.604-1.115
				c0-0.376,0.674-4.616,0.865-5.73c0.124-1.113,0.298-2.15,0.298-2.275c0.064-0.188,0.064-0.188-0.8,0
				c-1.055,0.188-1.664,0.188-2.086,0c-0.317-0.188-0.426-0.377-0.443-0.549C226.687,214.62,228.962,214.432,229.384,214.304"/>
			<path d="M191.744,267.682c0.345-0.753,0.201-1.506-0.408-2.196c-0.206-0.204-0.346-0.33-0.346-0.33
				c-0.204,0-0.69,0.941-0.896,1.632c-0.204,0.549-0.204,1.57,0,1.977c0.141,0.267,0.141,0.282,0.485,0.143
				C190.99,268.766,191.537,268.155,191.744,267.682 M191.602,262.001c0.064-0.346-0.064-0.407-0.677-0.471
				c-0.267,0-0.625-0.079-0.689-0.079c-0.063,0-0.124,0.079-0.267,0.346c-0.202,0.548-0.345,0.957-0.283,1.366
				c0,0.267,0,0.281,0.205,0.281C190.36,263.382,191.46,262.472,191.602,262.001 M188.181,261.327
				c0.407-0.754,0.957-1.241,1.71-1.587c0.956-0.407,2.055,0,1.646,0.55c-0.061,0.142-0.061,0.206,0,0.206
				c1.163,0.016,1.573,0.816,1.634,0.956c0.408,0.692,0.218,1.444-0.673,2.261c-0.267,0.204-0.409,0.408-0.409,0.408
				c0.062,0.062,0.345,0.281,0.611,0.548c1.648,1.648,1.568,3.691-0.144,5.056c-0.689,0.472-1.08,0.689-1.977,0.689
				c-1.616,0.142-2.055-0.815-2.322-1.365c-0.55-1.16-0.284-3.152,0.611-4.113c0.065-0.139,0.203-0.267,0.203-0.328
				c0,0-0.77-0.126-1.158-0.958C187.647,263.099,187.708,262.283,188.181,261.327"/>
			<path d="M160.43,230.687c0.19-0.392,0.331-0.847,0.331-0.972c0.063-0.127-0.141-0.142-0.532,0.125
				c-0.519,0.394-1.899,1.286-1.76,2.479C158.469,232.319,159.538,232.367,160.43,230.687 M157.103,230.498
				c0.581-0.846,1.508-1.568,2.418-1.961c1.43-0.455,2.874,0.141,2.874,1.178c0,0.125,0.062,0.392,0.124,0.455
				c0.126,0.188,0.126,0.267-0.062,1.632c-0.268,2.213-0.33,2.856-0.33,4.943c0,1.115,0,2.025-0.063,2.15
				c-0.878,0.692-1.647,0.206-1.834-0.125c-0.268-0.33-0.065-5.354-0.065-5.354s-0.122,0.018-0.249,0.079
				c-2.545,1.192-3.329-0.455-3.392-0.911C156.397,231.927,156.522,231.348,157.103,230.498"/>
			<path d="M187.145,215.491c0.171-0.455,0.407-0.74,0.69-0.91c1.428-0.33,1.646,0.799,1.6,1.708
				c-0.125,2.653,0.691,8.792,0.409,8.981c-1.352,0.625-1.728-0.079-1.835-0.474c-0.174-0.689-0.517-4.331-0.517-5.933
				c0-0.971,0.014-0.971-0.223-1.145c-0.456-0.237-0.58-0.346-0.52-0.8C186.846,216.102,187.083,215.725,187.145,215.491"/>
			<path d="M196.451,219.634c0.06-1.129-0.065-1.916-0.488-2.762c-0.143-0.345-0.347-0.707-0.347-0.707
				c-2.43,1.366-2.321,7.047-1.348,7.912C196.401,222.302,196.386,220.967,196.451,219.634 M194.062,214.769
				c0.144-0.143,0.362-0.283,0.567-0.283c0.344-0.142,0.971-0.063,1.396,0.141c2.181,0.486,2.545,4.379,2.402,5.715
				c-0.094,2.04-1.271,3.594-1.837,4.159c-0.771,0.769-1.131,0.973-2.04,0.988c-1.979,0.048-2.481-1.429-2.541-1.773
				c-0.427-1.335-0.349-3.597,0.138-5.289c0.285-1.054,0.852-2.122,1.414-2.607c0.204-0.204,0.219-0.361,0.219-0.564
				C193.78,215.051,193.86,214.974,194.062,214.769"/>
			<path d="M214.598,178.957c0.175-0.455,0.407-0.74,0.691-0.91c1.426-0.331,1.648,0.799,1.602,1.708
				c-0.128,2.652,0.69,8.792,0.406,8.981c-1.349,0.625-1.726-0.079-1.834-0.473c-0.174-0.689-0.52-4.331-0.52-5.934
				c0-0.97,0.017-0.97-0.22-1.144c-0.455-0.237-0.581-0.346-0.519-0.801C214.3,179.568,214.536,179.191,214.598,178.957"/>
			<path d="M219.492,178.957c0.173-0.455,0.409-0.74,0.689-0.91c1.43-0.331,1.652,0.799,1.604,1.708
				c-0.129,2.652,0.69,8.792,0.406,8.981c-1.35,0.625-1.725-0.079-1.833-0.473c-0.177-0.689-0.52-4.331-0.52-5.934
				c0-0.97,0.015-0.97-0.221-1.144c-0.455-0.237-0.58-0.346-0.517-0.801C219.191,179.568,219.43,179.191,219.492,178.957"/>
			<path d="M251.961,169.446c0.174-0.456,0.409-0.741,0.69-0.912c1.428-0.33,1.648,0.8,1.603,1.709
				c-0.128,2.653,0.689,8.792,0.406,8.98c-1.348,0.626-1.726-0.079-1.836-0.473c-0.173-0.69-0.517-4.331-0.517-5.933
				c0-0.971,0.017-0.971-0.22-1.144c-0.456-0.237-0.583-0.346-0.521-0.801C251.661,170.056,251.898,169.679,251.961,169.446"/>
			<path d="M257.499,169.822c0.628-0.628,1.006-0.849,1.885-1.098c0.188-0.064,0.564-0.064,0.881-0.064
				c1.63-0.064,2.511,0.753,2.511,2.199c0,0.752-0.38,1.616-1.196,2.871c-1.836,2.246-2.242,3.595-2.181,3.657
				c0,0,1.303-0.438,2.827-0.312c0.643,0.047,1.067,0.486,0.939,0.864c-0.126,0.25-0.314,0.313-1.067,0.376
				c-1.866,0.14-2.636,0.626-2.887,0.754c-0.88,0.375-1.617,0.25-1.932-0.189c-0.123-0.251-0.123-0.785,0.125-1.681
				c0.675-2.37,2.86-4.959,3.169-5.524c0.711-0.801,0.05-1.474-0.2-1.414c-0.692,0-0.989-0.06-1.681,0.757
				c-0.959,1.065-1.633,0.187-1.758-0.128C256.872,170.763,257.188,170.199,257.499,169.822"/>
			<path d="M263.12,137.248c0.171-0.455,0.407-0.741,0.689-0.911c1.43-0.33,1.646,0.799,1.6,1.708
				c-0.124,2.653,0.692,8.792,0.409,8.981c-1.351,0.625-1.726-0.079-1.835-0.473c-0.174-0.69-0.518-4.331-0.518-5.933
				c0-0.971,0.013-0.971-0.222-1.145c-0.452-0.237-0.579-0.346-0.519-0.801C262.819,137.858,263.058,137.481,263.12,137.248"/>
			<path d="M267.808,137.325c0.364-0.361,1.414-0.911,2.324-1.16c0.299-0.064,0.596-0.033,1.084-0.064
				c1.994-0.125,2.01,1.208,1.945,1.82c0,0.55-0.17,0.99-0.658,1.836c-0.126,0.298-0.313,0.551-0.252,0.551
				c0,0,0.176,0.107,0.425,0.17c1.335,0.675,1.397,2.135,0.126,4.144c-0.612,0.974-1.819,2.025-2.73,2.324
				c-0.786,0.298-1.712-0.127-1.775-0.801c0-0.188,0.063-0.236,0.36-0.361c1.398-0.786,2.326-1.773,2.872-3.044
				c0.425-1.099,0.425-1.099-0.546-0.849c-0.911,0.188-1.289,0.188-1.652,0c-0.246-0.125-0.546-0.423-0.546-0.676
				c0-0.125,0.25-0.36,0.798-0.908c1.037-0.975,1.51-1.837,1.696-2.749c0.064-0.188,0.064-0.188-0.126-0.188
				c-0.249,0-1.021,0.313-1.632,0.613c-1.257,0.752-1.646,0.125-1.834-0.127C267.559,137.67,267.559,137.625,267.808,137.325"/>
			<path d="M242.453,87.924c0.171-0.455,0.407-0.741,0.688-0.911c1.43-0.33,1.648,0.8,1.6,1.709
				c-0.123,2.652,0.692,8.792,0.409,8.98c-1.35,0.625-1.726-0.079-1.835-0.472c-0.174-0.689-0.516-4.331-0.516-5.934
				c0-0.971,0.013-0.971-0.223-1.144c-0.453-0.238-0.579-0.347-0.519-0.801C242.152,88.535,242.391,88.158,242.453,87.924"/>
			<path d="M247.976,87.075c0-0.062,0.125-0.125,0.188-0.125c0.362-0.189,1.162,0.062,1.396,0.422
				c0.189,0.36-0.016,2.561-0.312,3.83c-0.236,0.91-0.236,0.85,0.248,0.85c0.786-0.064,0.661,0.045,0.723-1.164
				c0-1.034,0.063-2.777,0.128-3.138c0.06-0.361,1.237-0.471,1.443,0.046c0.502,1.257,0.188,2.92,0.188,3.345
				c0.062,0.721,0.047,0.721,0.236,0.846c0.123,0,0.299,0.109,0.423,0.237c0.188,0.125,0.188,0.187,0.251,0.421
				c0,0.3-0.188,0.488-0.551,0.549c-0.234,0.063-0.234,0.063-0.234,0.424c0.063,0.55,0.172,2.01,0.299,2.668
				c0.22,1.38-0.551,1.633-0.976,1.508c-0.421-0.128-0.657-0.301-0.781-0.662c-0.064-0.297-0.363-3.45-0.363-3.515
				c-0.063-0.236-0.063-0.251-0.974-0.188c-1.145,0.064-1.456,0.015-1.758-0.174c-0.609-0.36-0.658-0.785-0.233-2.245
				C247.802,89.414,247.852,87.311,247.976,87.075"/>
			<path d="M237.7,45.125c0.17-0.456,0.406-0.74,0.688-0.912c1.43-0.329,1.648,0.799,1.599,1.71c-0.123,2.651,0.693,8.792,0.41,8.98
				c-1.35,0.625-1.726-0.08-1.836-0.474c-0.173-0.69-0.517-4.331-0.517-5.932c0-0.972,0.014-0.972-0.221-1.146
				c-0.455-0.237-0.579-0.346-0.519-0.8C237.399,45.735,237.636,45.358,237.7,45.125"/>
			<path d="M242.562,45.14c0.062-0.299,0.501-0.439,2.447-0.864c0.676-0.124,1.335-0.233,1.395-0.233
				c0.852-0.064,1.525,0.737,0.912,1.097c-0.122,0.063-1.522,0.362-2.496,0.487c-0.611,0.062-0.611,0.062-0.611,1.335
				c-0.062,1.271-0.062,1.286,0.188,1.286c0.128-0.063,0.552-0.063,0.911-0.063c1.164,0,1.71,0.236,2.009,0.846
				c1.022,2.826-2.071,5.904-2.619,6.028c-0.488,0.063-1.037-0.124-1.334-0.423c-0.409-0.582-0.064-0.974,0.36-1.037
				c0.25-0.062,0.362-0.109,0.609-0.36c0.739-0.848,1.337-2.37,1.337-3.47c0-0.422,0-0.437-0.425-0.375
				c-0.862,0.047-1.711,0.315-2.009,0.25c-0.296-0.062-0.721-0.312-0.85-0.613c-0.248-0.421-0.171-2.792,0.129-3.468
				C242.577,45.375,242.562,45.203,242.562,45.14"/>
			<path d="M207.808,70.261c0.171-0.455,0.407-0.74,0.69-0.91c1.429-0.331,1.647,0.799,1.6,1.708
				c-0.126,2.653,0.691,8.792,0.409,8.981c-1.351,0.625-1.728-0.08-1.835-0.474c-0.174-0.689-0.519-4.33-0.519-5.932
				c0-0.971,0.013-0.971-0.22-1.145c-0.455-0.236-0.58-0.346-0.52-0.801C207.506,70.872,207.744,70.494,207.808,70.261"/>
			<path d="M215.245,77.888c0.643-0.831,1.035-1.6,1.035-2.119c0-0.125-0.064-0.251-0.064-0.251
				c-0.061-0.062-0.861-0.015-1.567,0.298c-1.007,0.409-0.298,2.636-0.298,2.701C214.413,78.641,214.869,78.343,215.245,77.888
				 M213.582,71.029c0.376-1.083,0.783-1.726,1.099-1.852c0.25-0.063,0.705-0.063,0.957,0.062c0.518,0.251,0.518,0.504,0.063,1.727
				c-0.456,1.02-1.085,3.201-1.021,3.265c0,0,0.188,0,0.374-0.064c0.583-0.188,1.46-0.155,1.994,0
				c1.65,0.504,1.085,2.701,0.959,3.014c-0.456,1.225-1.604,2.418-2.56,2.875c-2.874,0.767-3.249-1.46-3.202-2.811
				C212.341,74.058,213.394,71.341,213.582,71.029"/>
			<path d="M169.082,64.146c0.173-0.454,0.408-0.738,0.69-0.909c1.429-0.331,1.65,0.798,1.602,1.708
				c-0.127,2.653,0.691,8.793,0.407,8.98c-1.348,0.625-1.726-0.079-1.834-0.474c-0.175-0.688-0.519-4.331-0.519-5.932
				c0-0.972,0.015-0.972-0.221-1.145c-0.455-0.236-0.579-0.346-0.519-0.801C168.783,64.757,169.021,64.381,169.082,64.146"/>
			<path d="M176.724,63.297c0.488-0.125,0.927-0.251,0.989-0.251c1.662-0.219,1.899,0.879,1.837,1.366
				c-0.064,0.425-0.425,2.953-0.851,6.405c-0.421,2.778-0.485,2.951-0.862,3.14c-1.585,0.219-1.661-0.738-1.603-1.115
				c0-0.376,0.676-4.615,0.866-5.729c0.123-1.115,0.299-2.151,0.299-2.276c0.062-0.188,0.062-0.188-0.801,0
				c-1.053,0.188-1.664,0.188-2.087,0c-0.312-0.188-0.426-0.376-0.44-0.55C174.024,63.613,176.301,63.425,176.724,63.297"/>
			<path d="M181.991,93.357c0.17-0.454,0.407-0.738,0.688-0.911c1.429-0.33,1.65,0.799,1.603,1.71
				c-0.127,2.652,0.691,8.791,0.406,8.98c-1.35,0.625-1.725-0.079-1.834-0.473c-0.175-0.69-0.518-4.331-0.518-5.932
				c0-0.972,0.013-0.972-0.22-1.145c-0.456-0.237-0.58-0.346-0.521-0.802C181.69,93.968,181.929,93.592,181.991,93.357"/>
			<path d="M190.528,100.56c0.346-0.752,0.202-1.505-0.408-2.197c-0.207-0.203-0.347-0.328-0.347-0.328
				c-0.206,0-0.691,0.94-0.895,1.632c-0.204,0.549-0.204,1.571,0,1.977c0.143,0.267,0.143,0.282,0.485,0.142
				C189.773,101.644,190.321,101.034,190.528,100.56 M190.388,94.878c0.06-0.345-0.066-0.407-0.678-0.469
				c-0.267,0-0.628-0.079-0.688-0.079c-0.066,0-0.127,0.079-0.266,0.346c-0.206,0.549-0.347,0.957-0.287,1.366
				c0,0.267,0,0.281,0.206,0.281C189.145,96.26,190.244,95.35,190.388,94.878 M186.965,94.205c0.407-0.752,0.958-1.241,1.71-1.587
				c0.959-0.406,2.056,0,1.646,0.551c-0.062,0.141-0.062,0.205,0,0.205c1.164,0.015,1.572,0.816,1.633,0.957
				c0.41,0.691,0.22,1.444-0.674,2.26c-0.268,0.204-0.406,0.408-0.406,0.408c0.06,0.063,0.345,0.282,0.611,0.549
				c1.646,1.647,1.567,3.691-0.143,5.055c-0.691,0.471-1.083,0.69-1.979,0.69c-1.616,0.141-2.054-0.816-2.321-1.366
				c-0.552-1.159-0.284-3.153,0.614-4.112c0.059-0.139,0.2-0.266,0.2-0.329c0,0-0.77-0.126-1.161-0.958
				C186.43,95.977,186.491,95.162,186.965,94.205"/>
			<path d="M161.086,125.8c0.175-0.454,0.41-0.74,0.69-0.911c1.428-0.33,1.648,0.8,1.604,1.71c-0.128,2.652,0.688,8.792,0.405,8.98
				c-1.349,0.625-1.726-0.079-1.836-0.473c-0.174-0.69-0.519-4.332-0.519-5.933c0-0.973,0.017-0.973-0.219-1.145
				c-0.456-0.238-0.581-0.347-0.519-0.801C160.788,126.41,161.024,126.033,161.086,125.8"/>
			<path d="M169.561,127.257c0.188-0.392,0.331-0.847,0.331-0.972c0.062-0.128-0.143-0.142-0.536,0.125
				c-0.518,0.394-1.898,1.287-1.757,2.479C167.599,128.89,168.666,128.938,169.561,127.257 M166.234,127.069
				c0.579-0.847,1.506-1.569,2.417-1.962c1.428-0.455,2.87,0.142,2.87,1.178c0,0.125,0.065,0.392,0.128,0.455
				c0.125,0.188,0.125,0.267-0.062,1.633c-0.268,2.213-0.333,2.856-0.333,4.943c0,1.115,0,2.024-0.061,2.149
				c-0.88,0.692-1.648,0.207-1.838-0.125c-0.267-0.33-0.061-5.353-0.061-5.353s-0.125,0.018-0.25,0.079
				c-2.544,1.192-3.33-0.454-3.394-0.911C165.526,128.498,165.651,127.919,166.234,127.069"/>
			<path d="M152.912,140.753c0.626-0.628,1.005-0.85,1.883-1.099c0.188-0.063,0.566-0.063,0.881-0.063
				c1.631-0.064,2.511,0.752,2.511,2.197c0,0.753-0.377,1.617-1.194,2.872c-1.835,2.246-2.244,3.595-2.181,3.658
				c0,0,1.301-0.438,2.825-0.315c0.643,0.048,1.067,0.488,0.94,0.866c-0.124,0.25-0.314,0.312-1.066,0.376
				c-1.868,0.14-2.638,0.627-2.889,0.753c-0.88,0.376-1.616,0.251-1.931-0.188c-0.126-0.251-0.126-0.785,0.126-1.682
				c0.675-2.369,2.858-4.958,3.17-5.524c0.707-0.8,0.048-1.474-0.204-1.413c-0.69,0-0.988-0.061-1.68,0.755
				c-0.956,1.065-1.632,0.188-1.757-0.128C152.283,141.695,152.598,141.13,152.912,140.753"/>
			<path d="M164.664,144.519c0.064-1.128-0.063-1.915-0.486-2.761c-0.143-0.346-0.347-0.707-0.347-0.707
				c-2.432,1.366-2.322,7.047-1.348,7.911C164.616,147.188,164.601,145.853,164.664,144.519 M162.278,139.654
				c0.142-0.142,0.359-0.283,0.565-0.283c0.346-0.143,0.973-0.063,1.396,0.141c2.183,0.486,2.541,4.378,2.403,5.713
				c-0.097,2.041-1.273,3.594-1.839,4.158c-0.77,0.771-1.131,0.975-2.04,0.989c-1.978,0.049-2.479-1.429-2.544-1.772
				c-0.422-1.335-0.346-3.597,0.143-5.29c0.282-1.053,0.848-2.121,1.412-2.606c0.204-0.204,0.22-0.361,0.22-0.565
				C161.995,139.936,162.074,139.858,162.278,139.654"/>
			<path d="M124.708,144.221c0.631-0.627,1.006-0.849,1.885-1.099c0.189-0.063,0.567-0.063,0.879-0.063
				c1.634-0.065,2.513,0.753,2.513,2.198c0,0.752-0.378,1.616-1.193,2.871c-1.837,2.245-2.245,3.595-2.183,3.657
				c0,0,1.305-0.437,2.827-0.314c0.644,0.048,1.065,0.487,0.938,0.865c-0.123,0.25-0.313,0.312-1.065,0.376
				c-1.867,0.141-2.637,0.626-2.887,0.754c-0.88,0.375-1.618,0.251-1.934-0.19c-0.124-0.25-0.124-0.785,0.128-1.681
				c0.674-2.37,2.855-4.958,3.17-5.523c0.707-0.802,0.046-1.475-0.203-1.414c-0.691,0-0.99-0.061-1.681,0.755
				c-0.957,1.065-1.632,0.188-1.759-0.128C124.081,145.162,124.395,144.598,124.708,144.221"/>
			<path d="M132.051,143.844c0.172-0.455,0.409-0.74,0.689-0.911c1.429-0.33,1.648,0.8,1.602,1.709
				c-0.126,2.653,0.691,8.792,0.407,8.98c-1.349,0.625-1.725-0.079-1.836-0.473c-0.173-0.69-0.516-4.331-0.516-5.933
				c0-0.971,0.014-0.971-0.222-1.145c-0.455-0.237-0.579-0.346-0.518-0.801C131.751,144.455,131.988,144.079,132.051,143.844"/>
			<path d="M144.02,89.292c0.627-0.628,1.006-0.849,1.884-1.099c0.187-0.063,0.566-0.063,0.88-0.063
				c1.631-0.064,2.511,0.753,2.511,2.198c0,0.752-0.378,1.616-1.194,2.87c-1.835,2.247-2.244,3.596-2.18,3.658
				c0,0,1.302-0.438,2.824-0.313c0.645,0.048,1.066,0.486,0.942,0.866c-0.126,0.249-0.314,0.312-1.068,0.375
				c-1.868,0.141-2.638,0.627-2.888,0.754c-0.88,0.376-1.618,0.25-1.931-0.19c-0.126-0.251-0.126-0.785,0.126-1.68
				c0.675-2.369,2.857-4.959,3.17-5.524c0.706-0.8,0.048-1.474-0.204-1.413c-0.689,0-0.988-0.061-1.68,0.755
				c-0.957,1.064-1.633,0.188-1.757-0.128C143.393,90.232,143.706,89.669,144.02,89.292"/>
			<path d="M152.006,89.292c0.627-0.628,1.004-0.849,1.882-1.099c0.188-0.063,0.565-0.063,0.88-0.063
				c1.632-0.064,2.511,0.753,2.511,2.198c0,0.752-0.377,1.616-1.193,2.87c-1.836,2.247-2.244,3.596-2.182,3.658
				c0,0,1.304-0.438,2.826-0.313c0.645,0.048,1.067,0.486,0.941,0.866c-0.125,0.249-0.314,0.312-1.067,0.375
				c-1.866,0.141-2.637,0.627-2.887,0.754c-0.88,0.376-1.619,0.25-1.934-0.19c-0.124-0.251-0.124-0.785,0.128-1.68
				c0.675-2.369,2.856-4.959,3.169-5.524c0.708-0.8,0.048-1.474-0.203-1.413c-0.69,0-0.989-0.061-1.68,0.755
				c-0.958,1.064-1.633,0.188-1.758-0.128C151.377,90.232,151.691,89.669,152.006,89.292"/>
			<path d="M106.55,67.24c0.626-0.628,1.004-0.85,1.883-1.099c0.188-0.062,0.564-0.062,0.879-0.062
				c1.632-0.064,2.51,0.752,2.51,2.197c0,0.753-0.377,1.617-1.191,2.872c-1.837,2.245-2.245,3.596-2.184,3.657
				c0,0,1.305-0.438,2.826-0.312c0.644,0.048,1.066,0.485,0.942,0.864c-0.126,0.249-0.314,0.312-1.068,0.377
				c-1.867,0.14-2.637,0.625-2.887,0.753c-0.879,0.375-1.616,0.25-1.933-0.19c-0.126-0.251-0.126-0.785,0.128-1.682
				c0.674-2.368,2.856-4.958,3.17-5.522c0.706-0.802,0.045-1.476-0.204-1.415c-0.69,0-0.988-0.061-1.679,0.755
				c-0.961,1.065-1.634,0.188-1.758-0.127C105.92,68.181,106.234,67.616,106.55,67.24"/>
			<path d="M113.686,66.939c0.36-0.36,1.412-0.91,2.323-1.159c0.299-0.064,0.595-0.033,1.083-0.064
				c1.993-0.125,2.01,1.208,1.945,1.82c0,0.551-0.173,0.99-0.659,1.837c-0.126,0.298-0.313,0.551-0.249,0.551
				c0,0,0.172,0.108,0.423,0.172c1.335,0.674,1.396,2.133,0.125,4.142c-0.612,0.974-1.82,2.025-2.73,2.325
				c-0.785,0.298-1.711-0.127-1.774-0.801c0-0.188,0.063-0.237,0.36-0.361c1.398-0.787,2.324-1.774,2.874-3.045
				c0.423-1.098,0.423-1.098-0.55-0.849c-0.91,0.188-1.286,0.188-1.649,0c-0.251-0.125-0.547-0.422-0.547-0.675
				c0-0.125,0.248-0.361,0.798-0.909c1.038-0.976,1.507-1.836,1.696-2.748c0.063-0.188,0.063-0.188-0.125-0.188
				c-0.252,0-1.021,0.314-1.632,0.614c-1.257,0.753-1.649,0.124-1.836-0.127C113.435,67.285,113.435,67.24,113.686,66.939"/>
			<path d="M87.043,43.917c0.627-0.628,1.005-0.849,1.884-1.099c0.187-0.062,0.566-0.062,0.881-0.062
				c1.629-0.065,2.511,0.752,2.511,2.197c0,0.754-0.38,1.618-1.195,2.872c-1.835,2.246-2.243,3.595-2.182,3.657
				c0,0,1.303-0.438,2.826-0.312c0.644,0.048,1.067,0.485,0.942,0.863c-0.126,0.25-0.315,0.312-1.068,0.376
				c-1.868,0.141-2.638,0.626-2.888,0.754c-0.881,0.375-1.616,0.25-1.931-0.189c-0.128-0.25-0.128-0.785,0.124-1.681
				c0.676-2.369,2.86-4.958,3.171-5.523c0.708-0.801,0.048-1.474-0.202-1.415c-0.689,0-0.989-0.06-1.682,0.755
				c-0.956,1.066-1.631,0.188-1.756-0.127C86.414,44.857,86.729,44.294,87.043,43.917"/>
			<path d="M95.012,42.691c0-0.062,0.125-0.125,0.188-0.125c0.362-0.187,1.161,0.063,1.396,0.424c0.189,0.36-0.015,2.56-0.312,3.83
				c-0.236,0.909-0.236,0.849,0.252,0.849c0.783-0.064,0.656,0.045,0.721-1.163c0-1.035,0.062-2.777,0.125-3.138
				s1.241-0.473,1.445,0.045c0.501,1.257,0.188,2.921,0.188,3.345c0.062,0.721,0.047,0.721,0.235,0.847
				c0.125,0,0.297,0.109,0.425,0.236c0.187,0.125,0.187,0.188,0.25,0.422c0,0.3-0.188,0.488-0.55,0.55
				c-0.234,0.063-0.234,0.063-0.234,0.424c0.062,0.55,0.174,2.01,0.297,2.668c0.219,1.381-0.548,1.632-0.975,1.508
				c-0.422-0.126-0.658-0.3-0.783-0.661c-0.062-0.297-0.36-3.451-0.36-3.515c-0.062-0.235-0.062-0.25-0.974-0.188
				c-1.146,0.062-1.46,0.014-1.759-0.173c-0.611-0.361-0.659-0.786-0.235-2.246C94.841,45.032,94.886,42.927,95.012,42.691"/>
			<path d="M74.698,79.941c0.627-0.628,1.005-0.848,1.884-1.098c0.186-0.064,0.564-0.064,0.879-0.064
				c1.631-0.064,2.512,0.752,2.512,2.199c0,0.752-0.378,1.616-1.194,2.87c-1.835,2.246-2.243,3.596-2.181,3.658
				c0,0,1.302-0.438,2.824-0.313c0.644,0.048,1.068,0.485,0.941,0.864c-0.125,0.25-0.314,0.312-1.066,0.375
				c-1.868,0.141-2.638,0.626-2.889,0.754c-0.88,0.375-1.616,0.25-1.93-0.189c-0.127-0.251-0.127-0.785,0.125-1.681
				c0.675-2.369,2.857-4.958,3.171-5.524c0.707-0.801,0.047-1.474-0.205-1.414c-0.688,0-0.987-0.061-1.68,0.756
				c-0.957,1.064-1.632,0.187-1.757-0.128C74.07,80.882,74.384,80.318,74.698,79.941"/>
			<path d="M82.007,79.58c0.064-0.301,0.502-0.439,2.451-0.863c0.674-0.125,1.333-0.235,1.395-0.235
				c0.849-0.063,1.524,0.738,0.91,1.098c-0.124,0.063-1.522,0.361-2.494,0.486c-0.614,0.063-0.614,0.063-0.614,1.335
				c-0.062,1.272-0.062,1.287,0.19,1.287c0.124-0.062,0.55-0.062,0.909-0.062c1.162,0,1.712,0.236,2.009,0.846
				c1.022,2.825-2.071,5.903-2.619,6.028c-0.489,0.062-1.038-0.125-1.335-0.423c-0.407-0.582-0.063-0.974,0.361-1.036
				c0.25-0.063,0.359-0.111,0.611-0.362c0.737-0.847,1.334-2.37,1.334-3.468c0-0.423,0-0.438-0.424-0.378
				c-0.862,0.049-1.71,0.317-2.009,0.252c-0.296-0.063-0.723-0.312-0.848-0.613c-0.251-0.421-0.173-2.792,0.125-3.468
				C82.023,79.813,82.007,79.643,82.007,79.58"/>
			<path d="M39.71,100.786c0.627-0.628,1.005-0.849,1.885-1.099c0.188-0.063,0.565-0.063,0.88-0.063
				c1.633-0.064,2.511,0.752,2.511,2.198c0,0.752-0.378,1.616-1.193,2.871c-1.836,2.246-2.244,3.596-2.182,3.657
				c0,0,1.303-0.437,2.826-0.312c0.643,0.046,1.065,0.485,0.939,0.864c-0.124,0.25-0.314,0.312-1.066,0.376
				c-1.867,0.14-2.637,0.625-2.889,0.753c-0.878,0.376-1.616,0.251-1.93-0.19c-0.126-0.25-0.126-0.785,0.125-1.681
				c0.677-2.369,2.858-4.958,3.172-5.523c0.705-0.8,0.045-1.475-0.207-1.414c-0.688,0-0.986-0.062-1.679,0.755
				c-0.957,1.064-1.631,0.188-1.758-0.127C39.083,101.727,39.396,101.162,39.71,100.786"/>
			<path d="M49.596,108.038c0.643-0.832,1.034-1.601,1.034-2.12c0-0.126-0.061-0.251-0.061-0.251
				c-0.064-0.063-0.865-0.016-1.569,0.298c-1.006,0.409-0.299,2.636-0.299,2.701C48.762,108.79,49.218,108.492,49.596,108.038
				 M47.931,101.178c0.378-1.084,0.786-1.727,1.098-1.852c0.253-0.063,0.708-0.063,0.96,0.062c0.517,0.251,0.517,0.503,0.062,1.726
				c-0.455,1.021-1.083,3.202-1.022,3.266c0,0,0.189,0,0.38-0.064c0.58-0.188,1.459-0.156,1.99,0c1.649,0.503,1.084,2.7,0.96,3.015
				c-0.456,1.224-1.603,2.418-2.559,2.874c-2.875,0.767-3.249-1.459-3.203-2.812C46.691,104.207,47.742,101.491,47.931,101.178"/>
			<path d="M63.753,134.493c0.627-0.628,1.005-0.849,1.884-1.098c0.188-0.063,0.565-0.063,0.88-0.063
				c1.633-0.064,2.51,0.751,2.51,2.197c0,0.753-0.378,1.618-1.192,2.872c-1.836,2.246-2.244,3.595-2.183,3.657
				c0,0,1.303-0.438,2.826-0.313c0.645,0.048,1.066,0.487,0.94,0.865c-0.125,0.25-0.313,0.313-1.065,0.376
				c-1.869,0.141-2.639,0.626-2.888,0.754c-0.88,0.375-1.618,0.25-1.932-0.189c-0.126-0.251-0.126-0.785,0.128-1.681
				c0.674-2.37,2.855-4.959,3.169-5.524c0.706-0.801,0.045-1.475-0.205-1.415c-0.69,0-0.988-0.061-1.679,0.756
				c-0.959,1.065-1.634,0.187-1.76-0.127C63.125,135.434,63.438,134.87,63.753,134.493"/>
			<path d="M73.841,133.268c0.488-0.126,0.926-0.252,0.99-0.252c1.663-0.219,1.898,0.88,1.835,1.366
				c-0.061,0.424-0.424,2.953-0.847,6.406c-0.424,2.777-0.485,2.95-0.864,3.139c-1.585,0.219-1.663-0.738-1.601-1.115
				c0-0.375,0.675-4.615,0.863-5.729c0.126-1.114,0.298-2.152,0.298-2.277c0.062-0.187,0.062-0.187-0.801,0
				c-1.052,0.188-1.663,0.188-2.087,0c-0.314-0.187-0.424-0.377-0.438-0.549C71.142,133.583,73.417,133.395,73.841,133.268"/>
			<path d="M32.98,140.546c0.628-0.628,1.005-0.849,1.884-1.099c0.188-0.062,0.566-0.062,0.88-0.062
				c1.631-0.064,2.511,0.753,2.511,2.196c0,0.753-0.377,1.618-1.194,2.872c-1.836,2.246-2.243,3.596-2.18,3.658
				c0,0,1.302-0.439,2.824-0.314c0.644,0.048,1.068,0.486,0.94,0.866c-0.124,0.25-0.314,0.313-1.067,0.376
				c-1.866,0.141-2.635,0.626-2.887,0.753c-0.88,0.376-1.617,0.25-1.931-0.189c-0.126-0.25-0.126-0.785,0.125-1.68
				c0.676-2.37,2.858-4.958,3.171-5.524c0.708-0.801,0.048-1.475-0.204-1.414c-0.692,0-0.988-0.062-1.68,0.755
				c-0.957,1.065-1.632,0.188-1.758-0.128C32.354,141.486,32.666,140.922,32.98,140.546"/>
			<path d="M43.965,147.372c0.344-0.754,0.201-1.506-0.409-2.198c-0.205-0.202-0.346-0.327-0.346-0.327
				c-0.205,0-0.69,0.94-0.896,1.632c-0.202,0.548-0.202,1.569,0,1.977c0.143,0.267,0.143,0.281,0.488,0.142
				C43.21,148.456,43.759,147.845,43.965,147.372 M43.822,141.69c0.062-0.345-0.063-0.407-0.676-0.47
				c-0.267,0-0.627-0.079-0.689-0.079c-0.063,0-0.126,0.079-0.267,0.345c-0.205,0.55-0.347,0.957-0.284,1.366
				c0,0.268,0,0.282,0.206,0.282C42.58,143.072,43.681,142.16,43.822,141.69 M40.401,141.016c0.407-0.752,0.957-1.241,1.711-1.588
				c0.958-0.405,2.054,0,1.646,0.551c-0.062,0.142-0.062,0.205,0,0.205c1.162,0.016,1.571,0.817,1.633,0.957
				c0.408,0.692,0.22,1.445-0.675,2.26c-0.267,0.204-0.408,0.408-0.408,0.408c0.062,0.062,0.347,0.281,0.612,0.549
				c1.648,1.647,1.569,3.689-0.141,5.055c-0.691,0.47-1.083,0.69-1.978,0.69c-1.616,0.141-2.057-0.816-2.325-1.367
				c-0.548-1.158-0.281-3.152,0.614-4.111c0.062-0.14,0.202-0.267,0.202-0.329c0,0-0.769-0.125-1.16-0.958
				C39.868,142.789,39.93,141.973,40.401,141.016"/>
			<path d="M0.573,140.607c0.629-0.627,1.005-0.849,1.884-1.099c0.188-0.062,0.565-0.062,0.879-0.062
				c1.632-0.064,2.51,0.753,2.51,2.198c0,0.752-0.375,1.617-1.192,2.871c-1.836,2.246-2.244,3.595-2.181,3.657
				c0,0,1.303-0.438,2.826-0.312c0.645,0.048,1.067,0.485,0.938,0.863c-0.123,0.25-0.312,0.312-1.064,0.377
				c-1.868,0.139-2.637,0.625-2.889,0.752c-0.879,0.376-1.617,0.252-1.932-0.188c-0.125-0.251-0.125-0.786,0.128-1.68
				c0.675-2.371,2.855-4.96,3.169-5.526c0.707-0.801,0.047-1.474-0.204-1.414c-0.69,0-0.988-0.06-1.68,0.755
				c-0.957,1.066-1.632,0.188-1.758-0.128C-0.056,141.548,0.26,140.984,0.573,140.607"/>
			<path d="M11.494,141.688c0.187-0.392,0.33-0.847,0.33-0.973c0.062-0.126-0.144-0.141-0.534,0.125
				c-0.519,0.394-1.898,1.287-1.76,2.479C9.53,143.321,10.599,143.369,11.494,141.688 M8.166,141.5
				c0.58-0.847,1.506-1.57,2.418-1.962c1.427-0.455,2.871,0.14,2.871,1.177c0,0.125,0.063,0.393,0.126,0.455
				c0.127,0.189,0.127,0.268-0.062,1.633c-0.268,2.214-0.33,2.856-0.33,4.943c0,1.116,0,2.025-0.062,2.15
				c-0.879,0.692-1.647,0.207-1.836-0.125c-0.268-0.331-0.062-5.353-0.062-5.353s-0.126,0.017-0.251,0.079
				c-2.545,1.193-3.328-0.455-3.392-0.911C7.459,142.929,7.585,142.349,8.166,141.5"/>
			<path d="M27.361,84.878c0.359-0.361,1.41-0.911,2.321-1.161c0.301-0.062,0.597-0.032,1.083-0.062
				c1.994-0.125,2.01,1.208,1.946,1.819c0,0.551-0.171,0.99-0.658,1.838c-0.124,0.297-0.315,0.549-0.252,0.549
				c0,0,0.175,0.108,0.424,0.172c1.336,0.675,1.398,2.134,0.127,4.143c-0.614,0.974-1.82,2.024-2.732,2.326
				c-0.785,0.297-1.71-0.128-1.773-0.802c0-0.188,0.063-0.236,0.361-0.36c1.397-0.787,2.324-1.774,2.871-3.045
				c0.424-1.098,0.424-1.098-0.547-0.848c-0.912,0.188-1.288,0.188-1.648,0c-0.252-0.125-0.552-0.423-0.552-0.675
				c0-0.125,0.252-0.361,0.801-0.909c1.037-0.975,1.508-1.836,1.696-2.748c0.063-0.188,0.063-0.188-0.126-0.188
				c-0.252,0-1.021,0.313-1.632,0.613c-1.256,0.752-1.647,0.125-1.838-0.128C27.107,85.224,27.107,85.178,27.361,84.878"/>
			<path d="M39.804,88.944c0.064-1.129-0.063-1.915-0.487-2.761c-0.141-0.346-0.345-0.708-0.345-0.708
				c-2.432,1.366-2.323,7.048-1.349,7.913C39.757,91.612,39.74,90.278,39.804,88.944 M37.417,84.079
				c0.141-0.142,0.361-0.282,0.566-0.282c0.345-0.142,0.974-0.063,1.395,0.14c2.184,0.485,2.543,4.379,2.404,5.714
				c-0.096,2.04-1.273,3.593-1.838,4.158c-0.769,0.77-1.129,0.974-2.041,0.989c-1.977,0.048-2.479-1.429-2.543-1.773
				c-0.423-1.335-0.344-3.595,0.143-5.29c0.282-1.053,0.846-2.12,1.412-2.606c0.205-0.204,0.219-0.361,0.219-0.565
				C37.134,84.361,37.214,84.283,37.417,84.079"/>
			<path d="M37.167,60.205c0.36-0.36,1.412-0.911,2.323-1.159c0.297-0.064,0.596-0.033,1.081-0.064
				c1.995-0.125,2.009,1.209,1.948,1.82c0,0.55-0.172,0.989-0.658,1.836c-0.126,0.299-0.315,0.551-0.252,0.551
				c0,0,0.174,0.108,0.423,0.171c1.336,0.674,1.399,2.134,0.125,4.144c-0.611,0.973-1.82,2.024-2.731,2.324
				c-0.783,0.298-1.709-0.128-1.771-0.801c0-0.188,0.062-0.236,0.36-0.361c1.396-0.786,2.322-1.773,2.873-3.044
				c0.423-1.098,0.423-1.098-0.551-0.849c-0.911,0.187-1.286,0.187-1.646,0c-0.253-0.125-0.552-0.422-0.552-0.675
				c0-0.125,0.252-0.361,0.801-0.909c1.037-0.975,1.508-1.837,1.696-2.748c0.062-0.188,0.062-0.188-0.127-0.188
				c-0.252,0-1.02,0.314-1.632,0.614c-1.255,0.753-1.648,0.124-1.837-0.128C36.915,60.551,36.915,60.505,37.167,60.205"/>
			<path d="M45.2,60.128c0.172-0.455,0.408-0.74,0.69-0.911c1.428-0.33,1.647,0.8,1.6,1.709c-0.125,2.653,0.691,8.793,0.409,8.98
				c-1.351,0.626-1.728-0.079-1.836-0.474c-0.173-0.689-0.517-4.331-0.517-5.932c0-0.973,0.015-0.973-0.222-1.145
				c-0.455-0.237-0.58-0.346-0.52-0.802C44.901,60.739,45.139,60.362,45.2,60.128"/>
			<path d="M56.791,35.688c0.358-0.36,1.412-0.911,2.323-1.159c0.298-0.064,0.595-0.034,1.082-0.064
				c1.993-0.125,2.01,1.209,1.946,1.821c0,0.549-0.173,0.989-0.659,1.836c-0.126,0.297-0.314,0.549-0.25,0.549
				c0,0,0.171,0.109,0.423,0.172c1.335,0.675,1.397,2.135,0.126,4.145c-0.613,0.972-1.821,2.022-2.733,2.323
				c-0.784,0.298-1.709-0.127-1.772-0.801c0-0.188,0.063-0.236,0.361-0.361c1.396-0.787,2.323-1.774,2.871-3.044
				c0.424-1.099,0.424-1.099-0.548-0.85c-0.912,0.188-1.286,0.188-1.646,0c-0.253-0.125-0.552-0.423-0.552-0.675
				c0-0.125,0.252-0.361,0.801-0.91c1.036-0.973,1.507-1.836,1.695-2.747c0.063-0.188,0.063-0.188-0.125-0.188
				c-0.253,0-1.02,0.312-1.632,0.613c-1.258,0.753-1.649,0.125-1.837-0.127C56.54,36.034,56.54,35.988,56.791,35.688"/>
			<path d="M65.466,35.987c0.628-0.627,1.006-0.849,1.885-1.098c0.186-0.063,0.565-0.063,0.88-0.063
				c1.632-0.064,2.51,0.752,2.51,2.198c0,0.752-0.377,1.617-1.194,2.871c-1.834,2.246-2.242,3.596-2.18,3.658
				c0,0,1.303-0.438,2.825-0.314c0.644,0.048,1.067,0.487,0.941,0.865c-0.127,0.25-0.314,0.312-1.066,0.376
				c-1.869,0.14-2.639,0.626-2.889,0.753c-0.88,0.376-1.617,0.251-1.93-0.189c-0.128-0.251-0.128-0.785,0.124-1.681
				c0.676-2.369,2.858-4.958,3.17-5.524c0.708-0.8,0.048-1.474-0.203-1.414c-0.69,0-0.988-0.06-1.68,0.756
				c-0.958,1.065-1.632,0.188-1.758-0.128C64.839,36.929,65.153,36.365,65.466,35.987"/>
			<path d="M88.041,5.117c0.36-0.361,1.411-0.912,2.322-1.16c0.299-0.064,0.597-0.033,1.083-0.064
				c1.995-0.125,2.01,1.209,1.946,1.821c0,0.55-0.173,0.99-0.66,1.837C92.609,7.849,92.419,8.1,92.483,8.1
				c0,0,0.173,0.109,0.422,0.172c1.336,0.674,1.398,2.134,0.127,4.144c-0.613,0.973-1.821,2.023-2.73,2.323
				c-0.785,0.298-1.711-0.127-1.774-0.8c0-0.188,0.063-0.236,0.36-0.361c1.398-0.786,2.323-1.773,2.873-3.044
				c0.425-1.099,0.425-1.099-0.55-0.85c-0.909,0.188-1.286,0.188-1.648,0c-0.252-0.125-0.547-0.422-0.547-0.674
				c0-0.125,0.251-0.361,0.799-0.91c1.037-0.974,1.506-1.836,1.695-2.747c0.062-0.188,0.062-0.188-0.124-0.188
				c-0.253,0-1.022,0.313-1.634,0.613c-1.256,0.752-1.647,0.125-1.836-0.127C87.79,5.463,87.79,5.417,88.041,5.117"/>
			<path d="M95.87,5.117c0.359-0.361,1.411-0.912,2.323-1.16c0.297-0.064,0.595-0.033,1.082-0.064
				c1.994-0.125,2.01,1.209,1.945,1.821c0,0.55-0.173,0.99-0.659,1.837c-0.126,0.297-0.313,0.549-0.249,0.549
				c0,0,0.172,0.109,0.422,0.172c1.335,0.674,1.396,2.134,0.128,4.144c-0.614,0.973-1.822,2.023-2.731,2.323
				c-0.785,0.298-1.712-0.127-1.775-0.8c0-0.188,0.063-0.236,0.361-0.361c1.397-0.786,2.323-1.773,2.873-3.044
				c0.423-1.099,0.423-1.099-0.55-0.85c-0.909,0.188-1.287,0.188-1.648,0c-0.25-0.125-0.548-0.422-0.548-0.674
				c0-0.125,0.251-0.361,0.799-0.91c1.036-0.974,1.507-1.836,1.695-2.747c0.063-0.188,0.063-0.188-0.125-0.188
				c-0.252,0-1.02,0.313-1.632,0.613c-1.258,0.752-1.648,0.125-1.837-0.127C95.619,5.463,95.619,5.417,95.87,5.117"/>
			<path d="M125.851,6.663c0.36-0.361,1.411-0.911,2.321-1.161c0.3-0.062,0.596-0.032,1.083-0.062
				c1.995-0.125,2.01,1.208,1.948,1.82c0,0.55-0.174,0.989-0.661,1.836c-0.124,0.297-0.314,0.549-0.249,0.549
				c0,0,0.173,0.108,0.423,0.172c1.334,0.674,1.397,2.134,0.125,4.143c-0.613,0.974-1.82,2.024-2.729,2.325
				c-0.786,0.298-1.712-0.128-1.775-0.801c0-0.188,0.063-0.236,0.36-0.36c1.398-0.786,2.324-1.774,2.873-3.044
				c0.424-1.099,0.424-1.099-0.549-0.849c-0.909,0.187-1.287,0.187-1.648,0c-0.251-0.125-0.549-0.423-0.549-0.674
				c0-0.125,0.25-0.361,0.8-0.911c1.036-0.974,1.508-1.836,1.695-2.747c0.062-0.188,0.062-0.188-0.124-0.188
				c-0.253,0-1.022,0.312-1.633,0.613c-1.257,0.753-1.65,0.125-1.837-0.127C125.598,7.009,125.598,6.963,125.851,6.663"/>
			<path d="M134.51,5.736c0-0.062,0.126-0.125,0.188-0.125c0.362-0.188,1.163,0.063,1.396,0.423
				c0.189,0.361-0.016,2.561-0.312,3.831c-0.235,0.909-0.235,0.849,0.252,0.849c0.783-0.065,0.66,0.046,0.721-1.164
				c0-1.035,0.062-2.777,0.126-3.138c0.062-0.361,1.241-0.473,1.444,0.045c0.501,1.257,0.187,2.921,0.187,3.345
				c0.063,0.722,0.047,0.722,0.236,0.847c0.125,0,0.3,0.111,0.424,0.237c0.188,0.125,0.188,0.188,0.25,0.422
				c0,0.3-0.188,0.488-0.549,0.549c-0.233,0.063-0.233,0.063-0.233,0.425c0.062,0.55,0.173,2.009,0.298,2.668
				c0.218,1.381-0.55,1.633-0.975,1.508c-0.422-0.127-0.659-0.301-0.784-0.662c-0.062-0.297-0.361-3.451-0.361-3.515
				c-0.062-0.235-0.062-0.251-0.973-0.188c-1.146,0.063-1.46,0.016-1.76-0.173c-0.608-0.36-0.658-0.786-0.234-2.247
				C134.337,8.076,134.385,5.973,134.51,5.736"/>
			<path d="M136.955,45.198c0.361-0.36,1.412-0.91,2.322-1.159c0.3-0.064,0.598-0.034,1.084-0.064
				c1.994-0.125,2.01,1.209,1.947,1.819c0,0.551-0.173,0.99-0.661,1.838c-0.124,0.297-0.314,0.549-0.249,0.549
				c0,0,0.173,0.109,0.424,0.172c1.334,0.674,1.396,2.134,0.124,4.145c-0.613,0.972-1.817,2.022-2.73,2.323
				c-0.785,0.298-1.711-0.127-1.774-0.801c0-0.188,0.063-0.236,0.361-0.361c1.398-0.787,2.326-1.773,2.872-3.044
				c0.425-1.099,0.425-1.099-0.546-0.85c-0.913,0.188-1.289,0.188-1.649,0c-0.252-0.124-0.551-0.422-0.551-0.674
				c0-0.125,0.25-0.361,0.8-0.91c1.037-0.974,1.508-1.836,1.695-2.747c0.064-0.189,0.064-0.189-0.124-0.189
				c-0.252,0-1.022,0.313-1.633,0.613c-1.257,0.753-1.649,0.125-1.836-0.127C136.703,45.544,136.703,45.499,136.955,45.198"/>
			<path d="M144.956,45.138c0.063-0.301,0.502-0.44,2.449-0.865c0.675-0.125,1.335-0.234,1.398-0.234
				c0.845-0.063,1.522,0.738,0.91,1.099c-0.126,0.061-1.525,0.36-2.496,0.485c-0.614,0.062-0.614,0.062-0.614,1.334
				c-0.062,1.272-0.062,1.288,0.191,1.288c0.124-0.064,0.549-0.064,0.908-0.064c1.161,0,1.711,0.236,2.011,0.847
				c1.02,2.826-2.072,5.903-2.623,6.028c-0.487,0.062-1.033-0.125-1.333-0.423c-0.408-0.582-0.063-0.974,0.36-1.037
				c0.252-0.061,0.362-0.11,0.612-0.36c0.738-0.848,1.334-2.371,1.334-3.469c0-0.423,0-0.438-0.423-0.375
				c-0.865,0.047-1.711,0.314-2.012,0.25c-0.296-0.063-0.721-0.313-0.845-0.613c-0.253-0.422-0.173-2.792,0.124-3.468
				C144.974,45.371,144.956,45.199,144.956,45.138"/>
			<path d="M174.724,33.289c0.361-0.361,1.414-0.911,2.324-1.161c0.297-0.062,0.596-0.032,1.081-0.062
				c1.996-0.125,2.01,1.208,1.947,1.82c0,0.55-0.173,0.99-0.66,1.837c-0.123,0.297-0.314,0.55-0.251,0.55
				c0,0,0.175,0.107,0.426,0.171c1.333,0.675,1.396,2.134,0.125,4.142c-0.614,0.975-1.821,2.025-2.732,2.326
				c-0.785,0.298-1.709-0.127-1.775-0.801c0-0.188,0.066-0.236,0.364-0.36c1.397-0.786,2.322-1.774,2.87-3.045
				c0.427-1.099,0.427-1.099-0.548-0.849c-0.911,0.188-1.287,0.188-1.647,0c-0.253-0.126-0.551-0.423-0.551-0.675
				c0-0.125,0.254-0.361,0.8-0.909c1.038-0.975,1.507-1.837,1.695-2.748c0.064-0.188,0.064-0.188-0.124-0.188
				c-0.252,0-1.02,0.313-1.633,0.613c-1.256,0.752-1.649,0.125-1.837-0.127C174.472,33.635,174.472,33.59,174.724,33.289"/>
			<path d="M185.298,40.839c0.645-0.831,1.037-1.6,1.037-2.117c0-0.127-0.062-0.252-0.062-0.252
				c-0.062-0.064-0.863-0.016-1.568,0.298c-1.006,0.409-0.298,2.636-0.298,2.701C184.468,41.593,184.921,41.295,185.298,40.839
				 M183.636,33.98c0.375-1.083,0.783-1.726,1.099-1.852c0.253-0.062,0.706-0.062,0.957,0.062c0.52,0.251,0.52,0.503,0.062,1.727
				c-0.456,1.02-1.081,3.201-1.02,3.266c0,0,0.187,0,0.375-0.065c0.582-0.187,1.463-0.154,1.995,0
				c1.647,0.504,1.082,2.701,0.957,3.015c-0.457,1.225-1.6,2.418-2.558,2.874c-2.874,0.767-3.249-1.461-3.204-2.812
				C182.397,37.01,183.446,34.293,183.636,33.98"/>
		</g>
	</g>
</g>
</svg>
