<?xml version="1.0" encoding="utf-8"?>
<!-- Generator: Adobe Illustrator 16.0.0, SVG Export Plug-In . SVG Version: 6.00 Build 0)  -->
<!DOCTYPE svg PUBLIC "-//W3C//DTD SVG 1.1//EN" "http://www.w3.org/Graphics/SVG/1.1/DTD/svg11.dtd">
<svg version="1.1" id="Layer_1" xmlns="http://www.w3.org/2000/svg" xmlns:xlink="http://www.w3.org/1999/xlink" x="0px" y="0px"
	 width="10.969px" height="144.566px" viewBox="0 0 10.969 144.566" enable-background="new 0 0 10.969 144.566"
	 xml:space="preserve">
<g>
	<path d="M9.191,130.867c-0.946-0.019-2.021-0.039-2.974-0.058C6.67,91.864,7.124,53.002,7.574,14.267
		c0.916-0.018,2.018-0.036,2.953-0.055C10.083,52.967,9.637,91.817,9.191,130.867"/>
	<path d="M3.31,130.646c-0.913-0.056-1.981-0.121-2.893-0.176C0.868,91.763,1.32,52.895,1.771,14.076
		c0.851,0.041,1.95,0.095,2.893,0.141C4.215,52.852,3.764,91.66,3.31,130.646"/>
	<path d="M1.379,11.123C1.47,9.125,1.45,6.849,1.708,4.625C2.031,1.823,4.123-0.1,6.417,0.004c2.234,0.1,4.131,2.253,4.459,5.083
		c0.058,0.496,0.095,1.004,0.093,1.507c-0.006,1.639-0.032,3.275-0.05,4.74C7.785,11.265,4.667,11.196,1.379,11.123"/>
	<path d="M4.642,144.566c-1.579-3.991-3.01-7.608-4.642-11.733c1.214,0.378,2.14,0.419,2.852,0.94
		c1.331,0.979,2.528,0.961,3.872,0.112c0.713-0.449,1.562-0.537,2.351-0.788c0.082,0.135,0.164,0.273,0.247,0.408
		C7.821,137.052,6.321,140.596,4.642,144.566"/>
</g>
</svg>
