<?xml version="1.0" encoding="utf-8"?>
<!-- Generator: Adobe Illustrator 16.0.0, SVG Export Plug-In . SVG Version: 6.00 Build 0)  -->
<!DOCTYPE svg PUBLIC "-//W3C//DTD SVG 1.1//EN" "http://www.w3.org/Graphics/SVG/1.1/DTD/svg11.dtd">
<svg version="1.1" id="Layer_1" xmlns="http://www.w3.org/2000/svg" xmlns:xlink="http://www.w3.org/1999/xlink" x="0px" y="0px"
	 width="17.022px" height="119.622px" viewBox="0 0 17.022 119.622" enable-background="new 0 0 17.022 119.622"
	 xml:space="preserve">
<path d="M11.1,7.725C9.947,6.488,7.956,6.182,6.539,6.908c-0.36,0.186-0.596,0.611-0.89,0.927c0.392-0.028,0.828,0.046,1.168-0.104
	c2.022-0.886,3.646,0.033,3.703,2.225c0.201,7.735,0.36,15.473,0.536,23.21c0.008,0.345-0.023,0.698,0.045,1.032
	c0.031,0.154,0.255,0.371,0.395,0.373c0.146,0.002,0.392-0.196,0.426-0.346c0.074-0.331,0.06-0.685,0.055-1.03
	c-0.07-5.274-0.118-10.549-0.23-15.822c-0.059-2.679-0.221-5.356-0.369-8.032C11.341,8.716,11.166,8.098,11.1,7.725 M14.783,87.628
	c-0.166-16.495-0.334-32.948-0.496-49.194c-3.981,0.003-7.81,0.005-11.718,0.009C2.32,54.767,2.067,71.227,1.815,87.604
	C6.17,87.611,10.398,87.619,14.783,87.628 M16.384,37.649c-0.162,0.518-0.473,1.035-0.467,1.55c0.195,16,0.428,32,0.629,48
	c0.008,0.618,0.464,1.494-0.678,1.754c-0.115,0.028-0.101,0.637-0.141,0.975c-0.518,4.328-0.868,8.686-1.615,12.975
	c-0.394,2.255-1.535,4.373-2.23,6.586c-0.262,0.832-0.17,1.769-0.322,2.643c-0.426,2.437-0.896,4.866-1.385,7.491
	c-1.178-0.465-2.103-0.774-2.969-1.201c-0.263-0.132-0.483-0.574-0.519-0.897c-0.08-0.682-0.021-1.381-0.025-2.072
	c-0.002-0.259,0.071-0.686-0.045-0.748c-1.203-0.646-0.749-1.765-0.728-2.682c0.03-1.333-0.268-2.509-0.836-3.715
	C2.36,102.59,1.088,96.549,1.107,90.229c0.001-0.569,0.355-1.298-0.627-1.561c-0.145-0.039-0.139-0.789-0.136-1.211
	C0.44,71.499,0.545,55.541,0.648,39.584c-1.332-6.269-0.239-12.549,0.015-18.808C0.874,15.56,1.544,10.358,2.109,5.161
	C2.327,3.16,2.82,1.223,5.154,0.499c2.622-0.815,5.167-0.69,7.456,0.817c0.638,0.42,1.019,1.509,1.162,2.353
	c0.665,3.915,1.405,7.835,1.746,11.784c0.638,7.404,1.017,14.83,1.504,22.246C16.809,37.684,16.596,37.667,16.384,37.649"/>
</svg>
