<?xml version="1.0" encoding="utf-8"?>
<!-- Generator: Adobe Illustrator 16.0.0, SVG Export Plug-In . SVG Version: 6.00 Build 0)  -->
<!DOCTYPE svg PUBLIC "-//W3C//DTD SVG 1.1//EN" "http://www.w3.org/Graphics/SVG/1.1/DTD/svg11.dtd">
<svg version="1.1" id="Layer_1" xmlns="http://www.w3.org/2000/svg" xmlns:xlink="http://www.w3.org/1999/xlink" x="0px" y="0px"
	 width="63px" height="74px" viewBox="0 0 63 74" enable-background="new 0 0 63 74" xml:space="preserve">
<g id="Layer_2">
	<path fill="#FFFFFF" d="M38.598,18.76l-2.125,0.5l-2.5-0.375l-2.591-0.354l-2.095-0.304l-2.689-0.468l-2.375,0.25h-2.375
		l-0.881,0.713l-2.521,0.437l-0.35,0.602l-1.05,0.888c0,0-2.075-0.513-3.45,0.612s-1.375,1.125-1.375,1.125l-1.51,2.43l-1.365,1.82
		l-1.5,3.375l-1.375,2.875l-0.875,2.25L5,37.374l-0.527,3.512l0.375,4.25l1.158,3.73l1.717,4.895c0,0-1.623,0.867,1.667,3.475
		c3.29,2.608,3.29,2.607,3.29,2.607l1.543,1.043l4,2.125l2.832,1.142l3.479,1.228l3.813,0.632l5.5,0.875l4.564,0.099l6.436-1.599
		l1.768-1.946l1.232-0.679l1.375-2.625l1-1.5l1.791-2.696l1.334-0.929l2.375-2.5l1.625-1.625l1.5-3.125l1.706-3.378l-0.581-2.372
		l-0.375-1.5l-0.375-2l-1.057-1.819l-0.534-1.962l0.665-3.63l-0.949-1.589l-0.875-2.25l-1.75-2l-2.75-1.75l-3.125-2.25l-2.672-1.134
		l-0.774-1.578l-1.929,0.087l-2,0.125"/>
</g>
<g id="Layer_1_1_">
	<g>
		<g>
			<g>
				<path fill="#DCDDDE" d="M41.236,66.847c-2.08,2.603-15.776,5.027-18.896,5.2c-2.254,0.174-8.322,0.694-10.056-0.692
					c-3.643-2.946,3.641-6.762,6.24-7.28l1.733,0.347c3.121,1.388,7.282,1.907,10.576,2.254c0,0,7.629,1.214,11.271-0.173
					L41.236,66.847z"/>
			</g>
		</g>
		<g>
			<g>
				<path fill="#C7C8CA" d="M34.635,67.727c-3.209,0.579-6.568,0.979-7.8,1.027c-1.741,0.103-9.1-0.279-10.438-1.094
					c-2.812-1.729,1.073-3.157,3.082-3.462l1.34,0.202c2.41,0.814,9.037,2.332,11.582,2.536c0,0,4.799,0.646,7.608-0.169
					C40.009,66.77,37.711,67.171,34.635,67.727"/>
			</g>
		</g>
		<g>
			<g>
				<path d="M8.294,28.877c0.039-0.184,0.087-0.357,0.132-0.536c0.05-0.176,0.075-0.351,0.11-0.52
					c0.038-0.164,0.062-0.344,0.094-0.512c0.04-0.164,0.028-0.352,0.093-0.504c0.085-0.145,0.136-0.308,0.196-0.466l0.174-0.483
					c0.114-0.324,0.232-0.66,0.36-1.001l0.211-0.511c0.083-0.171,0.158-0.342,0.251-0.51c0.101-0.164,0.183-0.337,0.3-0.492
					c0.115-0.157,0.217-0.324,0.352-0.467c0.13-0.146,0.251-0.297,0.398-0.424c0.144-0.131,0.28-0.271,0.437-0.381
					c0.155-0.111,0.304-0.241,0.466-0.337l0.481-0.297l-0.04,0.023l0.847-0.5l0.872-0.417l0.885-0.355l0.881-0.318l0.869-0.308
					l0.424-0.156c0.072-0.025,0.138-0.063,0.208-0.094c0.067-0.025,0.148-0.025,0.228-0.035c0.308-0.035,0.609-0.089,0.928-0.12
					c0.304-0.057,0.613-0.114,0.941-0.163c-0.219,0.233-0.453,0.465-0.697,0.688c-0.25,0.208-0.512,0.402-0.772,0.604
					c-0.067,0.045-0.13,0.101-0.204,0.126c-0.075,0.024-0.153,0.042-0.226,0.068l-0.441,0.165l-0.874,0.309l-0.857,0.312
					l-0.833,0.336l-0.794,0.379l-0.744,0.44l-0.011,0.005l-0.028,0.021L12.5,22.699c-0.142,0.077-0.254,0.186-0.383,0.275
					c-0.134,0.089-0.236,0.201-0.354,0.308c-0.12,0.1-0.213,0.222-0.315,0.337c-0.106,0.109-0.187,0.245-0.277,0.366
					c-0.094,0.122-0.161,0.269-0.244,0.398c-0.076,0.139-0.14,0.287-0.212,0.431l-0.188,0.457c-0.118,0.312-0.23,0.638-0.349,0.97
					c-0.11,0.334-0.251,0.665-0.361,1.013c-0.068,0.168-0.207,0.309-0.32,0.456c-0.124,0.146-0.23,0.291-0.369,0.43
					c-0.137,0.135-0.265,0.274-0.4,0.396C8.583,28.646,8.443,28.766,8.294,28.877"/>
			</g>
		</g>
		<g>
			<g>
				<path d="M18.593,19.168c0,0,0.294-0.226,0.821-0.587c0.264-0.183,0.573-0.409,0.985-0.608c0.203-0.106,0.42-0.224,0.647-0.345
					c0.229-0.129,0.505-0.14,0.771-0.214c0.54-0.127,1.123-0.274,1.756-0.35c0.628-0.111,1.295-0.146,1.983-0.191
					c0.345-0.021,0.695-0.006,1.05-0.013c0.356-0.007,0.711,0.012,1.071,0.034c0.723,0.028,1.443,0.113,2.166,0.189
					c0.719,0.098,1.436,0.19,2.135,0.308c0.694,0.111,1.38,0.225,2.042,0.33c0.66,0.104,1.299,0.207,1.9,0.286
					c0.604,0.091,1.174,0.153,1.701,0.21c0.131,0.014,0.26,0.03,0.387,0.037c0.127,0.003,0.25,0.009,0.367,0.045
					c0.234,0.062,0.463,0.121,0.674,0.177c0.424,0.114,0.797,0.205,1.105,0.273c0.615,0.146,0.977,0.242,0.977,0.242
					s-0.355,0.077-0.99,0.191c-0.316,0.06-0.705,0.126-1.148,0.165c-0.225,0.022-0.461,0.049-0.711,0.076
					c-0.129,0.019-0.256,0.017-0.385-0.013c-0.127-0.021-0.26-0.033-0.395-0.049c-0.541-0.06-1.127-0.122-1.74-0.216
					c-0.617-0.082-1.258-0.187-1.924-0.291c-0.662-0.105-1.346-0.217-2.04-0.326c-0.691-0.115-1.395-0.207-2.094-0.304
					c-0.701-0.071-1.4-0.155-2.088-0.184c-0.346-0.023-0.686-0.04-1.022-0.032c-0.336,0.005-0.668-0.01-0.993,0.01
					c-0.647,0.045-1.276,0.075-1.862,0.184c-0.593,0.065-1.138,0.207-1.644,0.325c-0.126,0.027-0.25,0.057-0.369,0.093
					c-0.114,0.045-0.226,0.088-0.344,0.101c-0.237,0.029-0.462,0.06-0.674,0.085c-0.428,0.042-0.812,0.126-1.125,0.188
					C18.959,19.116,18.593,19.168,18.593,19.168"/>
			</g>
		</g>
		<g>
			<g>
				<path d="M37.942,18.647c0,0,0.125-0.008,0.36-0.021c0.118-0.007,0.263-0.018,0.433-0.025c0.166-0.021,0.356-0.049,0.57-0.079
					c0.207-0.021,0.444-0.067,0.7-0.119c0.258-0.048,0.535-0.1,0.832-0.152c0.302-0.059,0.624-0.116,0.963-0.181
					c0.17-0.032,0.351-0.03,0.537-0.021c0.187,0.002,0.377,0.004,0.568,0.006c0.397,0.03,0.812,0.04,1.25,0.146
					c0.108,0.021,0.22,0.044,0.329,0.063c0.141,0.038,0.207,0.062,0.314,0.095c0.198,0.062,0.397,0.124,0.602,0.188
					c0.199,0.05,0.421,0.161,0.637,0.255c0.219,0.098,0.438,0.198,0.659,0.298c0.407,0.23,0.825,0.458,1.23,0.717
					c0.802,0.523,1.595,1.105,2.361,1.71c0.772,0.604,1.548,1.217,2.329,1.771c0.796,0.559,1.638,1.036,2.479,1.601
					c0.419,0.287,0.829,0.601,1.212,0.951c0.379,0.362,0.715,0.771,0.992,1.21c0.255,0.451,0.479,0.917,0.6,1.396
					c0.143,0.469,0.212,0.954,0.271,1.357c0.075,0.408,0.098,0.857,0.124,1.285c0.028,0.429,0.019,0.812,0.028,1.192
					c0,0.188-0.006,0.368,0.004,0.547c0.014,0.177,0.01,0.353-0.018,0.52c-0.039,0.333-0.076,0.65-0.109,0.947
					c-0.022,0.296-0.043,0.574-0.062,0.83c-0.015,0.257-0.005,0.491-0.009,0.706c-0.021,0.434,0.046,0.765,0.06,1.001
					c0.022,0.235,0.034,0.36,0.034,0.36s-0.051-0.114-0.146-0.328c-0.084-0.218-0.271-0.53-0.375-0.962
					c-0.062-0.214-0.145-0.453-0.205-0.72c-0.055-0.265-0.109-0.552-0.17-0.856c-0.045-0.307-0.094-0.632-0.146-0.979
					c-0.027-0.172-0.027-0.344-0.014-0.521c0.008-0.178,0.006-0.361,0.006-0.545c-0.01-0.36,0-0.755-0.026-1.126
					c-0.021-0.373-0.034-0.752-0.111-1.187c-0.062-0.435-0.12-0.817-0.236-1.208c-0.098-0.395-0.279-0.757-0.477-1.113
					c-0.223-0.348-0.486-0.672-0.801-0.974c-0.32-0.296-0.684-0.569-1.067-0.836c-0.776-0.521-1.661-1.023-2.489-1.604
					c-0.833-0.596-1.615-1.212-2.381-1.812c-0.768-0.603-1.521-1.157-2.277-1.647c-0.378-0.242-0.764-0.451-1.133-0.66
					c-0.187-0.085-0.369-0.168-0.55-0.25c-0.187-0.081-0.349-0.175-0.563-0.23c-0.203-0.062-0.4-0.125-0.601-0.187
					c-0.09-0.027-0.216-0.069-0.274-0.083c-0.089-0.02-0.178-0.034-0.265-0.05c-0.342-0.087-0.709-0.096-1.052-0.121
					c-0.355-0.02-0.69,0.032-1.025,0.011c-0.338-0.028-0.658-0.053-0.959-0.077c-0.606-0.042-1.145-0.094-1.593-0.168
					c-0.226-0.037-0.42-0.068-0.588-0.103c-0.165-0.045-0.308-0.084-0.419-0.116C38.063,18.683,37.942,18.647,37.942,18.647"/>
			</g>
		</g>
		<g>
			<g>
				<path d="M56.319,34.599c0,0,0.09,0.061,0.252,0.171c0.159,0.119,0.407,0.271,0.694,0.504c0.284,0.24,0.655,0.527,1.016,0.911
					c0.188,0.186,0.386,0.389,0.574,0.619c0.197,0.229,0.315,0.521,0.478,0.804c0.076,0.146,0.151,0.292,0.23,0.441
					c0.069,0.156,0.141,0.315,0.21,0.478c0.152,0.318,0.258,0.671,0.388,1.021c0.211,0.721,0.401,1.496,0.459,2.316
					c0.063,0.815,0.059,1.669-0.064,2.518c-0.122,0.85-0.331,1.694-0.613,2.512c-0.287,0.814-0.65,1.598-1.055,2.338
					c-0.402,0.743-0.867,1.433-1.336,2.078c-0.479,0.643-0.973,1.235-1.469,1.771c-0.244,0.271-0.5,0.52-0.738,0.768
					c-0.249,0.234-0.485,0.469-0.723,0.684c-0.117,0.104-0.236,0.207-0.348,0.312c-0.104,0.11-0.217,0.21-0.348,0.279
					c-0.253,0.146-0.488,0.294-0.717,0.42c-0.452,0.256-0.857,0.458-1.194,0.614c-0.331,0.167-0.609,0.264-0.79,0.344
					c-0.184,0.075-0.279,0.115-0.279,0.115s0.307-0.295,0.818-0.813c0.259-0.258,0.562-0.581,0.904-0.946
					c0.172-0.185,0.344-0.388,0.528-0.598c0.093-0.104,0.194-0.202,0.312-0.288c0.112-0.092,0.222-0.19,0.336-0.291
					c0.227-0.203,0.45-0.427,0.688-0.648c0.226-0.236,0.467-0.473,0.697-0.729c0.473-0.509,0.938-1.071,1.393-1.676
					c0.438-0.61,0.879-1.256,1.254-1.947c0.373-0.692,0.713-1.417,0.976-2.166c0.26-0.75,0.449-1.521,0.562-2.286
					c0.108-0.769,0.113-1.529,0.059-2.262c-0.048-0.733-0.225-1.425-0.411-2.069c-0.112-0.314-0.207-0.631-0.346-0.917
					c-0.064-0.146-0.126-0.289-0.188-0.43c-0.07-0.136-0.144-0.269-0.213-0.398c-0.068-0.129-0.132-0.261-0.213-0.377
					c-0.085-0.113-0.162-0.229-0.214-0.354c-0.101-0.256-0.215-0.491-0.331-0.709c-0.217-0.448-0.439-0.812-0.62-1.13
					c-0.188-0.312-0.354-0.557-0.459-0.724C56.375,34.688,56.319,34.599,56.319,34.599"/>
			</g>
		</g>
		<g>
			<g>
				<path d="M57.879,32.519c0,0,0.102,0.05,0.254,0.144c0.075,0.046,0.168,0.102,0.258,0.169c0.047,0.033,0.099,0.066,0.15,0.104
					c0.025,0.02,0.027,0.042,0.021,0.067c-0.006,0.026,0.004,0.05,0.008,0.075c0.021,0.101,0.039,0.21,0.062,0.323
					c0.022,0.114,0.031,0.25,0.049,0.384c0.03,0.268,0.062,0.555,0.094,0.841c0.048,0.544,0.086,1.1,0.129,1.492
					c0.006,0.022,0.002,0.049,0.014,0.07c0.016,0.022,0.018,0.046-0.008,0.07c-0.04,0.051-0.078,0.099-0.113,0.146
					c-0.068,0.089-0.143,0.17-0.197,0.233c-0.119,0.134-0.199,0.213-0.199,0.213s-0.092-0.057-0.231-0.161
					c-0.069-0.053-0.155-0.114-0.24-0.19c-0.044-0.039-0.091-0.079-0.14-0.122c-0.029-0.021-0.033-0.045-0.021-0.071
					c0.006-0.023-0.002-0.051-0.004-0.076c-0.046-0.424-0.082-0.957-0.129-1.501c-0.029-0.258-0.057-0.514-0.083-0.754
					c-0.016-0.122-0.019-0.232-0.044-0.351c-0.021-0.116-0.042-0.226-0.062-0.325c-0.006-0.024-0.006-0.051-0.021-0.072
					c-0.015-0.021-0.023-0.044-0.004-0.07c0.035-0.056,0.066-0.106,0.1-0.154c0.062-0.097,0.125-0.186,0.18-0.255
					C57.803,32.604,57.879,32.519,57.879,32.519"/>
			</g>
		</g>
		<g>
			<g>
				<path d="M52.852,55.578c0,0-0.053,0.062-0.148,0.185c-0.098,0.117-0.26,0.289-0.402,0.521c-0.156,0.214-0.315,0.509-0.498,0.832
					c-0.08,0.17-0.164,0.35-0.254,0.54c-0.078,0.195-0.252,0.34-0.359,0.544c-0.487,0.773-0.977,1.76-1.537,2.83
					c-0.285,0.533-0.59,1.091-0.947,1.641c-0.367,0.544-0.771,1.095-1.277,1.574l-0.047,0.046l-0.022,0.022l-0.005,0.005
					l-0.061,0.051l-0.014,0.009l-0.098,0.07l-0.19,0.141l-0.387,0.28c-0.13,0.092-0.255,0.188-0.388,0.276l-0.438,0.254
					c-0.292,0.161-0.575,0.354-0.867,0.48c-0.292,0.134-0.58,0.265-0.862,0.393c-0.283,0.129-0.574,0.216-0.854,0.319
					c-0.279,0.104-0.554,0.201-0.823,0.271c-0.271,0.076-0.533,0.151-0.787,0.227c-0.254,0.069-0.5,0.121-0.736,0.18
					c-0.118,0.028-0.234,0.056-0.346,0.088c-0.111,0.039-0.224,0.067-0.334,0.062c-0.227,0.002-0.438,0.003-0.64,0.004
					c-0.396,0.007-0.744-0.004-1.03-0.013c-0.572-0.021-0.902-0.043-0.902-0.043s0.297-0.146,0.817-0.386
					c0.261-0.113,0.574-0.255,0.938-0.416c0.181-0.077,0.371-0.16,0.574-0.25c0.101-0.048,0.205-0.075,0.317-0.089
					c0.109-0.02,0.224-0.049,0.337-0.073c0.229-0.058,0.469-0.108,0.711-0.176c0.241-0.067,0.49-0.142,0.747-0.214
					c0.261-0.066,0.515-0.16,0.773-0.257c0.259-0.098,0.534-0.178,0.794-0.297c0.263-0.119,0.525-0.238,0.794-0.36
					c0.271-0.119,0.504-0.279,0.764-0.42l0.382-0.218c0.127-0.087,0.256-0.184,0.383-0.275l0.387-0.279l0.193-0.142l0.097-0.068
					l0.014-0.011c0.05-0.041-0.062,0.053-0.05,0.039l0.007-0.005l0.019-0.02l0.039-0.039c0.422-0.396,0.777-0.881,1.11-1.374
					c0.326-0.5,0.616-1.029,0.896-1.548c0.547-1.044,1.049-2.062,1.58-2.905c0.066-0.105,0.133-0.21,0.196-0.312
					c0.058-0.104,0.121-0.206,0.205-0.284c0.175-0.156,0.343-0.305,0.499-0.442c0.327-0.261,0.626-0.468,0.896-0.609
					c0.257-0.158,0.472-0.217,0.615-0.276C52.775,55.605,52.852,55.578,52.852,55.578"/>
			</g>
		</g>
		<g>
			<g>
				<path d="M20.257,64.419c0,0,0.356,0.041,0.97,0.145c0.308,0.062,0.684,0.088,1.096,0.141c0.209,0.021,0.425,0.051,0.656,0.069
					c0.119,0.007,0.234,0.038,0.351,0.079c0.114,0.037,0.235,0.067,0.359,0.101c0.491,0.136,1.037,0.239,1.611,0.359
					c0.575,0.117,1.189,0.215,1.826,0.317c0.637,0.094,1.295,0.188,1.971,0.268c0.336,0.043,0.676,0.084,1.021,0.12l0.515,0.058
					l0.258,0.026l0.279,0.041c1.353,0.19,2.727,0.32,4.008,0.394c0.641,0.031,1.26,0.051,1.846,0.055
					c0.292-0.004,0.576-0.007,0.853-0.009c0.272-0.015,0.539-0.025,0.792-0.037c0.129-0.003,0.25-0.019,0.37-0.033
					c0.117-0.021,0.234-0.033,0.353-0.017c0.236,0.027,0.455,0.037,0.664,0.047c0.42,0.025,0.781,0.021,1.088,0.021
					c0.309,0.003,0.541-0.031,0.709-0.04c0.168-0.014,0.257-0.021,0.257-0.021s-0.074,0.046-0.22,0.13
					c-0.146,0.077-0.354,0.235-0.644,0.353c-0.288,0.131-0.646,0.298-1.065,0.425c-0.211,0.069-0.436,0.147-0.674,0.212
					c-0.119,0.038-0.246,0.05-0.375,0.048c-0.128,0.003-0.259,0.021-0.394,0.024c-0.267,0.014-0.544,0.023-0.83,0.038
					c-0.285,0.002-0.581,0.008-0.888,0.011c-0.605-0.005-1.246-0.022-1.904-0.057c-1.316-0.073-2.713-0.206-4.109-0.402
					l-0.234-0.035l-0.26-0.028l-0.519-0.057c-0.347-0.036-0.69-0.077-1.03-0.121c-0.686-0.078-1.357-0.177-2.007-0.271
					c-0.65-0.104-1.279-0.206-1.873-0.328c-0.596-0.124-1.156-0.23-1.669-0.373c-0.129-0.032-0.255-0.065-0.38-0.091
					c-0.126-0.021-0.248-0.048-0.359-0.102c-0.223-0.109-0.435-0.228-0.63-0.328c-0.395-0.205-0.728-0.387-0.979-0.567
					C20.545,64.633,20.257,64.419,20.257,64.419"/>
			</g>
		</g>
		<g>
			<g>
				<path d="M12.628,59.913c0,0,0.232,0.026,0.628,0.105c0.197,0.04,0.436,0.087,0.703,0.155c0.135,0.032,0.276,0.067,0.429,0.103
					c0.15,0.037,0.255,0.166,0.403,0.242c0.555,0.354,1.202,0.77,1.896,1.209c0.342,0.22,0.694,0.442,1.055,0.67
					c0.357,0.229,0.73,0.429,1.1,0.645l0.553,0.316l0.14,0.079l0.134,0.068l0.288,0.145c0.191,0.104,0.377,0.188,0.558,0.268
					c0.182,0.083,0.36,0.166,0.544,0.232c0.362,0.152,0.719,0.272,1.061,0.387c0.342,0.098,0.663,0.195,0.97,0.257
					c0.076,0.015,0.148,0.033,0.224,0.041c0.075,0.002,0.146,0.018,0.21,0.059c0.13,0.076,0.258,0.127,0.379,0.188
					c0.241,0.107,0.455,0.226,0.638,0.296c0.36,0.152,0.576,0.257,0.576,0.257s-0.217,0.074-0.613,0.176
					c-0.199,0.058-0.441,0.101-0.727,0.139c-0.141,0.019-0.295,0.05-0.455,0.059c-0.081,0.011-0.157-0.003-0.235-0.033
					c-0.078-0.022-0.161-0.038-0.245-0.056c-0.334-0.067-0.689-0.174-1.063-0.282c-0.371-0.121-0.76-0.253-1.148-0.417
					c-0.197-0.074-0.396-0.166-0.597-0.257c-0.2-0.09-0.401-0.186-0.59-0.281l-0.287-0.144L19,64.459l-0.146-0.082l-0.579-0.335
					c-0.382-0.227-0.775-0.438-1.14-0.666c-0.364-0.231-0.721-0.458-1.068-0.679c-0.68-0.436-1.313-0.841-1.857-1.188
					c-0.068-0.043-0.132-0.088-0.203-0.12c-0.074-0.03-0.141-0.062-0.193-0.123c-0.104-0.114-0.206-0.222-0.3-0.324
					c-0.189-0.196-0.35-0.385-0.479-0.534C12.769,60.102,12.628,59.913,12.628,59.913"/>
			</g>
		</g>
		<g>
			<g>
				<path d="M13.323,60.085c0,0-0.24-0.079-0.643-0.243c-0.201-0.08-0.443-0.184-0.714-0.317c-0.137-0.062-0.282-0.135-0.436-0.208
					c-0.077-0.035-0.138-0.097-0.192-0.161c-0.061-0.063-0.125-0.122-0.192-0.184c-0.269-0.239-0.55-0.511-0.847-0.799
					c-0.298-0.287-0.597-0.608-0.909-0.938c-0.3-0.341-0.617-0.688-0.909-1.066c-0.149-0.189-0.303-0.376-0.439-0.577L7.83,55.292
					l-0.106-0.15L7.67,55.066l-0.027-0.035l-0.044-0.075L7.252,54.34c-0.12-0.192-0.223-0.432-0.32-0.669
					c-0.094-0.235-0.213-0.472-0.278-0.701c-0.068-0.229-0.139-0.458-0.204-0.682c-0.069-0.227-0.104-0.448-0.154-0.665
					c-0.047-0.218-0.094-0.433-0.122-0.637c-0.067-0.41-0.127-0.799-0.171-1.147c-0.013-0.088-0.021-0.174-0.04-0.258
					c-0.024-0.082-0.034-0.166-0.02-0.248c0.022-0.164,0.043-0.32,0.063-0.467c0.041-0.297,0.076-0.553,0.104-0.764
					c0.058-0.424,0.104-0.675,0.104-0.675s0.127,0.214,0.325,0.604c0.102,0.193,0.219,0.434,0.333,0.71
					c0.06,0.139,0.123,0.283,0.188,0.438c0.039,0.079,0.05,0.158,0.048,0.244c0.005,0.084,0.02,0.169,0.03,0.257
					c0.044,0.354,0.103,0.724,0.165,1.111c0.027,0.197,0.07,0.392,0.113,0.591c0.048,0.197,0.078,0.406,0.14,0.604
					s0.122,0.4,0.186,0.605c0.058,0.21,0.153,0.385,0.229,0.583c0.125,0.378,0.411,0.803,0.628,1.211l0.37,0.521
					c0.126,0.188,0.271,0.361,0.411,0.538c0.271,0.355,0.573,0.686,0.856,1.009c0.298,0.312,0.579,0.618,0.866,0.894
					c0.285,0.276,0.556,0.538,0.815,0.771c0.063,0.058,0.127,0.115,0.193,0.167c0.068,0.047,0.132,0.099,0.175,0.17
					c0.091,0.138,0.177,0.268,0.258,0.391c0.162,0.25,0.303,0.469,0.42,0.649C13.201,59.863,13.323,60.085,13.323,60.085"/>
			</g>
		</g>
		<g>
			<g>
				<path d="M5,37.373c0,0,0.042,0.263,0.083,0.715c0.015,0.228,0.055,0.502,0.092,0.802c0.019,0.149,0.04,0.309,0.061,0.476
					c0.026,0.169-0.045,0.337-0.044,0.518c-0.039,0.36-0.054,0.753-0.064,1.169c-0.021,0.415,0.002,0.854,0.007,1.309
					c0.028,0.455,0.045,0.928,0.101,1.401c0.039,0.479,0.116,0.96,0.182,1.443c0.085,0.479,0.159,0.964,0.263,1.436
					c0.091,0.474,0.205,0.936,0.31,1.381c0.228,0.895,0.457,1.722,0.683,2.427c0.025,0.089,0.051,0.176,0.085,0.258
					c0.039,0.081,0.062,0.162,0.062,0.252c0.013,0.174,0.021,0.339,0.03,0.493c0.016,0.312,0.03,0.587,0.042,0.812
					c0.021,0.452,0.021,0.718,0.021,0.718s-0.17-0.207-0.436-0.579c-0.134-0.185-0.293-0.41-0.462-0.678
					c-0.086-0.132-0.177-0.271-0.274-0.422c-0.053-0.074-0.078-0.159-0.094-0.249c-0.019-0.088-0.05-0.176-0.077-0.266
					c-0.228-0.723-0.466-1.571-0.697-2.489c-0.108-0.462-0.227-0.938-0.32-1.428c-0.108-0.486-0.185-0.989-0.273-1.488
					c-0.065-0.504-0.146-1.006-0.187-1.506c-0.058-0.498-0.077-0.993-0.107-1.472c-0.006-0.479-0.026-0.941-0.006-1.384
					c0.012-0.438,0.028-0.854,0.069-1.236c0.009-0.099,0.018-0.19,0.018-0.282c-0.002-0.093-0.002-0.186,0.034-0.271
					c0.07-0.17,0.136-0.331,0.198-0.479c0.117-0.303,0.236-0.553,0.349-0.749C4.86,37.599,5,37.373,5,37.373"/>
			</g>
		</g>
		<g>
			<g>
				<path d="M8.467,28.531c0,0,0.03,0.207,0.052,0.559c0.017,0.175,0.019,0.392,0.006,0.639c-0.005,0.125-0.01,0.258-0.015,0.397
					c-0.002,0.07-0.031,0.13-0.068,0.188c-0.033,0.062-0.057,0.127-0.085,0.191c-0.432,1.062-1.081,2.419-1.676,3.776
					c-0.291,0.68-0.578,1.36-0.797,2.005c-0.122,0.318-0.203,0.634-0.3,0.93c-0.07,0.297-0.158,0.578-0.201,0.838
					c-0.01,0.065-0.027,0.128-0.029,0.192c0.001,0.062-0.011,0.124-0.049,0.179c-0.071,0.112-0.118,0.22-0.17,0.322
					c-0.093,0.205-0.207,0.39-0.263,0.546c-0.131,0.312-0.221,0.508-0.221,0.508s-0.087-0.179-0.215-0.521
					c-0.07-0.175-0.115-0.383-0.172-0.633c-0.025-0.124-0.061-0.261-0.077-0.397c-0.014-0.07-0.003-0.141,0.023-0.207
					c0.021-0.069,0.03-0.143,0.045-0.214c0.05-0.295,0.142-0.599,0.221-0.925c0.104-0.317,0.193-0.66,0.32-0.996
					c0.233-0.688,0.531-1.389,0.829-2.084c0.607-1.388,1.252-2.732,1.667-3.753c0.023-0.064,0.055-0.125,0.069-0.189
					c0.016-0.064,0.034-0.126,0.082-0.175c0.085-0.102,0.165-0.194,0.242-0.282c0.148-0.18,0.295-0.334,0.405-0.473
					C8.32,28.679,8.467,28.531,8.467,28.531"/>
			</g>
		</g>
	</g>
</g>
<g>
	<g>
		<path d="M1.595,15.017c-0.243-0.889-0.305-1.16-0.28-1.246c0.17-0.436,1.293-0.612,1.477-0.283
			c0.031,0.056,0.438-0.279,0.907-0.47c1.142-0.562,1.954-0.332,2.759,0.243c0.359,0.321,0.819,1.019,0.848,1.523
			c0.226,1.275-0.104,2.879-1.29,4.042c-0.231,0.327-0.192,0.27,0.241,1.143c0.509,1.01,1.364,2.062,1.479,2.267
			c0.26,0.467,0.24,0.658-0.268,0.941c-0.408,0.299-0.892,0.334-1.229,0.181c-0.283-0.185-0.376-0.384-1.462-2.206
			c-0.405-0.727-0.895-1.479-1.034-1.598c-0.169-0.176-0.192-0.217-0.222-0.397c0.024-0.087-0.089-0.419-0.233-0.68
			C2.959,17.887,1.761,15.445,1.595,15.017z M5.485,17.001c0.353-1.399,0.166-2.123-0.303-2.706
			c-0.139-0.12-0.403-0.207-0.773-0.001c-0.617,0.344-0.875,0.396-0.816,0.634c0.031,0.056,1.029,2.104,1.113,2.256
			C4.873,17.612,5.336,17.605,5.485,17.001z"/>
	</g>
	<g>
		<path d="M8.278,10.296C7.321,7.972,7.083,7.172,7.251,7.041C7.5,6.727,8.21,6.605,8.524,6.855C8.729,6.996,8.831,7.26,9.709,9.159
			c0.572,1.496,1.916,4.26,2.854,5.918c0.384,0.829,0.522,1.146,0.28,1.306c-0.322,0.342-0.959,0.435-1.347,0.213
			c-0.183-0.081-0.287-0.177-0.497-0.55C10.054,14.541,9.3,12.965,8.278,10.296z"/>
	</g>
	<g>
		<path d="M14.803,9.037c0.417-0.708,0.583-0.945,0.885-1.153C16,7.707,16.546,7.564,16.924,7.645
			C17.466,7.732,17.7,8.012,17.62,8.39c-0.06,0.146-0.071,0.165,0.154,0.284c0.398,0.221,0.417,0.671,0.542,1.158
			c0.372,1.248,0.477,1.531,1.362,3.134c0.208,0.303,0.312,0.519,0.29,0.623c0.021,0.27-0.551,0.499-1.023,0.491
			c-0.336-0.043-0.489-0.133-0.974-0.754c-0.023-0.092-0.093-0.171-0.139-0.159c0,0-0.041,0.157-0.088,0.348
			c-0.099,0.495-0.35,0.967-0.653,1.175c-0.436,0.388-1.215,0.443-1.551,0.4c-0.554-0.133-1.077-0.402-1.226-0.916
			C13.558,11.5,14.577,9.419,14.803,9.037z M15.901,13.537C17.21,12.389,16.333,9.5,16.333,9.5s-0.113,0.127-0.191,0.326
			c-0.218,0.412-0.382,1.347-0.403,1.953c0.01,0.225-0.027,0.461-0.061,0.518C15.642,12.533,15.822,13.606,15.901,13.537z"/>
	</g>
	<g>
		<path d="M21.516,10.173c0.308-1.58,1.8-3.315,3.375-3.952c0.365-0.133,0.941-0.211,1.223-0.082
			c1.113,0.531,0.594,1.154-0.024,1.124c-0.396-0.021-0.542,0.104-1.111,0.543c-0.597,0.487-1.013,1.038-1.446,1.871
			c-0.199,0.353-0.182,0.524-0.249,0.784c1.274-0.638,2.089-0.549,2.375-0.531c1.274,0.102,1.723,1.225,0.894,2.194
			c-0.993,1.226-2.405,1.769-3.244,1.287c-0.249-0.117-0.45-0.38-0.428-0.618c0.01-0.507,0.367-0.418,0.652-0.4
			c0.38,0.008,0.632-0.145,1.071-0.476c0.262-0.217,0.644-0.636,0.545-0.672c0,0-1.414,0.368-1.922,0.484
			c-1.233,0.287-1.696-0.517-1.745-0.985C21.461,10.558,21.484,10.318,21.516,10.173z"/>
	</g>
	<g>
		<path d="M31.236,1.38c0.008-0.22,0.107-0.357,0.251-0.431c0.38-0.065,0.952,0.175,1.08,0.558c0.13,0.303,0.165,1.105,0.121,2.345
			c-0.045,1.239-0.045,1.256,0.475,1.195c1.419-0.122,1.376,0.63,1.29,0.848c-0.087,0.217-0.309,0.271-1.122,0.619
			c-0.667,0.196-0.667,0.196-0.746,2.393c-0.041,1.177-0.081,2.275-0.086,2.417c0.064,0.379,0.065,0.363,0.367,0.296
			c0.658,0.023,1.084,0.416,1.068,0.854c-0.025,0.723-1.131,0.888-2.22,0.581c-1.211-0.42-1.131-1.345-1.055-3.479
			c-0.002-2.137,0.014-2.136-0.363-2.149c-0.52,0.06-0.876-0.094-1.082-0.479c-0.136-0.146-0.133-0.225,0.013-0.361
			c0.086-0.217,0.6-0.497,1.27-0.771c0.378-0.064,0.362-0.05,0.396-1.007C30.941,3.49,31.079,1.814,31.236,1.38z"/>
	</g>
	<g>
		<path d="M36.91,9.184c0.094-0.7,0.237-0.95,0.438-1.019c0.199-0.068,0.765,0.087,0.98,0.243c0.296,0.276,0.342,0.409,0.193,2.101
			c-0.012,0.331-0.059,1.148-0.06,1.751c-0.001,0.602,0.122,0.745-0.056,1.243c-0.185,0.546-1.185,0.206-1.362,0.118
			c-0.302-0.23-0.438-0.518-0.488-0.857C36.518,11.982,36.717,10.141,36.91,9.184z M37.345,6.406
			c0.065-0.371,0.159-0.485,0.213-0.525c0.224-0.129,0.75-0.043,0.996,0.133c0.807,0.6,0.195,1.5-0.105,1.491
			C37.049,7.666,37.292,6.685,37.345,6.406z"/>
	</g>
	<g>
		<path d="M41.43,6.732c0.456-2.472,0.688-3.273,0.9-3.293c0.382-0.129,1.044,0.156,1.173,0.536
			c0.096,0.229,0.037,0.505-0.255,2.578c-0.33,1.566-0.698,4.618-0.811,6.52c-0.126,0.904-0.181,1.245-0.471,1.249
			c-0.457,0.112-1.043-0.155-1.248-0.552c-0.109-0.167-0.145-0.304-0.118-0.731C40.622,11.264,40.842,9.528,41.43,6.732z"/>
	</g>
	<g>
		<path d="M45.26,10.657c0.18-0.684,0.353-0.913,0.56-0.957c0.205-0.043,0.748,0.181,0.943,0.362
			c0.26,0.311,0.288,0.448-0.067,2.108c-0.053,0.327-0.199,1.133-0.275,1.729c-0.075,0.598,0.029,0.755-0.209,1.228
			c-0.25,0.519-1.2,0.059-1.367-0.05c-0.271-0.266-0.369-0.568-0.377-0.911C44.527,13.387,44.952,11.583,45.26,10.657z
			 M46.034,7.955c0.111-0.36,0.219-0.463,0.277-0.496c0.237-0.1,0.749,0.051,0.972,0.256c0.726,0.694,0.009,1.512-0.288,1.467
			C45.585,9.168,45.948,8.225,46.034,7.955z"/>
	</g>
	<g>
		<path d="M51.812,10.101c0.42-0.229,0.846-0.34,1.118-0.306c1.246,0.344,1.604,1.364,1.458,2.8
			c-0.044,0.437-0.739,3.444-0.828,3.863c-0.108,0.294-0.105,0.329-0.246,0.395c-1.104,0.311-1.425-0.629-1.474-0.814
			c-0.076-0.245,0.064-0.763,0.403-2.128c0.314-1.439,0.555-1.77,0.366-2.074c-1.005-0.271-2.252,2.599-2.765,3.396
			c-0.382,0.578-0.517,0.578-0.894,0.557c-0.817-0.236-0.839-0.629-0.887-0.814c-0.049-0.186,1.794-5.162,1.969-5.315
			c0.272-0.284,1.059-0.01,1.309,0.535C51.423,10.291,51.409,10.286,51.812,10.101z"/>
	</g>
	<g>
		<path d="M59.059,13.287c0.776-0.271,1.055-0.344,1.422-0.308c0.352,0.065,0.861,0.312,1.096,0.617
			c0.357,0.416,0.355,0.781,0.05,1.018c-0.14,0.072-0.16,0.079-0.065,0.317c0.16,0.426-0.115,0.781-0.334,1.233
			c-0.524,1.193-0.626,1.476-0.987,3.271c-0.037,0.366-0.097,0.599-0.18,0.663c-0.159,0.22-0.744,0.024-1.1-0.287
			c-0.229-0.25-0.287-0.418-0.256-1.204c0.041-0.085,0.04-0.19-0.003-0.211c0,0-0.132,0.093-0.292,0.208
			c-0.396,0.314-0.892,0.511-1.258,0.474c-0.583,0.015-1.213-0.446-1.441-0.696c-0.336-0.458-0.562-1.004-0.345-1.49
			C56.518,14.361,58.639,13.434,59.059,13.287z M56.989,17.432c1.74-0.031,2.939-2.801,2.939-2.801s-0.169,0.023-0.357,0.124
			c-0.433,0.175-1.162,0.781-1.569,1.229c-0.139,0.178-0.319,0.334-0.382,0.356C57.439,16.498,56.883,17.433,56.989,17.432z"/>
	</g>
</g>
</svg>
