<?xml version="1.0" encoding="utf-8"?>
<!-- Generator: Adobe Illustrator 16.0.0, SVG Export Plug-In . SVG Version: 6.00 Build 0)  -->
<!DOCTYPE svg PUBLIC "-//W3C//DTD SVG 1.1//EN" "http://www.w3.org/Graphics/SVG/1.1/DTD/svg11.dtd">
<svg version="1.1" id="Layer_1" xmlns="http://www.w3.org/2000/svg" xmlns:xlink="http://www.w3.org/1999/xlink" x="0px" y="0px"
	 width="711.56px" height="314.753px" viewBox="0 0 711.56 314.753" enable-background="new 0 0 711.56 314.753"
	 xml:space="preserve">
<g>
	<path fill="#007C32" d="M268.963,62.812c51.101,0,85.913,39.765,85.913,84.908c0,46.141-39.327,84.752-86.69,83.416
		c-18.21-0.507-36.673-7.939-48.655-17.275v82.577c-0.14,11.502-7.599,18.314-16.839,18.314c-10.009,0-16.838-8.288-16.838-18.314
		V144.761C185.854,100.148,222.569,62.812,268.963,62.812 M269.417,95.092c-29.878,0-53.441,23.826-53.441,53.109
		c0,29.695,23.528,53.547,53.441,53.547c29.52,0,54.429-23.887,54.429-53.547C323.846,118.943,298.92,95.092,269.417,95.092"/>
	<path fill="#007C32" d="M35.145,169.049c5.284,15.607,25.275,31.703,47.136,31.643c12.367-0.044,24.69-2.76,36.394-10.865
		c18.533-12.838,34.175,10.445,20.122,22.314c-14.576,11.913-37.118,19.258-57.145,19.031C34.542,230.647,0,192.438,0,146.508
		c0-45.022,36.228-82.464,81.826-83.678c34.245-0.943,60.01,19.703,71.966,40.821c11.991,21.274,15.336,54.245-16.454,54.384H40.874
		C31.835,158.035,33.607,164.464,35.145,169.049 M82.971,92.341c-19.563,0.263-38.839,11.729-46.498,28.079
		c-2.306,4.935,0.62,9.24,5.991,9.24h80.751c5.38,0,6.341-5.477,3.809-10.323C119.032,103.939,103.093,92.236,82.971,92.341"/>
	<path fill="#007C32" d="M651.682,31.406c0,15.764,12.777,28.559,28.542,28.559c15.772,0,28.559-12.795,28.559-28.559
		c0-15.765-12.786-28.551-28.559-28.551C664.459,2.855,651.682,15.642,651.682,31.406 M648.809,31.38
		c0-17.327,14.053-31.38,31.38-31.38c17.328,0,31.371,14.053,31.371,31.38s-14.043,31.38-31.371,31.38
		C662.861,62.76,648.809,48.707,648.809,31.38"/>
	<path fill="#007C32" d="M669.149,46.908h4.209V33.214h4.699l7.922,13.694h5.257l-8.82-14.175c4.698-0.515,7.615-4.253,7.615-8.21
		c0-3.912-2.009-8.689-9.947-8.689h-10.935V46.908z M673.358,19.52h5.529c3.336,0,6.681,0.777,6.681,5.004
		c0,4.219-3.345,5.014-6.681,5.014h-5.529"/>
	<path fill="#9AC331" d="M491.619,180.027v-39.459c0-21.773-17.624-39.441-39.424-39.441c-20.55,0-39.44,16.394-39.44,39.441v39.38
		c-0.035,10.254-8.385,18.56-18.638,18.56c-10.245,0-19.031-8.332-18.568-18.56l0.201-36.594
		c1.258-54.088,39.86-78.97,76.097-79.939c24.917,0.009,45.004,10.777,57.852,27.048c16.673-20.576,39.703-27.624,57.983-27.624
		c45.258,0,78.908,38.961,80.673,84.105c1.59,40.507-14.699,108.105-101.145,141.966c-13.084,3.887-25.267-6.166-24.158-18.472
		c0.611-6.777,4.018-14.673,15.066-17.825c71.311-20.342,78.567-85.791,75.249-108.324c-3.642-24.708-18.228-42.734-44.743-43.153
		c-22.978-0.366-40.733,17.441-40.751,39.433v39.468c0.113,10.428-8.096,18.472-18.184,18.472
		C499.82,198.508,491.191,190.639,491.619,180.027"/>
</g>
</svg>
